<svg width="146" height="48" viewBox="0 0 146 48" fill="none" xmlns="http://www.w3.org/2000/svg">
<path d="M23.2465 28.7316H14.8733C14.8733 28.6383 14.8733 28.565 14.8733 28.485C14.8733 27.345 14.8733 26.205 14.8733 25.065C14.8733 24.5117 14.4799 24.105 13.9666 24.0984C13.4533 24.0984 13.0533 24.485 13.0533 25.005C13.0533 26.1583 13.0533 27.3117 13.0533 28.465C13.0533 28.545 13.0533 28.6316 13.0533 28.745C12.8466 28.745 12.66 28.7316 12.4733 28.745C12.0733 28.7783 11.6666 28.7783 11.2866 28.885C10.1733 29.1983 9.36666 30.2516 9.34 31.4049C9.32666 31.9383 9.32 32.4849 9.40666 33.0116C9.55999 33.9316 10.14 34.5649 10.9733 34.9582C11.1466 35.0382 11.2 35.1316 11.2 35.3182C11.1933 36.8782 11.1933 38.4448 11.2 40.0048C11.2066 41.9581 12.5733 43.7781 14.4466 44.3381C14.5866 44.3781 14.7333 44.4114 14.8866 44.4514V47.3447C14.8133 47.3447 14.7466 47.3581 14.6733 47.3581C12.3066 47.3581 9.93999 47.3581 7.57335 47.3581C6.17337 47.3581 5.06672 46.5047 4.74672 45.1781C4.69339 44.9514 4.68005 44.7048 4.68005 44.4648C4.68005 38.0515 4.68005 31.6449 4.68005 25.2317C4.68005 25.0984 4.72005 25.0184 4.82672 24.945C9.51999 21.8051 14.2133 18.6651 18.9065 15.5185C19.0399 15.4318 19.1199 15.4451 19.2465 15.5251C22.5998 17.7784 25.9598 20.0317 29.3131 22.2784C30.6397 23.165 31.9597 24.0517 33.2864 24.9317C33.4064 25.0117 33.4597 25.0917 33.4597 25.245C33.4597 31.6449 33.4464 38.0382 33.4597 44.4381C33.4597 45.7848 32.5864 46.9647 31.3064 47.2647C31.0597 47.3247 30.8064 47.3514 30.5531 47.3514C28.1864 47.3514 25.8198 47.3514 23.4532 47.3581C23.2798 47.3581 23.2198 47.3247 23.2198 47.1381C23.2332 46.3114 23.2265 45.4781 23.2198 44.6514C23.2198 44.5048 23.2598 44.4381 23.4065 44.3981C25.2531 43.9314 26.5998 42.4448 26.8798 40.5648C26.9131 40.3382 26.9264 40.0982 26.9264 39.8648C26.9264 38.3248 26.9264 36.7782 26.9264 35.2382C26.9264 35.1116 26.9664 35.0449 27.0798 34.9916C28.1398 34.5116 28.7131 33.6849 28.7798 32.5316C28.8131 31.9383 28.8398 31.3383 28.6664 30.7583C28.3531 29.6783 27.3464 28.745 25.9465 28.7516C25.7331 28.7516 25.5198 28.7383 25.3065 28.7516C25.1198 28.765 25.0665 28.7116 25.0665 28.5183C25.0731 27.3717 25.0665 26.225 25.0665 25.0783C25.0665 24.6717 24.9065 24.365 24.5265 24.1917C23.9331 23.9184 23.2465 24.3517 23.2398 25.005C23.2398 26.165 23.2398 27.325 23.2398 28.485C23.2398 28.565 23.2398 28.6383 23.2398 28.7383L23.2465 28.7316Z" fill="white"/>
<path d="M19.0599 33.3982C16.7599 33.3982 14.4599 33.3982 12.1599 33.3982C11.5666 33.3982 11.1866 33.0382 11.1666 32.4449C11.1533 32.1249 11.1533 31.8116 11.1666 31.4916C11.1866 30.9649 11.5866 30.5849 12.1133 30.5849C16.7465 30.5849 21.3798 30.5849 26.0131 30.5849C26.5264 30.5849 26.9264 30.9649 26.9464 31.4783C26.9598 31.8116 26.9598 32.1516 26.9464 32.4916C26.9331 33.0116 26.5264 33.3982 25.9998 33.3982C23.6865 33.3982 21.3732 33.3982 19.0599 33.3982Z" fill="white"/>
<path d="M0.506786 22.565C0.486786 22.0384 0.77345 21.6184 1.26011 21.2917C3.99341 19.4717 6.72004 17.6384 9.44667 15.8118C12.58 13.7185 15.7133 11.6185 18.8399 9.51854C18.9999 9.41187 19.0999 9.40521 19.2599 9.51854C22.6065 11.7652 25.9598 14.0118 29.3131 16.2585C31.8131 17.9318 34.3197 19.6117 36.8197 21.2784C37.1597 21.5051 37.4263 21.7917 37.533 22.1917C37.6997 22.825 37.5797 23.3984 37.0863 23.8384C36.5797 24.2917 35.8797 24.3784 35.2997 24.0517C34.833 23.785 34.393 23.4717 33.9464 23.1784C29.1998 20.0051 24.4532 16.8251 19.7065 13.6518C19.2399 13.3385 18.8666 13.3385 18.3932 13.6518C15.5399 15.5585 12.6866 17.4651 9.83334 19.3784C7.57336 20.8917 5.31339 22.405 3.05342 23.9184C2.50009 24.2917 1.9201 24.3784 1.31344 24.0584C0.766783 23.7584 0.493452 23.285 0.500119 22.5784L0.506786 22.565Z" fill="white"/>
<path d="M21.9198 7.65856C22.1931 7.2519 22.4531 6.85857 22.7264 6.47191C22.7397 6.45191 22.8664 6.47191 22.9131 6.50524C23.7397 7.05857 24.5664 7.61189 25.393 8.16522C28.0663 9.9652 30.733 11.7652 33.4063 13.5585C34.9996 14.6318 36.5929 15.7051 38.1862 16.7784C38.2329 16.8118 38.2796 16.8451 38.3462 16.8918C38.0662 17.3051 37.7929 17.7118 37.4996 18.1451C32.313 14.6518 27.1264 11.1652 21.9131 7.65189L21.9198 7.65856Z" fill="white"/>
<path d="M34.2397 18.7851C33.693 18.7851 33.233 18.3184 33.2464 17.7784C33.2597 17.2251 33.713 16.7851 34.2597 16.7851C34.7997 16.7851 35.2663 17.2518 35.2597 17.7918C35.2597 18.3451 34.7997 18.7918 34.2397 18.7918V18.7851Z" fill="white"/>
<path d="M22.2865 10.5119C22.2865 9.95187 22.7198 9.51187 23.2731 9.50521C23.8264 9.50521 24.2798 9.93853 24.2864 10.4852C24.2931 11.0385 23.8398 11.4985 23.2798 11.4985C22.7198 11.4985 22.2798 11.0652 22.2798 10.5052L22.2865 10.5119Z" fill="white"/>
<path d="M13.0266 35.2382H13.2866C17.1332 35.2382 20.9865 35.2382 24.8331 35.2382C25.0153 35.2382 25.1064 35.3293 25.1064 35.5116C25.1064 36.9382 25.1064 38.3649 25.1064 39.7915C25.1064 41.2048 24.2398 42.3181 22.8998 42.6315C22.6864 42.6781 22.4664 42.6981 22.2465 42.6981C20.1265 42.6981 18.0065 42.6981 15.8865 42.6981C14.2799 42.6981 13.0466 41.5248 13.0132 39.9248C12.9866 38.4049 13.0066 36.8782 13.0132 35.3582C13.0132 35.3316 13.0132 35.3049 13.0266 35.2449V35.2382Z" fill="white"/>
<path d="M21.3732 44.5514V47.3514C21.3065 47.3514 21.2398 47.3647 21.1665 47.3647C19.7599 47.3647 18.3532 47.3647 16.9466 47.3647C16.7732 47.3647 16.7266 47.3181 16.7266 47.1447C16.7332 46.3447 16.7266 45.5514 16.7266 44.7514C16.7266 44.6848 16.7266 44.6248 16.7266 44.5514H21.3732Z" fill="white"/>
<path d="M41.2796 9.7252C39.5862 9.73187 38.1663 8.34522 38.1263 6.69857C38.0929 5.0386 39.3462 3.45861 41.2796 3.45861C43.0862 3.45861 44.3795 4.8986 44.3995 6.50525C44.4262 8.31189 43.0462 9.71854 41.2729 9.7252H41.2796Z" fill="white"/>
<path d="M36.5196 6.20525C36.6729 6.20525 36.8329 6.20525 36.9863 6.20525C37.2529 6.21191 37.4329 6.37191 37.4329 6.59191C37.4329 6.8119 37.2529 6.97857 36.9929 6.98524C36.6729 6.98524 36.3596 6.98524 36.0396 6.98524C35.7729 6.98524 35.5996 6.82524 35.5996 6.59857C35.5996 6.36524 35.7663 6.21858 36.0329 6.20525C36.0329 6.20525 36.0463 6.20525 36.0529 6.20525C36.2063 6.20525 36.3663 6.20525 36.5196 6.20525Z" fill="white"/>
<path d="M46.0195 6.98524C45.8528 6.98524 45.6795 6.98524 45.5128 6.98524C45.2728 6.97191 45.1062 6.81191 45.0995 6.60525C45.0995 6.39191 45.2662 6.21192 45.5128 6.21192C45.8461 6.20525 46.1861 6.20525 46.5195 6.21192C46.7661 6.21192 46.9261 6.37858 46.9261 6.59191C46.9261 6.81191 46.7661 6.97191 46.5128 6.99191C46.4995 6.99191 46.4861 6.99191 46.4728 6.99191C46.3195 6.99191 46.1595 6.99191 46.0061 6.99191L46.0195 6.98524Z" fill="white"/>
<path d="M38.6663 9.6452C38.6396 9.69187 38.5996 9.79854 38.533 9.87187C38.2996 10.1185 38.0596 10.3519 37.8196 10.5852C37.6396 10.7585 37.4263 10.7652 37.2663 10.6119C37.113 10.4652 37.1063 10.2319 37.2663 10.0585C37.5063 9.8052 37.753 9.55854 38.0063 9.31854C38.1263 9.20521 38.273 9.15854 38.433 9.23188C38.5796 9.30521 38.6596 9.41854 38.6663 9.6452Z" fill="white"/>
<path d="M43.8795 3.54528C43.9062 3.50528 43.9462 3.39862 44.0129 3.31862C44.2462 3.07195 44.4795 2.83862 44.7262 2.60529C44.9062 2.43196 45.1195 2.43196 45.2795 2.58529C45.4328 2.73196 45.4328 2.97195 45.2728 3.13862C45.0328 3.39195 44.7795 3.63861 44.5328 3.87861C44.4128 3.99861 44.2662 4.03194 44.1062 3.95861C43.9595 3.89194 43.8795 3.77195 43.8862 3.53861L43.8795 3.54528Z" fill="white"/>
<path d="M38.6996 3.65861C38.6196 3.75195 38.5596 3.89861 38.4529 3.93861C38.3396 3.98527 38.1462 3.97861 38.0662 3.91194C37.7662 3.65861 37.4929 3.37195 37.2262 3.08529C37.0929 2.94529 37.1329 2.70529 37.2729 2.57862C37.4196 2.44529 37.6196 2.43196 37.7662 2.57196C38.0462 2.83196 38.3129 3.10529 38.5729 3.37862C38.6262 3.43861 38.6462 3.53861 38.6996 3.66528V3.65861Z" fill="white"/>
<path d="M45.4195 10.3719C45.3395 10.4719 45.2795 10.5985 45.1728 10.6719C45.0461 10.7719 44.8861 10.7452 44.7795 10.6385C44.4928 10.3652 44.2128 10.0919 43.9461 9.8052C43.8128 9.6652 43.8461 9.44521 43.9861 9.31188C44.1261 9.17188 44.3261 9.13854 44.4728 9.27854C44.7595 9.54521 45.0328 9.83187 45.3061 10.1119C45.3528 10.1652 45.3661 10.2452 45.4195 10.3652V10.3719Z" fill="white"/>
<path d="M41.6463 1.83863C41.6463 2.01863 41.6463 2.19863 41.6463 2.37863C41.6463 2.59862 41.4796 2.75862 41.2663 2.75862C41.0529 2.75862 40.8929 2.59862 40.8929 2.37863C40.8929 2.0253 40.8929 1.6653 40.8929 1.31197C40.8929 1.07864 41.0396 0.945312 41.2729 0.945312C41.5063 0.945312 41.6396 1.08531 41.6463 1.31864C41.6463 1.31864 41.6463 1.33197 41.6463 1.33864C41.6463 1.50531 41.6463 1.67197 41.6463 1.8453V1.83863Z" fill="white"/>
<path d="M41.6463 11.3452C41.6463 11.5252 41.6463 11.7052 41.6463 11.8918C41.6463 12.1252 41.4996 12.2518 41.2596 12.2518C41.0329 12.2518 40.8996 12.1185 40.8929 11.8918C40.8929 11.5385 40.8929 11.1785 40.8929 10.8252C40.8929 10.5985 41.0529 10.4452 41.2729 10.4452C41.4929 10.4452 41.6396 10.5985 41.6463 10.8252C41.6463 10.9985 41.6463 11.1719 41.6463 11.3519V11.3452Z" fill="white"/>
<path d="M53.5861 32.9449L56.0061 36.0182C55.3794 36.6315 54.6394 37.1048 53.7928 37.4248C52.9461 37.7448 52.0461 37.9048 51.0795 37.9048C50.1128 37.9048 49.1995 37.7448 48.3328 37.4248C47.4662 37.1048 46.6995 36.6448 46.0395 36.0382C45.3795 35.4315 44.8529 34.6982 44.4595 33.8382C44.0662 32.9782 43.8662 31.9982 43.8662 30.9182C43.8662 29.8383 44.0662 28.8583 44.4595 27.9983C44.8529 27.1383 45.3862 26.3983 46.0528 25.7983C46.7195 25.1917 47.4862 24.7317 48.3528 24.4117C49.2195 24.0917 50.1328 23.9317 51.0795 23.9317C52.1394 23.9317 53.0928 24.1383 53.9394 24.545C54.7861 24.9517 55.4727 25.5183 55.9994 26.245L53.5794 28.8916C53.2861 28.5449 52.9261 28.2449 52.5061 27.985C52.0861 27.725 51.6128 27.5983 51.0795 27.5983C50.7128 27.5983 50.3461 27.6716 49.9861 27.8116C49.6261 27.9516 49.3128 28.165 49.0395 28.4516C48.7662 28.7383 48.5528 29.0849 48.3862 29.4983C48.2195 29.9116 48.1395 30.3916 48.1395 30.9316C48.1395 31.4716 48.2195 31.9516 48.3862 32.3649C48.5528 32.7782 48.7728 33.1249 49.0395 33.4116C49.3128 33.6982 49.6261 33.9115 49.9861 34.0515C50.3461 34.1915 50.7061 34.2649 51.0795 34.2649C51.6461 34.2649 52.1328 34.1515 52.5394 33.9315C52.9461 33.7115 53.2928 33.3916 53.5728 32.9716L53.5861 32.9449Z" fill="white"/>
<path d="M62.9993 23.9183C63.9592 23.9183 64.8792 24.0783 65.7459 24.3983C66.6125 24.7183 67.3792 25.1783 68.0392 25.785C68.6992 26.3916 69.2258 27.125 69.6192 27.985C70.0125 28.8449 70.2125 29.8249 70.2125 30.9049C70.2125 31.9849 70.0125 32.9649 69.6192 33.8249C69.2258 34.6849 68.6992 35.4249 68.0392 36.0248C67.3792 36.6315 66.6125 37.0915 65.7459 37.4115C64.8792 37.7315 63.9592 37.8915 62.9993 37.8915C62.0393 37.8915 61.1193 37.7315 60.2526 37.4115C59.386 37.0915 58.6193 36.6315 57.9593 36.0248C57.2993 35.4182 56.7727 34.6849 56.3793 33.8249C55.986 32.9649 55.786 31.9849 55.786 30.9049C55.7993 29.8183 55.9993 28.8449 56.3993 27.985C56.7927 27.125 57.3193 26.385 57.9793 25.785C58.6393 25.1783 59.3993 24.7183 60.266 24.3983C61.1259 24.0783 62.0393 23.9183 63.0059 23.9183H62.9993ZM60.0593 30.9116C60.0593 31.4516 60.1393 31.9316 60.306 32.3449C60.4726 32.7582 60.6926 33.1049 60.9593 33.3916C61.2326 33.6782 61.5459 33.8915 61.9059 34.0315C62.2659 34.1715 62.6259 34.2449 62.9993 34.2449C63.3726 34.2449 63.7459 34.1715 64.0992 34.0315C64.4526 33.8915 64.7592 33.6782 65.0326 33.3916C65.3059 33.1049 65.5259 32.7582 65.6926 32.3449C65.8592 31.9316 65.9392 31.4516 65.9392 30.9116C65.9392 30.3716 65.8592 29.8916 65.6926 29.4783C65.5259 29.0649 65.3059 28.7183 65.0326 28.4316C64.7592 28.1449 64.4526 27.9383 64.0992 27.7916C63.7459 27.6516 63.3792 27.5783 62.9993 27.5783C62.6193 27.5783 62.2659 27.6516 61.9059 27.7916C61.5459 27.9316 61.2326 28.1449 60.9593 28.4316C60.686 28.7183 60.4726 29.0649 60.306 29.4783C60.1393 29.8916 60.0593 30.3716 60.0593 30.9116Z" fill="white"/>
<path d="M71.8792 37.5715V24.2517H75.9858V29.0049H78.8124V24.2517H82.919V37.5715H78.8124V32.3382H75.9858V37.5715H71.8792Z" fill="white"/>
<path d="M85.5857 24.2517H89.6923V34.2382H92.5256V24.2517H96.6322V34.2382H97.9655V39.3448L94.4723 40.0648V37.5648H85.5924V24.245L85.5857 24.2517Z" fill="white"/>
<path d="M99.4588 37.5715V24.2517H108.412L107.692 27.5783H103.512V29.1716H107.359L106.672 32.3382H103.505V34.2449H108.405L107.685 37.5782H99.4521L99.4588 37.5715Z" fill="white"/>
<path d="M110.079 37.5715V24.2517H119.845L119.125 27.5783H114.132V29.2649H115.685C116.379 29.2649 117.019 29.3383 117.612 29.4783C118.205 29.6183 118.719 29.8516 119.159 30.1649C119.599 30.4783 119.939 30.8916 120.192 31.4049C120.445 31.9182 120.572 32.5516 120.572 33.2982C120.572 34.1115 120.445 34.7915 120.192 35.3449C119.939 35.8915 119.592 36.3315 119.159 36.6648C118.719 36.9982 118.205 37.2315 117.612 37.3648C117.019 37.4982 116.379 37.5715 115.685 37.5715H110.079ZM114.132 32.2649V34.4115H114.872C115.412 34.4115 115.799 34.3115 116.019 34.1182C116.239 33.9182 116.352 33.6515 116.352 33.3049C116.352 33.0182 116.239 32.7782 116.019 32.5716C115.799 32.3649 115.412 32.2649 114.872 32.2649H114.132Z" fill="white"/>
<path d="M133.165 24.2517L128.912 34.6315C128.492 35.6582 127.985 36.4582 127.385 37.0382C126.785 37.6182 125.972 37.9048 124.932 37.9048C124.392 37.9048 123.938 37.8715 123.578 37.8115C123.218 37.7515 122.905 37.6715 122.632 37.5715L123.518 34.2249C123.678 34.3249 123.878 34.4049 124.112 34.4715C124.345 34.5382 124.552 34.5715 124.725 34.5715C125.032 34.5715 125.232 34.4915 125.318 34.3249C125.405 34.1582 125.398 33.9782 125.298 33.7782L121.005 24.2517H125.205L127.332 29.6183L128.978 24.2517H133.165Z" fill="white"/>
<path d="M145.852 39.3448L142.358 40.0648V37.5648H135.678V40.0648L132.185 39.3448V34.2382H132.778C132.965 34.2382 133.132 34.1649 133.285 34.0249C133.438 33.8849 133.572 33.6915 133.685 33.4582C133.798 33.2249 133.885 32.9516 133.945 32.6449C134.005 32.3382 134.038 32.0116 134.038 31.6649V24.245H144.525V34.2315H145.858V39.3381L145.852 39.3448ZM140.412 27.5783H137.912V31.9649C137.912 32.6649 137.852 33.1782 137.738 33.4982C137.618 33.8182 137.478 34.0649 137.305 34.2382H140.412V27.5783Z" fill="white"/>
</svg>
