<svg width="42" height="43" viewBox="0 0 42 43" fill="none" xmlns="http://www.w3.org/2000/svg">
<path d="M36.75 13.5635V33.251C36.75 33.5991 36.6117 33.9329 36.3656 34.1791C36.1194 34.4252 35.7856 34.5635 35.4375 34.5635H6.5625C6.2144 34.5635 5.88056 34.4252 5.63442 34.1791C5.38828 33.9329 5.25 33.5991 5.25 33.251V13.5635C5.25 13.2154 5.38828 12.8815 5.63442 12.6354C5.88056 12.3893 6.2144 12.251 6.5625 12.251H35.4375C35.7856 12.251 36.1194 12.3893 36.3656 12.6354C36.6117 12.8815 36.75 13.2154 36.75 13.5635Z" fill="#FDE614"/>
<path d="M35.4375 10.9385H28.875C28.875 8.8499 28.0453 6.84686 26.5685 5.37001C25.0916 3.89316 23.0886 3.06348 21 3.06348C18.9114 3.06348 16.9084 3.89316 15.4315 5.37001C13.9547 6.84686 13.125 8.8499 13.125 10.9385H6.5625C5.86631 10.9385 5.19863 11.215 4.70634 11.7073C4.21406 12.1996 3.9375 12.8673 3.9375 13.5635V33.251C3.9375 33.9472 4.21406 34.6148 4.70634 35.1071C5.19863 35.5994 5.86631 35.876 6.5625 35.876H35.4375C36.1337 35.876 36.8014 35.5994 37.2937 35.1071C37.7859 34.6148 38.0625 33.9472 38.0625 33.251V13.5635C38.0625 12.8673 37.7859 12.1996 37.2937 11.7073C36.8014 11.215 36.1337 10.9385 35.4375 10.9385ZM21 5.68848C22.3924 5.68848 23.7277 6.2416 24.7123 7.22617C25.6969 8.21073 26.25 9.54609 26.25 10.9385H15.75C15.75 9.54609 16.3031 8.21073 17.2877 7.22617C18.2723 6.2416 19.6076 5.68848 21 5.68848ZM35.4375 33.251H6.5625V13.5635H13.125V16.1885C13.125 16.5366 13.2633 16.8704 13.5094 17.1166C13.7556 17.3627 14.0894 17.501 14.4375 17.501C14.7856 17.501 15.1194 17.3627 15.3656 17.1166C15.6117 16.8704 15.75 16.5366 15.75 16.1885V13.5635H26.25V16.1885C26.25 16.5366 26.3883 16.8704 26.6344 17.1166C26.8806 17.3627 27.2144 17.501 27.5625 17.501C27.9106 17.501 28.2444 17.3627 28.4906 17.1166C28.7367 16.8704 28.875 16.5366 28.875 16.1885V13.5635H35.4375V33.251Z" fill="#282828"/>
</svg>
