<svg width="42" height="43" viewBox="0 0 42 43" fill="none" xmlns="http://www.w3.org/2000/svg">
<path d="M39.3397 14.6491L33.2693 33.2505C33.2693 33.2505 28.8758 30.6255 21.0008 30.6255C13.1258 30.6255 8.73216 33.2505 8.73216 33.2505L2.66185 14.6507C2.61816 14.5242 2.6132 14.3876 2.6476 14.2583C2.682 14.1289 2.7542 14.0128 2.85496 13.9247C2.95572 13.8366 3.08046 13.7806 3.21323 13.7638C3.346 13.747 3.48077 13.7702 3.60029 13.8304L12.3629 18.1978C12.5147 18.2737 12.6897 18.2894 12.8527 18.242C13.0157 18.1946 13.1548 18.0874 13.2422 17.9418L20.4233 6.01613C20.4836 5.91808 20.5681 5.83711 20.6686 5.78096C20.7691 5.7248 20.8823 5.69531 20.9975 5.69531C21.1126 5.69531 21.2258 5.7248 21.3264 5.78096C21.4269 5.83711 21.5113 5.91808 21.5717 6.01613L28.7527 17.95C28.8404 18.0949 28.9792 18.2015 29.1417 18.2489C29.3043 18.2963 29.4787 18.281 29.6304 18.206L38.3963 13.8353C38.5154 13.7746 38.6499 13.7506 38.7826 13.7666C38.9153 13.7826 39.0403 13.8378 39.1415 13.9251C39.2428 14.0124 39.3157 14.1279 39.351 14.2569C39.3863 14.3858 39.3823 14.5224 39.3397 14.6491Z" fill="#FDE614"/>
<path d="M40.008 12.9387C39.7119 12.6805 39.3458 12.5162 38.9561 12.4665C38.5664 12.4169 38.1708 12.4841 37.8194 12.6598L29.5818 16.7613L22.7043 5.33767C22.5275 5.04453 22.278 4.80205 21.9799 4.63372C21.6818 4.4654 21.3453 4.37695 21.003 4.37695C20.6607 4.37695 20.3241 4.4654 20.0261 4.63372C19.728 4.80205 19.4784 5.04453 19.3017 5.33767L12.4242 16.7663L4.18986 12.6647C3.83932 12.4906 3.44518 12.4239 3.05689 12.473C2.6686 12.5221 2.30346 12.6848 2.00729 12.9407C1.71112 13.1965 1.49712 13.5342 1.39214 13.9112C1.28716 14.2883 1.29588 14.6879 1.4172 15.06L7.48751 33.6581C7.54855 33.845 7.65077 34.0157 7.78662 34.1578C7.92248 34.2998 8.08851 34.4095 8.27244 34.4788C8.45638 34.5481 8.65353 34.5752 8.84935 34.5581C9.04516 34.541 9.23463 34.4801 9.40376 34.38C9.44478 34.3554 13.6399 31.9388 21.003 31.9388C28.3661 31.9388 32.5612 34.3554 32.5989 34.3784C32.7681 34.4795 32.9579 34.5412 33.1542 34.5589C33.3505 34.5766 33.5483 34.5498 33.7329 34.4806C33.9174 34.4115 34.084 34.3016 34.2203 34.1592C34.3566 34.0168 34.4591 33.8455 34.5201 33.6581L40.5904 15.0649C40.7152 14.6927 40.7265 14.2918 40.6228 13.9132C40.5191 13.5345 40.305 13.1953 40.008 12.9387ZM32.4874 31.4187C30.5186 30.5836 26.5942 29.3138 21.003 29.3138C15.4117 29.3138 11.4874 30.5836 9.51861 31.4187L4.38509 15.6966L11.7794 19.3831C12.227 19.6038 12.741 19.6489 13.2201 19.5095C13.6993 19.3701 14.1089 19.0564 14.3683 18.63L21.003 7.60173L27.6377 18.6267C27.8973 19.0524 28.3066 19.3656 28.7853 19.505C29.264 19.6443 29.7775 19.5996 30.2249 19.3798L37.6209 15.6966L32.4874 31.4187ZM28.8567 26.1687C28.8031 26.4723 28.6443 26.7474 28.4082 26.9457C28.1722 27.144 27.8738 27.2528 27.5655 27.2531C27.4885 27.253 27.4117 27.2464 27.3358 27.2335C23.1435 26.5138 18.8592 26.5138 14.6669 27.2335C14.324 27.2939 13.9712 27.2157 13.6859 27.016C13.4007 26.8164 13.2065 26.5116 13.146 26.1687C13.0855 25.8258 13.1638 25.4729 13.3634 25.1877C13.5631 24.9025 13.8679 24.7083 14.2108 24.6478C18.7049 23.8756 23.2978 23.8756 27.7919 24.6478C28.1341 24.7079 28.4385 24.9012 28.6384 25.1854C28.8383 25.4696 28.9174 25.8214 28.8583 26.1638L28.8567 26.1687Z" fill="#282828"/>
</svg>
