<svg width="42" height="43" viewBox="0 0 42 43" fill="none" xmlns="http://www.w3.org/2000/svg">
<path d="M39.375 28.001V30.626H28.875V28.001C28.875 25.9124 28.0453 23.9094 26.5685 22.4325C25.0916 20.9557 23.0886 20.126 21 20.126C18.9114 20.126 16.9084 20.9557 15.4315 22.4325C13.9547 23.9094 13.125 25.9124 13.125 28.001V30.626H2.625V28.001C2.625 23.1276 4.56093 18.4539 8.00691 15.0079C11.4529 11.5619 16.1266 9.62598 21 9.62598C25.8734 9.62598 30.5471 11.5619 33.9931 15.0079C37.4391 18.4539 39.375 23.1276 39.375 28.001Z" fill="#FDE614"/>
<path d="M30.1875 28.001V30.626C30.1875 30.9741 30.0492 31.3079 29.8031 31.5541C29.5569 31.8002 29.2231 31.9385 28.875 31.9385C28.5269 31.9385 28.1931 31.8002 27.9469 31.5541C27.7008 31.3079 27.5625 30.9741 27.5625 30.626V28.001C27.5625 26.2605 26.8711 24.5913 25.6404 23.3606C24.4097 22.1299 22.7405 21.4385 21 21.4385C19.2595 21.4385 17.5903 22.1299 16.3596 23.3606C15.1289 24.5913 14.4375 26.2605 14.4375 28.001V30.626C14.4375 30.9741 14.2992 31.3079 14.0531 31.5541C13.8069 31.8002 13.4731 31.9385 13.125 31.9385C12.7769 31.9385 12.4431 31.8002 12.1969 31.5541C11.9508 31.3079 11.8125 30.9741 11.8125 30.626V28.001C11.8125 25.5643 12.7805 23.2274 14.5035 21.5044C16.2264 19.7814 18.5633 18.8135 21 18.8135C23.4367 18.8135 25.7736 19.7814 27.4965 21.5044C29.2195 23.2274 30.1875 25.5643 30.1875 28.001ZM21 13.5635C17.1723 13.5678 13.5026 15.0903 10.7959 17.7969C8.08933 20.5035 6.56684 24.1732 6.5625 28.001V30.626C6.5625 30.9741 6.70078 31.3079 6.94692 31.5541C7.19306 31.8002 7.5269 31.9385 7.875 31.9385C8.2231 31.9385 8.55694 31.8002 8.80308 31.5541C9.04922 31.3079 9.1875 30.9741 9.1875 30.626V28.001C9.1875 24.8681 10.432 21.8636 12.6473 19.6483C14.8626 17.433 17.8671 16.1885 21 16.1885C24.1329 16.1885 27.1374 17.433 29.3527 19.6483C31.568 21.8636 32.8125 24.8681 32.8125 28.001V30.626C32.8125 30.9741 32.9508 31.3079 33.1969 31.5541C33.4431 31.8002 33.7769 31.9385 34.125 31.9385C34.4731 31.9385 34.8069 31.8002 35.0531 31.5541C35.2992 31.3079 35.4375 30.9741 35.4375 30.626V28.001C35.4332 24.1732 33.9107 20.5035 31.2041 17.7969C28.4974 15.0903 24.8277 13.5678 21 13.5635ZM21 8.31348C15.7803 8.31912 10.776 10.3951 7.08507 14.086C3.39417 17.7769 1.31815 22.7813 1.3125 28.001V30.626C1.3125 30.9741 1.45078 31.3079 1.69692 31.5541C1.94306 31.8002 2.2769 31.9385 2.625 31.9385C2.9731 31.9385 3.30694 31.8002 3.55308 31.5541C3.79922 31.3079 3.9375 30.9741 3.9375 30.626V28.001C3.9375 23.4757 5.73515 19.1358 8.93499 15.936C12.1348 12.7361 16.4747 10.9385 21 10.9385C25.5253 10.9385 29.8652 12.7361 33.065 15.936C36.2649 19.1358 38.0625 23.4757 38.0625 28.001V30.626C38.0625 30.9741 38.2008 31.3079 38.4469 31.5541C38.6931 31.8002 39.0269 31.9385 39.375 31.9385C39.7231 31.9385 40.0569 31.8002 40.3031 31.5541C40.5492 31.3079 40.6875 30.9741 40.6875 30.626V28.001C40.6819 22.7813 38.6058 17.7769 34.9149 14.086C31.224 10.3951 26.2197 8.31912 21 8.31348Z" fill="#282828"/>
</svg>
