<svg width="706" height="64" viewBox="0 0 706 64" fill="none" xmlns="http://www.w3.org/2000/svg">
<path d="M606.018 43.4814C605.965 42.0905 606.723 40.9813 608.008 40.1186C615.231 35.3121 622.435 30.4704 629.64 25.6463C637.919 20.118 646.198 14.572 654.459 9.02603C654.882 8.74433 655.146 8.72673 655.569 9.02603C664.411 14.9593 673.272 20.8926 682.132 26.8259C688.738 31.2451 695.361 35.6819 701.966 40.0834C702.865 40.682 703.569 41.4391 703.851 42.4954C704.292 44.168 703.975 45.6822 702.671 46.8442C701.332 48.0414 699.483 48.2703 697.95 47.4076C696.717 46.7033 695.555 45.8758 694.374 45.1012C681.833 36.7206 669.291 28.3224 656.749 19.9419C655.516 19.1144 654.529 19.1144 653.279 19.9419C645.74 24.9773 638.2 30.0127 630.661 35.0656C624.69 39.0622 618.718 43.0589 612.747 47.0555C611.285 48.0414 609.752 48.2703 608.149 47.4252C606.705 46.6329 605.983 45.3829 606 43.5166L606.018 43.4814Z" fill="#FDE614"/>
<path d="M662.597 4.11397C663.319 3.03999 664.006 2.00122 664.728 0.980057C664.763 0.927238 665.098 0.980062 665.221 1.06809C667.406 2.52941 669.59 3.99072 671.774 5.45204C678.838 10.2057 685.884 14.9594 692.947 19.6955C697.157 22.5301 701.367 25.3647 705.577 28.1993C705.7 28.2873 705.824 28.3753 706 28.4986C705.26 29.5902 704.538 30.6641 703.763 31.8085C690.058 22.5829 676.354 13.3748 662.579 4.09636L662.597 4.11397Z" fill="#FDE614"/>
<path d="M695.149 33.4987C693.704 33.4987 692.489 32.2662 692.524 30.8401C692.559 29.3788 693.757 28.2168 695.202 28.2168C696.628 28.2168 697.862 29.4492 697.844 30.8753C697.844 32.3366 696.628 33.5163 695.149 33.5163V33.4987Z" fill="#FDE614"/>
<path d="M663.566 11.6495C663.566 10.1706 664.711 9.00857 666.173 8.99097C667.635 8.99097 668.833 10.1354 668.851 11.5791C668.869 13.0404 667.671 14.2552 666.191 14.2552C664.711 14.2552 663.549 13.1108 663.549 11.6319L663.566 11.6495Z" fill="#FDE614"/>
<rect y="55.9453" width="706" height="8" rx="4" fill="#FDE614"/>
</svg>
