<svg width="24" height="24" viewBox="0 0 24 24" fill="none" xmlns="http://www.w3.org/2000/svg">
<path d="M15.397 19.1024C15.4523 19.1539 15.4966 19.216 15.5273 19.285C15.5581 19.354 15.5746 19.4285 15.5759 19.504C15.5773 19.5795 15.5634 19.6545 15.5351 19.7246C15.5068 19.7946 15.4647 19.8582 15.4113 19.9117C15.3579 19.9651 15.2942 20.0072 15.2242 20.0355C15.1542 20.0638 15.0791 20.0777 15.0036 20.0763C14.9281 20.075 14.8536 20.0585 14.7846 20.0277C14.7156 19.997 14.6535 19.9527 14.602 19.8974L7.10201 12.3974C6.99667 12.2919 6.9375 12.1489 6.9375 11.9999C6.9375 11.8508 6.99667 11.7079 7.10201 11.6024L14.602 4.10238C14.7086 4.00302 14.8497 3.94893 14.9954 3.9515C15.1411 3.95407 15.2802 4.01311 15.3832 4.11617C15.4863 4.21923 15.5453 4.35827 15.5479 4.50399C15.5505 4.64972 15.4964 4.79075 15.397 4.89739L8.29544 11.9999L15.397 19.1024Z" fill="#282828"/>
</svg>
