<svg width="16" height="17" viewBox="0 0 16 17" fill="none" xmlns="http://www.w3.org/2000/svg">
<path d="M13.5 4.95801H8.20687L6.5 3.25114C6.40744 3.15793 6.29729 3.08403 6.17595 3.03371C6.05461 2.98339 5.92449 2.95766 5.79313 2.95801H2.5C2.23478 2.95801 1.98043 3.06337 1.79289 3.2509C1.60536 3.43844 1.5 3.69279 1.5 3.95801V12.9968C1.5005 13.2517 1.60202 13.496 1.78231 13.6761C1.96261 13.8563 2.20698 13.9577 2.46187 13.958H13.5556C13.806 13.9577 14.046 13.8581 14.223 13.681C14.4001 13.504 14.4997 13.264 14.5 13.0136V5.95801C14.5 5.69279 14.3946 5.43844 14.2071 5.2509C14.0196 5.06337 13.7652 4.95801 13.5 4.95801ZM2.5 3.95801H5.79313L6.79313 4.95801H2.5V3.95801Z" fill="#686100"/>
</svg>
