<svg width="24" height="25" viewBox="0 0 24 25" fill="none" xmlns="http://www.w3.org/2000/svg">
<path d="M19.7655 10.2235L12.2655 17.7235C12.2307 17.7584 12.1893 17.7861 12.1438 17.8049C12.0983 17.8238 12.0495 17.8335 12.0002 17.8335C11.9509 17.8335 11.9021 17.8238 11.8566 17.8049C11.8111 17.7861 11.7697 17.7584 11.7349 17.7235L4.2349 10.2235C4.20005 10.1887 4.17242 10.1473 4.15356 10.1018C4.1347 10.0563 4.125 10.0075 4.125 9.95822C4.125 9.90894 4.1347 9.86015 4.15356 9.81463C4.17242 9.76911 4.20005 9.72775 4.2349 9.6929C4.30526 9.62254 4.4007 9.58301 4.50021 9.58301C4.54948 9.58301 4.59827 9.59271 4.64379 9.61157C4.68932 9.63043 4.73068 9.65806 4.76552 9.6929L12.0002 16.9276L19.2349 9.6929C19.2697 9.65806 19.3111 9.63043 19.3566 9.61157C19.4021 9.59271 19.4509 9.58301 19.5002 9.58301C19.5495 9.58301 19.5983 9.59271 19.6438 9.61157C19.6893 9.63043 19.7307 9.65806 19.7655 9.6929C19.8004 9.72775 19.828 9.76911 19.8469 9.81463C19.8657 9.86015 19.8754 9.90894 19.8754 9.95822C19.8754 10.0075 19.8657 10.0563 19.8469 10.1018C19.828 10.1473 19.8004 10.1887 19.7655 10.2235Z" fill="#282828"/>
</svg>
