<svg width="16" height="17" viewBox="0 0 16 17" fill="none" xmlns="http://www.w3.org/2000/svg">
<path d="M8 1.95801C6.71442 1.95801 5.45772 2.33923 4.3888 3.05346C3.31988 3.76768 2.48676 4.78285 1.99479 5.97057C1.50282 7.15829 1.37409 8.46522 1.6249 9.7261C1.8757 10.987 2.49477 12.1452 3.40381 13.0542C4.31285 13.9632 5.47104 14.5823 6.73192 14.8331C7.99279 15.0839 9.29973 14.9552 10.4874 14.4632C11.6752 13.9713 12.6903 13.1381 13.4046 12.0692C14.1188 11.0003 14.5 9.74359 14.5 8.45801C14.4982 6.73466 13.8128 5.08242 12.5942 3.86382C11.3756 2.64523 9.72335 1.95983 8 1.95801ZM13.4769 7.95801H10.9875C10.8994 6.17926 10.3456 4.49113 9.4175 3.14551C10.5045 3.43734 11.4761 4.05491 12.2018 4.91522C12.9275 5.77554 13.3725 6.83736 13.4769 7.95801ZM6.01438 8.95801H9.98563C9.88063 10.8874 9.17313 12.6843 8 13.9511C6.82938 12.6843 6.11938 10.8874 6.01438 8.95801ZM6.01438 7.95801C6.11938 6.02863 6.82688 4.23176 8 2.96488C9.17063 4.23176 9.88063 6.02738 9.98563 7.95801H6.01438ZM9.4175 13.7705C10.3456 12.423 10.8994 10.7349 10.9875 8.95801H13.4769C13.3725 10.0787 12.9275 11.1405 12.2018 12.0008C11.4761 12.8611 10.5045 13.4787 9.4175 13.7705Z" fill="#686100"/>
</svg>
