<svg width="24" height="25" viewBox="0 0 24 25" fill="none" xmlns="http://www.w3.org/2000/svg">
<path d="M11.8141 13.2361V19.2361C11.8141 19.3853 11.7548 19.5284 11.6493 19.6339C11.5439 19.7394 11.4008 19.7986 11.2516 19.7986C11.1024 19.7986 10.9593 19.7394 10.8538 19.6339C10.7484 19.5284 10.6891 19.3853 10.6891 19.2361V14.5946L4.14909 21.1336C4.04246 21.233 3.90143 21.2871 3.7557 21.2845C3.60998 21.282 3.47094 21.2229 3.36788 21.1199C3.26482 21.0168 3.20578 20.8778 3.20321 20.732C3.20064 20.5863 3.25473 20.4453 3.35409 20.3386L9.89316 13.7986H5.25159C5.10241 13.7986 4.95934 13.7394 4.85385 13.6339C4.74836 13.5284 4.68909 13.3853 4.68909 13.2361C4.68909 13.087 4.74836 12.9439 4.85385 12.8384C4.95934 12.7329 5.10241 12.6736 5.25159 12.6736H11.2516C11.4008 12.6736 11.5439 12.7329 11.6493 12.8384C11.7548 12.9439 11.8141 13.087 11.8141 13.2361ZM19.5016 3.67365H7.50159C7.1535 3.67365 6.81966 3.81193 6.57352 4.05807C6.32737 4.30421 6.18909 4.63805 6.18909 4.98615V9.48615C6.18909 9.63533 6.24836 9.7784 6.35385 9.88389C6.45934 9.98938 6.60241 10.0486 6.75159 10.0486C6.90078 10.0486 7.04385 9.98938 7.14934 9.88389C7.25483 9.7784 7.31409 9.63533 7.31409 9.48615V4.98615C7.31409 4.93642 7.33385 4.88873 7.36901 4.85356C7.40417 4.8184 7.45187 4.79865 7.50159 4.79865H19.5016C19.5513 4.79865 19.599 4.8184 19.6342 4.85356C19.6693 4.88873 19.6891 4.93642 19.6891 4.98615V16.9861C19.6891 17.0359 19.6693 17.0836 19.6342 17.1187C19.599 17.1539 19.5513 17.1736 19.5016 17.1736H15.0016C14.8524 17.1736 14.7093 17.2329 14.6038 17.3384C14.4984 17.4439 14.4391 17.587 14.4391 17.7361C14.4391 17.8853 14.4984 18.0284 14.6038 18.1339C14.7093 18.2394 14.8524 18.2986 15.0016 18.2986H19.5016C19.8497 18.2986 20.1835 18.1604 20.4297 17.9142C20.6758 17.6681 20.8141 17.3342 20.8141 16.9861V4.98615C20.8141 4.63805 20.6758 4.30421 20.4297 4.05807C20.1835 3.81193 19.8497 3.67365 19.5016 3.67365Z" fill="#282828"/>
</svg>
