<svg width="454" height="64" viewBox="0 0 454 64" fill="none" xmlns="http://www.w3.org/2000/svg">
<path d="M353.518 43.4677C353.465 42.0768 354.223 40.9676 355.508 40.1049C362.731 35.2984 369.935 30.4567 377.14 25.6326C385.419 20.1043 393.698 14.5583 401.959 9.01236C402.382 8.73066 402.646 8.71305 403.069 9.01236C411.911 14.9457 420.772 20.879 429.632 26.8122C436.238 31.2314 442.861 35.6682 449.466 40.0697C450.365 40.6683 451.069 41.4254 451.351 42.4818C451.792 44.1544 451.475 45.6685 450.171 46.8305C448.832 48.0277 446.983 48.2566 445.45 47.3939C444.217 46.6897 443.055 45.8622 441.874 45.0875C429.333 36.7069 416.791 28.3088 404.249 19.9282C403.016 19.1007 402.029 19.1007 400.779 19.9282C393.24 24.9636 385.7 29.999 378.161 35.052C372.19 39.0486 366.218 43.0452 360.247 47.0418C358.785 48.0277 357.252 48.2566 355.649 47.4115C354.205 46.6192 353.483 45.3692 353.5 43.5029L353.518 43.4677Z" fill="#FDE614"/>
<path d="M410.097 4.1003C410.819 3.02632 411.506 1.98755 412.228 0.966385C412.263 0.913566 412.598 0.96639 412.721 1.05442C414.906 2.51574 417.09 3.97705 419.274 5.43837C426.338 10.192 433.384 14.9457 440.447 19.6818C444.657 22.5164 448.867 25.351 453.077 28.1856C453.2 28.2736 453.324 28.3617 453.5 28.4849C452.76 29.5765 452.038 30.6505 451.263 31.7949C437.558 22.5692 423.854 13.3612 410.079 4.08269L410.097 4.1003Z" fill="#FDE614"/>
<path d="M442.649 33.485C441.204 33.485 439.989 32.2526 440.024 30.8265C440.059 29.3651 441.257 28.2031 442.702 28.2031C444.128 28.2031 445.362 29.4356 445.344 30.8617C445.344 32.323 444.128 33.5026 442.649 33.5026V33.485Z" fill="#FDE614"/>
<path d="M411.066 11.6358C411.066 10.1569 412.211 8.9949 413.673 8.97729C415.135 8.97729 416.333 10.1217 416.351 11.5654C416.369 13.0267 415.171 14.2415 413.691 14.2415C412.211 14.2415 411.049 13.0971 411.049 11.6182L411.066 11.6358Z" fill="#FDE614"/>
<rect x="0.5" y="55.9316" width="453" height="8" rx="4" fill="#FDE614"/>
</svg>
