<svg width="24" height="24" viewBox="0 0 24 24" fill="none" xmlns="http://www.w3.org/2000/svg">
<path d="M19.1471 18.3524C19.2024 18.4039 19.2467 18.466 19.2775 18.535C19.3082 18.604 19.3248 18.6785 19.3261 18.754C19.3274 18.8295 19.3135 18.9045 19.2852 18.9746C19.2569 19.0446 19.2148 19.1082 19.1614 19.1617C19.108 19.2151 19.0444 19.2572 18.9743 19.2855C18.9043 19.3138 18.8293 19.3277 18.7537 19.3263C18.6782 19.325 18.6037 19.3085 18.5347 19.2777C18.4657 19.247 18.4036 19.2027 18.3521 19.1474L11.9996 12.7958L5.64714 19.1474C5.54051 19.2467 5.39947 19.3008 5.25375 19.2983C5.10802 19.2957 4.96898 19.2367 4.86592 19.1336C4.76286 19.0305 4.70383 18.8915 4.70126 18.7458C4.69869 18.6001 4.75278 18.459 4.85214 18.3524L11.2037 11.9999L4.85214 5.64739C4.75278 5.54075 4.69869 5.39972 4.70126 5.25399C4.70383 5.10827 4.76286 4.96923 4.86592 4.86617C4.96898 4.76311 5.10802 4.70407 5.25375 4.7015C5.39947 4.69893 5.54051 4.75302 5.64714 4.85238L11.9996 11.2039L18.3521 4.85238C18.4588 4.75302 18.5998 4.69893 18.7455 4.7015C18.8913 4.70407 19.0303 4.76311 19.1334 4.86617C19.2364 4.96923 19.2955 5.10827 19.298 5.25399C19.3006 5.39972 19.2465 5.54075 19.1471 5.64739L12.7956 11.9999L19.1471 18.3524Z" fill="#282828"/>
</svg>
