<svg width="16" height="17" viewBox="0 0 16 17" fill="none" xmlns="http://www.w3.org/2000/svg">
<path d="M13.177 6.67701L8.17701 11.677C8.1538 11.7003 8.12622 11.7187 8.09587 11.7313C8.06553 11.7439 8.03299 11.7503 8.00014 11.7503C7.96729 11.7503 7.93475 11.7439 7.9044 11.7313C7.87405 11.7187 7.84648 11.7003 7.82326 11.677L2.82326 6.67701C2.80004 6.65379 2.78161 6.62621 2.76904 6.59586C2.75647 6.56552 2.75 6.53299 2.75 6.50014C2.75 6.46729 2.75647 6.43476 2.76904 6.40442C2.78161 6.37407 2.80004 6.34649 2.82326 6.32326C2.87017 6.27635 2.9338 6.25 3.00014 6.25C3.03299 6.25 3.06551 6.25647 3.09586 6.26904C3.12621 6.28161 3.15379 6.30004 3.17701 6.32326L8.00014 11.1464L12.8233 6.32326C12.8465 6.30004 12.8741 6.28161 12.9044 6.26904C12.9348 6.25647 12.9673 6.25 13.0001 6.25C13.033 6.25 13.0655 6.25647 13.0959 6.26904C13.1262 6.28161 13.1538 6.30004 13.177 6.32326C13.2002 6.34649 13.2187 6.37407 13.2312 6.40442C13.2438 6.43476 13.2503 6.46729 13.2503 6.50014C13.2503 6.53299 13.2438 6.56552 13.2312 6.59586C13.2187 6.62621 13.2002 6.65379 13.177 6.67701Z" fill="#282828"/>
</svg>
