<svg width="20" height="61" viewBox="0 0 20 61" fill="none" xmlns="http://www.w3.org/2000/svg">
<g clip-path="url(#clip0_304_8902)">
<path fill-rule="evenodd" clip-rule="evenodd" d="M5.00033 15.1809C5.19309 15.1245 5.34427 15.1809 5.46144 15.3389L5.68065 15.0643L7.58556 12.7846C7.58556 12.7846 8.45486 11.7952 8.94998 11.4679C9.45267 11.1369 11.248 10.5011 11.248 10.5011C11.248 10.5011 11.641 10.0609 11.8338 9.63585C12.0266 9.21827 12.3516 9.10166 12.3516 9.10166L14.4493 8.83456L15.8024 8.52608L16.3202 8.30036C16.4449 8.33422 17.0383 9.70732 17.0383 9.70732C17.0383 9.70732 18.2931 10.1324 18.6446 10.4409C18.9961 10.7569 19.7822 11.8968 19.8389 12.3143C19.8956 12.7394 19.0868 16.7572 19.0868 16.7572L17.5334 21.2C17.5334 21.2 17.643 22.0577 17.6241 22.6408C17.6165 23.2164 17.5976 23.491 17.4994 23.7243C17.3973 23.95 16.9627 24.0327 17.0496 24.2584C17.1328 24.4766 17.3255 24.8415 17.2235 25.1237C17.1214 25.4134 16.3466 25.7143 16.3466 25.7143L14.3132 26.0905L9.03691 26.0341L8.43596 25.2779C8.43596 25.2779 7.76698 24.3788 7.64981 24.0478C7.5402 23.7054 7.74052 22.3323 7.5591 21.343C7.44193 20.7034 7.40792 19.4357 7.46839 18.4877C6.56507 18.7623 4.50898 19.161 4.10079 18.9203C3.56409 18.6118 2.31305 16.2418 2.31305 16.2418C2.31305 16.2418 1.96155 15.1094 1.87084 14.6843C1.78013 14.2593 2.23746 13.7514 2.23746 13.7514L3.66614 13.3188C3.66614 13.3188 4.05166 13.4203 4.13481 13.5257C4.24441 13.6686 5.00411 15.0718 5.00411 15.1809H5.00033Z" fill="#FFC700"/>
<path fill-rule="evenodd" clip-rule="evenodd" d="M9.89864 23.2542C9.80791 23.2542 9.73985 23.322 9.73985 23.4123C9.73985 23.5026 9.80791 23.5703 9.89864 23.5703C9.98938 23.5703 10.0574 23.5026 10.0574 23.4123C10.0574 23.322 9.98938 23.2542 9.89864 23.2542Z" fill="#FEFEFE"/>
<path fill-rule="evenodd" clip-rule="evenodd" d="M10.4282 20.9141C10.345 20.9141 10.2694 20.9893 10.2694 21.0796C10.2694 21.1624 10.345 21.2377 10.4282 21.2377C10.5189 21.2377 10.5946 21.1624 10.5946 21.0796C10.5946 20.9893 10.5189 20.9141 10.4282 20.9141Z" fill="#FEFEFE"/>
<path fill-rule="evenodd" clip-rule="evenodd" d="M10.4997 18.7927C10.4997 18.8755 10.5677 18.9507 10.6585 18.9507C10.7492 18.9507 10.8173 18.8755 10.8173 18.7927C10.8173 18.7024 10.7492 18.6271 10.6585 18.6271C10.5677 18.6271 10.4997 18.7024 10.4997 18.7927Z" fill="#FEFEFE"/>
<path fill-rule="evenodd" clip-rule="evenodd" d="M11.4861 14.3569C11.4861 14.4473 11.5617 14.515 11.6449 14.515C11.7357 14.515 11.8113 14.4473 11.8113 14.3569C11.8113 14.2666 11.7357 14.1989 11.6449 14.1989C11.5617 14.1989 11.4861 14.2666 11.4861 14.3569Z" fill="#FEFEFE"/>
<path fill-rule="evenodd" clip-rule="evenodd" d="M12.0157 12.1789C12.0157 12.2617 12.0837 12.337 12.1745 12.337C12.2652 12.337 12.3333 12.2617 12.3333 12.1789C12.3333 12.0886 12.2652 12.0133 12.1745 12.0133C12.0837 12.0133 12.0157 12.0886 12.0157 12.1789Z" fill="#FEFEFE"/>
<path fill-rule="evenodd" clip-rule="evenodd" d="M8.93126 58.9366C8.93126 58.9366 4.47515 59.4106 3.03513 59.4708C1.59889 59.5197 1.29653 59.3053 1.29653 59.3053C1.27007 59.5234 1.27007 59.9109 1.46283 60.1291C1.73874 60.4526 8.68559 60.0388 8.92749 59.8808C9.01064 59.8244 9.03709 59.6814 9.02953 59.531C9.02953 59.2639 8.92749 58.9403 8.92749 58.9403L8.93126 58.9366Z" fill="#282828"/>
<path fill-rule="evenodd" clip-rule="evenodd" d="M15.6092 59.0719C15.1746 59.2224 13.7535 59.67 12.3891 59.7867C10.7602 59.9296 9.32773 59.6287 9.32773 59.6287C9.31262 59.655 9.30128 59.6776 9.29372 59.6964C9.22569 59.828 9.21057 60.4939 9.4449 60.7045C9.67167 60.9227 11.4669 61.013 12.2606 60.9528C13.0543 60.9039 15.3447 60.302 15.5223 60.1139C15.6962 59.9221 15.613 59.1396 15.613 59.1396C15.613 59.1396 15.613 59.1133 15.6055 59.0719H15.6092Z" fill="#282828"/>
<path fill-rule="evenodd" clip-rule="evenodd" d="M12.4081 57.1645C11.8298 57.1908 11.5728 58.0786 11.5728 58.0786C11.5728 58.0786 11.0474 58.6279 10.8698 58.7031C10.6959 58.7783 10.6015 58.9025 10.0005 59.1207C9.4903 59.2937 9.39203 59.4969 9.33156 59.6285C9.33156 59.6285 10.7602 59.9295 12.3929 59.7865C13.7573 59.6699 15.1784 59.2222 15.6131 59.0718C15.5866 58.8385 15.4808 57.9884 15.3372 57.7664C15.2691 57.6498 15.1709 57.5746 15.0877 57.5181L15.0953 57.6423C15.0953 57.6423 14.5926 58.1426 14.1164 58.0598C13.6817 57.9846 13.0884 57.2623 12.5441 57.1796C12.5025 57.172 12.461 57.172 12.4118 57.172L12.4081 57.1645Z" fill="#282828"/>
<path fill-rule="evenodd" clip-rule="evenodd" d="M4.44806 57.2663C4.44806 57.2663 3.37844 58.1315 2.80772 58.3573C2.80772 58.3573 1.51133 58.4475 1.31101 59.1397C1.31101 59.1397 1.30345 59.2074 1.2959 59.3053C1.2959 59.3053 1.59826 59.5235 3.0345 59.4708C4.47074 59.4144 8.93063 58.9366 8.93063 58.9366C8.93063 58.9366 9.00622 57.4055 8.29567 57.0707L8.32968 57.4017C8.32968 57.4017 8.08023 58.1165 7.22605 57.9359C6.3643 57.7516 6.0128 57.319 6.0128 57.319C6.0128 57.319 5.82004 57.018 5.52902 56.86C5.38539 56.7848 5.21909 56.7434 5.05279 56.7923C4.52743 56.9428 4.45184 57.2588 4.45184 57.2588L4.44806 57.2663Z" fill="#282828"/>
<path fill-rule="evenodd" clip-rule="evenodd" d="M5.76689 55.9344C5.73287 56.2015 5.66485 56.6078 5.52502 56.8673C5.81602 57.0253 6.00876 57.3262 6.00876 57.3262C6.00876 57.3262 6.36022 57.7588 7.22189 57.9431C8.07599 58.1274 8.32542 57.409 8.32542 57.409L8.14779 55.6899C7.88703 55.8141 7.36928 56.0398 6.87798 56.0398C6.59454 56.0398 6.16748 55.9909 5.76689 55.9382V55.9344Z" fill="#F3D4CF"/>
<path fill-rule="evenodd" clip-rule="evenodd" d="M12.9262 56.499L12.5407 57.1723C13.0849 57.255 13.6783 57.981 14.1129 58.0525C14.5891 58.1353 15.0917 57.635 15.0917 57.635L15.0841 57.5108L15.0086 56.7961C14.865 56.8225 14.7176 56.845 14.574 56.8638C13.6292 56.9541 12.9262 56.499 12.9262 56.499Z" fill="#F3D4CF"/>
<path fill-rule="evenodd" clip-rule="evenodd" d="M10.3823 37.1021L11.9282 43.0272C11.9282 43.0272 12.6727 46.9547 12.8579 49.0088C13.0431 51.0628 12.9262 56.499 12.9262 56.499C12.9262 56.499 13.6291 56.9579 14.574 56.8638C14.7176 56.8488 14.8649 56.8225 15.0086 56.7961C15.7796 56.6381 16.4146 56.3296 16.4146 56.3296C16.8568 53.9821 16.4486 45.7772 16.3239 44.8631C16.1991 43.9489 15.806 43.0235 15.806 43.0235L15.772 37.4144C15.772 37.4144 15.9383 36.914 15.9383 36.5153V35.6651C15.9383 35.6651 16.4335 35.1309 16.5053 34.8262C16.5809 34.5101 16.1198 33.7766 16.1198 33.7766L16.1046 31.098C16.1046 31.098 16.6905 30.2591 16.6905 29.4089C16.6905 28.5587 16.3805 26.6213 16.3805 26.6213L16.3466 25.7143C16.3466 25.7143 16.2294 25.4325 15.7267 25.3385C15.2315 25.2482 8.88556 25.3385 8.43579 25.2707C8.20145 25.2369 8.01625 25.2707 7.89908 25.3046L7.74034 26.4783C7.74034 26.4783 6.21715 29.1832 6.03573 29.992C5.85053 30.8008 4.76578 34.3785 4.539 37.2752C4.31978 40.1719 4.31978 42.0454 4.3538 43.2567L4.72042 55.7728C4.72042 55.7728 5.21555 55.8556 5.76737 55.9308C6.16801 55.9797 6.59511 56.0324 6.87858 56.0324C7.37371 56.0324 7.89152 55.8067 8.14854 55.6825C8.23925 55.6411 8.29972 55.6073 8.29972 55.6073C8.29972 55.6073 8.70792 48.9072 8.74193 47.4438C8.77595 45.9691 8.13342 43.8662 8.13342 43.8662C8.13342 43.8662 8.39421 43.6818 8.46602 43.426C8.54162 43.1589 8.46602 42.7263 8.46602 42.7263L10.3823 37.1021Z" fill="#282828"/>
<path fill-rule="evenodd" clip-rule="evenodd" d="M4.93209 10.0534C4.93209 10.0534 4.90564 10.6102 5.13241 11.1444C5.35163 11.6673 5.96014 12.0774 5.96014 12.0774L6.96172 13.6686L7.98977 15.3164L8.14851 15.5571L8.34883 15.8731C8.34883 15.8731 8.48111 15.3803 8.46599 15.1396C8.43954 14.8988 8.70033 14.9402 8.80994 14.8236C8.9271 14.7145 8.83639 14.3909 8.80994 14.0411C8.79482 13.6912 9.3353 13.4091 9.3353 13.4091L8.07292 12.2542L6.9844 11.246C6.9844 11.246 6.34187 8.99258 6.03195 8.84962L5.431 8.58253C5.431 8.58253 4.4861 7.88281 4.33492 7.88281C4.18374 7.88281 3.34089 8.06714 3.34089 8.06714L2.86467 8.50729C2.86467 8.50729 2.89112 8.59005 2.97428 8.63896C3.05743 8.70667 3.21617 8.74053 3.4694 8.59005L4.04767 8.43205L4.3576 8.62391C4.3576 8.62391 3.76421 8.80824 3.73019 8.84962C3.70373 8.89853 3.42026 9.60577 3.38625 9.71487C3.35979 9.82396 3.44294 10.0158 3.44294 10.0158C3.44294 10.0158 3.4505 10.3995 3.52609 10.4898C3.60168 10.5801 3.73397 10.5914 3.73397 10.5914C3.73397 10.5914 3.7831 10.8811 4.00988 10.8322C4.23665 10.7757 4.25933 10.4146 4.25933 10.4146L4.45965 9.92177L4.92831 10.0534H4.93209Z" fill="#F3D4CF"/>
<path fill-rule="evenodd" clip-rule="evenodd" d="M2.22201 8.06703L2.07084 8.47328L2.10485 8.97357L2.30515 9.30459L2.97428 8.63896L2.50545 7.85639C2.37318 7.98804 2.22201 8.06327 2.22201 8.06327V8.06703Z" fill="#282828"/>
<path fill-rule="evenodd" clip-rule="evenodd" d="M1.98037 7.3257L1.58733 7.91627L1.56088 8.19086L1.95392 7.69057L2.27137 7.44231L2.1391 7.23542C2.0484 7.29185 1.98037 7.3257 1.98037 7.3257Z" fill="#282828"/>
<path fill-rule="evenodd" clip-rule="evenodd" d="M1.86408 6.69392L1.53893 7.06647L1.91701 6.77671L1.86408 6.69392Z" fill="#282828"/>
<path fill-rule="evenodd" clip-rule="evenodd" d="M0.117188 5.42975L0.676512 6.55446L1.00152 5.79838C1.00152 5.79838 1.45125 5.79086 1.22072 6.49051L1.57219 6.15949L0.801226 4.82037L0.117188 5.43727V5.42975Z" fill="#282828"/>
<path fill-rule="evenodd" clip-rule="evenodd" d="M0.44961 7.93164C0.44961 7.93164 0.423154 8.61254 0.540319 8.84577C0.665043 9.07901 1.57591 11.1104 1.57591 11.1104C1.57591 11.1104 1.96898 12.7092 1.96898 13.0741C1.96898 13.2472 1.99544 13.597 2.05213 13.9807C2.12016 14.3983 2.22599 14.861 2.39607 15.2034C2.70599 15.8617 3.39008 15.9031 3.39008 15.9031C3.83229 15.5118 4.06662 14.0485 4.06662 14.0485L3.79827 13.3563L2.77024 10.7418C2.77024 10.7418 2.87985 9.88405 2.80426 9.47777C2.76268 9.24453 2.68709 9.08653 2.6304 8.97744L2.30536 9.30096L2.10504 8.96992L2.07103 8.46959L2.22201 8.06327C2.22201 8.06327 2.37318 7.98804 2.50545 7.85639C2.58104 7.78867 2.6493 7.70592 2.69087 7.62316C2.84205 7.34102 2.60016 7.19807 2.60016 7.19807L2.27512 7.43883L1.95764 7.68712L1.56457 8.18745L1.59103 7.91283L1.9841 7.32221C1.9841 7.32221 2.05213 7.28836 2.14284 7.23193C2.23355 7.1755 2.36205 7.08898 2.48678 6.99117C2.74756 6.79179 2.52835 6.49084 2.52835 6.49084L2.02567 6.69022L1.91607 6.77298L1.53811 7.06264L1.86315 6.68646L1.87071 6.67893C1.87071 6.67893 2.07859 6.37046 2.02945 6.16355C1.97276 5.94536 1.78756 5.93784 1.78756 5.93784L1.56835 6.14474L1.21685 6.47579C1.45119 5.77608 0.997642 5.7836 0.997642 5.7836L0.672603 6.53974L0.498744 6.95731L0.44961 7.92411V7.93164Z" fill="#F3D4CF"/>
<path fill-rule="evenodd" clip-rule="evenodd" d="M11.9815 8.63109C12.0571 8.80413 12.1138 9.0148 12.1478 9.22923C12.2158 9.61294 12.2234 10.0117 12.2309 10.3126C12.2725 10.3616 12.3141 10.4029 12.3557 10.4368L12.9415 10.0794C12.9415 10.0794 14.8577 9.0148 15.8026 8.53328C15.659 8.43171 15.5531 8.23233 15.4776 8.0179C15.47 8.00285 15.4624 7.98404 15.4511 7.96147C15.4511 7.96147 15.1601 7.48748 15.0316 6.93824C14.9635 6.66362 14.99 6.30624 15.0316 6.00529C14.8313 6.22348 14.5629 6.39653 14.2303 6.47177C14.2303 6.47177 14.1131 7.35205 13.6709 7.76962C13.395 8.03671 12.6089 8.40914 11.9815 8.63485V8.63109Z" fill="#F3D4CF"/>
<path fill-rule="evenodd" clip-rule="evenodd" d="M10.118 6.261C10.118 6.261 10.821 8.70619 11.1725 8.80024C11.2972 8.83409 11.6147 8.75886 11.9851 8.63472C12.6125 8.40901 13.3986 8.03659 13.6745 7.7695C14.1167 7.35193 14.2339 6.47166 14.2339 6.47166C14.5665 6.39643 14.8348 6.22338 15.0351 6.0052C15.5038 5.48982 15.5945 4.71489 15.3261 4.45908C14.9482 4.10171 14.215 4.45908 14.215 4.45908L13.6556 5.52368L13.3948 4.06785C12.0909 3.84214 11.3539 3.16877 11.0024 2.72112C11.1347 3.06344 11.3615 3.48853 11.6978 3.86847C11.1196 3.56753 10.7605 3.07849 10.5526 2.6534C10.3864 2.95435 10.05 3.58634 10.0084 3.74433C9.94037 3.97004 10.1407 4.69984 10.1407 4.69984C10.1407 4.69984 9.59644 5.75691 9.67203 5.94124C9.74762 6.11429 10.1142 6.26476 10.1142 6.26476L10.118 6.261Z" fill="#F3D4CF"/>
<path fill-rule="evenodd" clip-rule="evenodd" d="M13.3947 4.06422L13.6555 5.52009L14.2149 4.45546C14.2149 4.45546 14.9519 4.09808 15.3261 4.45546C15.5944 4.71503 15.4999 5.48623 15.035 6.00161C14.9935 6.30257 14.967 6.65995 15.035 6.93457C15.1598 7.48381 15.4546 7.95781 15.4546 7.95781C15.4621 7.98415 15.4697 7.99919 15.481 8.01424L17.0533 4.25232C17.0533 4.25232 17.1025 2.98831 15.7078 1.7544C14.3018 0.52425 11.743 1.11487 11.743 1.11487C11.1572 0.990728 10.5903 1.08101 10.1972 1.5964C10.1972 1.5964 9.20315 1.71302 9.07843 2.94317C9.13512 2.75883 9.23717 2.60083 9.34678 2.46916C9.29008 2.62717 9.23717 2.8604 9.31276 3.1275C9.44505 3.66922 10.148 4.69246 10.148 4.69246C10.148 4.69246 9.94773 3.95889 10.0158 3.73693C10.0573 3.57893 10.3937 2.94693 10.56 2.64597C10.7679 3.07107 11.127 3.56012 11.7052 3.86108C11.3726 3.47736 11.1459 3.05226 11.0098 2.71369C11.3613 3.16136 12.0983 3.8385 13.4023 4.06046L13.3947 4.06422Z" fill="#6A7479"/>
<path d="M10.3445 37.1206L8.485 33.227C8.485 33.227 8.43587 32.3768 8.39429 31.5191C8.36028 30.6614 8.63241 26.5459 8.63618 26.5045H8.72311C8.72311 26.5497 8.44721 30.6614 8.48122 31.5154C8.51902 32.3242 8.56815 33.1217 8.57193 33.212L10.4239 37.083L10.3445 37.1206Z" fill="#CC9E5A"/>
<path d="M8.46284 31.5527L8.41371 31.4812C8.41371 31.4812 9.63448 30.6348 9.66472 29.9765C9.70629 29.2843 9.93684 26.5156 9.94062 26.4893L10.0275 26.4968C10.0275 26.5232 9.79322 29.2919 9.75165 29.984C9.71763 30.6875 8.51198 31.5226 8.46284 31.5565V31.5527Z" fill="#CC9E5A"/>
<path d="M12.034 26.6097H11.9886L7.74043 26.5232L7.74421 26.4405L11.947 26.5232L11.9395 25.3006H12.0226L12.034 26.6097Z" fill="#CC9E5A"/>
<path d="M16.3771 26.6662L12.3216 26.6248V25.3006H12.4085V26.5383L16.3808 26.5797L16.3771 26.6662Z" fill="#CC9E5A"/>
<path d="M3.77981 10.5913L3.69667 10.5838L3.71557 10.2378L4.06703 9.49296L4.08593 9.4892L4.94003 9.2635L4.95893 9.34626L4.1275 9.56819L3.79871 10.2641L3.77981 10.5913Z" fill="#C2AAA6"/>
<path d="M3.4841 10.027L3.40474 9.99687L3.57858 9.54172L3.8658 9.00382L4.53851 8.85712L4.5574 8.93987L3.92249 9.07905L3.65795 9.57558L3.4841 10.027Z" fill="#C2AAA6"/>
<path d="M9.58497 17.8479C9.50939 17.8479 9.43758 17.8254 9.38089 17.7652C9.19571 17.5658 8.69686 16.7872 8.67418 16.7533C8.65906 16.7383 8.13753 16.2267 8.07706 16.001C8.02416 15.8543 8.08462 15.6324 8.11108 15.5459L8.19422 15.5722C8.15265 15.7001 8.12242 15.8769 8.16021 15.9784C8.20556 16.1515 8.5986 16.5577 8.74221 16.7044C8.75354 16.7195 9.26752 17.5169 9.44514 17.7125C9.60009 17.878 9.98557 17.611 9.98935 17.6072L10.0385 17.6749C10.0385 17.6749 9.78905 17.8517 9.58119 17.8517L9.58497 17.8479Z" fill="#FFC700"/>
<path d="M12.2912 19.1538C11.8187 19.1538 11.1195 18.8378 10.7302 18.4503C10.3674 18.0779 8.34156 15.9261 8.32266 15.9035L8.38691 15.8433C8.40581 15.8659 10.4316 18.0177 10.7945 18.3901C11.1686 18.7626 11.8414 19.0673 12.2949 19.0673C12.6653 19.0673 16.5091 17.4045 18.4896 16.5242L18.5236 16.6032C18.2893 16.7086 12.7749 19.1538 12.2949 19.1538H12.2912Z" fill="#FFC700"/>
<path d="M12.4615 15.29L12.4275 15.2524C12.4275 15.2524 12.1742 14.9702 11.8076 14.9176C11.4145 14.8574 11.1802 14.752 11.1689 14.7483H11.1575L10.9648 14.4247L9.31688 13.4466L9.36224 13.3752L11.0328 14.3721L11.218 14.6768C11.2709 14.6994 11.4901 14.7859 11.8227 14.8348C12.1402 14.8837 12.3708 15.0793 12.4577 15.1621C12.6391 14.9439 13.5765 13.8153 14.3475 13.172C15.213 12.461 17.3787 11.419 17.4014 11.4114L17.4392 11.4867C17.4165 11.498 15.2622 12.5325 14.4042 13.236C13.5576 13.9395 12.5068 15.2373 12.4955 15.2524L12.4653 15.29H12.4615Z" fill="#FFC700"/>
<path d="M14.3965 13.2361L14.3511 13.1646C15.0201 12.7245 17.5978 12.495 17.7074 12.4837L17.715 12.5703C17.6885 12.5703 15.0504 12.8073 14.4003 13.2361H14.3965Z" fill="#FFC700"/>
<path d="M8.85175 16.411L8.32266 15.9035L8.38313 15.843L8.87442 16.317C8.99914 16.2793 9.59248 16.0837 9.8608 15.8016C9.97796 15.6775 10.0876 15.591 10.182 15.512C10.3445 15.3803 10.4617 15.2863 10.5184 15.102C10.6166 14.7634 11.1571 14.6694 11.1797 14.6656L11.1949 14.7484C11.1949 14.7484 10.6847 14.8387 10.6015 15.1245C10.5411 15.3314 10.405 15.4405 10.2387 15.5759C10.1442 15.6512 10.0384 15.7377 9.92505 15.858C9.61137 16.1891 8.90844 16.3922 8.8782 16.4035L8.85553 16.411H8.85175Z" fill="#FFC700"/>
<path d="M9.72839 15.973L9.65613 16.0211L10.6015 17.4282L10.6737 17.3801L9.72839 15.973Z" fill="#FFC700"/>
<path d="M12.8695 17.152L12.7863 17.137C12.9073 16.4261 12.4273 15.2487 12.4197 15.2374L12.3668 15.1133L12.4802 15.1847C12.518 15.2073 13.3986 15.7678 13.6593 16.4712L13.58 16.5013C13.3834 15.9709 12.7977 15.512 12.5482 15.3352C12.6729 15.6662 12.9715 16.5502 12.8695 17.152Z" fill="#FFC700"/>
<path d="M14.412 13.2208L14.3364 13.1794L15.4815 11.0579L15.5571 11.0993L14.412 13.2208Z" fill="#FFC700"/>
<path d="M11.883 14.8875L11.7998 14.8724C11.8074 14.8197 12.019 13.5595 12.0946 13.2699C12.174 12.9652 12.2685 12.7094 12.3743 12.5025C12.4612 12.3445 12.4914 11.7915 12.4952 11.5883L12.9299 9.97827L14.0637 11.5244L17.023 9.67356L17.0684 9.74503L14.041 11.6372L12.9677 10.1701L12.5822 11.5996C12.5822 11.6184 12.567 12.3332 12.4537 12.5401C12.3516 12.7395 12.2571 12.9915 12.1815 13.2887C12.1059 13.5746 11.8905 14.8687 11.8905 14.8837L11.883 14.8875Z" fill="#FFC700"/>
<path d="M11.271 14.7255L11.184 14.718C11.184 14.718 11.271 13.5029 11.4032 12.9386C11.4675 12.6527 11.5431 12.5662 11.6036 12.4947C11.664 12.427 11.7132 12.3743 11.7283 12.111C11.7699 11.5768 12.2952 10.4633 12.3179 10.4144L12.3973 10.452C12.3973 10.452 11.8568 11.5994 11.8152 12.1185C11.7963 12.4082 11.7396 12.4759 11.6716 12.5511C11.6149 12.6151 11.5469 12.6903 11.4902 12.9574C11.3579 13.5142 11.2747 14.7104 11.2747 14.7255H11.271Z" fill="#FFC700"/>
<path d="M11.388 11.2647L11.2028 10.4974L11.2859 10.4786L11.4182 11.024L11.9322 10.061L12.2572 10.2792L12.208 10.3469L11.9624 10.1852L11.388 11.2647Z" fill="#FFC700"/>
<path d="M6.0623 17.7051L5.97916 17.6863C6.16434 16.9378 5.43117 15.3767 5.42361 15.3617L5.34047 15.1886L5.48786 15.309C5.53699 15.3466 6.65564 16.2682 6.73878 17.0017L6.65186 17.013C6.58761 16.4676 5.88846 15.783 5.57478 15.5046C5.76752 15.9447 6.21347 17.077 6.05852 17.7089L6.0623 17.7051Z" fill="#FFC700"/>
<path d="M17.0312 24.3411C16.8989 23.9875 14.9109 19.1498 14.892 19.1009L14.9714 19.067C14.9903 19.1159 16.9783 23.9574 17.1106 24.311L17.0312 24.3411Z" fill="#FFC700"/>
<path d="M9.54709 25.3078C9.53953 25.2514 9.34677 23.9235 9.39591 23.4833C9.4526 23.0695 9.67559 22.6332 9.71338 22.5617C9.71338 22.5053 9.70961 22.2231 9.67181 22.0651C9.6378 21.877 9.8759 21.3466 9.9137 21.2601L10.3294 18.0362L10.4126 18.0475L9.98929 21.2902C9.9137 21.452 9.72472 21.9071 9.75118 22.0463C9.79275 22.2307 9.79275 22.5579 9.79275 22.5692V22.588C9.79275 22.588 9.53197 23.062 9.47528 23.4871C9.42614 23.916 9.62268 25.274 9.62646 25.289L9.54331 25.3003L9.54709 25.3078Z" fill="#FFC700"/>
<path d="M11.2184 21.2188L11.1429 21.1774C11.5019 20.5116 11.6719 19.0032 11.6719 18.9882L11.7551 18.9957C11.7475 19.0597 11.5812 20.5342 11.2147 21.215L11.2184 21.2188Z" fill="#FFC700"/>
<path d="M9.19963 19.6723C8.94264 18.935 8.61007 16.7458 8.59495 16.6518L8.6781 16.6405C8.6781 16.663 9.022 18.9162 9.27899 19.646L9.19963 19.6723Z" fill="#FFC700"/>
<path d="M4.36169 8.66525L4.35035 8.58246L4.64147 8.54107L5.1481 8.52225L5.15188 8.6088L4.64903 8.62386L4.36169 8.66525Z" fill="#C2AAA6"/>
<path d="M2.46833 10.7605L2.38519 10.7454C2.50612 9.95926 2.27181 9.32732 2.27181 9.3198L2.35118 9.2897C2.36251 9.31604 2.59682 9.95174 2.47211 10.7605H2.46833Z" fill="#C2AAA6"/>
<path fill-rule="evenodd" clip-rule="evenodd" d="M13.4933 8.96607C14.2871 8.37544 14.7822 7.5779 15.0581 7.00985C15.0505 6.98351 15.043 6.96094 15.0316 6.93461C14.9636 6.65998 14.9901 6.30259 15.0316 6.00164C14.8313 6.21983 14.563 6.39288 14.2304 6.46812C14.2304 6.46812 14.1132 7.34842 13.671 7.766C13.3951 8.0331 12.6089 8.40537 11.9815 8.63109C12.0571 8.80413 12.1138 9.0148 12.1478 9.22923C12.1629 9.34585 12.1818 9.47017 12.1969 9.58679C12.6921 9.45513 13.1267 9.22941 13.4933 8.96231V8.96607Z" fill="#C2AAA6"/>
<path d="M7.51011 18.4877H7.42318C7.44964 17.6601 7.61217 15.4368 7.61595 15.4142L7.70288 15.4217C7.70288 15.4443 7.53657 17.6676 7.51011 18.4915V18.4877Z" fill="#FFC700"/>
<path d="M7.42703 18.5026C7.03395 17.6712 7.10954 15.1544 7.11332 15.0453H7.20025C7.20025 15.0754 7.12088 17.6524 7.5064 18.465L7.42703 18.5026Z" fill="#FFC700"/>
<path d="M3.37145 17.449C3.23162 17.449 3.07668 17.4339 2.92173 17.3925L2.9444 17.3098C3.26942 17.4001 3.63222 17.3512 3.76071 17.3286L3.25052 15.9142L4.22556 17.0916C4.73953 16.3694 4.95117 15.1845 4.95495 15.1732L5.03809 15.1883C5.03809 15.1883 4.81134 16.4559 4.25957 17.1856L4.22556 17.2308L3.49617 16.3468L3.87409 17.3925L3.82874 17.4038C3.82874 17.4038 3.62088 17.4527 3.36767 17.4527L3.37145 17.449Z" fill="#FFC700"/>
<path fill-rule="evenodd" clip-rule="evenodd" d="M3.89671 13.5934C3.73043 14.2441 3.44699 15.0754 3.06151 15.1093C2.41904 15.1507 2.06757 14.0372 2.06757 14.0372C2.1356 14.436 2.24142 14.8761 2.40014 15.2108C2.71004 15.8691 3.39408 15.9105 3.39408 15.9105C3.83625 15.5193 4.07056 14.056 4.07056 14.056L3.89671 13.5971V13.5934Z" fill="#F3D4CF"/>
<path fill-rule="evenodd" clip-rule="evenodd" d="M8.88604 12.9914C8.61772 13.3488 8.0924 14.1462 7.89966 15.1543L7.99037 15.3123L8.14909 15.553L8.34939 15.869C8.34939 15.869 8.48166 15.3762 8.46655 15.1355C8.44009 14.8948 8.70086 14.9361 8.81046 14.8195C8.92761 14.7104 8.83691 14.387 8.81046 14.0371C8.79534 13.6873 9.33577 13.4052 9.33577 13.4052L8.88604 12.9876V12.9914Z" fill="#F3D4CF"/>
<path d="M17.4881 21.2112C17.4163 20.316 16.3732 18.3186 16.3657 18.2998L16.4413 18.2622C16.4828 18.3449 17.4994 20.2934 17.575 21.2075L17.4881 21.215V21.2112Z" fill="#FFC700"/>
<path d="M15.9281 29.632L15.8418 29.6429L16.0592 31.3482L16.1454 31.3374L15.9281 29.632Z" fill="#CC9E5A"/>
<path d="M16.0823 33.8028C15.5456 32.9827 12.8962 30.101 12.8659 30.0709L12.9302 30.0145C12.9566 30.0446 15.6137 32.93 16.1541 33.7576L16.0823 33.8028Z" fill="#CC9E5A"/>
<path d="M15.8974 35.8528C15.6366 35.2133 14.4348 34.2316 14.4235 34.2203L14.4764 34.1526C14.5255 34.194 15.7084 35.1569 15.9768 35.8152L15.8974 35.849V35.8528Z" fill="#CC9E5A"/>
<path d="M8.09552 43.8847C7.64579 42.9405 6.28905 41.7895 6.27393 41.7782L6.33062 41.7142C6.33062 41.7142 7.71381 42.8879 8.1711 43.8508L8.09174 43.8884L8.09552 43.8847Z" fill="#CC9E5A"/>
<path d="M8.43594 42.7524C8.02022 42.2597 6.77686 41.797 6.76552 41.7932L6.79575 41.7142C6.84866 41.7331 8.07313 42.1882 8.50396 42.6998L8.43971 42.7524H8.43594Z" fill="#CC9E5A"/>
<path d="M15.8624 43.2939C15.1595 42.4626 12.9864 40.3072 12.9638 40.2846L13.0242 40.2244C13.0469 40.247 15.2237 42.4061 15.9267 43.2374L15.8624 43.2939Z" fill="#CC9E5A"/>
<path d="M7.57411 55.9268H7.48718C7.48718 55.8515 7.78955 48.7151 7.78955 47.8122C7.78955 46.9093 7.3171 42.8238 7.31332 42.7824V42.7712L7.3171 42.7599C7.38891 42.6094 7.37379 42.1768 7.36245 42.0225V42.0075L9.28628 34.8936L9.36943 34.9162L7.44939 42.0225C7.45317 42.0902 7.4834 42.5868 7.40025 42.7824C7.42671 43.027 7.87648 46.9281 7.87648 47.8122C7.87648 48.6963 7.57789 55.8553 7.57411 55.9268Z" fill="#CC9E5A"/>
<path d="M15.7686 56.6078H15.6817C15.7649 53.6133 14.854 42.2935 14.8464 42.1806C14.8464 42.1468 14.631 38.7535 14.7217 37.8769C14.8124 37.0154 14.7217 34.4799 14.7217 34.4535L14.5025 31.8691V31.8615C14.5025 31.8615 14.6612 31.0302 14.5856 30.4019C14.5214 29.7962 14.1472 28.393 14.1132 28.2689C13.5991 27.6331 13.0889 26.6136 13.0851 26.6023L13.1607 26.5647C13.1607 26.5647 13.6747 27.5917 14.185 28.22L14.1925 28.235C14.1925 28.235 14.6045 29.7511 14.6688 30.3906C14.7406 31.0001 14.6007 31.7938 14.5856 31.8691L14.8011 34.4423C14.8011 34.4686 14.8918 37.0117 14.8011 37.8769C14.7104 38.746 14.9258 42.1317 14.9258 42.1656C14.9333 42.2784 15.8442 53.602 15.7611 56.6003L15.7686 56.6078Z" fill="#CC9E5A"/>
<path d="M6.9097 55.4342C6.05929 55.4342 4.77422 55.2461 4.7024 55.2348L4.71374 55.1521C4.73642 55.1521 7.1138 55.5057 7.53712 55.2725C7.97933 55.0242 8.32706 54.8963 8.32706 54.8963L8.3573 54.9753C8.3573 54.9753 8.01335 55.1032 7.57869 55.3477C7.46153 55.4117 7.21207 55.438 6.9097 55.438V55.4342Z" fill="#CC9E5A"/>
<path d="M14.6461 56.1227C13.8562 56.1227 12.9944 55.991 12.9377 55.9835L12.9528 55.9007C12.9755 55.9007 15.0694 56.2205 15.712 55.8819C16.3621 55.5433 16.4981 55.438 16.4981 55.438L16.551 55.5057C16.551 55.5057 16.415 55.611 15.7498 55.9609C15.5116 56.0888 15.0921 56.1302 14.6461 56.1302V56.1227Z" fill="#CC9E5A"/>
<path fill-rule="evenodd" clip-rule="evenodd" d="M5.76762 55.9344C5.75251 56.1 5.71093 56.3257 5.65047 56.5325C6.18712 56.6642 7.06389 56.7507 8.22411 56.431L8.14854 55.6825C8.00493 55.7577 7.78194 55.8479 7.52874 55.9232C7.32844 55.9796 7.10169 56.0323 6.87493 56.0323C6.59149 56.0323 6.16444 55.9834 5.76384 55.9307L5.76762 55.9344Z" fill="#C2AAA6"/>
<path fill-rule="evenodd" clip-rule="evenodd" d="M12.692 56.8977C13.1757 57.1234 14.1281 57.4883 15.0653 57.3792L15.0086 56.7961C14.865 56.8225 14.7176 56.845 14.574 56.8638C13.6292 56.9541 12.9262 56.499 12.9262 56.499L12.692 56.8977Z" fill="#C2AAA6"/>
<path d="M11.7395 25.3418L11.7055 25.2628C11.7055 25.2628 13.5044 24.5181 14.1922 23.0774L14.2678 23.115C13.5648 24.5858 11.7546 25.3343 11.7357 25.3418H11.7395Z" fill="#FFC700"/>
<path d="M12.4046 25.3421C12.3857 25.3421 12.3706 25.3421 12.3668 25.3421V25.2556C12.3895 25.2556 14.5361 25.2782 15.2352 24.3566L15.3033 24.4092C14.623 25.3045 12.7145 25.3421 12.4084 25.3421H12.4046Z" fill="#FFC700"/>
<path d="M8.85216 23.7995C8.80681 23.7318 7.77886 22.0918 7.54455 21.52L7.62391 21.4899C7.85444 22.0542 8.91262 23.7393 8.92396 23.7544L8.85216 23.7995Z" fill="#FFC700"/>
<path d="M10.5794 25.3081C10.5794 25.3081 10.534 24.8266 10.5303 24.3865C10.5265 24.0479 10.5529 23.6002 10.5681 23.3068C10.5718 23.2128 10.5794 23.1338 10.5794 23.0773C10.5832 22.9871 10.5907 22.8667 10.6021 22.7388C10.6172 22.5507 10.6285 22.3551 10.6285 22.2384C10.6285 22.0391 10.7684 21.4748 10.8251 21.2416C10.844 21.155 10.8553 20.8729 10.8666 20.602C10.8742 20.4215 10.8818 20.2334 10.8893 20.0942C10.9082 19.7556 11.0405 18.6948 11.0443 18.6497L11.0934 18.6685C11.0934 18.6685 10.9573 19.7669 10.9385 20.1055C10.9271 20.2409 10.9233 20.4252 10.9158 20.6058C10.9044 20.8955 10.8931 21.1701 10.8742 21.2717C10.7797 21.6403 10.6814 22.088 10.6814 22.2384C10.6814 22.3626 10.6663 22.5582 10.6512 22.7501C10.6437 22.8742 10.6323 22.9946 10.6285 23.0849C10.6285 23.1413 10.621 23.2203 10.6172 23.3181C10.6021 23.6115 10.5756 24.0554 10.5794 24.3902C10.5832 24.8228 10.6285 25.2931 10.6285 25.3006L10.5794 25.3156V25.3081Z" fill="#FFC700"/>
<path d="M0.675954 7.86381L0.592811 7.84877C0.592811 7.84877 0.660837 7.47637 0.668395 7.40114C0.675954 7.32591 0.732642 7.05131 0.736421 7.04003L0.743979 7.02122L1.18615 6.45699L1.25417 6.50965L0.815785 7.06636C0.804447 7.11526 0.759096 7.34472 0.751538 7.40866C0.743979 7.48389 0.679733 7.84501 0.675954 7.86005V7.86381Z" fill="#C2AAA6"/>
<path d="M1.03518 8.07822L0.952033 8.05565L1.10698 7.4538L1.50758 7.03627L1.56804 7.09645L1.18256 7.49518L1.03518 8.07822Z" fill="#C2AAA6"/>
</g>
<defs>
<clipPath id="clip0_304_8902">
<rect width="19.726" height="60" fill="white" transform="translate(0.119141 0.972168)"/>
</clipPath>
</defs>
</svg>
