<svg width="29" height="29" viewBox="0 0 29 29" fill="none" xmlns="http://www.w3.org/2000/svg">
<path fill-rule="evenodd" clip-rule="evenodd" d="M14.5007 26.639C11.4065 26.639 8.439 25.4098 6.25107 23.2219C4.06315 21.034 2.83398 18.0665 2.83398 14.9723C2.83398 11.8781 4.06315 8.91068 6.25107 6.72275C8.439 4.53483 11.4065 3.30566 14.5007 3.30566C17.5948 3.30566 20.5623 4.53483 22.7502 6.72275C24.9382 8.91068 26.1673 11.8781 26.1673 14.9723C26.1673 18.0665 24.9382 21.034 22.7502 23.2219C20.5623 25.4098 17.5948 26.639 14.5007 26.639ZM16.4898 10.6498L13.3515 16.6436L11.1013 14.6165C10.9589 14.4884 10.7927 14.3896 10.6121 14.3257C10.4315 14.2618 10.2401 14.2341 10.0488 14.2442C9.85755 14.2543 9.67013 14.302 9.49727 14.3845C9.32441 14.467 9.1695 14.5828 9.04138 14.7251C8.91326 14.8675 8.81444 15.0338 8.75056 15.2143C8.68668 15.3949 8.659 15.5863 8.66909 15.7776C8.67917 15.9689 8.72684 16.1563 8.80936 16.3292C8.89188 16.502 9.00764 16.6569 9.15003 16.785L12.7959 20.0663C12.9611 20.2151 13.1581 20.3241 13.3718 20.3851C13.5856 20.446 13.8105 20.4573 14.0293 20.418C14.2481 20.3788 14.4551 20.29 14.6343 20.1585C14.8136 20.0271 14.9604 19.8563 15.0636 19.6594L19.074 12.0032C19.2534 11.6605 19.2894 11.2605 19.174 10.8913C19.0586 10.5221 18.8013 10.2139 18.4586 10.0344C18.1159 9.85495 17.716 9.81897 17.3467 9.93438C16.9775 10.0498 16.6693 10.3071 16.4898 10.6498Z" fill="#282828"/>
</svg>
