<svg width="146" height="48" viewBox="0 0 146 48" fill="none" xmlns="http://www.w3.org/2000/svg">
<path d="M22.7465 28.7316H14.3733C14.3733 28.6383 14.3733 28.565 14.3733 28.485C14.3733 27.345 14.3733 26.205 14.3733 25.065C14.3733 24.5117 13.9799 24.105 13.4666 24.0984C12.9533 24.0984 12.5533 24.485 12.5533 25.005C12.5533 26.1583 12.5533 27.3117 12.5533 28.465C12.5533 28.545 12.5533 28.6316 12.5533 28.745C12.3466 28.745 12.16 28.7316 11.9733 28.745C11.5733 28.7783 11.1666 28.7783 10.7866 28.885C9.67332 29.1983 8.86666 30.2516 8.84 31.4049C8.82666 31.9383 8.82 32.4849 8.90666 33.0116C9.05999 33.9316 9.63999 34.5649 10.4733 34.9582C10.6466 35.0382 10.7 35.1316 10.7 35.3182C10.6933 36.8782 10.6933 38.4448 10.7 40.0048C10.7066 41.9581 12.0733 43.7781 13.9466 44.3381C14.0866 44.3781 14.2333 44.4114 14.3866 44.4514V47.3447C14.3133 47.3447 14.2466 47.3581 14.1733 47.3581C11.8066 47.3581 9.43999 47.3581 7.07335 47.3581C5.67337 47.3581 4.56672 46.5047 4.24672 45.1781C4.19339 44.9514 4.18005 44.7048 4.18005 44.4648C4.18005 38.0515 4.18005 31.6449 4.18005 25.2317C4.18005 25.0984 4.22005 25.0184 4.32672 24.945C9.01999 21.8051 13.7133 18.6651 18.4065 15.5185C18.5399 15.4318 18.6199 15.4451 18.7465 15.5251C22.0998 17.7784 25.4598 20.0317 28.8131 22.2784C30.1397 23.165 31.4597 24.0517 32.7864 24.9317C32.9064 25.0117 32.9597 25.0917 32.9597 25.245C32.9597 31.6449 32.9464 38.0382 32.9597 44.4381C32.9597 45.7848 32.0864 46.9647 30.8064 47.2647C30.5597 47.3247 30.3064 47.3514 30.0531 47.3514C27.6864 47.3514 25.3198 47.3514 22.9532 47.3581C22.7798 47.3581 22.7198 47.3247 22.7198 47.1381C22.7332 46.3114 22.7265 45.4781 22.7198 44.6514C22.7198 44.5048 22.7598 44.4381 22.9065 44.3981C24.7531 43.9314 26.0998 42.4448 26.3798 40.5648C26.4131 40.3382 26.4264 40.0982 26.4264 39.8648C26.4264 38.3248 26.4264 36.7782 26.4264 35.2382C26.4264 35.1116 26.4664 35.0449 26.5798 34.9916C27.6398 34.5116 28.2131 33.6849 28.2798 32.5316C28.3131 31.9383 28.3398 31.3383 28.1664 30.7583C27.8531 29.6783 26.8464 28.745 25.4465 28.7516C25.2331 28.7516 25.0198 28.7383 24.8065 28.7516C24.6198 28.765 24.5665 28.7116 24.5665 28.5183C24.5731 27.3717 24.5665 26.225 24.5665 25.0783C24.5665 24.6717 24.4065 24.365 24.0265 24.1917C23.4331 23.9184 22.7465 24.3517 22.7398 25.005C22.7398 26.165 22.7398 27.325 22.7398 28.485C22.7398 28.565 22.7398 28.6383 22.7398 28.7383L22.7465 28.7316Z" fill="#282828"/>
<path d="M18.5599 33.3982C16.2599 33.3982 13.9599 33.3982 11.6599 33.3982C11.0666 33.3982 10.6866 33.0382 10.6666 32.4449C10.6533 32.1249 10.6533 31.8116 10.6666 31.4916C10.6866 30.9649 11.0866 30.5849 11.6133 30.5849C16.2465 30.5849 20.8798 30.5849 25.5131 30.5849C26.0264 30.5849 26.4264 30.9649 26.4464 31.4783C26.4598 31.8116 26.4598 32.1516 26.4464 32.4916C26.4331 33.0116 26.0264 33.3982 25.4998 33.3982C23.1865 33.3982 20.8732 33.3982 18.5599 33.3982Z" fill="#282828"/>
<path d="M0.00678579 22.565C-0.013214 22.0384 0.27345 21.6184 0.76011 21.2917C3.49341 19.4717 6.22004 17.6384 8.94667 15.8118C12.08 13.7185 15.2133 11.6185 18.3399 9.51854C18.4999 9.41187 18.5999 9.40521 18.7599 9.51854C22.1065 11.7652 25.4598 14.0118 28.8131 16.2585C31.3131 17.9318 33.8197 19.6117 36.3197 21.2784C36.6597 21.5051 36.9263 21.7917 37.033 22.1917C37.1997 22.825 37.0797 23.3984 36.5863 23.8384C36.0797 24.2917 35.3797 24.3784 34.7997 24.0517C34.333 23.785 33.893 23.4717 33.4464 23.1784C28.6998 20.0051 23.9532 16.8251 19.2065 13.6518C18.7399 13.3385 18.3666 13.3385 17.8932 13.6518C15.0399 15.5585 12.1866 17.4651 9.33334 19.3784C7.07336 20.8917 4.81339 22.405 2.55342 23.9184C2.00009 24.2917 1.4201 24.3784 0.813443 24.0584C0.266783 23.7584 -0.00654753 23.285 0.000119057 22.5784L0.00678579 22.565Z" fill="#282828"/>
<path d="M21.4198 7.65856C21.6931 7.2519 21.9531 6.85857 22.2264 6.47191C22.2397 6.45191 22.3664 6.47191 22.4131 6.50524C23.2397 7.05857 24.0664 7.61189 24.893 8.16522C27.5663 9.9652 30.233 11.7652 32.9063 13.5585C34.4996 14.6318 36.0929 15.7051 37.6862 16.7784C37.7329 16.8118 37.7796 16.8451 37.8462 16.8918C37.5662 17.3051 37.2929 17.7118 36.9996 18.1451C31.813 14.6518 26.6264 11.1652 21.4131 7.65189L21.4198 7.65856Z" fill="#282828"/>
<path d="M33.7397 18.7851C33.193 18.7851 32.733 18.3184 32.7464 17.7784C32.7597 17.2251 33.213 16.7851 33.7597 16.7851C34.2997 16.7851 34.7663 17.2518 34.7597 17.7918C34.7597 18.3451 34.2997 18.7918 33.7397 18.7918V18.7851Z" fill="#282828"/>
<path d="M21.7865 10.5119C21.7865 9.95187 22.2198 9.51187 22.7731 9.50521C23.3264 9.50521 23.7798 9.93853 23.7864 10.4852C23.7931 11.0385 23.3398 11.4985 22.7798 11.4985C22.2198 11.4985 21.7798 11.0652 21.7798 10.5052L21.7865 10.5119Z" fill="#282828"/>
<path d="M12.5266 35.2382H12.7866C16.6332 35.2382 20.4865 35.2382 24.3331 35.2382C24.5153 35.2382 24.6064 35.3293 24.6064 35.5116C24.6064 36.9382 24.6064 38.3649 24.6064 39.7915C24.6064 41.2048 23.7398 42.3181 22.3998 42.6315C22.1864 42.6781 21.9664 42.6981 21.7465 42.6981C19.6265 42.6981 17.5065 42.6981 15.3865 42.6981C13.7799 42.6981 12.5466 41.5248 12.5132 39.9248C12.4866 38.4049 12.5066 36.8782 12.5132 35.3582C12.5132 35.3316 12.5132 35.3049 12.5266 35.2449V35.2382Z" fill="#282828"/>
<path d="M20.8732 44.5514V47.3514C20.8065 47.3514 20.7398 47.3647 20.6665 47.3647C19.2599 47.3647 17.8532 47.3647 16.4466 47.3647C16.2732 47.3647 16.2266 47.3181 16.2266 47.1447C16.2332 46.3447 16.2266 45.5514 16.2266 44.7514C16.2266 44.6848 16.2266 44.6248 16.2266 44.5514H20.8732Z" fill="#282828"/>
<path d="M40.7796 9.7252C39.0862 9.73187 37.6663 8.34522 37.6263 6.69857C37.5929 5.0386 38.8462 3.45861 40.7796 3.45861C42.5862 3.45861 43.8795 4.8986 43.8995 6.50525C43.9262 8.31189 42.5462 9.71854 40.7729 9.7252H40.7796Z" fill="#282828"/>
<path d="M36.0196 6.20525C36.1729 6.20525 36.3329 6.20525 36.4863 6.20525C36.7529 6.21191 36.9329 6.37191 36.9329 6.59191C36.9329 6.8119 36.7529 6.97857 36.4929 6.98524C36.1729 6.98524 35.8596 6.98524 35.5396 6.98524C35.2729 6.98524 35.0996 6.82524 35.0996 6.59857C35.0996 6.36524 35.2663 6.21858 35.5329 6.20525C35.5329 6.20525 35.5463 6.20525 35.5529 6.20525C35.7063 6.20525 35.8663 6.20525 36.0196 6.20525Z" fill="#282828"/>
<path d="M45.5195 6.98524C45.3528 6.98524 45.1795 6.98524 45.0128 6.98524C44.7728 6.97191 44.6062 6.81191 44.5995 6.60525C44.5995 6.39191 44.7662 6.21192 45.0128 6.21192C45.3461 6.20525 45.6861 6.20525 46.0195 6.21192C46.2661 6.21192 46.4261 6.37858 46.4261 6.59191C46.4261 6.81191 46.2661 6.97191 46.0128 6.99191C45.9995 6.99191 45.9861 6.99191 45.9728 6.99191C45.8195 6.99191 45.6595 6.99191 45.5061 6.99191L45.5195 6.98524Z" fill="#282828"/>
<path d="M38.1663 9.6452C38.1396 9.69187 38.0996 9.79854 38.033 9.87187C37.7996 10.1185 37.5596 10.3519 37.3196 10.5852C37.1396 10.7585 36.9263 10.7652 36.7663 10.6119C36.613 10.4652 36.6063 10.2319 36.7663 10.0585C37.0063 9.8052 37.253 9.55854 37.5063 9.31854C37.6263 9.20521 37.773 9.15854 37.933 9.23188C38.0796 9.30521 38.1596 9.41854 38.1663 9.6452Z" fill="#282828"/>
<path d="M43.3795 3.54528C43.4062 3.50528 43.4462 3.39862 43.5129 3.31862C43.7462 3.07195 43.9795 2.83862 44.2262 2.60529C44.4062 2.43196 44.6195 2.43196 44.7795 2.58529C44.9328 2.73196 44.9328 2.97195 44.7728 3.13862C44.5328 3.39195 44.2795 3.63861 44.0328 3.87861C43.9128 3.99861 43.7662 4.03194 43.6062 3.95861C43.4595 3.89194 43.3795 3.77195 43.3862 3.53861L43.3795 3.54528Z" fill="#282828"/>
<path d="M38.1996 3.65861C38.1196 3.75195 38.0596 3.89861 37.9529 3.93861C37.8396 3.98527 37.6462 3.97861 37.5662 3.91194C37.2662 3.65861 36.9929 3.37195 36.7262 3.08529C36.5929 2.94529 36.6329 2.70529 36.7729 2.57862C36.9196 2.44529 37.1196 2.43196 37.2662 2.57196C37.5462 2.83196 37.8129 3.10529 38.0729 3.37862C38.1262 3.43861 38.1462 3.53861 38.1996 3.66528V3.65861Z" fill="#282828"/>
<path d="M44.9195 10.3719C44.8395 10.4719 44.7795 10.5985 44.6728 10.6719C44.5461 10.7719 44.3861 10.7452 44.2795 10.6385C43.9928 10.3652 43.7128 10.0919 43.4461 9.8052C43.3128 9.6652 43.3461 9.44521 43.4861 9.31188C43.6261 9.17188 43.8261 9.13854 43.9728 9.27854C44.2595 9.54521 44.5328 9.83187 44.8061 10.1119C44.8528 10.1652 44.8661 10.2452 44.9195 10.3652V10.3719Z" fill="#282828"/>
<path d="M41.1463 1.83863C41.1463 2.01863 41.1463 2.19863 41.1463 2.37863C41.1463 2.59862 40.9796 2.75862 40.7663 2.75862C40.5529 2.75862 40.3929 2.59862 40.3929 2.37863C40.3929 2.0253 40.3929 1.6653 40.3929 1.31197C40.3929 1.07864 40.5396 0.945312 40.7729 0.945312C41.0063 0.945312 41.1396 1.08531 41.1463 1.31864C41.1463 1.31864 41.1463 1.33197 41.1463 1.33864C41.1463 1.50531 41.1463 1.67197 41.1463 1.8453V1.83863Z" fill="#282828"/>
<path d="M41.1463 11.3452C41.1463 11.5252 41.1463 11.7052 41.1463 11.8918C41.1463 12.1252 40.9996 12.2518 40.7596 12.2518C40.5329 12.2518 40.3996 12.1185 40.3929 11.8918C40.3929 11.5385 40.3929 11.1785 40.3929 10.8252C40.3929 10.5985 40.5529 10.4452 40.7729 10.4452C40.9929 10.4452 41.1396 10.5985 41.1463 10.8252C41.1463 10.9985 41.1463 11.1719 41.1463 11.3519V11.3452Z" fill="#282828"/>
<path d="M53.0861 32.9449L55.5061 36.0182C54.8794 36.6315 54.1394 37.1048 53.2928 37.4248C52.4461 37.7448 51.5461 37.9048 50.5795 37.9048C49.6128 37.9048 48.6995 37.7448 47.8328 37.4248C46.9662 37.1048 46.1995 36.6448 45.5395 36.0382C44.8795 35.4315 44.3529 34.6982 43.9595 33.8382C43.5662 32.9782 43.3662 31.9982 43.3662 30.9182C43.3662 29.8383 43.5662 28.8583 43.9595 27.9983C44.3529 27.1383 44.8862 26.3983 45.5528 25.7983C46.2195 25.1917 46.9862 24.7317 47.8528 24.4117C48.7195 24.0917 49.6328 23.9317 50.5795 23.9317C51.6394 23.9317 52.5928 24.1383 53.4394 24.545C54.2861 24.9517 54.9727 25.5183 55.4994 26.245L53.0794 28.8916C52.7861 28.5449 52.4261 28.2449 52.0061 27.985C51.5861 27.725 51.1128 27.5983 50.5795 27.5983C50.2128 27.5983 49.8461 27.6716 49.4861 27.8116C49.1261 27.9516 48.8128 28.165 48.5395 28.4516C48.2662 28.7383 48.0528 29.0849 47.8862 29.4983C47.7195 29.9116 47.6395 30.3916 47.6395 30.9316C47.6395 31.4716 47.7195 31.9516 47.8862 32.3649C48.0528 32.7782 48.2728 33.1249 48.5395 33.4116C48.8128 33.6982 49.1261 33.9115 49.4861 34.0515C49.8461 34.1915 50.2061 34.2649 50.5795 34.2649C51.1461 34.2649 51.6328 34.1515 52.0394 33.9315C52.4461 33.7115 52.7928 33.3916 53.0728 32.9716L53.0861 32.9449Z" fill="#282828"/>
<path d="M62.4993 23.9183C63.4592 23.9183 64.3792 24.0783 65.2459 24.3983C66.1125 24.7183 66.8792 25.1783 67.5392 25.785C68.1992 26.3916 68.7258 27.125 69.1192 27.985C69.5125 28.8449 69.7125 29.8249 69.7125 30.9049C69.7125 31.9849 69.5125 32.9649 69.1192 33.8249C68.7258 34.6849 68.1992 35.4249 67.5392 36.0248C66.8792 36.6315 66.1125 37.0915 65.2459 37.4115C64.3792 37.7315 63.4592 37.8915 62.4993 37.8915C61.5393 37.8915 60.6193 37.7315 59.7526 37.4115C58.886 37.0915 58.1193 36.6315 57.4593 36.0248C56.7993 35.4182 56.2727 34.6849 55.8793 33.8249C55.486 32.9649 55.286 31.9849 55.286 30.9049C55.2993 29.8183 55.4993 28.8449 55.8993 27.985C56.2927 27.125 56.8193 26.385 57.4793 25.785C58.1393 25.1783 58.8993 24.7183 59.766 24.3983C60.6259 24.0783 61.5393 23.9183 62.5059 23.9183H62.4993ZM59.5593 30.9116C59.5593 31.4516 59.6393 31.9316 59.806 32.3449C59.9726 32.7582 60.1926 33.1049 60.4593 33.3916C60.7326 33.6782 61.0459 33.8915 61.4059 34.0315C61.7659 34.1715 62.1259 34.2449 62.4993 34.2449C62.8726 34.2449 63.2459 34.1715 63.5992 34.0315C63.9526 33.8915 64.2592 33.6782 64.5326 33.3916C64.8059 33.1049 65.0259 32.7582 65.1926 32.3449C65.3592 31.9316 65.4392 31.4516 65.4392 30.9116C65.4392 30.3716 65.3592 29.8916 65.1926 29.4783C65.0259 29.0649 64.8059 28.7183 64.5326 28.4316C64.2592 28.1449 63.9526 27.9383 63.5992 27.7916C63.2459 27.6516 62.8792 27.5783 62.4993 27.5783C62.1193 27.5783 61.7659 27.6516 61.4059 27.7916C61.0459 27.9316 60.7326 28.1449 60.4593 28.4316C60.186 28.7183 59.9726 29.0649 59.806 29.4783C59.6393 29.8916 59.5593 30.3716 59.5593 30.9116Z" fill="#282828"/>
<path d="M71.3792 37.5715V24.2517H75.4858V29.0049H78.3124V24.2517H82.419V37.5715H78.3124V32.3382H75.4858V37.5715H71.3792Z" fill="#282828"/>
<path d="M85.0857 24.2517H89.1923V34.2382H92.0256V24.2517H96.1322V34.2382H97.4655V39.3448L93.9723 40.0648V37.5648H85.0924V24.245L85.0857 24.2517Z" fill="#282828"/>
<path d="M98.9588 37.5715V24.2517H107.912L107.192 27.5783H103.012V29.1716H106.859L106.172 32.3382H103.005V34.2449H107.905L107.185 37.5782H98.9521L98.9588 37.5715Z" fill="#282828"/>
<path d="M109.579 37.5715V24.2517H119.345L118.625 27.5783H113.632V29.2649H115.185C115.879 29.2649 116.519 29.3383 117.112 29.4783C117.705 29.6183 118.219 29.8516 118.659 30.1649C119.099 30.4783 119.439 30.8916 119.692 31.4049C119.945 31.9182 120.072 32.5516 120.072 33.2982C120.072 34.1115 119.945 34.7915 119.692 35.3449C119.439 35.8915 119.092 36.3315 118.659 36.6648C118.219 36.9982 117.705 37.2315 117.112 37.3648C116.519 37.4982 115.879 37.5715 115.185 37.5715H109.579ZM113.632 32.2649V34.4115H114.372C114.912 34.4115 115.299 34.3115 115.519 34.1182C115.739 33.9182 115.852 33.6515 115.852 33.3049C115.852 33.0182 115.739 32.7782 115.519 32.5716C115.299 32.3649 114.912 32.2649 114.372 32.2649H113.632Z" fill="#282828"/>
<path d="M132.665 24.2517L128.412 34.6315C127.992 35.6582 127.485 36.4582 126.885 37.0382C126.285 37.6182 125.472 37.9048 124.432 37.9048C123.892 37.9048 123.438 37.8715 123.078 37.8115C122.718 37.7515 122.405 37.6715 122.132 37.5715L123.018 34.2249C123.178 34.3249 123.378 34.4049 123.612 34.4715C123.845 34.5382 124.052 34.5715 124.225 34.5715C124.532 34.5715 124.732 34.4915 124.818 34.3249C124.905 34.1582 124.898 33.9782 124.798 33.7782L120.505 24.2517H124.705L126.832 29.6183L128.478 24.2517H132.665Z" fill="#282828"/>
<path d="M145.352 39.3448L141.858 40.0648V37.5648H135.178V40.0648L131.685 39.3448V34.2382H132.278C132.465 34.2382 132.632 34.1649 132.785 34.0249C132.938 33.8849 133.072 33.6915 133.185 33.4582C133.298 33.2249 133.385 32.9516 133.445 32.6449C133.505 32.3382 133.538 32.0116 133.538 31.6649V24.245H144.025V34.2315H145.358V39.3381L145.352 39.3448ZM139.912 27.5783H137.412V31.9649C137.412 32.6649 137.352 33.1782 137.238 33.4982C137.118 33.8182 136.978 34.0649 136.805 34.2382H139.912V27.5783Z" fill="#282828"/>
</svg>
