<svg width="20" height="21" viewBox="0 0 20 21" fill="none" xmlns="http://www.w3.org/2000/svg">
<path d="M18.1156 14.6506C17.9763 15.7092 17.4564 16.681 16.6531 17.3843C15.8497 18.0876 14.8177 18.4744 13.75 18.4725C7.54688 18.4725 2.50001 13.4256 2.50001 7.2225C2.49809 6.15476 2.88492 5.12283 3.58824 4.31945C4.29155 3.51607 5.26326 2.99618 6.32188 2.85687C6.58958 2.82419 6.86067 2.87895 7.09468 3.013C7.3287 3.14704 7.51309 3.35317 7.62032 3.60062L9.27032 7.28422V7.29359C9.35242 7.48301 9.38633 7.68981 9.36901 7.89553C9.3517 8.10124 9.2837 8.29947 9.1711 8.4725C9.15704 8.49359 9.14219 8.51312 9.12657 8.53265L7.50001 10.4608C8.08516 11.6498 9.32891 12.8827 10.5336 13.4694L12.4352 11.8514C12.4538 11.8357 12.4734 11.8211 12.4938 11.8077C12.6666 11.6923 12.8655 11.622 13.0725 11.6029C13.2794 11.5838 13.4878 11.6166 13.6789 11.6983L13.6891 11.703L17.3695 13.3522C17.6174 13.459 17.8241 13.6433 17.9585 13.8773C18.093 14.1114 18.1481 14.3827 18.1156 14.6506Z" fill="#5E5E5E"/>
</svg>
