<svg width="20" height="21" viewBox="0 0 20 21" fill="none" xmlns="http://www.w3.org/2000/svg">
<path d="M13.4375 10.3477C13.4375 11.0275 13.2359 11.6921 12.8582 12.2574C12.4805 12.8227 11.9436 13.2633 11.3155 13.5235C10.6874 13.7837 9.99619 13.8517 9.32938 13.7191C8.66257 13.5865 8.05007 13.2591 7.56932 12.7783C7.08858 12.2976 6.76119 11.6851 6.62855 11.0183C6.49592 10.3515 6.56399 9.6603 6.82417 9.03218C7.08434 8.40406 7.52494 7.8672 8.09023 7.48948C8.65552 7.11176 9.32013 6.91016 10 6.91016C10.9114 6.91119 11.7851 7.27369 12.4295 7.91812C13.074 8.56255 13.4365 9.43629 13.4375 10.3477ZM18.125 10.9727C18.125 12.5796 17.6485 14.1505 16.7557 15.4867C15.8629 16.8228 14.594 17.8642 13.1093 18.4792C11.6247 19.0941 9.99099 19.255 8.4149 18.9415C6.8388 18.628 5.39106 17.8542 4.25476 16.7179C3.11846 15.5816 2.34463 14.1339 2.03112 12.5578C1.71762 10.9817 1.87852 9.348 2.49348 7.86335C3.10844 6.3787 4.14985 5.10975 5.486 4.21697C6.82214 3.32418 8.39303 2.84766 10 2.84766C12.1542 2.84993 14.2195 3.70669 15.7427 5.22993C17.266 6.75317 18.1227 8.81847 18.125 10.9727ZM16.875 10.9727C16.874 10.0473 16.6864 9.13163 16.3234 8.28044C15.9604 7.42924 15.4295 6.65999 14.7624 6.0187C14.0952 5.3774 13.3056 4.87723 12.4408 4.54809C11.5759 4.21896 10.6536 4.06762 9.72891 4.10312C6.04922 4.24531 3.11485 7.31016 3.125 10.9922C3.12853 12.6684 3.74674 14.2851 4.8625 15.5359C5.3169 14.8769 5.8941 14.3116 6.5625 13.8711C6.61949 13.8335 6.68724 13.8155 6.75539 13.82C6.82353 13.8246 6.88832 13.8513 6.93985 13.8961C7.78921 14.6307 8.87466 15.035 9.99766 15.035C11.1207 15.035 12.2061 14.6307 13.0555 13.8961C13.107 13.8513 13.1718 13.8246 13.2399 13.82C13.3081 13.8155 13.3758 13.8335 13.4328 13.8711C14.1021 14.3114 14.6801 14.8767 15.1352 15.5359C16.2564 14.2805 16.8758 12.6559 16.875 10.9727Z" fill="#5E5E5E"/>
</svg>
