<svg width="24" height="25" viewBox="0 0 24 25" fill="none" xmlns="http://www.w3.org/2000/svg">
<path d="M11.8141 13.7431V19.7431C11.8141 19.8923 11.7548 20.0353 11.6493 20.1408C11.5439 20.2463 11.4008 20.3056 11.2516 20.3056C11.1024 20.3056 10.9593 20.2463 10.8538 20.1408C10.7484 20.0353 10.6891 19.8923 10.6891 19.7431V15.1015L4.14909 21.6406C4.04246 21.7399 3.90143 21.794 3.7557 21.7915C3.60998 21.7889 3.47094 21.7298 3.36788 21.6268C3.26482 21.5237 3.20578 21.3847 3.20321 21.239C3.20064 21.0932 3.25473 20.9522 3.35409 20.8456L9.89316 14.3056H5.25159C5.10241 14.3056 4.95934 14.2463 4.85385 14.1408C4.74836 14.0353 4.68909 13.8923 4.68909 13.7431C4.68909 13.5939 4.74836 13.4508 4.85385 13.3453C4.95934 13.2398 5.10241 13.1806 5.25159 13.1806H11.2516C11.4008 13.1806 11.5439 13.2398 11.6493 13.3453C11.7548 13.4508 11.8141 13.5939 11.8141 13.7431ZM19.5016 4.18057H7.50159C7.1535 4.18057 6.81966 4.31885 6.57352 4.56499C6.32737 4.81114 6.18909 5.14498 6.18909 5.49307V9.99307C6.18909 10.1423 6.24836 10.2853 6.35385 10.3908C6.45934 10.4963 6.60241 10.5556 6.75159 10.5556C6.90078 10.5556 7.04385 10.4963 7.14934 10.3908C7.25483 10.2853 7.31409 10.1423 7.31409 9.99307V5.49307C7.31409 5.44334 7.33385 5.39565 7.36901 5.36049C7.40417 5.32533 7.45187 5.30557 7.50159 5.30557H19.5016C19.5513 5.30557 19.599 5.32533 19.6342 5.36049C19.6693 5.39565 19.6891 5.44334 19.6891 5.49307V17.4931C19.6891 17.5428 19.6693 17.5905 19.6342 17.6257C19.599 17.6608 19.5513 17.6806 19.5016 17.6806H15.0016C14.8524 17.6806 14.7093 17.7398 14.6038 17.8453C14.4984 17.9508 14.4391 18.0939 14.4391 18.2431C14.4391 18.3923 14.4984 18.5353 14.6038 18.6408C14.7093 18.7463 14.8524 18.8056 15.0016 18.8056H19.5016C19.8497 18.8056 20.1835 18.6673 20.4297 18.4212C20.6758 18.175 20.8141 17.8412 20.8141 17.4931V5.49307C20.8141 5.14498 20.6758 4.81114 20.4297 4.56499C20.1835 4.31885 19.8497 4.18057 19.5016 4.18057Z" fill="#282828"/>
</svg>
