<svg width="24" height="25" viewBox="0 0 24 25" fill="none" xmlns="http://www.w3.org/2000/svg">
<path d="M23.002 12.5428C23.002 11.795 22.9402 11.0432 22.8082 10.3076H12.2227V14.5435H18.2845C18.033 15.9097 17.2247 17.1182 16.0412 17.8862V20.6346H19.6577C21.7814 18.7188 23.002 15.8895 23.002 12.5428Z" fill="#4285F4"/>
<path d="M12.2222 23.2896C15.249 23.2896 17.8016 22.3155 19.6614 20.6341L16.0449 17.8856C15.0387 18.5566 13.7397 18.9365 12.2263 18.9365C9.29851 18.9365 6.81604 17.0004 5.92532 14.3975H2.19336V17.2308C4.09851 20.9453 7.97892 23.2896 12.2222 23.2896Z" fill="#34A853"/>
<path d="M5.92165 14.3976C5.45155 13.0314 5.45155 11.5521 5.92165 10.1859V7.35254H2.19381C0.602062 10.4608 0.602062 14.1227 2.19381 17.2309L5.92165 14.3976Z" fill="#FBBC04"/>
<path d="M12.2222 5.64292C13.8222 5.61867 15.3686 6.20878 16.5274 7.29201L19.7315 4.15146C17.7026 2.28411 15.0098 1.25747 12.2222 1.2898C7.97892 1.2898 4.09851 3.6341 2.19336 7.35264L5.92119 10.186C6.80779 7.57898 9.29439 5.64292 12.2222 5.64292Z" fill="#EA4335"/>
</svg>
