<svg width="1135" height="37" viewBox="0 0 1135 37" fill="none" xmlns="http://www.w3.org/2000/svg">
<path d="M1085.01 22.2339C1084.98 21.5384 1085.36 20.9838 1086 20.5525C1089.62 18.1492 1093.22 15.7284 1096.82 13.3163C1100.96 10.5521 1105.1 7.77916 1109.23 5.00618C1109.44 4.86533 1109.57 4.85653 1109.78 5.00618C1114.21 7.97283 1118.64 10.9395 1123.07 13.9061C1126.37 16.1157 1129.68 18.3341 1132.98 20.5349C1133.43 20.8342 1133.78 21.2127 1133.93 21.7409C1134.15 22.5772 1133.99 23.3343 1133.34 23.9153C1132.67 24.5139 1131.74 24.6283 1130.98 24.197C1130.36 23.8448 1129.78 23.4311 1129.19 23.0438C1122.92 18.8535 1116.65 14.6544 1110.37 10.4641C1109.76 10.0504 1109.26 10.0504 1108.64 10.4641C1104.87 12.9818 1101.1 15.4995 1097.33 18.026C1094.34 20.0243 1091.36 22.0226 1088.37 24.0209C1087.64 24.5139 1086.88 24.6283 1086.07 24.2058C1085.35 23.8096 1084.99 23.1846 1085 22.2515L1085.01 22.2339Z" fill="#FDE614"/>
<path d="M1113.3 2.55015C1113.66 2.01316 1114 1.49377 1114.36 0.983193C1114.38 0.956783 1114.55 0.983195 1114.61 1.02721C1115.7 1.75787 1116.79 2.48852 1117.89 3.21918C1121.42 5.59602 1124.94 7.97286 1128.47 10.3409C1130.58 11.7582 1132.68 13.1755 1134.79 14.5928C1134.85 14.6368 1134.91 14.6808 1135 14.7425C1134.63 15.2882 1134.27 15.8252 1133.88 16.3974C1127.03 11.7846 1120.18 7.18058 1113.29 2.54134L1113.3 2.55015Z" fill="#FDE614"/>
<path d="M1129.57 17.2425C1128.85 17.2425 1128.24 16.6263 1128.26 15.9132C1128.28 15.1826 1128.88 14.6016 1129.6 14.6016C1130.31 14.6016 1130.93 15.2178 1130.92 15.9308C1130.92 16.6615 1130.31 17.2513 1129.57 17.2513V17.2425Z" fill="#FDE614"/>
<path d="M1113.78 6.31792C1113.78 5.57845 1114.36 4.99745 1115.09 4.98865C1115.82 4.98865 1116.42 5.56085 1116.43 6.2827C1116.43 7.01336 1115.84 7.62077 1115.1 7.62077C1114.36 7.62077 1113.77 7.04857 1113.77 6.30911L1113.78 6.31792Z" fill="#FDE614"/>
<rect y="32.4658" width="1135" height="4" rx="2" fill="#FDE614"/>
</svg>
