<svg width="1135" height="36" viewBox="0 0 1135 36" fill="none" xmlns="http://www.w3.org/2000/svg">
<path d="M1085.01 21.2612C1084.98 20.5658 1085.36 20.0112 1086 19.5798C1089.62 17.1766 1093.22 14.7557 1096.82 12.3437C1100.96 9.57948 1105.1 6.8065 1109.23 4.03352C1109.44 3.89267 1109.57 3.88387 1109.78 4.03352C1114.21 7.00017 1118.64 9.96682 1123.07 12.9335C1126.37 15.143 1129.68 17.3614 1132.98 19.5622C1133.43 19.8615 1133.78 20.24 1133.93 20.7682C1134.15 21.6045 1133.99 22.3616 1133.34 22.9426C1132.67 23.5412 1131.74 23.6557 1130.98 23.2243C1130.36 22.8722 1129.78 22.4584 1129.19 22.0711C1122.92 17.8808 1116.65 13.6817 1110.37 9.49145C1109.76 9.07771 1109.26 9.07771 1108.64 9.49145C1104.87 12.0091 1101.1 14.5268 1097.33 17.0533C1094.34 19.0516 1091.36 21.0499 1088.37 23.0482C1087.64 23.5412 1086.88 23.6557 1086.07 23.2331C1085.35 22.837 1084.99 22.2119 1085 21.2788L1085.01 21.2612Z" fill="#FDE614"/>
<path d="M1113.3 1.57749C1113.66 1.0405 1114 0.521116 1114.36 0.0105363C1114.38 -0.015873 1114.55 0.010539 1114.61 0.0545545C1115.7 0.785212 1116.79 1.51587 1117.89 2.24653C1121.42 4.62337 1124.94 7.0002 1128.47 9.36824C1130.58 10.7855 1132.68 12.2028 1134.79 13.6201C1134.85 13.6642 1134.91 13.7082 1135 13.7698C1134.63 14.3156 1134.27 14.8526 1133.88 15.4248C1127.03 10.812 1120.18 6.20792 1113.29 1.56869L1113.3 1.57749Z" fill="#FDE614"/>
<path d="M1129.57 16.2698C1128.85 16.2698 1128.24 15.6536 1128.26 14.9406C1128.28 14.2099 1128.88 13.6289 1129.6 13.6289C1130.31 13.6289 1130.93 14.2451 1130.92 14.9582C1130.92 15.6888 1130.31 16.2786 1129.57 16.2786V16.2698Z" fill="#FDE614"/>
<path d="M1113.78 5.34526C1113.78 4.6058 1114.36 4.02479 1115.09 4.01599C1115.82 4.01599 1116.42 4.58819 1116.43 5.31005C1116.43 6.0407 1115.84 6.64812 1115.1 6.64812C1114.36 6.64812 1113.77 6.07592 1113.77 5.33646L1113.78 5.34526Z" fill="#FDE614"/>
<rect y="31.4932" width="1135" height="4" rx="2" fill="#FDE614"/>
</svg>
