<svg width="1036" height="36" viewBox="0 0 1036 36" fill="none" xmlns="http://www.w3.org/2000/svg">
<path d="M0.00896496 21.7544C-0.0174574 21.0589 0.361264 20.5043 1.00421 20.073C4.61527 17.6697 8.21752 15.2489 11.8198 12.8368C15.9593 10.0726 20.0988 7.29967 24.2295 4.52669C24.4409 4.38584 24.573 4.37704 24.7844 4.52669C29.2057 7.49334 33.6359 10.46 38.066 13.4266C41.3688 15.6362 44.6804 17.8546 47.9832 20.0554C48.4324 20.3547 48.7847 20.7332 48.9256 21.2614C49.1458 22.0977 48.9873 22.8548 48.3355 23.4358C47.6662 24.0344 46.7414 24.1488 45.9751 23.7175C45.3586 23.3653 44.7773 22.9516 44.1872 22.5643C37.9163 18.374 31.6454 14.1749 25.3745 9.98462C24.7579 9.57087 24.2647 9.57087 23.6394 9.98462C19.8698 12.5023 16.1002 15.02 12.3306 17.5465C9.34488 19.5448 6.35915 21.5431 3.37342 23.5414C2.6424 24.0344 1.87615 24.1488 1.07467 23.7263C0.352457 23.3301 -0.00865017 22.7051 0.000157291 21.772L0.00896496 21.7544Z" fill="#FDE614"/>
<path d="M28.2984 2.07066C28.6595 1.53367 29.003 1.01428 29.3641 0.5037C29.3817 0.477291 29.549 0.503703 29.6107 0.547719C30.7028 1.27838 31.7949 2.00903 32.8871 2.73969C36.4188 5.11653 39.9418 7.49337 43.4736 9.8614C45.5786 11.2787 47.6836 12.696 49.7886 14.1133C49.8502 14.1573 49.9119 14.2013 50 14.263C49.63 14.8088 49.2689 15.3457 48.8814 15.9179C42.0292 11.3051 35.177 6.70109 28.2896 2.06185L28.2984 2.07066Z" fill="#FDE614"/>
<path d="M44.5744 16.763C43.8522 16.763 43.2445 16.1468 43.2621 15.4337C43.2797 14.7031 43.8786 14.1221 44.6008 14.1221C45.3142 14.1221 45.9308 14.7383 45.9219 15.4513C45.9219 16.182 45.3142 16.7718 44.5744 16.7718V16.763Z" fill="#FDE614"/>
<path d="M28.7832 5.83842C28.7832 5.09896 29.3557 4.51796 30.0867 4.50916C30.8177 4.50916 31.4167 5.08136 31.4255 5.80321C31.4343 6.53387 30.8354 7.14128 30.0955 7.14128C29.3557 7.14128 28.7744 6.56908 28.7744 5.82962L28.7832 5.83842Z" fill="#FDE614"/>
<rect y="31.9863" width="1036" height="4" rx="2" fill="#FDE614"/>
</svg>
