<svg width="28" height="28" viewBox="0 0 28 28" fill="none" xmlns="http://www.w3.org/2000/svg">
<path d="M13.3438 14V5.25C13.3438 5.07595 13.4129 4.90903 13.536 4.78596C13.659 4.66289 13.826 4.59375 14 4.59375C14.174 4.59375 14.341 4.66289 14.464 4.78596C14.5871 4.90903 14.6563 5.07595 14.6563 5.25V14C14.6563 14.174 14.5871 14.341 14.464 14.464C14.341 14.5871 14.174 14.6563 14 14.6563C13.826 14.6563 13.659 14.5871 13.536 14.464C13.4129 14.341 13.3438 14.174 13.3438 14ZM19.6088 5.57813C19.4641 5.49935 19.295 5.47788 19.1353 5.51797C18.9755 5.55806 18.8366 5.65678 18.7462 5.79453C18.6559 5.93228 18.6206 6.09897 18.6475 6.26151C18.6744 6.42405 18.7614 6.57053 18.8913 6.67188C21.4823 8.36391 22.9688 11.0338 22.9688 14C22.9688 16.3787 22.0238 18.6599 20.3419 20.3419C18.6599 22.0238 16.3787 22.9688 14 22.9688C11.6213 22.9688 9.3401 22.0238 7.65814 20.3419C5.97617 18.6599 5.03125 16.3787 5.03125 14C5.03125 11.0338 6.51766 8.36391 9.10875 6.67188C9.23863 6.57053 9.32565 6.42405 9.35251 6.26151C9.37938 6.09897 9.34413 5.93228 9.25377 5.79453C9.1634 5.65678 9.02454 5.55806 8.86475 5.51797C8.70496 5.47788 8.53594 5.49935 8.39125 5.57813C5.42172 7.51188 3.71875 10.582 3.71875 14C3.71875 16.7268 4.80195 19.3418 6.73006 21.2699C8.65817 23.1981 11.2732 24.2813 14 24.2813C16.7268 24.2813 19.3418 23.1981 21.2699 21.2699C23.1981 19.3418 24.2813 16.7268 24.2813 14C24.2813 10.582 22.5783 7.51188 19.6088 5.57813Z" fill="#282828"/>
</svg>
