<svg width="424" height="63" viewBox="0 0 424 63" fill="none" xmlns="http://www.w3.org/2000/svg">
<path d="M324.018 42.5224C323.965 41.1315 324.723 40.0223 326.008 39.1596C333.231 34.3531 340.435 29.5114 347.64 24.6873C355.919 19.159 364.198 13.613 372.459 8.06705C372.882 7.78535 373.146 7.76774 373.569 8.06705C382.411 14.0003 391.272 19.9336 400.132 25.8669C406.738 30.2861 413.361 34.7229 419.966 39.1244C420.865 39.723 421.569 40.4801 421.851 41.5365C422.292 43.2091 421.975 44.7232 420.671 45.8852C419.332 47.0824 417.483 47.3113 415.95 46.4486C414.717 45.7444 413.555 44.9169 412.374 44.1422C399.833 35.7616 387.291 27.3635 374.749 18.9829C373.516 18.1554 372.529 18.1554 371.279 18.9829C363.74 24.0183 356.2 29.0537 348.661 34.1067C342.69 38.1033 336.718 42.0999 330.747 46.0965C329.285 47.0824 327.752 47.3113 326.149 46.4662C324.705 45.6739 323.983 44.4239 324 42.5576L324.018 42.5224Z" fill="#FDE614"/>
<path d="M380.597 3.15498C381.319 2.081 382.006 1.04223 382.728 0.0210726C382.763 -0.0317461 383.098 0.0210779 383.221 0.109109C385.406 1.57042 387.59 3.03174 389.774 4.49305C396.838 9.24673 403.884 14.0004 410.947 18.7365C415.157 21.5711 419.367 24.4057 423.577 27.2403C423.7 27.3283 423.824 27.4163 424 27.5396C423.26 28.6312 422.538 29.7052 421.763 30.8496C408.058 21.6239 394.354 12.4158 380.579 3.13737L380.597 3.15498Z" fill="#FDE614"/>
<path d="M413.149 32.5397C411.704 32.5397 410.489 31.3072 410.524 29.8811C410.559 28.4198 411.757 27.2578 413.202 27.2578C414.628 27.2578 415.862 28.4902 415.844 29.9163C415.844 31.3777 414.628 32.5573 413.149 32.5573V32.5397Z" fill="#FDE614"/>
<path d="M381.566 10.6905C381.566 9.2116 382.711 8.04959 384.173 8.03198C385.635 8.03198 386.833 9.17638 386.851 10.6201C386.869 12.0814 385.671 13.2962 384.191 13.2962C382.711 13.2962 381.549 12.1518 381.549 10.6729L381.566 10.6905Z" fill="#FDE614"/>
<rect y="54.9863" width="424" height="8" rx="4" fill="#FDE614"/>
</svg>
