<svg width="28" height="29" viewBox="0 0 28 29" fill="none" xmlns="http://www.w3.org/2000/svg">
<path d="M15.0938 14.9727C15.0938 15.1891 15.0296 15.4005 14.9094 15.5804C14.7892 15.7603 14.6184 15.9004 14.4186 15.9832C14.2187 16.066 13.9988 16.0877 13.7866 16.0455C13.5745 16.0033 13.3796 15.8991 13.2266 15.7461C13.0736 15.5932 12.9695 15.3983 12.9273 15.1861C12.8851 14.9739 12.9067 14.754 12.9895 14.5542C13.0723 14.3543 13.2125 14.1835 13.3923 14.0633C13.5722 13.9431 13.7837 13.879 14 13.879C14.2901 13.879 14.5683 13.9942 14.7734 14.1993C14.9785 14.4045 15.0938 14.6827 15.0938 14.9727ZM9.1875 13.879C8.97118 13.879 8.75971 13.9431 8.57985 14.0633C8.39998 14.1835 8.25979 14.3543 8.17701 14.5542C8.09422 14.754 8.07256 14.9739 8.11477 15.1861C8.15697 15.3983 8.26114 15.5932 8.4141 15.7461C8.56707 15.8991 8.76195 16.0033 8.97412 16.0455C9.18629 16.0877 9.4062 16.066 9.60606 15.9832C9.80592 15.9004 9.97674 15.7603 10.0969 15.5804C10.2171 15.4005 10.2813 15.1891 10.2813 14.9727C10.2813 14.6827 10.166 14.4045 9.9609 14.1993C9.75578 13.9942 9.47758 13.879 9.1875 13.879ZM18.8125 13.879C18.5962 13.879 18.3847 13.9431 18.2048 14.0633C18.025 14.1835 17.8848 14.3543 17.802 14.5542C17.7192 14.754 17.6976 14.9739 17.7398 15.1861C17.782 15.3983 17.8861 15.5932 18.0391 15.7461C18.1921 15.8991 18.387 16.0033 18.5991 16.0455C18.8113 16.0877 19.0312 16.066 19.2311 15.9832C19.4309 15.9004 19.6017 15.7603 19.7219 15.5804C19.8421 15.4005 19.9063 15.1891 19.9063 14.9727C19.9063 14.6827 19.791 14.4045 19.5859 14.1993C19.3808 13.9942 19.1026 13.879 18.8125 13.879ZM25.1563 14.9727C25.1567 16.9067 24.6543 18.8076 23.6985 20.4889C22.7426 22.1701 21.3661 23.574 19.7041 24.5629C18.042 25.5517 16.1514 26.0915 14.2178 26.1292C12.2842 26.167 10.3739 25.7014 8.67453 24.7782L4.86063 26.0491C4.59082 26.1391 4.3013 26.1522 4.02449 26.0869C3.74769 26.0215 3.49455 25.8804 3.29344 25.6793C3.09233 25.4782 2.95121 25.225 2.88588 24.9482C2.82056 24.6714 2.83362 24.3819 2.92359 24.1121L4.19453 20.2982C3.38435 18.8053 2.92578 17.147 2.85378 15.4499C2.78178 13.7528 3.09826 12.0617 3.77908 10.5055C4.45991 8.9493 5.4871 7.56911 6.78233 6.47017C8.07756 5.37122 9.60663 4.58256 11.2529 4.1643C12.8993 3.74604 14.6194 3.70924 16.2821 4.0567C17.9448 4.40415 19.5062 5.1267 20.8472 6.16923C22.1883 7.21177 23.2735 8.54676 24.0203 10.0724C24.7671 11.5981 25.1556 13.2741 25.1563 14.9727ZM23.8438 14.9727C23.8434 13.4627 23.4956 11.973 22.8274 10.6189C22.1592 9.2648 21.1884 8.08257 19.9901 7.1637C18.7919 6.24482 17.3983 5.61393 15.9172 5.31983C14.4361 5.02574 12.9072 5.07633 11.4488 5.46768C9.99035 5.85904 8.64151 6.58067 7.50662 7.57674C6.37172 8.57282 5.4812 9.81664 4.90394 11.212C4.32668 12.6073 4.07817 14.1167 4.17763 15.6234C4.27708 17.1302 4.72185 18.5938 5.4775 19.9012C5.52418 19.9817 5.55319 20.0712 5.56262 20.1638C5.57205 20.2564 5.56167 20.3499 5.53219 20.4382L4.16938 24.5266C4.15652 24.5652 4.15466 24.6065 4.16399 24.6461C4.17332 24.6856 4.19348 24.7218 4.22221 24.7505C4.25094 24.7793 4.2871 24.7994 4.32665 24.8088C4.36619 24.8181 4.40755 24.8162 4.44609 24.8034L8.53125 23.4405C8.59833 23.4185 8.66845 23.4071 8.73906 23.4066C8.85426 23.4073 8.96731 23.4378 9.06719 23.4952C10.5637 24.3618 12.2622 24.8189 13.9915 24.8204C15.7208 24.8219 17.4201 24.3678 18.9181 23.5037C20.4161 22.6397 21.6601 21.3963 22.5248 19.8987C23.3895 18.4011 23.8444 16.7021 23.8438 14.9727Z" fill="#282828"/>
</svg>
