<svg width="20" height="21" viewBox="0 0 20 21" fill="none" xmlns="http://www.w3.org/2000/svg">
<g clip-path="url(#clip0_318_2720)">
<path d="M10 2.44683C12.6717 2.44683 12.9853 2.45874 14.0413 2.50638C15.0179 2.55005 15.5459 2.71281 15.8992 2.85176C16.3676 3.03437 16.7011 3.24874 17.0504 3.59808C17.3998 3.94743 17.6181 4.28089 17.7968 4.74933C17.9317 5.10265 18.0985 5.63064 18.1421 6.60721C18.1898 7.66319 18.2017 7.97681 18.2017 10.6485C18.2017 13.3202 18.1898 13.6338 18.1421 14.6898C18.0985 15.6664 17.9357 16.1944 17.7968 16.5477C17.6141 17.0161 17.3998 17.3496 17.0504 17.6989C16.7011 18.0483 16.3676 18.2666 15.8992 18.4452C15.5459 18.5802 15.0179 18.747 14.0413 18.7906C12.9853 18.8383 12.6717 18.8502 10 18.8502C7.32831 18.8502 7.01469 18.8383 5.95872 18.7906C4.98214 18.747 4.45415 18.5842 4.10084 18.4452C3.6324 18.2626 3.29893 18.0483 2.94959 17.6989C2.60024 17.3496 2.3819 17.0161 2.20326 16.5477C2.06828 16.1944 1.90155 15.6664 1.85788 14.6898C1.81024 13.6338 1.79833 13.3202 1.79833 10.6485C1.79833 7.97681 1.81024 7.66319 1.85788 6.60721C1.90155 5.63064 2.06431 5.10265 2.20326 4.74933C2.38587 4.28089 2.60024 3.94743 2.94959 3.59808C3.29893 3.24874 3.6324 3.0304 4.10084 2.85176C4.45415 2.71678 4.98214 2.55005 5.95872 2.50638C7.01469 2.45477 7.33228 2.44683 10 2.44683ZM10 0.644531C7.28464 0.644531 6.94324 0.656441 5.87535 0.704079C4.81144 0.751717 4.08496 0.922419 3.44978 1.16855C2.79079 1.42262 2.23502 1.76799 1.67924 2.32377C1.12346 2.87955 0.782057 3.43929 0.524018 4.09431C0.277888 4.72949 0.107185 5.45596 0.0595475 6.52385C0.0119095 7.58776 0 7.92917 0 10.6445C0 13.3599 0.0119095 13.7013 0.0595475 14.7692C0.107185 15.8331 0.277888 16.5596 0.524018 17.1987C0.778087 17.8577 1.12346 18.4135 1.67924 18.9693C2.23502 19.525 2.79476 19.8664 3.44978 20.1245C4.08496 20.3706 4.81144 20.5413 5.87932 20.589C6.94721 20.6366 7.28464 20.6485 10.004 20.6485C12.7233 20.6485 13.0607 20.6366 14.1286 20.589C15.1925 20.5413 15.919 20.3706 16.5582 20.1245C17.2172 19.8704 17.7729 19.525 18.3287 18.9693C18.8845 18.4135 19.2259 17.8537 19.4839 17.1987C19.7301 16.5635 19.9008 15.8371 19.9484 14.7692C19.996 13.7013 20.008 13.3639 20.008 10.6445C20.008 7.9252 19.996 7.58776 19.9484 6.51988C19.9008 5.45596 19.7301 4.72949 19.4839 4.09034C19.2299 3.43135 18.8845 2.87558 18.3287 2.3198C17.7729 1.76402 17.2132 1.42262 16.5582 1.16458C15.923 0.918449 15.1965 0.747747 14.1286 0.700109C13.0568 0.656441 12.7154 0.644531 10 0.644531Z" fill="#F3F3F3"/>
<path d="M9.99983 5.51158C7.16537 5.51158 4.86287 7.81011 4.86287 10.6485C4.86287 13.487 7.16141 15.7855 9.99983 15.7855C12.8383 15.7855 15.1368 13.487 15.1368 10.6485C15.1368 7.81011 12.8383 5.51158 9.99983 5.51158ZM9.99983 13.9792C8.15783 13.9792 6.66518 12.4866 6.66518 10.6446C6.66518 8.80256 8.15783 7.30991 9.99983 7.30991C11.8418 7.30991 13.3345 8.80256 13.3345 10.6446C13.3345 12.4866 11.8418 13.9792 9.99983 13.9792Z" fill="#F3F3F3"/>
<path d="M15.3395 6.50402C16.0016 6.50402 16.5384 5.96726 16.5384 5.30513C16.5384 4.643 16.0016 4.10624 15.3395 4.10624C14.6774 4.10624 14.1406 4.643 14.1406 5.30513C14.1406 5.96726 14.6774 6.50402 15.3395 6.50402Z" fill="#F3F3F3"/>
</g>
<defs>
<clipPath id="clip0_318_2720">
<rect width="20" height="20" fill="white" transform="translate(0 0.644531)"/>
</clipPath>
</defs>
</svg>
