<svg width="16" height="17" viewBox="0 0 16 17" fill="none" xmlns="http://www.w3.org/2000/svg">
<path d="M8.00001 1.94184C10.1374 1.94184 10.3883 1.95137 11.233 1.98948C12.0143 2.02441 12.4367 2.15462 12.7193 2.26578C13.0941 2.41187 13.3609 2.58337 13.6403 2.86284C13.9198 3.14232 14.0945 3.40909 14.2374 3.78384C14.3454 4.06649 14.4788 4.48888 14.5137 5.27015C14.5518 6.11493 14.5613 6.36582 14.5613 8.50318C14.5613 10.6405 14.5518 10.8914 14.5137 11.7362C14.4788 12.5175 14.3486 12.9399 14.2374 13.2225C14.0913 13.5973 13.9198 13.864 13.6403 14.1435C13.3609 14.423 13.0941 14.5977 12.7193 14.7406C12.4367 14.8486 12.0143 14.9819 11.233 15.0169C10.3883 15.055 10.1374 15.0645 8.00001 15.0645C5.86265 15.0645 5.61175 15.055 4.76697 15.0169C3.98571 14.9819 3.56332 14.8517 3.28067 14.7406C2.90592 14.5945 2.63914 14.423 2.35967 14.1435C2.08019 13.864 1.90552 13.5973 1.76261 13.2225C1.65463 12.9399 1.52124 12.5175 1.48631 11.7362C1.44819 10.8914 1.43867 10.6405 1.43867 8.50318C1.43867 6.36582 1.44819 6.11493 1.48631 5.27015C1.52124 4.48888 1.65145 4.06649 1.76261 3.78384C1.9087 3.40909 2.08019 3.14232 2.35967 2.86284C2.63914 2.58337 2.90592 2.40869 3.28067 2.26578C3.56332 2.1578 3.98571 2.02441 4.76697 1.98948C5.61175 1.94819 5.86582 1.94184 8.00001 1.94184ZM8.00001 0.5C5.82771 0.5 5.55459 0.509528 4.70028 0.547638C3.84915 0.585748 3.26797 0.72231 2.75983 0.919214C2.23263 1.12247 1.78801 1.39877 1.34339 1.84339C0.89877 2.28801 0.625646 2.73581 0.419214 3.25983C0.222311 3.76796 0.0857484 4.34915 0.047638 5.20345C0.0095276 6.05459 0 6.32771 0 8.5C0 10.6723 0.0095276 10.9454 0.047638 11.7997C0.0857484 12.6509 0.222311 13.232 0.419214 13.7434C0.62247 14.2705 0.89877 14.7152 1.34339 15.1598C1.78801 15.6044 2.23581 15.8775 2.75983 16.084C3.26797 16.2809 3.84915 16.4174 4.70346 16.4555C5.55777 16.4936 5.82771 16.5032 8.00318 16.5032C10.1786 16.5032 10.4486 16.4936 11.3029 16.4555C12.154 16.4174 12.7352 16.2809 13.2465 16.084C13.7737 15.8807 14.2184 15.6044 14.663 15.1598C15.1076 14.7152 15.3807 14.2674 15.5871 13.7434C15.7841 13.2352 15.9206 12.654 15.9587 11.7997C15.9968 10.9454 16.0064 10.6755 16.0064 8.5C16.0064 6.32453 15.9968 6.05458 15.9587 5.20028C15.9206 4.34915 15.7841 3.76796 15.5871 3.25665C15.3839 2.72946 15.1076 2.28484 14.663 1.84021C14.2184 1.39559 13.7706 1.12247 13.2465 0.916038C12.7384 0.719135 12.1572 0.582572 11.3029 0.544462C10.4454 0.509528 10.1723 0.5 8.00001 0.5Z" fill="#282828"/>
<path d="M7.99987 4.39364C5.7323 4.39364 3.8903 6.23246 3.8903 8.5032C3.8903 10.7739 5.72912 12.6128 7.99987 12.6128C10.2706 12.6128 12.1094 10.7739 12.1094 8.5032C12.1094 6.23246 10.2706 4.39364 7.99987 4.39364ZM7.99987 11.1678C6.52627 11.1678 5.33214 9.97363 5.33214 8.50003C5.33214 7.02643 6.52627 5.8323 7.99987 5.8323C9.47347 5.8323 10.6676 7.02643 10.6676 8.50003C10.6676 9.97363 9.47347 11.1678 7.99987 11.1678Z" fill="#282828"/>
<path d="M12.2716 5.18759C12.8013 5.18759 13.2307 4.75818 13.2307 4.22848C13.2307 3.69878 12.8013 3.26937 12.2716 3.26937C11.7419 3.26937 11.3125 3.69878 11.3125 4.22848C11.3125 4.75818 11.7419 5.18759 12.2716 5.18759Z" fill="#282828"/>
</svg>
