<svg width="49" height="147" viewBox="0 0 49 147" fill="none" xmlns="http://www.w3.org/2000/svg">
<g clip-path="url(#clip0_304_8748)">
<path fill-rule="evenodd" clip-rule="evenodd" d="M12.3843 35.5474C12.8534 35.41 13.2212 35.5474 13.5063 35.9318L14.0398 35.2636L18.6751 29.7163C18.6751 29.7163 20.7904 27.3087 21.9952 26.5123C23.2184 25.7068 27.5869 24.1598 27.5869 24.1598C27.5869 24.1598 28.5434 23.0887 29.0125 22.0543C29.4815 21.0382 30.2725 20.7545 30.2725 20.7545L35.3768 20.1045L38.6693 19.3539L39.9293 18.8047C40.2328 18.8871 41.6767 22.2283 41.6767 22.2283C41.6767 22.2283 44.7301 23.2627 45.5855 24.0133C46.4408 24.7822 48.3538 27.5559 48.4917 28.572C48.6297 29.6064 46.6615 39.3829 46.6615 39.3829L42.8815 50.1938C42.8815 50.1938 43.1483 52.2809 43.1023 53.6998C43.0839 55.1003 43.0379 55.7686 42.7988 56.3361C42.5505 56.8854 41.4928 57.0868 41.7043 57.636C41.9067 58.1669 42.3757 59.0549 42.1274 59.7414C41.8791 60.4463 39.9937 61.1786 39.9937 61.1786L35.0457 62.094L22.2067 61.9567L20.7444 60.1167C20.7444 60.1167 19.1165 57.9289 18.8314 57.1234C18.5647 56.2904 19.0521 52.9491 18.6107 50.5416C18.3256 48.9855 18.2428 45.9006 18.3899 43.5937C16.1919 44.262 11.1887 45.2323 10.1954 44.6465C8.88945 43.8958 5.84524 38.1288 5.84524 38.1288C5.84524 38.1288 4.98992 35.3734 4.76919 34.339C4.54847 33.3046 5.6613 32.0688 5.6613 32.0688L9.13777 31.0161C9.13777 31.0161 10.0759 31.2633 10.2782 31.5196C10.5449 31.8674 12.3935 35.2819 12.3935 35.5474H12.3843Z" fill="#FFC700"/>
<path fill-rule="evenodd" clip-rule="evenodd" d="M24.3036 55.1924C24.0828 55.1924 23.9172 55.3573 23.9172 55.577C23.9172 55.7968 24.0828 55.9616 24.3036 55.9616C24.5244 55.9616 24.69 55.7968 24.69 55.577C24.69 55.3573 24.5244 55.1924 24.3036 55.1924Z" fill="#FEFEFE"/>
<path fill-rule="evenodd" clip-rule="evenodd" d="M25.5922 49.498C25.3898 49.498 25.2058 49.6811 25.2058 49.9009C25.2058 50.1023 25.3898 50.2855 25.5922 50.2855C25.813 50.2855 25.997 50.1023 25.997 49.9009C25.997 49.6811 25.813 49.498 25.5922 49.498Z" fill="#FEFEFE"/>
<path fill-rule="evenodd" clip-rule="evenodd" d="M25.7661 44.336C25.7661 44.5374 25.9317 44.7206 26.1525 44.7206C26.3733 44.7206 26.5389 44.5374 26.5389 44.336C26.5389 44.1162 26.3733 43.9331 26.1525 43.9331C25.9317 43.9331 25.7661 44.1162 25.7661 44.336Z" fill="#FEFEFE"/>
<path fill-rule="evenodd" clip-rule="evenodd" d="M28.1665 33.5423C28.1665 33.7621 28.3505 33.9269 28.5529 33.9269C28.7737 33.9269 28.9577 33.7621 28.9577 33.5423C28.9577 33.3226 28.7737 33.1577 28.5529 33.1577C28.3505 33.1577 28.1665 33.3226 28.1665 33.5423Z" fill="#FEFEFE"/>
<path fill-rule="evenodd" clip-rule="evenodd" d="M29.4551 28.2425C29.4551 28.4439 29.6207 28.6271 29.8415 28.6271C30.0623 28.6271 30.2279 28.4439 30.2279 28.2425C30.2279 28.0227 30.0623 27.8396 29.8415 27.8396C29.6207 27.8396 29.4551 28.0227 29.4551 28.2425Z" fill="#FEFEFE"/>
<path fill-rule="evenodd" clip-rule="evenodd" d="M21.9496 142.019C21.9496 142.019 11.1064 143.173 7.60231 143.319C4.10745 143.438 3.37169 142.917 3.37169 142.917C3.30731 143.447 3.30731 144.39 3.77636 144.921C4.44774 145.709 21.3518 144.702 21.9404 144.317C22.1428 144.18 22.2071 143.832 22.1887 143.466C22.1887 142.816 21.9404 142.029 21.9404 142.029L21.9496 142.019Z" fill="#282828"/>
<path fill-rule="evenodd" clip-rule="evenodd" d="M38.1994 142.349C37.1418 142.715 33.6838 143.804 30.3638 144.088C26.3999 144.436 22.9144 143.704 22.9144 143.704C22.8776 143.768 22.85 143.823 22.8316 143.868C22.6661 144.189 22.6293 145.809 23.1995 146.322C23.7513 146.852 28.1197 147.072 30.0511 146.926C31.9824 146.807 37.5556 145.342 37.9879 144.884C38.4109 144.417 38.2086 142.514 38.2086 142.514C38.2086 142.514 38.2086 142.449 38.1902 142.349H38.1994Z" fill="#282828"/>
<path fill-rule="evenodd" clip-rule="evenodd" d="M30.4098 137.707C29.0027 137.772 28.3774 139.932 28.3774 139.932C28.3774 139.932 27.099 141.268 26.6668 141.451C26.2437 141.634 26.0138 141.936 24.5515 142.467C23.3099 142.888 23.0708 143.383 22.9237 143.703C22.9237 143.703 26.4 144.435 30.3731 144.088C33.6931 143.804 37.1511 142.715 38.2087 142.348C38.1443 141.781 37.8868 139.712 37.5373 139.172C37.3718 138.888 37.1327 138.705 36.9304 138.568L36.9488 138.87C36.9488 138.87 35.7256 140.087 34.5668 139.886C33.5092 139.703 32.0653 137.945 30.7409 137.744C30.6398 137.726 30.5386 137.726 30.419 137.726L30.4098 137.707Z" fill="#282828"/>
<path fill-rule="evenodd" clip-rule="evenodd" d="M11.0404 137.955C11.0404 137.955 8.4377 140.061 7.04895 140.61C7.04895 140.61 3.89438 140.829 3.40694 142.514C3.40694 142.514 3.38855 142.679 3.37015 142.917C3.37015 142.917 4.10591 143.448 7.60077 143.319C11.0956 143.182 21.9481 142.02 21.9481 142.02C21.9481 142.02 22.132 138.294 20.403 137.479L20.4858 138.285C20.4858 138.285 19.8788 140.024 17.8002 139.585C15.7033 139.136 14.848 138.083 14.848 138.083C14.848 138.083 14.379 137.351 13.6708 136.966C13.3213 136.783 12.9166 136.683 12.512 136.802C11.2336 137.168 11.0496 137.937 11.0496 137.937L11.0404 137.955Z" fill="#282828"/>
<path fill-rule="evenodd" clip-rule="evenodd" d="M14.2496 134.714C14.1668 135.364 14.0013 136.353 13.6611 136.984C14.3692 137.369 14.8382 138.101 14.8382 138.101C14.8382 138.101 15.6934 139.154 17.7901 139.602C19.8684 140.051 20.4754 138.302 20.4754 138.302L20.0432 134.119C19.4086 134.421 18.1488 134.971 16.9533 134.971C16.2636 134.971 15.2244 134.852 14.2496 134.723V134.714Z" fill="#F3D4CF"/>
<path fill-rule="evenodd" clip-rule="evenodd" d="M31.6707 136.088L30.7327 137.726C32.0569 137.928 33.5007 139.694 34.5583 139.868C35.717 140.07 36.9401 138.852 36.9401 138.852L36.9217 138.55L36.7378 136.811C36.3883 136.875 36.0297 136.93 35.6802 136.976C33.3812 137.195 31.6707 136.088 31.6707 136.088Z" fill="#F3D4CF"/>
<path fill-rule="evenodd" clip-rule="evenodd" d="M25.4805 88.889L29.2421 103.307C29.2421 103.307 31.0539 112.864 31.5046 117.862C31.9552 122.86 31.6707 136.088 31.6707 136.088C31.6707 136.088 33.3809 137.205 35.6802 136.976C36.0297 136.939 36.3883 136.875 36.7378 136.811C38.614 136.427 40.159 135.676 40.159 135.676C41.2351 129.964 40.2418 109.998 39.9383 107.774C39.6348 105.55 38.6783 103.298 38.6783 103.298L38.5955 89.6488C38.5955 89.6488 39.0002 88.4313 39.0002 87.461V85.3921C39.0002 85.3921 40.205 84.0922 40.3798 83.3508C40.5637 82.5818 39.4417 80.7967 39.4417 80.7967L39.4049 74.279C39.4049 74.279 40.8304 72.2376 40.8304 70.1688C40.8304 68.1 40.0763 63.3856 40.0763 63.3856L39.9937 61.1786C39.9937 61.1786 39.7084 60.4929 38.4852 60.264C37.2803 60.0443 21.8384 60.264 20.744 60.0993C20.1737 60.0169 19.7231 60.0993 19.438 60.1816L19.0517 63.0377C19.0517 63.0377 15.3453 69.6196 14.9038 71.5877C14.4531 73.5558 11.8136 82.2614 11.2617 89.3101C10.7283 96.3588 10.7283 100.918 10.8111 103.865L11.7032 134.321C11.7032 134.321 12.908 134.522 14.2508 134.705C15.2257 134.824 16.265 134.953 16.9547 134.953C18.1596 134.953 19.4196 134.403 20.045 134.101C20.2657 134.001 20.4129 133.918 20.4129 133.918C20.4129 133.918 21.4061 117.615 21.4889 114.054C21.5717 110.465 20.0082 105.348 20.0082 105.348C20.0082 105.348 20.6428 104.9 20.8175 104.277C21.0015 103.627 20.8175 102.574 20.8175 102.574L25.4805 88.889Z" fill="#282828"/>
<path fill-rule="evenodd" clip-rule="evenodd" d="M12.2183 23.0705C12.2183 23.0705 12.1539 24.4253 12.7057 25.7251C13.2391 26.9976 14.7199 27.9953 14.7199 27.9953L17.1571 31.8675L19.6586 35.877L20.0449 36.4628L20.5324 37.2317C20.5324 37.2317 20.8542 36.0326 20.8175 35.4467C20.7531 34.8609 21.3877 34.9616 21.6544 34.6778C21.9395 34.4123 21.7188 33.6251 21.6544 32.7737C21.6176 31.9224 22.9328 31.2359 22.9328 31.2359L19.861 28.4256L17.2122 25.9723C17.2122 25.9723 15.6487 20.489 14.8946 20.1412L13.4323 19.4913C13.4323 19.4913 11.133 17.7886 10.7651 17.7886C10.3973 17.7886 8.34633 18.2372 8.34633 18.2372L7.18751 19.3082C7.18751 19.3082 7.25189 19.5096 7.45423 19.6286C7.65656 19.7933 8.04283 19.8757 8.65903 19.5096L10.0662 19.1251L10.8203 19.592C10.8203 19.592 9.3764 20.0405 9.29363 20.1412C9.22925 20.2602 8.53947 21.9812 8.4567 22.2466C8.39232 22.5121 8.59465 22.9789 8.59465 22.9789C8.59465 22.9789 8.61305 23.9127 8.79699 24.1323C8.98093 24.352 9.30282 24.3795 9.30282 24.3795C9.30282 24.3795 9.42238 25.0844 9.9742 24.9654C10.526 24.8281 10.5812 23.9493 10.5812 23.9493L11.0686 22.7501L12.2091 23.0705H12.2183Z" fill="#F3D4CF"/>
<path fill-rule="evenodd" clip-rule="evenodd" d="M5.6237 18.2369L5.25586 19.2254L5.33862 20.4428L5.82602 21.2483L7.45423 19.6286L6.31341 17.7243C5.99155 18.0447 5.6237 18.2277 5.6237 18.2277V18.2369Z" fill="#282828"/>
<path fill-rule="evenodd" clip-rule="evenodd" d="M5.03572 16.433L4.07932 17.87L4.01495 18.5382L4.97135 17.3208L5.74382 16.7167L5.42196 16.2133C5.20125 16.3506 5.03572 16.433 5.03572 16.433Z" fill="#282828"/>
<path fill-rule="evenodd" clip-rule="evenodd" d="M4.75274 14.8957L3.96155 15.8022L4.88154 15.0971L4.75274 14.8957Z" fill="#282828"/>
<path fill-rule="evenodd" clip-rule="evenodd" d="M0.501953 11.8195L1.86298 14.5563L2.65385 12.7165C2.65385 12.7165 3.74819 12.6982 3.18722 14.4007L4.04246 13.5952L2.16645 10.3367L0.501953 11.8378V11.8195Z" fill="#282828"/>
<path fill-rule="evenodd" clip-rule="evenodd" d="M1.31085 17.9074C1.31085 17.9074 1.24647 19.5643 1.53158 20.1318C1.83507 20.6994 4.05152 25.6425 4.05152 25.6425C4.05152 25.6425 5.008 29.5329 5.008 30.4208C5.008 30.8419 5.07238 31.6932 5.21033 32.6269C5.37587 33.643 5.63339 34.7689 6.04725 35.6019C6.80139 37.2039 8.46603 37.3046 8.46603 37.3046C9.54206 36.3526 10.1123 32.7917 10.1123 32.7917L9.45929 31.1074L6.95774 24.7454C6.95774 24.7454 7.22445 22.6583 7.04051 21.6697C6.93935 21.1021 6.75541 20.7177 6.61745 20.4522L5.82652 21.2395L5.33909 20.4339L5.25632 19.2164L5.6237 18.2277C5.6237 18.2277 5.99155 18.0447 6.31341 17.7243C6.49735 17.5595 6.66344 17.3582 6.7646 17.1568C7.13248 16.4703 6.54388 16.1224 6.54388 16.1224L5.75295 16.7083L4.98041 17.3124L4.02393 18.5299L4.08831 17.8617L5.04479 16.4245C5.04479 16.4245 5.21033 16.3421 5.43106 16.2048C5.65178 16.0675 5.96448 15.857 6.26797 15.619C6.90256 15.1338 6.36914 14.4015 6.36914 14.4015L5.14595 14.8866L4.87924 15.088L3.95955 15.7929L4.75049 14.8775L4.76888 14.8592C4.76888 14.8592 5.27471 14.1086 5.15515 13.6051C5.0172 13.0742 4.56655 13.0559 4.56655 13.0559L4.03313 13.5593L3.17782 14.3649C3.74803 12.6622 2.6444 12.6805 2.6444 12.6805L1.85347 14.5205L1.43041 15.5366L1.31085 17.8891V17.9074Z" fill="#F3D4CF"/>
<path fill-rule="evenodd" clip-rule="evenodd" d="M29.3719 19.6094C29.5558 20.0305 29.6938 20.5431 29.7765 21.0649C29.9421 21.9986 29.9605 22.9689 29.9789 23.7012C30.08 23.8202 30.1812 23.9209 30.2824 24.0033L31.7079 23.1337C31.7079 23.1337 36.3707 20.5431 38.6699 19.3714C38.3204 19.1243 38.0629 18.6391 37.879 18.1173C37.8606 18.0807 37.8422 18.035 37.8146 17.98C37.8146 17.98 37.1065 16.8266 36.7938 15.4902C36.6282 14.8219 36.6926 13.9523 36.7938 13.22C36.3063 13.7509 35.6534 14.172 34.844 14.3551C34.844 14.3551 34.5589 16.4971 33.4829 17.5132C32.8115 18.1631 30.8986 19.0693 29.3719 19.6186V19.6094Z" fill="#F3D4CF"/>
<path fill-rule="evenodd" clip-rule="evenodd" d="M24.8374 13.8422C24.8374 13.8422 26.548 19.7922 27.4033 20.021C27.7068 20.1034 28.4793 19.9203 29.3806 19.6183C30.9072 19.069 32.8202 18.1628 33.4915 17.5129C34.5676 16.4968 34.8527 14.3548 34.8527 14.3548C35.662 14.1718 36.3149 13.7507 36.8024 13.2198C37.9428 11.9657 38.1635 10.08 37.5105 9.45755C36.5909 8.58794 34.8067 9.45755 34.8067 9.45755L33.4456 12.0481L32.811 8.50555C29.6381 7.95632 27.8447 6.3178 26.9894 5.22849C27.3113 6.06149 27.8631 7.09587 28.6816 8.0204C27.2745 7.2881 26.4008 6.0981 25.895 5.06373C25.4903 5.79603 24.6718 7.33387 24.5707 7.71833C24.4051 8.26755 24.8926 10.0434 24.8926 10.0434C24.8926 10.0434 23.5682 12.6156 23.7522 13.0641C23.9361 13.4852 24.8282 13.8514 24.8282 13.8514L24.8374 13.8422Z" fill="#F3D4CF"/>
<path fill-rule="evenodd" clip-rule="evenodd" d="M32.8107 8.49672L33.4453 12.0393L34.8064 9.44873C34.8064 9.44873 36.5999 8.5791 37.5104 9.44873C38.1633 10.0804 37.9334 11.9569 36.8022 13.211C36.701 13.9434 36.6366 14.813 36.8022 15.4812C37.1057 16.8177 37.8231 17.9711 37.8231 17.9711C37.8415 18.0352 37.8598 18.0718 37.8874 18.1084L41.7134 8.95442C41.7134 8.95442 41.8329 5.87867 38.4393 2.87615C35.018 -0.117214 28.7916 1.31997 28.7916 1.31997C27.3661 1.01788 25.9865 1.23758 25.03 2.49168C25.03 2.49168 22.6112 2.77546 22.3077 5.76882C22.4457 5.32027 22.694 4.9358 22.9607 4.61541C22.8228 4.99988 22.694 5.56743 22.8779 6.21737C23.1998 7.53554 24.9105 10.0254 24.9105 10.0254C24.9105 10.0254 24.423 8.2404 24.5886 7.70032C24.6897 7.31585 25.5083 5.77797 25.9129 5.04565C26.4188 6.08006 27.2925 7.27008 28.6996 8.0024C27.8903 7.06869 27.3385 6.03429 27.0074 5.21042C27.8627 6.29975 29.6561 7.94747 32.8291 8.48756L32.8107 8.49672Z" fill="#6A7479"/>
<path d="M25.3886 88.9338L20.8637 79.4595C20.8637 79.4595 20.7442 77.3908 20.643 75.3037C20.5602 73.2166 21.2224 63.2022 21.2316 63.1015H21.4431C21.4431 63.2114 20.7717 73.2166 20.8545 75.2945C20.9465 77.2626 21.066 79.2032 21.0752 79.4229L25.5817 88.8423L25.3886 88.9338Z" fill="#CC9E5A"/>
<path d="M20.8098 75.3854L20.6902 75.2115C20.6902 75.2115 23.6608 73.1519 23.7344 71.55C23.8355 69.8657 24.3965 63.1285 24.4057 63.0644L24.6173 63.0827C24.6173 63.1468 24.0471 69.884 23.9459 71.5683C23.8631 73.28 20.9293 75.3122 20.8098 75.3946V75.3854Z" fill="#CC9E5A"/>
<path d="M29.4996 63.3575H29.3892L19.0519 63.147L19.0611 62.9456L29.288 63.147L29.2697 60.1719H29.472L29.4996 63.3575Z" fill="#CC9E5A"/>
<path d="M40.0678 63.4949L30.1995 63.3942V60.172H30.411V63.1836L40.077 63.2843L40.0678 63.4949Z" fill="#CC9E5A"/>
<path d="M9.41438 24.3794L9.21206 24.3611L9.25805 23.519L10.1133 21.7066L10.1593 21.6975L12.2376 21.1483L12.2836 21.3497L10.2604 21.8897L9.46036 23.583L9.41438 24.3794Z" fill="#C2AAA6"/>
<path d="M8.69481 23.0061L8.5017 22.9328L8.92472 21.8253L9.62362 20.5164L11.2605 20.1594L11.3065 20.3608L9.76157 20.6995L9.11784 21.9077L8.69481 23.0061Z" fill="#C2AAA6"/>
<path d="M23.5403 42.0371C23.3564 42.0371 23.1817 41.9822 23.0437 41.8357C22.5931 41.3506 21.3792 39.4559 21.324 39.3735C21.2873 39.3369 20.0182 38.0921 19.8711 37.5429C19.7423 37.1859 19.8895 36.6459 19.9538 36.4354L20.1561 36.4995C20.055 36.8107 19.9814 37.2409 20.0734 37.488C20.1837 37.909 21.1401 38.8976 21.4896 39.2546C21.5172 39.2912 22.7678 41.2316 23.2001 41.7076C23.5771 42.1103 24.5151 41.4605 24.5243 41.4513L24.6439 41.6161C24.6439 41.6161 24.0369 42.0463 23.5311 42.0463L23.5403 42.0371Z" fill="#FFC700"/>
<path d="M30.1254 45.2147C28.9758 45.2147 27.2744 44.4458 26.3271 43.5029C25.4442 42.5967 20.5147 37.3606 20.4687 37.3057L20.625 37.1592C20.671 37.2142 25.6005 42.4502 26.4834 43.3564C27.3939 44.2627 29.031 45.0041 30.1346 45.0041C31.0359 45.0041 40.3891 40.9581 45.2083 38.8161L45.2911 39.0083C44.7209 39.2646 31.3026 45.2147 30.1346 45.2147H30.1254Z" fill="#FFC700"/>
<path d="M30.5399 35.8128L30.4571 35.7212C30.4571 35.7212 29.8409 35.0347 28.9488 34.9065C27.9923 34.76 27.4221 34.5037 27.3945 34.4946H27.3669L26.8979 33.7073L22.888 31.3273L22.9983 31.1534L27.0634 33.5792L27.5141 34.3206C27.6428 34.3756 28.1762 34.5861 28.9856 34.7051C29.7581 34.8241 30.3191 35.3001 30.5307 35.5015C30.9721 34.9706 33.253 32.2244 35.1292 30.659C37.2353 28.9289 42.5052 26.3933 42.5603 26.375L42.6523 26.558C42.5971 26.5855 37.3548 29.1029 35.2671 30.8147C33.207 32.5265 30.6502 35.6846 30.6226 35.7212L30.5491 35.8128H30.5399Z" fill="#FFC700"/>
<path d="M35.2484 30.815L35.138 30.6411C36.7659 29.57 43.0383 29.0116 43.3051 28.9842L43.3235 29.1947C43.2591 29.1947 36.8395 29.7714 35.2576 30.815H35.2484Z" fill="#FFC700"/>
<path d="M21.7561 38.5405L20.4687 37.3057L20.6158 37.1584L21.8113 38.3117C22.1148 38.2202 23.5586 37.7442 24.2115 37.0577C24.4966 36.7557 24.7633 36.5451 24.9932 36.3529C25.3886 36.0326 25.6737 35.8037 25.8116 35.3552C26.0507 34.5315 27.3658 34.3026 27.4209 34.2935L27.4577 34.4948C27.4577 34.4948 26.2163 34.7145 26.0139 35.4102C25.8668 35.9136 25.5357 36.179 25.1311 36.5085C24.9012 36.6916 24.6437 36.9021 24.3678 37.195C23.6046 38.0005 21.8941 38.4948 21.8205 38.5222L21.7653 38.5405H21.7561Z" fill="#FFC700"/>
<path d="M23.8893 37.4747L23.7135 37.5917L26.0138 41.0157L26.1896 40.8987L23.8893 37.4747Z" fill="#FFC700"/>
<path d="M31.5326 40.3437L31.3303 40.3071C31.6246 38.5772 30.4566 35.7122 30.4383 35.6848L30.3095 35.3827L30.5854 35.5566C30.6774 35.6115 32.8201 36.9754 33.4546 38.687L33.2615 38.7602C32.7833 37.4696 31.3579 36.353 30.7509 35.9228C31.0544 36.7282 31.7809 38.8792 31.5326 40.3437Z" fill="#FFC700"/>
<path d="M35.2862 30.7778L35.1023 30.6771L37.8887 25.5147L38.0726 25.6154L35.2862 30.7778Z" fill="#FFC700"/>
<path d="M29.1321 34.8333L28.9298 34.7966C28.9482 34.6685 29.4632 31.602 29.6471 30.8971C29.8402 30.1557 30.0702 29.5332 30.3277 29.0298C30.5392 28.6453 30.6128 27.2997 30.622 26.8054L31.6796 22.8876L34.4386 26.6498L41.6397 22.1461L41.7501 22.32L34.3834 26.9244L31.7716 23.3544L30.8335 26.8329C30.8335 26.8786 30.7967 28.6178 30.5208 29.1213C30.2725 29.6065 30.0426 30.2198 29.8586 30.9429C29.6747 31.6386 29.1505 34.7875 29.1505 34.8241L29.1321 34.8333Z" fill="#FFC700"/>
<path d="M27.6429 34.4391L27.4314 34.4208C27.4314 34.4208 27.6429 31.4641 27.9648 30.091C28.1212 29.3953 28.3051 29.1848 28.4522 29.0109C28.5994 28.8461 28.7189 28.718 28.7557 28.0772C28.8569 26.7773 30.1353 24.0678 30.1904 23.9488L30.3836 24.0403C30.3836 24.0403 29.0684 26.8323 28.9673 28.0955C28.9213 28.8003 28.7833 28.9651 28.6178 29.1482C28.4798 29.3038 28.3143 29.4869 28.1763 30.1368C27.8544 31.4916 27.6521 34.4025 27.6521 34.4391H27.6429Z" fill="#FFC700"/>
<path d="M27.9276 26.018L27.477 24.1507L27.6793 24.105L28.0012 25.4322L29.2518 23.089L30.0427 23.6199L29.9232 23.7846L29.3254 23.391L27.9276 26.018Z" fill="#FFC700"/>
<path d="M14.9684 41.6896L14.7661 41.6439C15.2167 39.8224 13.4327 36.0238 13.4143 35.9872L13.212 35.5662L13.5706 35.8591C13.6902 35.9506 16.4122 38.1931 16.6146 39.978L16.403 40.0054C16.2467 38.6782 14.5454 37.0124 13.7821 36.335C14.2511 37.4059 15.3363 40.161 14.9593 41.6988L14.9684 41.6896Z" fill="#FFC700"/>
<path d="M41.6596 57.8371C41.3377 56.9767 36.5002 45.2049 36.4542 45.0859L36.6474 45.0035C36.6933 45.1225 41.5309 56.9034 41.8527 57.7639L41.6596 57.8371Z" fill="#FFC700"/>
<path d="M23.4481 60.1895C23.4297 60.0522 22.9607 56.8209 23.0803 55.7499C23.2182 54.743 23.7608 53.6812 23.8528 53.5073C23.8528 53.3699 23.8436 52.6834 23.7516 52.299C23.6689 51.8413 24.2482 50.5506 24.3402 50.34L25.3519 42.4952L25.5542 42.5227L24.5242 50.4133C24.3402 50.8069 23.8804 51.9145 23.9448 52.2532C24.0459 52.7017 24.0459 53.4981 24.0459 53.5256V53.5713C24.0459 53.5713 23.4113 54.7247 23.2734 55.7591C23.1538 56.8026 23.6321 60.1071 23.6413 60.1437L23.4389 60.1712L23.4481 60.1895Z" fill="#FFC700"/>
<path d="M27.5151 50.2395L27.3312 50.1388C28.2048 48.5187 28.6186 44.8483 28.6186 44.8117L28.821 44.83C28.8026 44.9856 28.3979 48.5736 27.5059 50.2304L27.5151 50.2395Z" fill="#FFC700"/>
<path d="M22.6026 46.4764C21.9773 44.6824 21.168 39.3552 21.1313 39.1264L21.3336 39.0989C21.3336 39.1539 22.1704 44.6366 22.7958 46.4123L22.6026 46.4764Z" fill="#FFC700"/>
<path d="M10.8303 19.6926L10.8027 19.4911L11.5111 19.3904L12.7439 19.3446L12.7531 19.5552L11.5295 19.5918L10.8303 19.6926Z" fill="#C2AAA6"/>
<path d="M6.22309 24.7909L6.02078 24.7543C6.31505 22.8413 5.74489 21.3036 5.74489 21.2853L5.93801 21.2121C5.9656 21.2761 6.53576 22.823 6.23229 24.7909H6.22309Z" fill="#C2AAA6"/>
<path fill-rule="evenodd" clip-rule="evenodd" d="M33.0507 20.4246C34.9821 18.9874 36.1869 17.0467 36.8583 15.6644C36.8399 15.6003 36.8215 15.5454 36.7939 15.4813C36.6284 14.8131 36.6928 13.9434 36.7939 13.2111C36.3065 13.742 35.6535 14.1631 34.8442 14.3462C34.8442 14.3462 34.559 16.4883 33.483 17.5044C32.8116 18.1543 30.8986 19.0602 29.3719 19.6094C29.5558 20.0305 29.6938 20.5431 29.7765 21.0649C29.8133 21.3487 29.8593 21.6512 29.8961 21.935C31.1009 21.6146 32.1586 21.0653 33.0507 20.4154V20.4246Z" fill="#C2AAA6"/>
<path d="M18.4915 43.594H18.2799C18.3443 41.58 18.7398 36.1699 18.749 36.115L18.9605 36.1333C18.9605 36.1882 18.5559 41.5983 18.4915 43.6031V43.594Z" fill="#FFC700"/>
<path d="M18.2893 43.63C17.3328 41.607 17.5167 35.4829 17.5259 35.2174H17.7375C17.7375 35.2906 17.5443 41.5612 18.4824 43.5385L18.2893 43.63Z" fill="#FFC700"/>
<path d="M8.4207 41.0662C8.08044 41.0662 7.7034 41.0296 7.32636 40.9289L7.38154 40.7276C8.1724 40.9472 9.05523 40.8283 9.3679 40.7733L8.12642 37.3317L10.499 40.1967C11.7497 38.4393 12.2647 35.556 12.2739 35.5286L12.4762 35.5652C12.4762 35.5652 11.9244 38.6498 10.5818 40.4255L10.499 40.5354L8.72417 38.3844L9.64378 40.9289L9.53343 40.9564C9.53343 40.9564 9.02764 41.0754 8.4115 41.0754L8.4207 41.0662Z" fill="#FFC700"/>
<path fill-rule="evenodd" clip-rule="evenodd" d="M9.69884 31.6843C9.29421 33.2678 8.6045 35.2907 7.66649 35.373C6.10315 35.4737 5.24791 32.7644 5.24791 32.7644C5.41344 33.7346 5.67093 34.8055 6.05717 35.6202C6.81125 37.222 8.47575 37.3227 8.47575 37.3227C9.5517 36.3707 10.1219 32.8102 10.1219 32.8102L9.69884 31.6935V31.6843Z" fill="#F3D4CF"/>
<path fill-rule="evenodd" clip-rule="evenodd" d="M21.8396 30.2195C21.1867 31.0891 19.9084 33.0296 19.4394 35.4826L19.6601 35.867L20.0463 36.4528L20.5337 37.2217C20.5337 37.2217 20.8556 36.0226 20.8188 35.4368C20.7544 34.851 21.389 34.9517 21.6557 34.668C21.9407 34.4025 21.72 33.6154 21.6557 32.7641C21.6189 31.9129 22.9339 31.2264 22.9339 31.2264L21.8396 30.2104V30.2195Z" fill="#F3D4CF"/>
<path d="M42.7713 50.2211C42.5966 48.0427 40.0585 43.1824 40.0401 43.1366L40.224 43.0451C40.3252 43.2464 42.7989 47.9878 42.9828 50.212L42.7713 50.2303V50.2211Z" fill="#FFC700"/>
<path d="M38.9752 70.7116L38.7654 70.7381L39.2943 74.8878L39.5041 74.8613L38.9752 70.7116Z" fill="#CC9E5A"/>
<path d="M39.3506 80.8605C38.0447 78.8649 31.5976 71.8529 31.524 71.7797L31.6803 71.6424C31.7447 71.7156 38.2102 78.7367 39.5254 80.7506L39.3506 80.8605Z" fill="#CC9E5A"/>
<path d="M38.9006 85.8489C38.2661 84.2929 35.3417 81.9039 35.3141 81.8765L35.4429 81.7117C35.5624 81.8124 38.4408 84.1556 39.0937 85.7574L38.9006 85.8398V85.8489Z" fill="#CC9E5A"/>
<path d="M19.916 105.393C18.8216 103.096 15.5202 100.295 15.4834 100.267L15.6214 100.112C15.6214 100.112 18.9871 102.968 20.0999 105.311L19.9068 105.402L19.916 105.393Z" fill="#CC9E5A"/>
<path d="M20.7443 102.638C19.7327 101.439 16.7072 100.313 16.6796 100.304L16.7532 100.112C16.8819 100.158 19.8615 101.265 20.9098 102.51L20.7535 102.638H20.7443Z" fill="#CC9E5A"/>
<path d="M38.8155 103.956C37.105 101.933 31.8172 96.6879 31.762 96.633L31.9092 96.4865C31.9644 96.5415 37.2613 101.795 38.9718 103.818L38.8155 103.956Z" fill="#CC9E5A"/>
<path d="M18.6472 134.696H18.4357C18.4357 134.512 19.1714 117.147 19.1714 114.95C19.1714 112.753 18.0218 102.812 18.0126 102.711V102.684L18.0218 102.656C18.1966 102.29 18.1598 101.237 18.1322 100.862V100.825L22.8135 83.5149L23.0158 83.5698L18.3437 100.862C18.3529 101.027 18.4265 102.235 18.2241 102.711C18.2885 103.306 19.383 112.799 19.383 114.95C19.383 117.101 18.6564 134.522 18.6472 134.696Z" fill="#CC9E5A"/>
<path d="M38.5873 136.353H38.3758C38.5781 129.066 36.3616 101.521 36.3432 101.247C36.3432 101.164 35.819 92.9072 36.0397 90.7743C36.2604 88.678 36.0397 82.5082 36.0397 82.4441L35.5063 76.1552V76.1369C35.5063 76.1369 35.8926 74.1138 35.7086 72.5851C35.5523 71.1113 34.6418 67.6968 34.559 67.3947C33.3082 65.8476 32.0666 63.3669 32.0574 63.3394L32.2413 63.2479C32.2413 63.2479 33.4921 65.7469 34.7337 67.2757L34.7521 67.3123C34.7521 67.3123 35.7546 71.0014 35.911 72.5576C36.0857 74.0406 35.7454 75.9721 35.7086 76.1552L36.2328 82.4166C36.2328 82.4807 36.4536 88.6689 36.2328 90.7743C36.0121 92.8889 36.5364 101.128 36.5364 101.21C36.5547 101.485 38.7713 129.039 38.5689 136.334L38.5873 136.353Z" fill="#CC9E5A"/>
<path d="M17.0305 133.497C14.9611 133.497 11.8341 133.039 11.6594 133.012L11.6869 132.811C11.7421 132.811 17.5271 133.671 18.5572 133.103C19.6332 132.499 20.4794 132.188 20.4794 132.188L20.553 132.38C20.553 132.38 19.716 132.692 18.6584 133.287C18.3732 133.442 17.7662 133.506 17.0305 133.506V133.497Z" fill="#CC9E5A"/>
<path d="M35.8558 135.172C33.9336 135.172 31.8367 134.852 31.6987 134.834L31.7355 134.632C31.7907 134.632 36.8859 135.41 38.4494 134.586C40.0313 133.763 40.3624 133.506 40.3624 133.506L40.4911 133.671C40.4911 133.671 40.16 133.927 38.5414 134.779C37.9619 135.09 36.9411 135.191 35.8558 135.191V135.172Z" fill="#CC9E5A"/>
<path fill-rule="evenodd" clip-rule="evenodd" d="M14.2514 134.714C14.2146 135.117 14.1135 135.666 13.9663 136.17C15.2722 136.49 17.4057 136.701 20.2289 135.923L20.045 134.101C19.6955 134.284 19.1529 134.504 18.5368 134.687C18.0494 134.824 17.4976 134.952 16.9459 134.952C16.2562 134.952 15.217 134.833 14.2422 134.705L14.2514 134.714Z" fill="#C2AAA6"/>
<path fill-rule="evenodd" clip-rule="evenodd" d="M31.1008 137.058C32.2779 137.607 34.5953 138.495 36.876 138.23L36.7378 136.811C36.3883 136.875 36.0297 136.93 35.6802 136.976C33.3812 137.195 31.6707 136.088 31.6707 136.088L31.1008 137.058Z" fill="#C2AAA6"/>
<path d="M28.7829 60.2722L28.7002 60.08C28.7002 60.08 33.0775 58.2677 34.7512 54.7621L34.9351 54.8536C33.2247 58.4325 28.8197 60.2539 28.7737 60.2722H28.7829Z" fill="#FFC700"/>
<path d="M30.4015 60.2729C30.3555 60.2729 30.3187 60.2729 30.3095 60.2729V60.0624C30.3647 60.0624 35.5881 60.1173 37.2894 57.8748L37.4549 58.0029C35.7996 60.1814 31.1555 60.2729 30.4107 60.2729H30.4015Z" fill="#FFC700"/>
<path d="M21.7571 56.5193C21.6468 56.3545 19.1454 52.3638 18.5753 50.9725L18.7684 50.8992C19.3293 52.2722 21.9043 56.3728 21.9319 56.4094L21.7571 56.5193Z" fill="#FFC700"/>
<path d="M25.9601 60.1902C25.9601 60.1902 25.8497 59.0185 25.8405 57.9475C25.8313 57.1236 25.8957 56.0343 25.9325 55.3203C25.9417 55.0915 25.9601 54.8993 25.9601 54.762C25.9693 54.5423 25.9877 54.2493 26.0153 53.9381C26.0521 53.4804 26.0797 53.0044 26.0797 52.7207C26.0797 52.2355 26.4199 50.8624 26.5579 50.2949C26.6039 50.0844 26.6315 49.3978 26.6591 48.7388C26.6775 48.2994 26.6958 47.8417 26.7142 47.503C26.7602 46.6792 27.0821 44.0978 27.0913 43.9879L27.2109 44.0337C27.2109 44.0337 26.8798 46.7066 26.8338 47.5305C26.8062 47.86 26.797 48.3085 26.7786 48.7479C26.751 49.4528 26.7234 50.121 26.6775 50.3681C26.4475 51.2652 26.2084 52.3545 26.2084 52.7207C26.2084 53.0227 26.1716 53.4987 26.1348 53.9656C26.1165 54.2677 26.0889 54.5606 26.0797 54.7803C26.0797 54.9176 26.0613 55.1098 26.0521 55.3478C26.0153 56.0618 25.9509 57.142 25.9601 57.9566C25.9693 59.0093 26.0797 60.1536 26.0797 60.1719L25.9601 60.2085V60.1902Z" fill="#FFC700"/>
<path d="M1.86162 17.7424L1.65931 17.7058C1.65931 17.7058 1.82484 16.7996 1.84323 16.6166C1.86162 16.4335 1.99956 15.7653 2.00876 15.7379L2.02715 15.6921L3.1031 14.3191L3.26863 14.4473L2.20188 15.8019C2.17429 15.9209 2.06394 16.4793 2.04554 16.6349C2.02715 16.8179 1.87082 17.6966 1.86162 17.7332V17.7424Z" fill="#C2AAA6"/>
<path d="M2.73573 18.2641L2.53342 18.2092L2.91046 16.7447L3.88525 15.7287L4.03239 15.8751L3.09438 16.8454L2.73573 18.2641Z" fill="#C2AAA6"/>
</g>
<defs>
<clipPath id="clip0_304_8748">
<rect width="48" height="146" fill="white" transform="translate(0.5 0.972168)"/>
</clipPath>
</defs>
</svg>
