<svg width="109" height="54" viewBox="0 0 109 54" fill="none" xmlns="http://www.w3.org/2000/svg">
<rect width="109" height="53" transform="translate(0 0.644531)" fill="#F78D40"/>
<path d="M17.463 15.9165C17.5143 15.9212 17.582 15.9259 17.666 15.9305C17.75 15.9305 17.8643 15.9305 18.009 15.9305C18.6017 15.9305 19.0427 15.7812 19.332 15.4825C19.626 15.1792 19.773 14.7569 19.773 14.2155C19.773 13.6649 19.6307 13.2425 19.346 12.9485C19.0613 12.6545 18.6203 12.5075 18.023 12.5075C17.7617 12.5075 17.575 12.5145 17.463 12.5285V15.9165ZM20.697 14.2155C20.697 14.6355 20.6317 15.0019 20.501 15.3145C20.3703 15.6225 20.1837 15.8815 19.941 16.0915C19.703 16.2969 19.4137 16.4509 19.073 16.5535C18.737 16.6515 18.3637 16.7005 17.953 16.7005C17.757 16.7005 17.5353 16.6912 17.288 16.6725C17.0407 16.6585 16.805 16.6259 16.581 16.5745V11.8635C16.805 11.8122 17.043 11.7795 17.295 11.7655C17.547 11.7515 17.771 11.7445 17.967 11.7445C18.373 11.7445 18.744 11.7935 19.08 11.8915C19.416 11.9849 19.703 12.1342 19.941 12.3395C20.1837 12.5402 20.3703 12.7969 20.501 13.1095C20.6317 13.4175 20.697 13.7862 20.697 14.2155ZM21.8001 16.6445V11.7935H24.9151V12.5425H22.6821V13.7395H24.6701V14.4745H22.6821V15.8955H25.0831V16.6445H21.8001ZM27.4277 16.6445C27.0777 15.8885 26.7393 15.0975 26.4127 14.2715C26.0907 13.4455 25.7897 12.6195 25.5097 11.7935H26.4827C26.5947 12.1202 26.709 12.4539 26.8257 12.7945C26.9423 13.1352 27.059 13.4712 27.1757 13.8025C27.2923 14.1292 27.409 14.4465 27.5257 14.7545C27.6423 15.0625 27.7567 15.3449 27.8687 15.6015C27.976 15.3449 28.088 15.0649 28.2047 14.7615C28.3213 14.4535 28.438 14.1339 28.5547 13.8025C28.676 13.4712 28.795 13.1352 28.9117 12.7945C29.0283 12.4539 29.1403 12.1202 29.2477 11.7935H30.1927C29.908 12.6195 29.6047 13.4455 29.2827 14.2715C28.9607 15.0975 28.6247 15.8885 28.2747 16.6445H27.4277ZM30.96 16.6445V11.7935H34.075V12.5425H31.842V13.7395H33.83V14.4745H31.842V15.8955H34.243V16.6445H30.96ZM38.2675 15.8815V16.6445H35.2015V11.7935H36.0835V15.8815H38.2675ZM39.5215 14.2155C39.5215 14.4815 39.5542 14.7242 39.6195 14.9435C39.6849 15.1582 39.7782 15.3425 39.8995 15.4965C40.0255 15.6459 40.1772 15.7625 40.3545 15.8465C40.5319 15.9305 40.7325 15.9725 40.9565 15.9725C41.1759 15.9725 41.3742 15.9305 41.5515 15.8465C41.7289 15.7625 41.8782 15.6459 41.9995 15.4965C42.1255 15.3425 42.2212 15.1582 42.2865 14.9435C42.3519 14.7242 42.3845 14.4815 42.3845 14.2155C42.3845 13.9495 42.3519 13.7092 42.2865 13.4945C42.2212 13.2752 42.1255 13.0909 41.9995 12.9415C41.8782 12.7875 41.7289 12.6685 41.5515 12.5845C41.3742 12.5005 41.1759 12.4585 40.9565 12.4585C40.7325 12.4585 40.5319 12.5005 40.3545 12.5845C40.1772 12.6685 40.0255 12.7875 39.8995 12.9415C39.7782 13.0955 39.6849 13.2799 39.6195 13.4945C39.5542 13.7092 39.5215 13.9495 39.5215 14.2155ZM43.3085 14.2155C43.3085 14.6309 43.2455 14.9972 43.1195 15.3145C42.9982 15.6319 42.8302 15.8979 42.6155 16.1125C42.4055 16.3225 42.1582 16.4812 41.8735 16.5885C41.5889 16.6959 41.2855 16.7495 40.9635 16.7495C40.6415 16.7495 40.3359 16.6959 40.0465 16.5885C39.7619 16.4812 39.5122 16.3225 39.2975 16.1125C39.0875 15.8979 38.9195 15.6319 38.7935 15.3145C38.6675 14.9972 38.6045 14.6309 38.6045 14.2155C38.6045 13.8002 38.6675 13.4362 38.7935 13.1235C38.9195 12.8062 39.0899 12.5402 39.3045 12.3255C39.5239 12.1109 39.7759 11.9499 40.0605 11.8425C40.3452 11.7352 40.6462 11.6815 40.9635 11.6815C41.2809 11.6815 41.5819 11.7352 41.8665 11.8425C42.1512 11.9499 42.3985 12.1109 42.6085 12.3255C42.8232 12.5402 42.9935 12.8062 43.1195 13.1235C43.2455 13.4362 43.3085 13.8002 43.3085 14.2155ZM45.7881 11.7445C46.4928 11.7445 47.0318 11.8729 47.4051 12.1295C47.7831 12.3862 47.9721 12.7875 47.9721 13.3335C47.9721 13.6182 47.9208 13.8632 47.8181 14.0685C47.7201 14.2692 47.5755 14.4349 47.3841 14.5655C47.1928 14.6915 46.9595 14.7849 46.6841 14.8455C46.4088 14.9062 46.0938 14.9365 45.7391 14.9365H45.2981V16.6445H44.4161V11.8635C44.6215 11.8169 44.8478 11.7865 45.0951 11.7725C45.3471 11.7539 45.5781 11.7445 45.7881 11.7445ZM45.8511 12.5075C45.6271 12.5075 45.4428 12.5145 45.2981 12.5285V14.1805H45.7251C46.1498 14.1805 46.4765 14.1222 46.7051 14.0055C46.9338 13.8842 47.0481 13.6579 47.0481 13.3265C47.0481 13.1679 47.0178 13.0349 46.9571 12.9275C46.8965 12.8202 46.8125 12.7362 46.7051 12.6755C46.5978 12.6149 46.4695 12.5729 46.3201 12.5495C46.1755 12.5215 46.0191 12.5075 45.8511 12.5075ZM48.9174 16.6445V11.7935H52.0324V12.5425H49.7994V13.7395H51.7874V14.4745H49.7994V15.8955H52.2004V16.6445H48.9174ZM54.041 15.9165C54.0923 15.9212 54.16 15.9259 54.244 15.9305C54.328 15.9305 54.4423 15.9305 54.587 15.9305C55.1797 15.9305 55.6207 15.7812 55.91 15.4825C56.204 15.1792 56.351 14.7569 56.351 14.2155C56.351 13.6649 56.2087 13.2425 55.924 12.9485C55.6393 12.6545 55.1983 12.5075 54.601 12.5075C54.3397 12.5075 54.153 12.5145 54.041 12.5285V15.9165ZM57.275 14.2155C57.275 14.6355 57.2097 15.0019 57.079 15.3145C56.9483 15.6225 56.7617 15.8815 56.519 16.0915C56.281 16.2969 55.9917 16.4509 55.651 16.5535C55.315 16.6515 54.9417 16.7005 54.531 16.7005C54.335 16.7005 54.1133 16.6912 53.866 16.6725C53.6187 16.6585 53.383 16.6259 53.159 16.5745V11.8635C53.383 11.8122 53.621 11.7795 53.873 11.7655C54.125 11.7515 54.349 11.7445 54.545 11.7445C54.951 11.7445 55.322 11.7935 55.658 11.8915C55.994 11.9849 56.281 12.1342 56.519 12.3395C56.7617 12.5402 56.9483 12.7969 57.079 13.1095C57.2097 13.4175 57.275 13.7862 57.275 14.2155ZM61.6149 16.7005C61.3582 16.7005 61.0992 16.6912 60.8379 16.6725C60.5766 16.6585 60.3479 16.6259 60.1519 16.5745V11.8635C60.2546 11.8449 60.3642 11.8285 60.4809 11.8145C60.5976 11.7959 60.7166 11.7819 60.8379 11.7725C60.9592 11.7632 61.0782 11.7562 61.1949 11.7515C61.3162 11.7469 61.4306 11.7445 61.5379 11.7445C61.8319 11.7445 62.1049 11.7679 62.3569 11.8145C62.6089 11.8565 62.8259 11.9289 63.0079 12.0315C63.1946 12.1342 63.3392 12.2695 63.4419 12.4375C63.5446 12.6055 63.5959 12.8132 63.5959 13.0605C63.5959 13.2892 63.5399 13.4852 63.4279 13.6485C63.3206 13.8119 63.1689 13.9425 62.9729 14.0405C63.2669 14.1385 63.4839 14.2832 63.6239 14.4745C63.7639 14.6659 63.8339 14.9085 63.8339 15.2025C63.8339 15.7019 63.6519 16.0775 63.2879 16.3295C62.9239 16.5769 62.3662 16.7005 61.6149 16.7005ZM61.0199 14.4605V15.9375C61.1179 15.9469 61.2229 15.9539 61.3349 15.9585C61.4469 15.9632 61.5496 15.9655 61.6429 15.9655C61.8249 15.9655 61.9929 15.9539 62.1469 15.9305C62.3056 15.9072 62.4409 15.8675 62.5529 15.8115C62.6696 15.7509 62.7606 15.6715 62.8259 15.5735C62.8959 15.4755 62.9309 15.3495 62.9309 15.1955C62.9309 14.9202 62.8306 14.7289 62.6299 14.6215C62.4292 14.5142 62.1516 14.4605 61.7969 14.4605H61.0199ZM61.0199 13.7675H61.6429C61.9789 13.7675 62.2426 13.7209 62.4339 13.6275C62.6252 13.5295 62.7209 13.3569 62.7209 13.1095C62.7209 12.8762 62.6206 12.7105 62.4199 12.6125C62.2239 12.5145 61.9672 12.4655 61.6499 12.4655C61.5146 12.4655 61.3932 12.4679 61.2859 12.4725C61.1832 12.4772 61.0946 12.4842 61.0199 12.4935V13.7675ZM66.3663 13.9425C66.5763 13.5925 66.7816 13.2379 66.9823 12.8785C67.1829 12.5192 67.3649 12.1575 67.5283 11.7935H68.5083C68.2469 12.2882 67.9739 12.7805 67.6893 13.2705C67.4093 13.7559 67.1083 14.2459 66.7863 14.7405V16.6445H65.9043V14.7545C65.5823 14.2552 65.2789 13.7605 64.9943 13.2705C64.7096 12.7805 64.4366 12.2882 64.1753 11.7935H65.2113C65.3746 12.1575 65.5543 12.5192 65.7503 12.8785C65.9463 13.2379 66.1516 13.5925 66.3663 13.9425Z" fill="#F0F0F0" fill-opacity="0.5"/>
<path d="M18.2506 28.6148C18.3331 29.2204 19.049 29.6241 19.9257 29.6241C20.8478 29.6241 21.446 29.2321 21.446 28.701C21.446 28.2111 21.0541 27.972 20.002 27.7642L18.7849 27.5369C17.0706 27.2253 16.1877 26.3433 16.1877 25.0028C16.1877 23.288 17.7349 22.1846 19.8865 22.1846C22.2134 22.1846 23.5873 23.2566 23.6121 24.9166H21.4275C21.3821 24.2738 20.757 23.8877 19.9071 23.8877C19.0572 23.8877 18.5332 24.2424 18.5332 24.7814C18.5332 25.2596 18.9458 25.5222 19.9195 25.7123L21.1242 25.9259C22.9623 26.263 23.7874 27.0528 23.7874 28.4502C23.7874 30.214 22.2588 31.3272 19.8679 31.3272C17.477 31.3272 16.0289 30.3336 16 28.6148H18.2506Z" fill="#F0F0F0"/>
<path d="M31.7585 31.1783V27.6212H28.0452V31.1783H25.6874V22.3433H28.0514V25.8083H31.7647V22.3433H34.1225V31.1783H31.7585Z" fill="#F0F0F0"/>
<path d="M35.8059 31.1783L38.927 22.3433H41.8151L44.9507 31.1783H42.434L41.846 29.238H38.8094L35.8059 31.1783ZM39.2653 27.6212H41.386L40.3546 24.2169H40.303L39.2653 27.6212Z" fill="#F0F0F0"/>
<path d="M46.6319 31.1783V22.3433H50.6608C52.6577 22.3433 54.0109 23.5741 54.0109 25.4791C54.0109 27.384 52.5875 28.5952 50.5184 28.5952H48.9981L46.6319 31.1783ZM48.9981 26.9058H50.0295C51.0342 26.9058 51.6262 26.41 51.6262 25.485C51.6262 24.5599 51.0342 24.07 50.0419 24.07H49.0105L48.9981 26.9058Z" fill="#F0F0F0"/>
<path d="M64.7813 26.7628C64.7813 29.5791 63.0093 31.3312 60.1914 31.3312C57.3734 31.3312 55.5973 29.5791 55.5973 26.7628C55.5973 23.9465 57.3755 22.1885 60.1914 22.1885C63.0072 22.1885 64.7813 23.9465 64.7813 26.7628ZM58.0067 26.7628C58.0067 28.4404 58.8649 29.5066 60.1914 29.5066C61.5178 29.5066 62.378 28.4404 62.378 26.7628C62.378 25.0852 61.5137 24.019 60.1914 24.019C58.869 24.019 58.0067 25.0871 58.0067 26.7628Z" fill="#F0F0F0"/>
<path d="M69.1897 24.6148L70.3676 28.9793H70.4192L72.2057 22.3433H74.7967L71.8302 31.1783H68.8535L65.8891 22.3433" fill="#F0F0F0"/>
<path d="M74.8792 31.1783L78.0045 22.3433H80.8925L84.0178 31.1783H81.5114L80.9235 29.238H77.8828L74.8792 31.1783ZM78.3407 27.6212H80.4614L79.4299 24.2169H79.3784L78.3407 27.6212Z" fill="#F0F0F0"/>
<path d="M88.0714 29.3654H91.9187V31.1783H85.7053V22.3433" fill="#F0F0F0"/>
<path d="M16.0664 43.0197L19.2515 34.0181H22.1994L25.3845 43.0197H22.8224L22.218 41.0422H19.1236L16.0664 43.0197ZM19.5898 39.3959H21.7518L20.6997 35.927H20.6481L19.5898 39.3959Z" fill="#F0F0F0"/>
<path d="M38.8882 38.1103V39.2156C38.8882 41.6732 37.2854 43.1764 34.5871 43.1764C31.664 43.1764 29.9043 41.4616 29.9043 38.5042C29.9043 35.584 31.664 33.8613 34.5273 33.8613C36.8253 33.8613 38.5458 35.1529 38.7892 36.9971H36.4066C36.1693 36.1994 35.4597 35.7134 34.5335 35.7134C33.1678 35.7134 32.3612 36.7286 32.3612 38.4826C32.3612 40.2367 33.2545 41.346 34.6304 41.346C35.7217 41.346 36.487 40.7345 36.5489 39.829V39.6918H34.8161" fill="#F0F0F0"/>
<path d="M51.0201 43.0197H44.5241V34.0181H51.0201V35.8663H46.9356V37.6576H50.7767V39.3411H46.9356V41.1755H51.0201V43.0197Z" fill="#F0F0F0"/>
<path d="M56.821 43.0197V34.0181H58.7436L62.7642 39.2529H62.8158V34.0181H65.1015V43.0197H63.1974L59.1582 37.7281H59.1067V43.0197H56.821Z" fill="#F0F0F0"/>
<path d="M70.4237 38.5297C70.4237 35.5899 72.1999 33.8888 75.0137 33.8888C77.4046 33.8888 79.2178 35.3508 79.29 37.4714H76.9775C76.86 36.415 76.0678 35.7075 75.0137 35.7075C73.7037 35.7075 72.8724 36.7717 72.8724 38.514C72.8724 40.2563 73.6975 41.3538 75.0281 41.3538C76.0822 41.3538 76.8496 40.6933 77.0002 39.6429H79.3107C79.1993 41.7771 77.4541 43.1823 75.0219 43.1823C72.1854 43.1764 70.4237 41.4655 70.4237 38.5297Z" fill="#F0F0F0"/>
<path d="M86.5143 43.0197V39.927L83.2508 34.0181H85.8377L87.7211 37.7614H87.7686L89.6458 34.0181H92.1873L88.9238 39.927V43.0197H86.5143Z" fill="#F0F0F0"/>
</svg>
