<svg width="21" height="21" viewBox="0 0 21 21" fill="none" xmlns="http://www.w3.org/2000/svg">
<path d="M17.3752 6.59733H14.6345C14.665 6.57155 14.6962 6.54655 14.7259 6.5192C14.9632 6.3084 15.1544 6.05091 15.2876 5.76283C15.4208 5.47475 15.4932 5.16228 15.5001 4.84497C15.5104 4.49783 15.4496 4.15226 15.3215 3.82948C15.1934 3.50669 15.0006 3.21349 14.7551 2.96789C14.5096 2.72228 14.2164 2.52945 13.8937 2.40124C13.5709 2.27302 13.2254 2.21212 12.8782 2.22228C12.5608 2.22912 12.2482 2.30141 11.9599 2.43463C11.6717 2.56786 11.4141 2.75914 11.2032 2.99651C10.9114 3.33471 10.6742 3.71639 10.5001 4.12777C10.326 3.71639 10.0888 3.33471 9.79695 2.99651C9.58606 2.75914 9.32844 2.56786 9.04022 2.43463C8.752 2.30141 8.43938 2.22912 8.12193 2.22228C7.7748 2.21212 7.42925 2.27302 7.1065 2.40124C6.78375 2.52945 6.49061 2.72228 6.24508 2.96789C5.99955 3.21349 5.8068 3.50669 5.67868 3.82948C5.55056 4.15226 5.48977 4.49783 5.50003 4.84497C5.50698 5.16228 5.57932 5.47475 5.71254 5.76283C5.84576 6.05091 6.03698 6.3084 6.27426 6.5192C6.30395 6.54498 6.3352 6.56998 6.36567 6.59733H3.62501C3.29349 6.59733 2.97554 6.72902 2.74112 6.96345C2.5067 7.19787 2.375 7.51582 2.375 7.84734V10.3474C2.375 10.6789 2.5067 10.9968 2.74112 11.2313C2.97554 11.4657 3.29349 11.5974 3.62501 11.5974V16.5974C3.62501 16.929 3.75671 17.2469 3.99113 17.4813C4.22556 17.7157 4.5435 17.8474 4.87503 17.8474H9.56257C9.64545 17.8474 9.72494 17.8145 9.78355 17.7559C9.84215 17.6973 9.87508 17.6178 9.87508 17.5349V10.3474H3.62501V7.84734H9.87508V10.3474H11.1251V7.84734H17.3752V10.3474H11.1251V17.5349C11.1251 17.6178 11.158 17.6973 11.2166 17.7559C11.2752 17.8145 11.3547 17.8474 11.4376 17.8474H16.1251C16.4567 17.8474 16.7746 17.7157 17.009 17.4813C17.2435 17.2469 17.3752 16.929 17.3752 16.5974V11.5974C17.7067 11.5974 18.0246 11.4657 18.259 11.2313C18.4935 10.9968 18.6252 10.6789 18.6252 10.3474V7.84734C18.6252 7.51582 18.4935 7.19787 18.259 6.96345C18.0246 6.72902 17.7067 6.59733 17.3752 6.59733ZM7.10239 5.58169C6.99311 5.48273 6.90547 5.36225 6.84497 5.2278C6.78447 5.09336 6.75242 4.94786 6.75083 4.80043C6.74688 4.6277 6.77744 4.45591 6.84072 4.29514C6.90401 4.13437 6.99875 3.98785 7.11938 3.86415C7.24002 3.74046 7.38413 3.64209 7.54327 3.5748C7.7024 3.50752 7.87337 3.47267 8.04615 3.4723H8.08443C8.23185 3.47389 8.37736 3.50594 8.5118 3.56644C8.64625 3.62694 8.76673 3.71458 8.86569 3.82386C9.52117 4.56449 9.75242 5.79263 9.83367 6.55201C9.07116 6.47154 7.84381 6.24029 7.10239 5.58169ZM13.8993 5.58169C13.1579 6.23795 11.9274 6.4692 11.1649 6.55045C11.2579 5.72935 11.5157 4.52699 12.1407 3.82464C12.2397 3.71536 12.3602 3.62772 12.4946 3.56722C12.6291 3.50672 12.7746 3.47467 12.922 3.47308H12.9603C13.1331 3.47416 13.3039 3.50971 13.4628 3.57766C13.6216 3.64561 13.7653 3.74459 13.8855 3.8688C14.0056 3.993 14.0997 4.13993 14.1623 4.30098C14.225 4.46203 14.2548 4.63395 14.2501 4.80668C14.2476 4.95311 14.215 5.09744 14.1544 5.23076C14.0938 5.36407 14.0064 5.48351 13.8978 5.58169H13.8993Z" fill="#5E5E5E"/>
</svg>
