<svg width="67" height="147" viewBox="0 0 67 147" fill="none" xmlns="http://www.w3.org/2000/svg">
<g clip-path="url(#clip0_304_8860)">
<path d="M64.7404 115.958V118.706L55.2605 124.201V121.454L64.7404 115.958Z" fill="url(#paint0_linear_304_8860)"/>
<path d="M55.2605 121.454V124.201L45.7171 118.706V115.958L55.2605 121.454Z" fill="url(#paint1_linear_304_8860)"/>
<path d="M64.7404 115.958L55.2605 121.454L45.7171 115.958L55.1982 110.463L64.7404 115.958Z" fill="url(#paint2_linear_304_8860)"/>
<path d="M55.2602 121.382L45.778 115.922L45.7171 115.958L55.2605 121.454L64.7404 115.958L64.6793 115.923L55.2602 121.382Z" fill="white"/>
<path d="M62.935 115.514C62.935 115.514 62.9327 115.522 62.9315 115.526C62.9186 115.561 62.9011 115.596 62.8777 115.63C62.873 115.636 62.8695 115.643 62.8648 115.649C62.8402 115.683 62.811 115.715 62.7759 115.747C62.7536 115.767 62.7244 115.785 62.6975 115.804C62.6741 115.82 62.6542 115.838 62.6273 115.854C62.5606 115.893 62.4857 115.924 62.4073 115.951C62.3792 115.961 62.3511 115.969 62.323 115.977C62.2868 115.987 62.2493 115.997 62.2107 116.005C62.1651 116.014 62.1194 116.022 62.0726 116.028C62.0621 116.029 62.0516 116.032 62.0411 116.033C61.979 116.04 61.9147 116.042 61.8515 116.043C61.8421 116.043 61.8316 116.043 61.8222 116.043C61.7602 116.043 61.6982 116.04 61.6362 116.033C61.6268 116.033 61.6175 116.031 61.6081 116.029C61.5473 116.022 61.4864 116.012 61.4279 115.999C61.4174 115.997 61.4057 115.993 61.3952 115.991C61.3413 115.978 61.2898 115.962 61.2407 115.944C61.2313 115.941 61.222 115.938 61.2126 115.935C61.1529 115.912 61.0956 115.885 61.0418 115.854C60.8206 115.727 60.7095 115.559 60.7106 115.392V115.962C60.7106 116.129 60.8206 116.297 61.0418 116.424C61.0921 116.453 61.1471 116.479 61.2033 116.501C61.2068 116.501 61.2091 116.503 61.2126 116.504C61.222 116.508 61.2313 116.51 61.2407 116.514C61.2735 116.525 61.3062 116.537 61.3402 116.548C61.3577 116.552 61.3776 116.557 61.3952 116.562C61.4057 116.564 61.4162 116.567 61.4279 116.57C61.4373 116.572 61.4478 116.575 61.4572 116.577C61.4934 116.584 61.5309 116.591 61.5683 116.597C61.5812 116.599 61.5941 116.599 61.6069 116.601C61.6163 116.601 61.6257 116.604 61.635 116.605C61.6491 116.606 61.6631 116.608 61.6771 116.61C61.7134 116.613 61.7509 116.614 61.7883 116.615C61.8 116.615 61.8105 116.615 61.8222 116.615C61.8328 116.615 61.8421 116.615 61.8515 116.615C61.869 116.615 61.8866 116.615 61.903 116.615C61.9451 116.614 61.9861 116.611 62.027 116.607C62.0317 116.607 62.0352 116.606 62.0399 116.605C62.0504 116.605 62.0609 116.601 62.0715 116.6C62.1042 116.597 62.1382 116.592 62.1698 116.586C62.1838 116.584 62.1955 116.579 62.2095 116.577C62.2482 116.569 62.2844 116.559 62.3219 116.549C62.3418 116.543 62.3628 116.541 62.3815 116.534C62.3909 116.531 62.3979 116.525 62.4061 116.523C62.4845 116.496 62.5594 116.466 62.6261 116.426C62.6308 116.424 62.6355 116.42 62.6401 116.418C62.6612 116.405 62.6776 116.39 62.6963 116.376C62.7232 116.357 62.7525 116.339 62.7747 116.318C62.777 116.315 62.7806 116.314 62.7817 116.312C62.8075 116.287 62.8309 116.263 62.8508 116.237C62.8554 116.231 62.859 116.226 62.8625 116.22C62.8671 116.214 62.8707 116.208 62.8753 116.201C62.8824 116.19 62.8905 116.181 62.8964 116.171C62.9081 116.15 62.9186 116.129 62.9268 116.106C62.928 116.103 62.928 116.099 62.9292 116.097C62.9303 116.092 62.9315 116.089 62.9327 116.084C62.9374 116.07 62.942 116.057 62.9444 116.043C62.9491 116.022 62.9514 116 62.9514 115.979C62.9514 115.976 62.9514 115.972 62.9514 115.97V115.4C62.9514 115.439 62.9444 115.477 62.9327 115.515L62.935 115.514Z" fill="url(#paint3_linear_304_8860)"/>
<path d="M62.6235 114.937C63.0623 115.189 63.0649 115.6 62.6273 115.854C62.192 116.106 61.4806 116.106 61.0418 115.854C60.603 115.602 60.6004 115.191 61.0357 114.938C61.4733 114.685 62.1835 114.686 62.6223 114.938L62.6235 114.937Z" fill="url(#paint4_linear_304_8860)"/>
<path d="M62.5353 114.608C62.5353 114.608 62.5341 114.613 62.5329 114.616C62.5247 114.638 62.513 114.66 62.499 114.682C62.4966 114.686 62.4943 114.69 62.4908 114.694C62.4756 114.715 62.4557 114.736 62.4334 114.757C62.4194 114.77 62.4006 114.782 62.3843 114.793C62.369 114.804 62.3562 114.815 62.3398 114.825C62.2976 114.849 62.2496 114.869 62.1993 114.887C62.1817 114.892 62.163 114.898 62.1454 114.903C62.122 114.91 62.0986 114.916 62.074 114.921C62.0448 114.926 62.0155 114.932 61.9862 114.936C61.9792 114.936 61.9734 114.938 61.9664 114.938C61.9266 114.943 61.8856 114.944 61.8458 114.945C61.8399 114.945 61.8329 114.945 61.827 114.945C61.7873 114.945 61.7474 114.943 61.7088 114.938C61.703 114.938 61.6971 114.937 61.6913 114.936C61.6526 114.931 61.614 114.924 61.5765 114.916C61.5695 114.915 61.5625 114.912 61.5555 114.911C61.5215 114.903 61.4887 114.892 61.4571 114.881C61.4513 114.878 61.4454 114.877 61.4396 114.875C61.401 114.86 61.3647 114.843 61.3307 114.824C61.1891 114.742 61.1188 114.636 61.1188 114.529V115.308C61.1188 115.414 61.1891 115.522 61.3307 115.602C61.3635 115.621 61.3974 115.637 61.4337 115.651C61.4361 115.651 61.4372 115.653 61.4396 115.654C61.4454 115.656 61.4513 115.657 61.4571 115.66C61.4782 115.667 61.4993 115.675 61.5204 115.681C61.5321 115.684 61.5438 115.687 61.5555 115.689C61.5625 115.69 61.5695 115.692 61.5765 115.694C61.5824 115.695 61.5894 115.697 61.5953 115.698C61.6187 115.703 61.6421 115.708 61.6667 115.711C61.6749 115.711 61.6831 115.713 61.6913 115.713C61.6971 115.713 61.703 115.715 61.7088 115.716C61.7182 115.716 61.7264 115.718 61.7357 115.719C61.7592 115.722 61.7826 115.723 61.806 115.723C61.813 115.723 61.82 115.723 61.827 115.723C61.8329 115.723 61.8399 115.723 61.8458 115.723C61.8563 115.723 61.868 115.723 61.8786 115.723C61.9055 115.723 61.9312 115.72 61.9582 115.717C61.9605 115.717 61.964 115.717 61.9664 115.717C61.9734 115.717 61.9792 115.715 61.9862 115.715C62.0073 115.712 62.0284 115.71 62.0495 115.706C62.0577 115.705 62.0658 115.702 62.0752 115.701C62.0998 115.696 62.1232 115.689 62.1466 115.683C62.1595 115.68 62.1724 115.677 62.1852 115.674C62.1911 115.671 62.1958 115.669 62.2005 115.667C62.2496 115.649 62.2976 115.63 62.3409 115.605C62.3433 115.604 62.3468 115.601 62.3491 115.6C62.3632 115.592 62.3725 115.583 62.3854 115.573C62.403 115.562 62.4205 115.55 62.4358 115.536C62.4369 115.535 62.4393 115.534 62.4404 115.532C62.4568 115.517 62.472 115.501 62.4849 115.485C62.4884 115.481 62.4896 115.476 62.4931 115.473C62.4955 115.469 62.499 115.465 62.5013 115.461C62.506 115.454 62.5107 115.448 62.5142 115.441C62.5212 115.428 62.5282 115.414 62.5329 115.4C62.5329 115.398 62.5329 115.396 62.5353 115.395C62.5353 115.392 62.5364 115.389 62.5376 115.386C62.5399 115.378 62.5435 115.369 62.5446 115.361C62.547 115.347 62.5493 115.334 62.5493 115.32C62.5493 115.318 62.5493 115.315 62.5493 115.314V114.535C62.5493 114.56 62.5446 114.584 62.5376 114.609L62.5353 114.608Z" fill="url(#paint5_linear_304_8860)"/>
<path d="M62.3372 114.24C62.617 114.401 62.6184 114.662 62.3398 114.825C62.0623 114.986 61.6091 114.985 61.3293 114.825C61.0496 114.664 61.0472 114.402 61.3246 114.241C61.6032 114.079 62.0574 114.08 62.3372 114.241V114.24Z" fill="url(#paint6_linear_304_8860)"/>
<path d="M61.3308 115.067C61.3648 115.087 61.4011 115.103 61.4397 115.119C61.4455 115.121 61.4514 115.122 61.4573 115.124C61.4889 115.136 61.5216 115.147 61.5556 115.155C61.5626 115.156 61.5696 115.158 61.5766 115.159C61.6141 115.168 61.6527 115.175 61.6914 115.179C61.6972 115.179 61.7031 115.18 61.7089 115.182C61.7487 115.186 61.7885 115.188 61.8283 115.189C61.8342 115.189 61.8412 115.189 61.8471 115.189C61.888 115.189 61.9278 115.186 61.9676 115.182C61.9747 115.182 61.9805 115.179 61.9875 115.179C62.018 115.176 62.0472 115.17 62.0753 115.164C62.0999 115.159 62.1233 115.152 62.1467 115.147C62.1655 115.142 62.183 115.136 62.2006 115.13C62.2509 115.113 62.2977 115.094 62.341 115.068C62.3586 115.059 62.3715 115.047 62.3855 115.037C62.4031 115.025 62.4207 115.014 62.4359 115.001C62.4581 114.981 62.4768 114.96 62.4932 114.938C62.4956 114.934 62.4979 114.929 62.5014 114.926C62.5155 114.904 62.5272 114.882 62.5354 114.859C62.5354 114.857 62.5365 114.854 62.5377 114.851C62.5459 114.827 62.5494 114.802 62.5494 114.778V114.708C62.5494 114.732 62.5447 114.757 62.5377 114.781C62.5377 114.783 62.5365 114.787 62.5354 114.789C62.5272 114.812 62.5155 114.834 62.5014 114.856C62.4991 114.859 62.4967 114.864 62.4932 114.868C62.478 114.889 62.4581 114.91 62.4359 114.931C62.4218 114.943 62.4031 114.955 62.3855 114.967C62.3703 114.977 62.3574 114.989 62.341 114.998C62.2989 115.023 62.2509 115.043 62.2006 115.06C62.183 115.066 62.1643 115.072 62.1467 115.077C62.1233 115.084 62.0999 115.089 62.0753 115.094C62.0461 115.1 62.0168 115.106 61.9875 115.109C61.9805 115.109 61.9747 115.112 61.9676 115.112C61.9278 115.116 61.888 115.117 61.8471 115.119C61.8412 115.119 61.8342 115.119 61.8283 115.119C61.7885 115.119 61.7487 115.116 61.7089 115.112C61.7031 115.112 61.6972 115.11 61.6914 115.109C61.6527 115.105 61.6141 115.098 61.5766 115.089C61.5696 115.088 61.5626 115.086 61.5556 115.085C61.5216 115.077 61.4889 115.066 61.4573 115.054C61.4514 115.052 61.4455 115.051 61.4397 115.049C61.4011 115.033 61.3648 115.017 61.3308 114.997C61.1904 114.915 61.119 114.809 61.1201 114.703V114.773C61.1201 114.879 61.1904 114.987 61.3308 115.067Z" fill="url(#paint7_linear_304_8860)"/>
<path d="M61.3308 115.248C61.3648 115.268 61.4011 115.284 61.4397 115.299C61.4455 115.301 61.4514 115.303 61.4573 115.305C61.4889 115.317 61.5216 115.327 61.5556 115.335C61.5626 115.337 61.5696 115.339 61.5766 115.34C61.6141 115.348 61.6527 115.355 61.6914 115.36C61.6972 115.36 61.7031 115.361 61.7089 115.362C61.7487 115.367 61.7885 115.368 61.8283 115.369C61.8342 115.369 61.8412 115.369 61.8471 115.369C61.888 115.369 61.9278 115.367 61.9676 115.362C61.9747 115.362 61.9805 115.36 61.9875 115.36C62.018 115.356 62.0472 115.351 62.0753 115.345C62.0999 115.34 62.1233 115.333 62.1467 115.327C62.1655 115.323 62.183 115.317 62.2006 115.311C62.2509 115.293 62.2977 115.275 62.341 115.249C62.3586 115.24 62.3715 115.228 62.3855 115.217C62.4031 115.206 62.4207 115.194 62.4359 115.181C62.4581 115.161 62.4768 115.14 62.4932 115.118C62.4956 115.115 62.4979 115.11 62.5014 115.106C62.5155 115.084 62.5272 115.062 62.5354 115.04C62.5354 115.038 62.5365 115.034 62.5377 115.032C62.5459 115.007 62.5494 114.983 62.5494 114.958V114.888C62.5494 114.913 62.5447 114.937 62.5377 114.962C62.5377 114.964 62.5365 114.968 62.5354 114.97C62.5272 114.992 62.5155 115.014 62.5014 115.036C62.4991 115.04 62.4967 115.045 62.4932 115.048C62.478 115.069 62.4581 115.09 62.4359 115.111C62.4218 115.124 62.4031 115.136 62.3855 115.147C62.3703 115.158 62.3574 115.17 62.341 115.179C62.2989 115.203 62.2509 115.223 62.2006 115.241C62.183 115.247 62.1643 115.252 62.1467 115.257C62.1233 115.264 62.0999 115.27 62.0753 115.275C62.0461 115.28 62.0168 115.286 61.9875 115.29C61.9805 115.29 61.9747 115.292 61.9676 115.292C61.9278 115.297 61.888 115.298 61.8471 115.299C61.8412 115.299 61.8342 115.299 61.8283 115.299C61.7885 115.299 61.7487 115.297 61.7089 115.292C61.7031 115.292 61.6972 115.291 61.6914 115.29C61.6527 115.285 61.6141 115.278 61.5766 115.27C61.5696 115.269 61.5626 115.266 61.5556 115.265C61.5216 115.257 61.4889 115.247 61.4573 115.235C61.4514 115.233 61.4455 115.231 61.4397 115.229C61.4011 115.214 61.3648 115.198 61.3308 115.178C61.1904 115.096 61.119 114.99 61.1201 114.883V114.954C61.1201 115.06 61.1904 115.167 61.3308 115.248Z" fill="url(#paint8_linear_304_8860)"/>
<path d="M61.3308 115.43C61.3648 115.45 61.4011 115.466 61.4397 115.481C61.4455 115.484 61.4514 115.485 61.4573 115.487C61.4889 115.499 61.5216 115.509 61.5556 115.518C61.5626 115.519 61.5696 115.521 61.5766 115.522C61.6141 115.53 61.6527 115.537 61.6914 115.542C61.6972 115.542 61.7031 115.543 61.7089 115.544C61.7487 115.549 61.7885 115.55 61.8283 115.551C61.8342 115.551 61.8412 115.551 61.8471 115.551C61.888 115.551 61.9278 115.549 61.9676 115.544C61.9747 115.544 61.9805 115.542 61.9875 115.542C62.018 115.539 62.0472 115.533 62.0753 115.527C62.0999 115.522 62.1233 115.515 62.1467 115.509C62.1655 115.505 62.183 115.499 62.2006 115.493C62.2509 115.476 62.2977 115.457 62.341 115.431C62.3586 115.422 62.3715 115.41 62.3855 115.4C62.4031 115.388 62.4207 115.376 62.4359 115.363C62.4581 115.344 62.4768 115.323 62.4932 115.3C62.4956 115.297 62.4979 115.292 62.5014 115.289C62.5155 115.267 62.5272 115.244 62.5354 115.222C62.5354 115.22 62.5365 115.216 62.5377 115.214C62.5459 115.189 62.5494 115.165 62.5494 115.14V115.07C62.5494 115.095 62.5447 115.119 62.5377 115.144C62.5377 115.146 62.5365 115.15 62.5354 115.152C62.5272 115.174 62.5155 115.196 62.5014 115.219C62.4991 115.222 62.4967 115.227 62.4932 115.23C62.478 115.251 62.4581 115.272 62.4359 115.293C62.4218 115.306 62.4031 115.318 62.3855 115.33C62.3703 115.34 62.3574 115.352 62.341 115.361C62.2989 115.386 62.2509 115.405 62.2006 115.423C62.183 115.429 62.1643 115.435 62.1467 115.439C62.1233 115.446 62.0999 115.452 62.0753 115.457C62.0461 115.463 62.0168 115.469 61.9875 115.472C61.9805 115.472 61.9747 115.474 61.9676 115.474C61.9278 115.479 61.888 115.48 61.8471 115.481C61.8412 115.481 61.8342 115.481 61.8283 115.481C61.7885 115.481 61.7487 115.479 61.7089 115.474C61.7031 115.474 61.6972 115.473 61.6914 115.472C61.6527 115.467 61.6141 115.46 61.5766 115.452C61.5696 115.451 61.5626 115.449 61.5556 115.448C61.5216 115.439 61.4889 115.429 61.4573 115.417C61.4514 115.415 61.4455 115.414 61.4397 115.411C61.4011 115.396 61.3648 115.38 61.3308 115.36C61.1904 115.278 61.119 115.172 61.1201 115.066V115.136C61.1201 115.242 61.1904 115.349 61.3308 115.43Z" fill="url(#paint9_linear_304_8860)"/>
<path d="M56.3644 119.429C56.3644 119.429 56.3621 119.437 56.3609 119.442C56.348 119.477 56.3305 119.512 56.3071 119.546C56.3024 119.552 56.2989 119.559 56.2942 119.564C56.2696 119.598 56.2404 119.631 56.2053 119.662C56.1831 119.682 56.1538 119.701 56.1269 119.72C56.1035 119.736 56.0836 119.754 56.0567 119.77C55.99 119.808 55.9151 119.84 55.8367 119.867C55.8086 119.876 55.7805 119.884 55.7513 119.892C55.715 119.903 55.6776 119.912 55.639 119.92C55.5933 119.93 55.5477 119.938 55.5009 119.944C55.4904 119.945 55.4798 119.947 55.4693 119.948C55.4073 119.955 55.3429 119.958 55.2797 119.959C55.2704 119.959 55.2598 119.959 55.2505 119.959C55.1885 119.959 55.1265 119.955 55.0644 119.948C55.0551 119.948 55.0457 119.946 55.0364 119.945C54.9755 119.938 54.9147 119.927 54.8562 119.915C54.8456 119.912 54.8339 119.909 54.8234 119.906C54.7696 119.894 54.7181 119.877 54.6689 119.86C54.6596 119.856 54.6502 119.854 54.6409 119.85C54.5812 119.827 54.5239 119.8 54.47 119.77C54.2489 119.643 54.1377 119.475 54.1389 119.308V119.877C54.1389 120.044 54.2489 120.212 54.47 120.339C54.5203 120.369 54.5753 120.394 54.6315 120.417C54.635 120.417 54.6374 120.419 54.6409 120.42C54.6502 120.424 54.6596 120.426 54.6689 120.429C54.7017 120.441 54.7345 120.453 54.7684 120.463C54.7871 120.468 54.8058 120.473 54.8234 120.477C54.8339 120.48 54.8445 120.483 54.8562 120.485C54.8655 120.488 54.8761 120.49 54.8854 120.492C54.9217 120.499 54.9591 120.506 54.9966 120.512C55.0094 120.515 55.0223 120.515 55.0352 120.517C55.0445 120.517 55.0539 120.519 55.0633 120.52C55.0773 120.522 55.0914 120.524 55.1054 120.525C55.1417 120.529 55.1791 120.53 55.2166 120.531C55.2283 120.531 55.2388 120.531 55.2505 120.531C55.261 120.531 55.2704 120.531 55.2797 120.531C55.2973 120.531 55.3148 120.531 55.3312 120.531C55.3733 120.53 55.4143 120.526 55.4553 120.523C55.4599 120.523 55.4634 120.522 55.4681 120.52C55.4787 120.52 55.4892 120.517 55.4997 120.516C55.5325 120.511 55.5664 120.508 55.598 120.502C55.612 120.499 55.6237 120.495 55.6378 120.492C55.6764 120.484 55.7127 120.475 55.7501 120.464C55.77 120.459 55.7911 120.456 55.8098 120.449C55.8192 120.447 55.8262 120.441 55.8344 120.439C55.9128 120.412 55.9877 120.381 56.0543 120.342C56.059 120.339 56.0637 120.336 56.0684 120.334C56.0895 120.321 56.1058 120.306 56.1246 120.292C56.1515 120.273 56.1807 120.254 56.2029 120.233C56.2053 120.231 56.2088 120.23 56.21 120.227C56.2357 120.203 56.2591 120.178 56.279 120.153C56.2837 120.147 56.2872 120.141 56.2907 120.135C56.2954 120.129 56.2989 120.122 56.3036 120.117C56.3106 120.106 56.3188 120.097 56.3246 120.086C56.3363 120.065 56.3469 120.044 56.3551 120.022C56.3562 120.018 56.3562 120.015 56.3574 120.013C56.3586 120.008 56.3597 120.004 56.3609 120C56.3656 119.986 56.3703 119.973 56.3726 119.959C56.3773 119.938 56.3796 119.916 56.3796 119.895C56.3796 119.891 56.3796 119.888 56.3796 119.885V119.316C56.3796 119.354 56.3726 119.393 56.3609 119.43L56.3644 119.429Z" fill="url(#paint10_linear_304_8860)"/>
<path d="M56.0526 118.852C56.4914 119.104 56.4943 119.515 56.0567 119.77C55.6214 120.022 54.9106 120.022 54.4718 119.77C54.033 119.517 54.0295 119.107 54.4648 118.853C54.9024 118.6 55.6126 118.601 56.0514 118.853L56.0526 118.852Z" fill="url(#paint11_linear_304_8860)"/>
<path d="M55.9663 118.522C55.9663 118.522 55.9651 118.528 55.9639 118.53C55.9557 118.553 55.944 118.575 55.93 118.597C55.9277 118.601 55.9253 118.605 55.9218 118.609C55.9066 118.63 55.8879 118.651 55.8644 118.672C55.8504 118.685 55.8317 118.696 55.8153 118.708C55.8001 118.718 55.7872 118.73 55.7708 118.739C55.7287 118.764 55.6807 118.784 55.6303 118.801C55.6128 118.807 55.594 118.813 55.5765 118.818C55.5531 118.825 55.5297 118.831 55.5051 118.835C55.4758 118.841 55.4465 118.847 55.4173 118.85C55.4103 118.85 55.4044 118.853 55.3974 118.853C55.3576 118.857 55.3166 118.859 55.2768 118.86C55.271 118.86 55.2639 118.86 55.2581 118.86C55.2183 118.86 55.1785 118.857 55.1398 118.853C55.134 118.853 55.1281 118.852 55.1223 118.85C55.0837 118.846 55.045 118.839 55.0076 118.831C55.0005 118.829 54.9935 118.827 54.9865 118.826C54.9526 118.818 54.9198 118.807 54.8882 118.796C54.8823 118.793 54.8765 118.792 54.8706 118.79C54.832 118.774 54.7957 118.758 54.7617 118.738C54.6201 118.657 54.5499 118.55 54.5499 118.444V119.223C54.5499 119.329 54.6201 119.437 54.7617 119.517C54.7945 119.536 54.8285 119.552 54.8648 119.566C54.8671 119.566 54.8683 119.567 54.8706 119.569C54.8765 119.571 54.8823 119.572 54.8882 119.574C54.9092 119.581 54.9303 119.59 54.9514 119.595C54.9631 119.599 54.9748 119.601 54.9865 119.604C54.9935 119.605 55.0005 119.607 55.0076 119.608C55.0134 119.609 55.0205 119.612 55.0263 119.613C55.0497 119.618 55.0731 119.622 55.0977 119.626C55.1059 119.627 55.1141 119.628 55.1223 119.628C55.1281 119.628 55.134 119.629 55.1398 119.63C55.1492 119.63 55.1574 119.633 55.1668 119.634C55.1902 119.636 55.2136 119.637 55.237 119.637C55.244 119.637 55.2511 119.637 55.2581 119.637C55.2639 119.637 55.271 119.637 55.2768 119.637C55.2873 119.637 55.299 119.637 55.3096 119.637C55.3365 119.637 55.3623 119.635 55.3892 119.632C55.3915 119.632 55.395 119.632 55.3974 119.632C55.4044 119.632 55.4103 119.629 55.4173 119.629C55.4384 119.627 55.4594 119.625 55.4805 119.621C55.4887 119.62 55.4969 119.616 55.5062 119.615C55.5308 119.611 55.5542 119.604 55.5776 119.598C55.5905 119.594 55.6034 119.592 55.6163 119.588C55.6221 119.586 55.6268 119.584 55.6315 119.581C55.6807 119.564 55.7287 119.545 55.772 119.519C55.7743 119.518 55.7778 119.516 55.7802 119.515C55.7942 119.507 55.8036 119.497 55.8164 119.488C55.834 119.476 55.8516 119.465 55.8668 119.451C55.868 119.449 55.8703 119.448 55.8715 119.447C55.8879 119.432 55.9031 119.416 55.916 119.399C55.9195 119.396 55.9206 119.391 55.9241 119.388C55.9265 119.384 55.93 119.379 55.9323 119.376C55.937 119.369 55.9417 119.363 55.9452 119.356C55.9522 119.343 55.9593 119.329 55.9639 119.315C55.9639 119.313 55.9639 119.31 55.9663 119.309C55.9663 119.307 55.9675 119.303 55.9686 119.301C55.971 119.293 55.9745 119.284 55.9756 119.275C55.978 119.261 55.9803 119.249 55.9803 119.235C55.9803 119.232 55.9803 119.23 55.9803 119.229V118.45C55.9803 118.474 55.9756 118.499 55.9686 118.523L55.9663 118.522Z" fill="url(#paint12_linear_304_8860)"/>
<path d="M55.7669 118.156C56.0467 118.317 56.0491 118.579 55.7705 118.741C55.493 118.902 55.0388 118.901 54.7591 118.741C54.4793 118.58 54.477 118.318 54.7544 118.157C55.033 117.995 55.4872 117.996 55.7669 118.157V118.156Z" fill="url(#paint13_linear_304_8860)"/>
<path d="M54.7596 118.982C54.7936 119.002 54.8298 119.018 54.8685 119.034C54.8743 119.036 54.8802 119.037 54.886 119.039C54.9176 119.051 54.9504 119.062 54.9844 119.07C54.9914 119.071 54.9984 119.073 55.0054 119.074C55.0429 119.083 55.0815 119.09 55.1201 119.094C55.126 119.094 55.1319 119.095 55.1377 119.097C55.1775 119.101 55.2173 119.102 55.2571 119.104C55.263 119.104 55.27 119.104 55.2758 119.104C55.3168 119.104 55.3566 119.101 55.3964 119.097C55.4034 119.097 55.4093 119.094 55.4163 119.094C55.4467 119.091 55.476 119.085 55.5041 119.079C55.5287 119.074 55.5521 119.067 55.5755 119.062C55.5942 119.057 55.6118 119.051 55.6294 119.045C55.6797 119.028 55.7265 119.009 55.7698 118.983C55.7874 118.974 55.8003 118.962 55.8143 118.952C55.8319 118.94 55.8494 118.928 55.8646 118.916C55.8869 118.896 55.9056 118.875 55.922 118.853C55.9243 118.849 55.9267 118.844 55.9302 118.841C55.9442 118.819 55.9559 118.797 55.9641 118.774C55.9641 118.772 55.9653 118.77 55.9665 118.766C55.9747 118.742 55.9782 118.717 55.9782 118.693V118.623C55.9782 118.647 55.9735 118.672 55.9665 118.696C55.9665 118.698 55.9653 118.702 55.9641 118.704C55.9559 118.726 55.9442 118.749 55.9302 118.771C55.9279 118.774 55.9255 118.779 55.922 118.782C55.9068 118.804 55.8869 118.825 55.8646 118.844C55.8506 118.857 55.8319 118.869 55.8143 118.881C55.7991 118.891 55.7862 118.903 55.7698 118.912C55.7277 118.937 55.6797 118.956 55.6294 118.974C55.6118 118.98 55.5931 118.986 55.5755 118.99C55.5521 118.997 55.5287 119.003 55.5041 119.008C55.4748 119.014 55.4456 119.02 55.4163 119.023C55.4093 119.023 55.4034 119.025 55.3964 119.025C55.3566 119.03 55.3168 119.031 55.2758 119.032C55.27 119.032 55.263 119.032 55.2571 119.032C55.2173 119.032 55.1775 119.03 55.1377 119.025C55.1319 119.025 55.126 119.024 55.1201 119.023C55.0815 119.018 55.0429 119.011 55.0054 119.003C54.9984 119.002 54.9914 119 54.9844 118.999C54.9504 118.99 54.9176 118.98 54.886 118.968C54.8802 118.966 54.8743 118.965 54.8685 118.962C54.8298 118.947 54.7936 118.931 54.7596 118.911C54.6191 118.829 54.5477 118.723 54.5489 118.617V118.687C54.5489 118.793 54.6191 118.9 54.7596 118.981V118.982Z" fill="url(#paint14_linear_304_8860)"/>
<path d="M54.7596 119.163C54.7936 119.183 54.8298 119.199 54.8685 119.215C54.8743 119.217 54.8802 119.218 54.886 119.22C54.9176 119.232 54.9504 119.243 54.9844 119.251C54.9914 119.252 54.9984 119.254 55.0054 119.255C55.0429 119.264 55.0815 119.271 55.1201 119.275C55.126 119.275 55.1319 119.276 55.1377 119.278C55.1775 119.282 55.2173 119.283 55.2571 119.285C55.263 119.285 55.27 119.285 55.2758 119.285C55.3168 119.285 55.3566 119.282 55.3964 119.278C55.4034 119.278 55.4093 119.275 55.4163 119.275C55.4467 119.272 55.476 119.266 55.5041 119.26C55.5287 119.255 55.5521 119.248 55.5755 119.243C55.5942 119.238 55.6118 119.232 55.6294 119.226C55.6797 119.209 55.7265 119.19 55.7698 119.164C55.7874 119.155 55.8003 119.143 55.8143 119.133C55.8319 119.121 55.8494 119.109 55.8646 119.097C55.8869 119.077 55.9056 119.056 55.922 119.034C55.9243 119.03 55.9267 119.025 55.9302 119.022C55.9442 119 55.9559 118.978 55.9641 118.955C55.9641 118.953 55.9653 118.951 55.9665 118.947C55.9747 118.923 55.9782 118.898 55.9782 118.874V118.804C55.9782 118.828 55.9735 118.853 55.9665 118.877C55.9665 118.879 55.9653 118.883 55.9641 118.885C55.9559 118.907 55.9442 118.93 55.9302 118.952C55.9279 118.955 55.9255 118.96 55.922 118.964C55.9068 118.985 55.8869 119.006 55.8646 119.025C55.8506 119.038 55.8319 119.05 55.8143 119.062C55.7991 119.072 55.7862 119.084 55.7698 119.093C55.7277 119.118 55.6797 119.137 55.6294 119.155C55.6118 119.161 55.5931 119.167 55.5755 119.171C55.5521 119.178 55.5287 119.184 55.5041 119.189C55.4748 119.195 55.4456 119.201 55.4163 119.204C55.4093 119.204 55.4034 119.206 55.3964 119.206C55.3566 119.211 55.3168 119.212 55.2758 119.213C55.27 119.213 55.263 119.213 55.2571 119.213C55.2173 119.213 55.1775 119.211 55.1377 119.206C55.1319 119.206 55.126 119.205 55.1201 119.204C55.0815 119.199 55.0429 119.192 55.0054 119.184C54.9984 119.183 54.9914 119.181 54.9844 119.18C54.9504 119.171 54.9176 119.161 54.886 119.149C54.8802 119.147 54.8743 119.146 54.8685 119.143C54.8298 119.128 54.7936 119.112 54.7596 119.092C54.6191 119.01 54.5477 118.904 54.5489 118.798V118.868C54.5489 118.974 54.6191 119.081 54.7596 119.162V119.163Z" fill="url(#paint15_linear_304_8860)"/>
<path d="M54.7596 119.346C54.7936 119.366 54.8298 119.382 54.8685 119.397C54.8743 119.399 54.8802 119.401 54.886 119.403C54.9176 119.415 54.9504 119.425 54.9844 119.433C54.9914 119.434 54.9984 119.437 55.0054 119.438C55.0429 119.446 55.0815 119.453 55.1201 119.458C55.126 119.458 55.1319 119.459 55.1377 119.46C55.1775 119.465 55.2173 119.466 55.2571 119.467C55.263 119.467 55.27 119.467 55.2758 119.467C55.3168 119.467 55.3566 119.465 55.3964 119.46C55.4034 119.46 55.4093 119.458 55.4163 119.458C55.4467 119.454 55.476 119.448 55.5041 119.443C55.5287 119.438 55.5521 119.431 55.5755 119.425C55.5942 119.42 55.6118 119.415 55.6294 119.409C55.6797 119.391 55.7265 119.373 55.7698 119.347C55.7874 119.338 55.8003 119.326 55.8143 119.315C55.8319 119.304 55.8494 119.292 55.8646 119.279C55.8869 119.259 55.9056 119.238 55.922 119.216C55.9243 119.213 55.9267 119.208 55.9302 119.204C55.9442 119.182 55.9559 119.16 55.9641 119.138C55.9641 119.136 55.9653 119.133 55.9665 119.13C55.9747 119.105 55.9782 119.081 55.9782 119.056V118.986C55.9782 119.011 55.9735 119.035 55.9665 119.06C55.9665 119.062 55.9653 119.064 55.9641 119.068C55.9559 119.09 55.9442 119.112 55.9302 119.134C55.9279 119.138 55.9255 119.143 55.922 119.146C55.9068 119.167 55.8869 119.188 55.8646 119.208C55.8506 119.221 55.8319 119.232 55.8143 119.244C55.7991 119.255 55.7862 119.266 55.7698 119.276C55.7277 119.3 55.6797 119.32 55.6294 119.338C55.6118 119.343 55.5931 119.349 55.5755 119.354C55.5521 119.361 55.5287 119.367 55.5041 119.371C55.4748 119.377 55.4456 119.383 55.4163 119.387C55.4093 119.387 55.4034 119.389 55.3964 119.389C55.3566 119.394 55.3168 119.395 55.2758 119.396C55.27 119.396 55.263 119.396 55.2571 119.396C55.2173 119.396 55.1775 119.394 55.1377 119.389C55.1319 119.389 55.126 119.388 55.1201 119.387C55.0815 119.382 55.0429 119.375 55.0054 119.367C54.9984 119.366 54.9914 119.363 54.9844 119.362C54.9504 119.354 54.9176 119.343 54.886 119.332C54.8802 119.329 54.8743 119.328 54.8685 119.326C54.8298 119.311 54.7936 119.294 54.7596 119.274C54.6191 119.193 54.5477 119.086 54.5489 118.98V119.05C54.5489 119.157 54.6191 119.264 54.7596 119.345V119.346Z" fill="url(#paint16_linear_304_8860)"/>
<path d="M49.6529 115.872C49.6529 115.872 49.6506 115.88 49.6494 115.885C49.6366 115.92 49.619 115.955 49.5956 115.989C49.5909 115.995 49.5874 116.002 49.5827 116.007C49.5582 116.041 49.5289 116.074 49.4938 116.105C49.4716 116.125 49.4423 116.144 49.4154 116.163C49.392 116.179 49.3721 116.196 49.3452 116.213C49.2785 116.251 49.2036 116.283 49.1252 116.31C49.0971 116.319 49.0691 116.327 49.0398 116.335C49.0035 116.346 48.9661 116.355 48.9275 116.363C48.8819 116.373 48.8362 116.381 48.7894 116.387C48.7789 116.388 48.7684 116.39 48.7578 116.391C48.6958 116.398 48.6315 116.401 48.5683 116.402C48.5589 116.402 48.5484 116.402 48.539 116.402C48.477 116.402 48.415 116.398 48.353 116.391C48.3436 116.391 48.3342 116.389 48.3249 116.388C48.264 116.381 48.2032 116.37 48.1447 116.358C48.1342 116.355 48.1225 116.352 48.1119 116.349C48.0581 116.337 48.0066 116.32 47.9575 116.303C47.9481 116.299 47.9388 116.297 47.9294 116.293C47.8697 116.27 47.8124 116.243 47.7586 116.213C47.5374 116.086 47.4262 115.918 47.4274 115.751V116.32C47.4274 116.487 47.5374 116.655 47.7586 116.782C47.8089 116.812 47.8639 116.837 47.92 116.859C47.9235 116.859 47.9259 116.862 47.9294 116.863C47.9388 116.866 47.9481 116.869 47.9575 116.872C47.9902 116.884 48.023 116.896 48.0569 116.906C48.0745 116.911 48.0944 116.915 48.1119 116.92C48.1225 116.922 48.133 116.926 48.1447 116.928C48.154 116.931 48.1646 116.933 48.1739 116.935C48.2102 116.942 48.2477 116.949 48.2851 116.955C48.298 116.957 48.3108 116.957 48.3237 116.96C48.3331 116.96 48.3424 116.962 48.3518 116.963C48.3658 116.964 48.3799 116.967 48.3939 116.968C48.4302 116.971 48.4676 116.973 48.5051 116.974C48.5168 116.974 48.5273 116.974 48.539 116.974C48.5495 116.974 48.5589 116.974 48.5683 116.974C48.5858 116.974 48.6034 116.974 48.6197 116.974C48.6619 116.973 48.7028 116.969 48.7438 116.966C48.7485 116.966 48.752 116.964 48.7566 116.963C48.7672 116.963 48.7777 116.96 48.7882 116.959C48.821 116.955 48.8549 116.95 48.8865 116.945C48.9006 116.942 48.9123 116.938 48.9263 116.935C48.9649 116.927 49.0012 116.918 49.0386 116.907C49.0585 116.901 49.0796 116.899 49.0983 116.892C49.1077 116.89 49.1147 116.884 49.1229 116.882C49.2013 116.855 49.2762 116.824 49.3429 116.785C49.3475 116.782 49.3522 116.779 49.3569 116.777C49.378 116.764 49.3944 116.749 49.4131 116.735C49.44 116.716 49.4692 116.697 49.4915 116.676C49.4938 116.674 49.4973 116.673 49.4985 116.67C49.5242 116.646 49.5476 116.621 49.5675 116.596C49.5722 116.59 49.5757 116.584 49.5792 116.578C49.5839 116.572 49.5874 116.566 49.5921 116.559C49.5991 116.549 49.6073 116.54 49.6132 116.529C49.6249 116.508 49.6354 116.487 49.6436 116.466C49.6448 116.463 49.6448 116.459 49.6459 116.457C49.6471 116.452 49.6483 116.449 49.6494 116.444C49.6541 116.43 49.6588 116.417 49.6611 116.403C49.6658 116.382 49.6682 116.36 49.6682 116.339C49.6682 116.335 49.6682 116.332 49.6682 116.33V115.76C49.6682 115.798 49.6611 115.837 49.6494 115.874L49.6529 115.872Z" fill="url(#paint17_linear_304_8860)"/>
<path d="M49.3403 115.295C49.7791 115.547 49.7828 115.958 49.3452 116.213C48.9099 116.465 48.1983 116.465 47.7595 116.213C47.3207 115.96 47.3172 115.55 47.7525 115.296C48.1901 115.043 48.9004 115.044 49.3391 115.296L49.3403 115.295Z" fill="url(#paint18_linear_304_8860)"/>
<path d="M49.2542 114.965C49.2542 114.965 49.253 114.969 49.2519 114.973C49.2437 114.995 49.232 115.017 49.2179 115.039C49.2156 115.043 49.2132 115.047 49.2097 115.051C49.1945 115.072 49.1746 115.093 49.1524 115.114C49.1383 115.127 49.1196 115.138 49.1032 115.15C49.088 115.161 49.0751 115.172 49.0587 115.182C49.0166 115.206 48.9686 115.226 48.9182 115.244C48.9007 115.249 48.882 115.255 48.8644 115.26C48.841 115.267 48.8176 115.273 48.793 115.277C48.7637 115.283 48.7345 115.289 48.7052 115.293C48.6982 115.293 48.6923 115.295 48.6853 115.295C48.6455 115.3 48.6045 115.301 48.5647 115.302C48.5589 115.302 48.5518 115.302 48.546 115.302C48.5062 115.302 48.4664 115.3 48.4278 115.295C48.4219 115.295 48.4161 115.294 48.4102 115.293C48.3716 115.288 48.3329 115.281 48.2955 115.273C48.2885 115.272 48.2814 115.269 48.2744 115.268C48.2405 115.26 48.2077 115.249 48.1761 115.238C48.1702 115.235 48.1644 115.234 48.1585 115.232C48.1199 115.217 48.0836 115.2 48.0497 115.181C47.908 115.099 47.8378 114.993 47.8378 114.886V115.665C47.8378 115.771 47.908 115.879 48.0497 115.959C48.0824 115.978 48.1164 115.994 48.1527 116.008C48.155 116.008 48.1562 116.01 48.1585 116.011C48.1644 116.013 48.1702 116.014 48.1761 116.017C48.1972 116.024 48.2182 116.032 48.2393 116.038C48.251 116.041 48.2627 116.043 48.2744 116.046C48.2814 116.047 48.2885 116.049 48.2955 116.05C48.3013 116.052 48.3084 116.054 48.3142 116.055C48.3376 116.06 48.361 116.064 48.3856 116.068C48.3938 116.068 48.402 116.07 48.4102 116.07C48.4161 116.07 48.4219 116.071 48.4278 116.073C48.4371 116.073 48.4453 116.075 48.4547 116.076C48.4781 116.078 48.5015 116.08 48.5249 116.08C48.5319 116.08 48.539 116.08 48.546 116.08C48.5518 116.08 48.5589 116.08 48.5647 116.08C48.5753 116.08 48.587 116.08 48.5975 116.08C48.6244 116.08 48.6502 116.077 48.6771 116.074C48.6794 116.074 48.6829 116.074 48.6853 116.074C48.6923 116.074 48.6982 116.071 48.7052 116.071C48.7263 116.069 48.7473 116.067 48.7684 116.063C48.7766 116.062 48.7848 116.059 48.7942 116.057C48.8187 116.053 48.8422 116.046 48.8656 116.04C48.8784 116.036 48.8913 116.034 48.9042 116.031C48.91 116.028 48.9147 116.026 48.9194 116.024C48.9686 116.006 49.0166 115.987 49.0599 115.962C49.0622 115.961 49.0657 115.958 49.0681 115.957C49.0821 115.949 49.0915 115.94 49.1044 115.93C49.1219 115.918 49.1395 115.907 49.1547 115.893C49.1559 115.892 49.1582 115.89 49.1594 115.889C49.1758 115.874 49.191 115.858 49.2039 115.841C49.2074 115.838 49.2085 115.833 49.2121 115.83C49.2144 115.826 49.2179 115.822 49.2202 115.818C49.2249 115.811 49.2296 115.805 49.2331 115.798C49.2402 115.785 49.2472 115.771 49.2519 115.757C49.2519 115.755 49.2519 115.753 49.2542 115.752C49.2542 115.749 49.2554 115.746 49.2565 115.743C49.2589 115.735 49.2624 115.726 49.2636 115.718C49.2659 115.704 49.2682 115.691 49.2682 115.677C49.2682 115.674 49.2682 115.672 49.2682 115.671V114.892C49.2682 114.917 49.2636 114.941 49.2565 114.966L49.2542 114.965Z" fill="url(#paint19_linear_304_8860)"/>
<path d="M49.055 114.597C49.3348 114.758 49.3373 115.019 49.0587 115.182C48.7813 115.343 48.3269 115.342 48.0471 115.182C47.7673 115.021 47.765 114.759 48.0424 114.598C48.321 114.436 48.7752 114.437 49.055 114.598V114.597Z" fill="url(#paint20_linear_304_8860)"/>
<path d="M48.0446 115.424C48.0785 115.444 48.1148 115.46 48.1534 115.476C48.1593 115.478 48.1651 115.479 48.171 115.481C48.2026 115.493 48.2354 115.504 48.2693 115.512C48.2763 115.513 48.2834 115.515 48.2904 115.516C48.3278 115.525 48.3665 115.532 48.4051 115.536C48.411 115.536 48.4168 115.537 48.4227 115.539C48.4625 115.543 48.5023 115.544 48.5421 115.546C48.5479 115.546 48.5549 115.546 48.5608 115.546C48.6018 115.546 48.6416 115.543 48.6814 115.539C48.6884 115.539 48.6942 115.536 48.7013 115.536C48.7317 115.533 48.761 115.527 48.7891 115.521C48.8136 115.516 48.8371 115.509 48.8605 115.504C48.8792 115.499 48.8968 115.493 48.9143 115.487C48.9646 115.47 49.0115 115.451 49.0548 115.425C49.0723 115.416 49.0852 115.404 49.0993 115.394C49.1168 115.382 49.1344 115.37 49.1496 115.358C49.1718 115.338 49.1906 115.317 49.207 115.295C49.2093 115.291 49.2116 115.286 49.2152 115.283C49.2292 115.261 49.2409 115.239 49.2491 115.216C49.2491 115.214 49.2503 115.211 49.2514 115.208C49.2596 115.184 49.2631 115.159 49.2631 115.135V115.065C49.2631 115.089 49.2585 115.114 49.2514 115.138C49.2514 115.14 49.2503 115.144 49.2491 115.146C49.2409 115.168 49.2292 115.191 49.2152 115.213C49.2128 115.216 49.2105 115.221 49.207 115.225C49.1917 115.246 49.1718 115.267 49.1496 115.288C49.1356 115.3 49.1168 115.312 49.0993 115.324C49.084 115.334 49.0712 115.346 49.0548 115.355C49.0126 115.38 48.9646 115.4 48.9143 115.417C48.8968 115.423 48.878 115.429 48.8605 115.434C48.8371 115.441 48.8136 115.446 48.7891 115.451C48.7598 115.457 48.7305 115.463 48.7013 115.466C48.6942 115.466 48.6884 115.469 48.6814 115.469C48.6416 115.473 48.6018 115.474 48.5608 115.476C48.5549 115.476 48.5479 115.476 48.5421 115.476C48.5023 115.476 48.4625 115.473 48.4227 115.469C48.4168 115.469 48.411 115.467 48.4051 115.466C48.3665 115.462 48.3278 115.455 48.2904 115.446C48.2834 115.445 48.2763 115.443 48.2693 115.442C48.2354 115.434 48.2026 115.423 48.171 115.411C48.1651 115.409 48.1593 115.408 48.1534 115.406C48.1148 115.39 48.0785 115.374 48.0446 115.354C47.9041 115.272 47.8327 115.166 47.8339 115.06V115.13C47.8339 115.236 47.9041 115.344 48.0446 115.424Z" fill="url(#paint21_linear_304_8860)"/>
<path d="M48.0446 115.606C48.0785 115.626 48.1148 115.642 48.1534 115.658C48.1593 115.66 48.1651 115.661 48.171 115.663C48.2026 115.675 48.2354 115.686 48.2693 115.694C48.2763 115.695 48.2834 115.697 48.2904 115.698C48.3278 115.707 48.3665 115.714 48.4051 115.718C48.411 115.718 48.4168 115.719 48.4227 115.721C48.4625 115.725 48.5023 115.726 48.5421 115.728C48.5479 115.728 48.5549 115.728 48.5608 115.728C48.6018 115.728 48.6416 115.725 48.6814 115.721C48.6884 115.721 48.6942 115.718 48.7013 115.718C48.7317 115.715 48.761 115.709 48.7891 115.703C48.8136 115.698 48.8371 115.691 48.8605 115.686C48.8792 115.681 48.8968 115.675 48.9143 115.669C48.9646 115.652 49.0115 115.633 49.0548 115.607C49.0723 115.598 49.0852 115.586 49.0993 115.576C49.1168 115.564 49.1344 115.553 49.1496 115.54C49.1718 115.52 49.1906 115.499 49.207 115.477C49.2093 115.473 49.2116 115.468 49.2152 115.465C49.2292 115.443 49.2409 115.421 49.2491 115.398C49.2491 115.396 49.2503 115.393 49.2514 115.39C49.2596 115.366 49.2631 115.341 49.2631 115.317V115.247C49.2631 115.271 49.2585 115.296 49.2514 115.32C49.2514 115.322 49.2503 115.326 49.2491 115.328C49.2409 115.35 49.2292 115.373 49.2152 115.395C49.2128 115.398 49.2105 115.403 49.207 115.407C49.1917 115.428 49.1718 115.449 49.1496 115.47C49.1356 115.482 49.1168 115.494 49.0993 115.506C49.084 115.516 49.0712 115.528 49.0548 115.537C49.0126 115.562 48.9646 115.582 48.9143 115.599C48.8968 115.605 48.878 115.611 48.8605 115.616C48.8371 115.623 48.8136 115.628 48.7891 115.633C48.7598 115.639 48.7305 115.645 48.7013 115.648C48.6942 115.648 48.6884 115.651 48.6814 115.651C48.6416 115.655 48.6018 115.656 48.5608 115.658C48.5549 115.658 48.5479 115.658 48.5421 115.658C48.5023 115.658 48.4625 115.655 48.4227 115.651C48.4168 115.651 48.411 115.649 48.4051 115.648C48.3665 115.644 48.3278 115.637 48.2904 115.628C48.2834 115.627 48.2763 115.625 48.2693 115.624C48.2354 115.616 48.2026 115.605 48.171 115.593C48.1651 115.591 48.1593 115.59 48.1534 115.588C48.1148 115.572 48.0785 115.556 48.0446 115.536C47.9041 115.454 47.8327 115.348 47.8339 115.242V115.312C47.8339 115.418 47.9041 115.526 48.0446 115.606Z" fill="url(#paint22_linear_304_8860)"/>
<path d="M48.0446 115.787C48.0785 115.807 48.1148 115.823 48.1534 115.839C48.1593 115.841 48.1651 115.842 48.171 115.844C48.2026 115.856 48.2354 115.867 48.2693 115.875C48.2763 115.876 48.2834 115.878 48.2904 115.879C48.3278 115.888 48.3665 115.895 48.4051 115.899C48.411 115.899 48.4168 115.9 48.4227 115.902C48.4625 115.906 48.5023 115.908 48.5421 115.909C48.5479 115.909 48.5549 115.909 48.5608 115.909C48.6018 115.909 48.6416 115.906 48.6814 115.902C48.6884 115.902 48.6942 115.899 48.7013 115.899C48.7317 115.896 48.761 115.89 48.7891 115.884C48.8136 115.879 48.8371 115.872 48.8605 115.867C48.8792 115.862 48.8968 115.856 48.9143 115.85C48.9646 115.833 49.0115 115.814 49.0548 115.788C49.0723 115.779 49.0852 115.767 49.0993 115.757C49.1168 115.745 49.1344 115.734 49.1496 115.721C49.1718 115.701 49.1906 115.68 49.207 115.658C49.2093 115.654 49.2116 115.649 49.2152 115.646C49.2292 115.624 49.2409 115.602 49.2491 115.579C49.2491 115.577 49.2503 115.574 49.2514 115.571C49.2596 115.547 49.2631 115.522 49.2631 115.498V115.428C49.2631 115.452 49.2585 115.477 49.2514 115.501C49.2514 115.503 49.2503 115.507 49.2491 115.509C49.2409 115.532 49.2292 115.554 49.2152 115.576C49.2128 115.579 49.2105 115.584 49.207 115.588C49.1917 115.609 49.1718 115.63 49.1496 115.651C49.1356 115.663 49.1168 115.675 49.0993 115.687C49.084 115.697 49.0712 115.709 49.0548 115.718C49.0126 115.743 48.9646 115.763 48.9143 115.78C48.8968 115.786 48.878 115.792 48.8605 115.797C48.8371 115.804 48.8136 115.809 48.7891 115.814C48.7598 115.82 48.7305 115.826 48.7013 115.829C48.6942 115.829 48.6884 115.832 48.6814 115.832C48.6416 115.836 48.6018 115.837 48.5608 115.839C48.5549 115.839 48.5479 115.839 48.5421 115.839C48.5023 115.839 48.4625 115.836 48.4227 115.832C48.4168 115.832 48.411 115.83 48.4051 115.829C48.3665 115.825 48.3278 115.818 48.2904 115.809C48.2834 115.808 48.2763 115.806 48.2693 115.805C48.2354 115.797 48.2026 115.786 48.171 115.774C48.1651 115.772 48.1593 115.771 48.1534 115.769C48.1148 115.753 48.0785 115.737 48.0446 115.717C47.9041 115.635 47.8327 115.529 47.8339 115.423V115.493C47.8339 115.599 47.9041 115.707 48.0446 115.787Z" fill="url(#paint23_linear_304_8860)"/>
<path d="M58.6541 56.4059L58.5956 115.776L55.2288 117.728L55.2885 58.3577L58.6541 56.4059Z" fill="url(#paint24_linear_304_8860)"/>
<path d="M55.2885 58.3577L55.2288 117.728L51.8401 115.776L51.8986 56.4059L55.2885 58.3577Z" fill="url(#paint25_linear_304_8860)"/>
<path d="M58.6523 56.4051L55.2871 58.3567L51.8986 56.4059L55.2648 54.4547L58.6523 56.4051Z" fill="#DCDCDC"/>
<path d="M49.763 1.62032L91.9579 26.4845C93.835 27.5911 94.6927 29.8476 94.021 31.9172L77.2528 83.6265C76.3342 86.4596 73.0201 87.7122 70.4503 86.1982L28.2554 61.334C26.3784 60.2274 25.5206 57.9709 26.1923 55.9012L42.9605 4.19195C43.8791 1.35884 47.1932 0.106289 49.763 1.62032Z" fill="url(#paint26_linear_304_8860)"/>
<path d="M48.2061 2.08725L90.4022 26.9514C92.2792 28.058 93.137 30.3145 92.4653 32.3842L75.6971 84.0935C74.7785 86.9266 71.4644 88.1791 68.8946 86.6651L26.6985 61.8009C24.8215 60.6943 23.9637 58.4378 24.6354 56.3682L41.4036 4.65772C42.3222 1.8246 45.6363 0.572056 48.2061 2.08608V2.08725Z" fill="url(#paint27_linear_304_8860)"/>
<path d="M72.8831 85.0487C72.415 85.3697 71.8533 85.546 71.2612 85.546C70.7416 85.546 70.2419 85.4106 69.7949 85.1421L27.5942 60.2826C26.4193 59.588 25.8997 58.2083 26.3151 56.9125L43.0856 5.20208C43.4391 4.11296 44.3951 3.34602 45.5185 3.23162C44.9884 3.57365 44.5824 4.10245 44.3752 4.73514L27.6047 56.4444C27.1893 57.7413 27.7194 59.1199 28.8838 59.8145L71.0845 84.674C71.5421 84.9436 72.03 85.0779 72.5508 85.0779C72.6655 85.0779 72.7696 85.0674 72.8831 85.0464V85.0487Z" fill="url(#paint28_linear_304_8860)"/>
<path d="M90.7861 31.8452L74.0156 83.5451C73.8073 84.1778 73.4132 84.6962 72.8831 85.0487C72.7684 85.0697 72.664 85.0802 72.5504 85.0802C72.0309 85.0802 71.5417 84.9459 71.0842 84.6763L28.8834 59.8168C27.719 59.1222 27.1889 57.7424 27.6044 56.4467L44.3752 4.73514C44.5835 4.10245 44.9884 3.57365 45.5185 3.23162C45.6227 3.21061 45.737 3.20002 45.84 3.20002C46.3596 3.20002 46.8487 3.33426 47.3063 3.60392L89.4965 28.4739C90.6714 29.158 91.2015 30.5483 90.7861 31.844V31.8452Z" fill="url(#paint29_linear_304_8860)"/>
<path d="M47.9947 10.0414L52.0847 12.4496C52.2672 12.557 52.3445 12.7753 52.2731 12.9761L50.4791 17.9851C50.3808 18.2594 50.0508 18.3808 49.8016 18.2337L45.7116 15.8255C45.5291 15.7181 45.4518 15.4999 45.5232 15.2991L47.3172 10.2901C47.4155 10.0157 47.7455 9.89433 47.9947 10.0414Z" fill="url(#paint30_linear_304_8860)"/>
<path d="M54.6101 14.0223L58.7001 16.4305C58.8815 16.5379 58.9599 16.7562 58.8885 16.9569L57.0945 21.966C56.9962 22.2403 56.6662 22.3617 56.417 22.2146L52.327 19.8064C52.1445 19.699 52.0672 19.4807 52.1386 19.2799L53.9326 14.2709C54.0309 13.9966 54.3609 13.8752 54.6101 14.0223Z" fill="url(#paint31_linear_304_8860)"/>
<path d="M61.2283 18.0023L65.3183 20.4105C65.5008 20.5179 65.578 20.7362 65.5067 20.937L63.7127 25.946C63.6144 26.2203 63.2844 26.3417 63.0351 26.1946L58.9452 23.7864C58.7638 23.679 58.6854 23.4607 58.7568 23.2599L60.5508 18.2509C60.6491 17.9766 60.9791 17.8552 61.2283 18.0023Z" fill="url(#paint32_linear_304_8860)"/>
<path d="M67.8459 21.9848L71.9358 24.393C72.1184 24.5004 72.1956 24.7186 72.1242 24.9194L70.3303 29.9284C70.232 30.2028 69.902 30.3242 69.6527 30.1771L65.5628 27.7689C65.3802 27.6615 65.303 27.4432 65.3744 27.2424L67.1683 22.2334C67.2666 21.9591 67.5966 21.8377 67.8459 21.9848Z" fill="url(#paint33_linear_304_8860)"/>
<path d="M74.4622 25.9655L78.5521 28.3737C78.7347 28.4811 78.8119 28.6994 78.7405 28.9002L76.9466 33.9092C76.8483 34.1835 76.5182 34.3049 76.269 34.1578L72.1791 31.7496C71.9965 31.6422 71.9193 31.4239 71.9906 31.2231L73.7846 26.2141C73.8829 25.9398 74.2129 25.8184 74.4622 25.9655Z" fill="url(#paint34_linear_304_8860)"/>
<path d="M81.0777 29.9457L85.1676 32.3539C85.3502 32.4613 85.4274 32.6796 85.356 32.8804L83.5621 37.8894C83.4638 38.1637 83.1338 38.2852 82.8845 38.1381L78.7946 35.7299C78.612 35.6225 78.5348 35.4042 78.6062 35.2034L80.4001 30.1944C80.4984 29.9201 80.8284 29.7987 81.0777 29.9457Z" fill="url(#paint35_linear_304_8860)"/>
<path d="M45.2385 18.3609L49.3284 20.7691C49.511 20.8765 49.5882 21.0948 49.5168 21.2955L47.7228 26.3046C47.6245 26.5789 47.2945 26.7003 47.0453 26.5532L42.9553 24.145C42.7728 24.0376 42.6955 23.8193 42.7669 23.6185L44.5609 18.6095C44.6592 18.3352 44.9892 18.2138 45.2385 18.3609Z" fill="url(#paint36_linear_304_8860)"/>
<path d="M51.8548 22.3409L55.9448 24.7491C56.1273 24.8565 56.2046 25.0748 56.1332 25.2755L54.3392 30.2846C54.2409 30.5589 53.9109 30.6803 53.6617 30.5332L49.5717 28.125C49.3892 28.0176 49.3119 27.7993 49.3833 27.5985L51.1773 22.5895C51.2756 22.3152 51.6056 22.1938 51.8548 22.3409Z" fill="url(#paint37_linear_304_8860)"/>
<path d="M58.4721 26.3217L62.562 28.7299C62.7434 28.8373 62.8218 29.0556 62.7504 29.2563L60.9565 34.2654C60.8582 34.5397 60.5281 34.6611 60.2789 34.514L56.1889 32.1058C56.0064 31.9984 55.9292 31.7801 56.0005 31.5793L57.7945 26.5703C57.8928 26.296 58.2228 26.1746 58.4721 26.3217Z" fill="url(#paint38_linear_304_8860)"/>
<path d="M65.0885 30.303L69.1785 32.7112C69.3611 32.8186 69.4383 33.0369 69.3669 33.2377L67.5729 38.2467C67.4746 38.521 67.1446 38.6424 66.8954 38.4953L62.8054 36.0871C62.6241 35.9797 62.5456 35.7614 62.617 35.5606L64.411 30.5516C64.5093 30.2773 64.8393 30.1559 65.0885 30.303Z" fill="url(#paint39_linear_304_8860)"/>
<path d="M71.706 34.2835L75.796 36.6917C75.9785 36.7991 76.0558 37.0174 75.9844 37.2182L74.1904 42.2272C74.0921 42.5015 73.7621 42.6229 73.5129 42.4758L69.4229 40.0676C69.2415 39.9602 69.1631 39.7419 69.2345 39.5412L71.0285 34.5321C71.1268 34.2578 71.4568 34.1364 71.706 34.2835Z" fill="url(#paint40_linear_304_8860)"/>
<path d="M78.3224 38.2638L82.4123 40.672C82.5949 40.7794 82.6721 40.9977 82.6008 41.1985L80.8068 46.2075C80.7085 46.4818 80.3785 46.6033 80.1292 46.4562L76.0393 44.048C75.8567 43.9406 75.7795 43.7223 75.8509 43.5215L77.6448 38.5125C77.7431 38.2382 78.0732 38.1168 78.3224 38.2638Z" fill="url(#paint41_linear_304_8860)"/>
<path d="M42.4822 26.6775L46.5721 29.0857C46.7535 29.1931 46.8319 29.4114 46.7605 29.6122L44.9666 34.6212C44.8683 34.8955 44.5383 35.0169 44.289 34.8698L40.1991 32.4616C40.0165 32.3542 39.9393 32.1359 40.0107 31.9351L41.8046 26.9261C41.9029 26.6518 42.2329 26.5304 42.4822 26.6775Z" fill="url(#paint42_linear_304_8860)"/>
<path d="M49.0984 30.6592L53.1884 33.0674C53.3709 33.1748 53.4482 33.3931 53.3768 33.5938L51.5828 38.6029C51.4845 38.8772 51.1545 38.9986 50.9053 38.8515L46.8153 36.4433C46.6339 36.3359 46.5555 36.1176 46.6269 35.9168L48.4209 30.9078C48.5192 30.6335 48.8492 30.5121 49.0984 30.6592Z" fill="url(#paint43_linear_304_8860)"/>
<path d="M55.7161 34.6397L59.806 37.0479C59.9886 37.1553 60.0658 37.3736 59.9944 37.5744L58.2005 42.5834C58.1022 42.8577 57.7722 42.9791 57.5229 42.832L53.433 40.4238C53.2504 40.3164 53.1732 40.0981 53.2446 39.8974L55.0385 34.8883C55.1368 34.614 55.4668 34.4926 55.7161 34.6397Z" fill="url(#paint44_linear_304_8860)"/>
<path d="M62.3324 38.62L66.4223 41.0282C66.6037 41.1356 66.6821 41.3538 66.6107 41.5546L64.8168 46.5637C64.7185 46.838 64.3885 46.9594 64.1392 46.8123L60.0493 44.4041C59.8667 44.2967 59.7895 44.0784 59.8609 43.8776L61.6548 38.8686C61.7531 38.5943 62.0831 38.4729 62.3324 38.62Z" fill="url(#paint45_linear_304_8860)"/>
<path d="M68.9498 42.6024L73.0397 45.0106C73.2211 45.118 73.2995 45.3363 73.2281 45.5371L71.4342 50.5461C71.3359 50.8204 71.0059 50.9418 70.7566 50.7948L66.6666 48.3866C66.4841 48.2792 66.4069 48.0609 66.4782 47.8601L68.2722 42.8511C68.3705 42.5767 68.7005 42.4553 68.9498 42.6024Z" fill="url(#paint46_linear_304_8860)"/>
<path d="M75.567 46.5834L79.6569 48.9916C79.8395 49.099 79.9167 49.3173 79.8453 49.5181L78.0514 54.5271C77.9531 54.8014 77.6231 54.9228 77.3738 54.7757L73.2839 52.3675C73.1025 52.2601 73.0241 52.0419 73.0955 51.8411L74.8894 46.8321C74.9877 46.5577 75.3177 46.4363 75.567 46.5834Z" fill="url(#paint47_linear_304_8860)"/>
<path d="M39.726 34.9959L43.8159 37.4041C43.9985 37.5115 44.0757 37.7298 44.0043 37.9305L42.2104 42.9396C42.1121 43.2139 41.7821 43.3353 41.5328 43.1882L37.4428 40.78C37.2603 40.6726 37.1831 40.4543 37.2544 40.2535L39.0484 35.2445C39.1467 34.9702 39.4767 34.8488 39.726 34.9959Z" fill="url(#paint48_linear_304_8860)"/>
<path d="M46.3423 38.9766L50.4323 41.3848C50.6137 41.4922 50.6921 41.7105 50.6207 41.9112L48.8267 46.9203C48.7284 47.1946 48.3984 47.316 48.1492 47.1689L44.0592 44.7607C43.8767 44.6533 43.7994 44.435 43.8708 44.2342L45.6648 39.2252C45.7631 38.9509 46.0931 38.8295 46.3423 38.9766Z" fill="url(#paint49_linear_304_8860)"/>
<path d="M52.9596 42.9586L57.0495 45.3668C57.2321 45.4742 57.3093 45.6924 57.2379 45.8932L55.4439 50.9022C55.3456 51.1766 55.0156 51.298 54.7664 51.1509L50.6764 48.7427C50.4951 48.6353 50.4166 48.417 50.488 48.2162L52.282 43.2072C52.3803 42.9329 52.7103 42.8115 52.9596 42.9586Z" fill="url(#paint50_linear_304_8860)"/>
<path d="M59.5759 46.939L63.6659 49.3472C63.8484 49.4546 63.9257 49.6729 63.8543 49.8737L62.0603 54.8827C61.962 55.157 61.632 55.2784 61.3828 55.1314L57.2928 52.7232C57.1103 52.6158 57.033 52.3975 57.1044 52.1967L58.8984 47.1877C58.9967 46.9133 59.3267 46.7919 59.5759 46.939Z" fill="url(#paint51_linear_304_8860)"/>
<path d="M66.1934 50.9195L70.2833 53.3277C70.4659 53.4351 70.5431 53.6534 70.4718 53.8542L68.6778 58.8632C68.5795 59.1375 68.2495 59.2589 68.0002 59.1119L63.9103 56.7037C63.7277 56.5963 63.6505 56.378 63.7219 56.1772L65.5158 51.1682C65.6141 50.8938 65.9441 50.7724 66.1934 50.9195Z" fill="url(#paint52_linear_304_8860)"/>
<path d="M72.8101 54.9017L76.9 57.3099C77.0826 57.4173 77.1598 57.6356 77.0884 57.8363L75.2945 62.8454C75.1962 63.1197 74.8661 63.2411 74.6169 63.094L70.5269 60.6858C70.3444 60.5784 70.2672 60.3601 70.3385 60.1593L72.1325 55.1503C72.2308 54.876 72.5608 54.7546 72.8101 54.9017Z" fill="url(#paint53_linear_304_8860)"/>
<path d="M36.9685 43.3142L41.0585 45.7224C41.241 45.8298 41.3183 46.0481 41.2469 46.2489L39.4529 51.2579C39.3546 51.5322 39.0246 51.6536 38.7754 51.5065L34.6854 49.0983C34.504 48.9909 34.4256 48.7726 34.497 48.5719L36.291 43.5628C36.3893 43.2885 36.7193 43.1671 36.9685 43.3142Z" fill="url(#paint54_linear_304_8860)"/>
<path d="M43.5871 47.2952L47.677 49.7034C47.8596 49.8108 47.9368 50.0291 47.8654 50.2298L46.0715 55.2389C45.9732 55.5132 45.6432 55.6346 45.3939 55.4875L41.304 53.0793C41.1214 52.9719 41.0442 52.7536 41.1155 52.5528L42.9095 47.5438C43.0078 47.2695 43.3378 47.1481 43.5871 47.2952Z" fill="url(#paint55_linear_304_8860)"/>
<path d="M50.2025 51.277L54.2924 53.6852C54.4738 53.7926 54.5522 54.0108 54.4808 54.2116L52.6869 59.2207C52.5886 59.495 52.2586 59.6164 52.0093 59.4693L47.9194 57.0611C47.7368 56.9537 47.6596 56.7354 47.7309 56.5346L49.5249 51.5256C49.6232 51.2513 49.9532 51.1299 50.2025 51.277Z" fill="url(#paint56_linear_304_8860)"/>
<path d="M56.8206 55.2575L60.9105 57.6657C61.0931 57.7731 61.1703 57.9913 61.099 58.1921L59.305 63.2011C59.2067 63.4755 58.8767 63.5969 58.6274 63.4498L54.5375 61.0416C54.3561 60.9342 54.2777 60.7159 54.3491 60.5151L56.143 55.5061C56.2413 55.2318 56.5713 55.1104 56.8206 55.2575Z" fill="url(#paint57_linear_304_8860)"/>
<path d="M63.4373 59.238L67.5272 61.6462C67.7098 61.7536 67.787 61.9718 67.7156 62.1726L65.9216 67.1816C65.8233 67.456 65.4933 67.5774 65.2441 67.4303L61.1541 65.0221C60.9728 64.9147 60.8944 64.6964 60.9657 64.4956L62.7597 59.4866C62.858 59.2123 63.188 59.0909 63.4373 59.238Z" fill="url(#paint58_linear_304_8860)"/>
<path d="M70.0557 63.2185L74.1457 65.6267C74.3282 65.7341 74.4055 65.9523 74.3341 66.1531L72.5401 71.1622C72.4418 71.4365 72.1118 71.5579 71.8626 71.4108L67.7726 69.0026C67.59 68.8952 67.5128 68.6769 67.5842 68.4761L69.3782 63.4671C69.4765 63.1928 69.8065 63.0714 70.0557 63.2185Z" fill="url(#paint59_linear_304_8860)"/>
<path d="M34.2134 51.6333L38.3034 54.0415C38.4848 54.1489 38.5632 54.3672 38.4918 54.568L36.6978 59.577C36.5995 59.8513 36.2695 59.9727 36.0203 59.8256L31.9303 57.4174C31.7478 57.31 31.6705 57.0917 31.7419 56.8909L33.5359 51.8819C33.6342 51.6076 33.9642 51.4862 34.2134 51.6333Z" fill="url(#paint60_linear_304_8860)"/>
<path d="M40.8305 55.6132L44.9204 58.0214C45.103 58.1288 45.1802 58.3471 45.1088 58.5479L43.3149 63.5569C43.2166 63.8312 42.8866 63.9526 42.6373 63.8056L38.5474 61.3974C38.366 61.29 38.2876 61.0717 38.359 60.8709L40.1529 55.8619C40.2512 55.5876 40.5812 55.4661 40.8305 55.6132Z" fill="url(#paint61_linear_304_8860)"/>
<path d="M47.4481 59.5941L51.5381 62.0023C51.7206 62.1097 51.7979 62.328 51.7265 62.5288L49.9325 67.5378C49.8342 67.8122 49.5042 67.9336 49.255 67.7865L45.165 65.3783C44.9825 65.2709 44.9052 65.0526 44.9766 64.8518L46.7706 59.8428C46.8689 59.5685 47.1989 59.4471 47.4481 59.5941Z" fill="url(#paint62_linear_304_8860)"/>
<path d="M54.0656 63.5755L58.1556 65.9837C58.3381 66.0911 58.4153 66.3094 58.344 66.5102L56.55 71.5192C56.4517 71.7935 56.1217 71.9149 55.8724 71.7678L51.7825 69.3596C51.5999 69.2522 51.5227 69.0339 51.5941 68.8331L53.3881 63.8241C53.4864 63.5498 53.8164 63.4284 54.0656 63.5755Z" fill="url(#paint63_linear_304_8860)"/>
<path d="M60.681 67.5563L64.7709 69.9645C64.9535 70.0719 65.0307 70.2901 64.9593 70.4909L63.1654 75.4999C63.0671 75.7743 62.7371 75.8957 62.4878 75.7486L58.3979 73.3404C58.2153 73.233 58.1381 73.0147 58.2095 72.8139L60.0034 67.8049C60.1017 67.5306 60.4317 67.4092 60.681 67.5563Z" fill="url(#paint64_linear_304_8860)"/>
<path d="M67.2992 71.5372L71.3891 73.9454C71.5717 74.0528 71.6489 74.2711 71.5775 74.4719L69.7836 79.4809C69.6853 79.7553 69.3553 79.8767 69.106 79.7296L65.0161 77.3214C64.8347 77.214 64.7563 76.9957 64.8277 76.7949L66.6216 71.7859C66.7199 71.5116 67.0499 71.3902 67.2992 71.5372Z" fill="url(#paint65_linear_304_8860)"/>
<path d="M47.8951 9.71229L51.985 12.1205C52.1676 12.2279 52.2448 12.4462 52.1734 12.647L50.3795 17.656C50.2812 17.9303 49.9512 18.0517 49.7019 17.9046L45.612 15.4964C45.4294 15.389 45.3522 15.1707 45.4236 14.97L47.2175 9.96093C47.3158 9.68661 47.6458 9.56521 47.8951 9.71229Z" fill="url(#paint66_linear_304_8860)"/>
<path d="M54.5113 13.6928L58.6012 16.101C58.7826 16.2084 58.861 16.4267 58.7896 16.6275L56.9956 21.6365C56.8973 21.9108 56.5673 22.0322 56.3181 21.8851L52.2281 19.4769C52.0456 19.3695 51.9684 19.1512 52.0397 18.9505L53.8337 13.9414C53.932 13.6671 54.262 13.5457 54.5113 13.6928Z" fill="url(#paint67_linear_304_8860)"/>
<path d="M61.1286 17.6733L65.2185 20.0815C65.4011 20.1889 65.4783 20.4072 65.4069 20.608L63.613 25.617C63.5147 25.8913 63.1847 26.0127 62.9354 25.8656L58.8455 23.4574C58.6641 23.35 58.5857 23.1317 58.657 22.931L60.451 17.9219C60.5493 17.6476 60.8793 17.5262 61.1286 17.6733Z" fill="url(#paint68_linear_304_8860)"/>
<path d="M67.7462 21.6554L71.8362 24.0636C72.0187 24.171 72.0959 24.3893 72.0246 24.5901L70.2306 29.5991C70.1323 29.8735 69.8023 29.9949 69.553 29.8478L65.4631 27.4396C65.2805 27.3322 65.2033 27.1139 65.2747 26.9131L67.0686 21.9041C67.1669 21.6298 67.4969 21.5084 67.7462 21.6554Z" fill="url(#paint69_linear_304_8860)"/>
<path d="M74.3616 25.6358L78.4516 28.044C78.6341 28.1514 78.7114 28.3696 78.64 28.5704L76.846 33.5794C76.7477 33.8538 76.4177 33.9752 76.1685 33.8281L72.0785 31.4199C71.896 31.3125 71.8187 31.0942 71.8901 30.8934L73.6841 25.8844C73.7824 25.6101 74.1124 25.4887 74.3616 25.6358Z" fill="url(#paint70_linear_304_8860)"/>
<path d="M80.979 29.6163L85.069 32.0245C85.2515 32.1319 85.3288 32.3501 85.2574 32.5509L83.4634 37.5599C83.3651 37.8343 83.0351 37.9557 82.7859 37.8086L78.6959 35.4004C78.5134 35.293 78.4361 35.0747 78.5075 34.8739L80.3015 29.8649C80.3998 29.5906 80.7298 29.4692 80.979 29.6163Z" fill="url(#paint71_linear_304_8860)"/>
<path d="M45.1396 18.0299L49.2296 20.4381C49.4121 20.5455 49.4894 20.7638 49.418 20.9646L47.624 25.9736C47.5257 26.2479 47.1957 26.3693 46.9465 26.2222L42.8565 23.814C42.6751 23.7066 42.5967 23.4883 42.6681 23.2876L44.4621 18.2785C44.5604 18.0042 44.8904 17.8828 45.1396 18.0299Z" fill="url(#paint72_linear_304_8860)"/>
<path d="M51.7542 22.0114L55.8442 24.4196C56.0267 24.527 56.104 24.7453 56.0326 24.9461L54.2386 29.9551C54.1403 30.2294 53.8103 30.3508 53.5611 30.2037L49.4711 27.7955C49.2886 27.6881 49.2113 27.4698 49.2827 27.269L51.0767 22.26C51.175 21.9857 51.505 21.8643 51.7542 22.0114Z" fill="url(#paint73_linear_304_8860)"/>
<path d="M58.3728 25.9921L62.4627 28.4003C62.6441 28.5077 62.7225 28.726 62.6511 28.9268L60.8571 33.9358C60.7588 34.2102 60.4288 34.3316 60.1796 34.1845L56.0896 31.7763C55.9071 31.6689 55.8298 31.4506 55.9012 31.2498L57.6952 26.2408C57.7935 25.9665 58.1235 25.8451 58.3728 25.9921Z" fill="url(#paint74_linear_304_8860)"/>
<path d="M64.9888 29.9729L69.0788 32.3811C69.2602 32.4885 69.3386 32.7068 69.2672 32.9075L67.4732 37.9166C67.3749 38.1909 67.0449 38.3123 66.7957 38.1652L62.7057 35.757C62.5243 35.6496 62.4459 35.4313 62.5173 35.2305L64.3113 30.2215C64.4096 29.9472 64.7396 29.8258 64.9888 29.9729Z" fill="url(#paint75_linear_304_8860)"/>
<path d="M71.6072 33.9548L75.6971 36.3631C75.8797 36.4704 75.9569 36.6887 75.8855 36.8895L74.0916 41.8985C73.9933 42.1729 73.6633 42.2943 73.414 42.1472L69.3241 39.739C69.1427 39.6316 69.0643 39.4133 69.1357 39.2125L70.9296 34.2035C71.0279 33.9292 71.3579 33.8078 71.6072 33.9548Z" fill="url(#paint76_linear_304_8860)"/>
<path d="M78.2235 37.9353L82.3135 40.3435C82.496 40.4509 82.5733 40.6692 82.5019 40.87L80.7079 45.879C80.6096 46.1533 80.2796 46.2747 80.0304 46.1276L75.9404 43.7194C75.7579 43.612 75.6806 43.3937 75.752 43.193L77.546 38.1839C77.6443 37.9096 77.9743 37.7882 78.2235 37.9353Z" fill="url(#paint77_linear_304_8860)"/>
<path d="M42.3826 26.3479L46.4726 28.7561C46.654 28.8635 46.7324 29.0818 46.661 29.2826L44.867 34.2916C44.7687 34.5659 44.4387 34.6873 44.1895 34.5403L40.0995 32.1321C39.917 32.0247 39.8397 31.8064 39.9111 31.6056L41.7051 26.5966C41.8034 26.3222 42.1334 26.2008 42.3826 26.3479Z" fill="url(#paint78_linear_304_8860)"/>
<path d="M48.9988 30.329L53.0887 32.7372C53.2713 32.8446 53.3485 33.0629 53.2771 33.2637L51.4832 38.2727C51.3849 38.547 51.0549 38.6684 50.8056 38.5213L46.7157 36.1131C46.5343 36.0057 46.4559 35.7874 46.5273 35.5867L48.3212 30.5776C48.4195 30.3033 48.7495 30.1819 48.9988 30.329Z" fill="url(#paint79_linear_304_8860)"/>
<path d="M55.6163 34.3105L59.7063 36.7187C59.8888 36.8261 59.9661 37.0444 59.8947 37.2451L58.1007 42.2542C58.0024 42.5285 57.6724 42.6499 57.4232 42.5028L53.3332 40.0946C53.1507 39.9872 53.0734 39.7689 53.1448 39.5681L54.9388 34.5591C55.0371 34.2848 55.3671 34.1634 55.6163 34.3105Z" fill="url(#paint80_linear_304_8860)"/>
<path d="M62.2337 38.2915L66.3237 40.6997C66.5062 40.8071 66.5835 41.0254 66.5121 41.2261L64.7181 46.2352C64.6198 46.5095 64.2898 46.6309 64.0406 46.4838L59.9506 44.0756C59.7681 43.9682 59.6908 43.7499 59.7622 43.5491L61.5562 38.5401C61.6545 38.2658 61.9845 38.1444 62.2337 38.2915Z" fill="url(#paint81_linear_304_8860)"/>
<path d="M68.8509 42.2716L72.9408 44.6798C73.1234 44.7872 73.2006 45.0055 73.1292 45.2062L71.3353 50.2153C71.237 50.4896 70.907 50.611 70.6577 50.4639L66.5678 48.0557C66.3852 47.9483 66.308 47.73 66.3794 47.5292L68.1733 42.5202C68.2716 42.2459 68.6016 42.1245 68.8509 42.2716Z" fill="url(#paint82_linear_304_8860)"/>
<path d="M75.4674 46.2537L79.5573 48.6619C79.7399 48.7693 79.8171 48.9876 79.7457 49.1884L77.9518 54.1974C77.8535 54.4717 77.5235 54.5931 77.2742 54.4461L73.1843 52.0378C73.0029 51.9305 72.9245 51.7122 72.9959 51.5114L74.7898 46.5024C74.8881 46.228 75.2181 46.1066 75.4674 46.2537Z" fill="url(#paint83_linear_304_8860)"/>
<path d="M39.6263 34.6666L43.7162 37.0748C43.8988 37.1822 43.976 37.4005 43.9047 37.6013L42.1107 42.6103C42.0124 42.8846 41.6824 43.006 41.4331 42.8589L37.3432 40.4507C37.1606 40.3433 37.0834 40.125 37.1548 39.9243L38.9487 34.9152C39.047 34.6409 39.377 34.5195 39.6263 34.6666Z" fill="url(#paint84_linear_304_8860)"/>
<path d="M46.2437 38.6466L50.3336 41.0548C50.515 41.1622 50.5934 41.3805 50.522 41.5813L48.7281 46.5903C48.6298 46.8646 48.2998 46.986 48.0505 46.8389L43.9606 44.4307C43.778 44.3233 43.7008 44.105 43.7722 43.9043L45.5661 38.8952C45.6644 38.6209 45.9944 38.4995 46.2437 38.6466Z" fill="url(#paint85_linear_304_8860)"/>
<path d="M52.8598 42.629L56.9497 45.0372C57.1323 45.1446 57.2095 45.3629 57.1382 45.5637L55.3442 50.5727C55.2459 50.847 54.9159 50.9684 54.6666 50.8213L50.5767 48.4131C50.3953 48.3057 50.3169 48.0875 50.3883 47.8867L52.1822 42.8777C52.2805 42.6033 52.6105 42.4819 52.8598 42.629Z" fill="url(#paint86_linear_304_8860)"/>
<path d="M59.4766 46.6095L63.5666 49.0177C63.7491 49.1251 63.8264 49.3434 63.755 49.5442L61.961 54.5532C61.8627 54.8275 61.5327 54.9489 61.2835 54.8018L57.1935 52.3936C57.011 52.2862 56.9337 52.068 57.0051 51.8672L58.7991 46.8581C58.8974 46.5838 59.2274 46.4624 59.4766 46.6095Z" fill="url(#paint87_linear_304_8860)"/>
<path d="M66.0929 50.5906L70.1828 52.9988C70.3654 53.1062 70.4426 53.3244 70.3712 53.5252L68.5773 58.5342C68.479 58.8086 68.149 58.93 67.8997 58.7829L63.8098 56.3747C63.6272 56.2673 63.55 56.049 63.6214 55.8482L65.4153 50.8392C65.5136 50.5649 65.8436 50.4435 66.0929 50.5906Z" fill="url(#paint88_linear_304_8860)"/>
<path d="M72.7113 54.5715L76.8012 56.9798C76.9837 57.0871 77.061 57.3054 76.9896 57.5062L75.1956 62.5152C75.0973 62.7896 74.7673 62.911 74.5181 62.7639L70.4281 60.3557C70.2456 60.2483 70.1684 60.03 70.2397 59.8292L72.0337 54.8202C72.132 54.5459 72.462 54.4245 72.7113 54.5715Z" fill="url(#paint89_linear_304_8860)"/>
<path d="M36.8697 42.9852L40.9596 45.3934C41.1422 45.5008 41.2194 45.7191 41.148 45.9199L39.3541 50.9289C39.2558 51.2032 38.9258 51.3246 38.6765 51.1775L34.5866 48.7693C34.4052 48.6619 34.3268 48.4436 34.3982 48.2429L36.1921 43.2338C36.2904 42.9595 36.6204 42.8381 36.8697 42.9852Z" fill="url(#paint90_linear_304_8860)"/>
<path d="M43.4873 46.9661L47.5773 49.3743C47.7598 49.4817 47.8371 49.7 47.7657 49.9008L45.9717 54.9098C45.8734 55.1841 45.5434 55.3055 45.2942 55.1584L41.2042 52.7502C41.0217 52.6428 40.9444 52.4246 41.0158 52.2238L42.8098 47.2147C42.9081 46.9404 43.2381 46.819 43.4873 46.9661Z" fill="url(#paint91_linear_304_8860)"/>
<path d="M50.1028 50.9467L54.1928 53.3549C54.3742 53.4623 54.4526 53.6806 54.3812 53.8814L52.5872 58.8904C52.4889 59.1647 52.1589 59.2861 51.9097 59.139L47.8197 56.7308C47.6372 56.6234 47.5599 56.4051 47.6313 56.2043L49.4253 51.1953C49.5236 50.921 49.8536 50.7996 50.1028 50.9467Z" fill="url(#paint92_linear_304_8860)"/>
<path d="M56.7212 54.9282L60.8112 57.3364C60.9937 57.4438 61.0709 57.662 60.9996 57.8628L59.2056 62.8718C59.1073 63.1462 58.7773 63.2676 58.528 63.1205L54.4381 60.7123C54.2555 60.6049 54.1783 60.3866 54.2497 60.1858L56.0437 55.1768C56.142 54.9025 56.472 54.7811 56.7212 54.9282Z" fill="url(#paint93_linear_304_8860)"/>
<path d="M63.3384 58.9091L67.4284 61.3174C67.6109 61.4247 67.6882 61.643 67.6168 61.8438L65.8228 66.8528C65.7245 67.1272 65.3945 67.2486 65.1453 67.1015L61.0553 64.6933C60.8739 64.5859 60.7955 64.3676 60.8669 64.1668L62.6609 59.1578C62.7592 58.8835 63.0892 58.7621 63.3384 58.9091Z" fill="url(#paint94_linear_304_8860)"/>
<path d="M69.956 62.8892L74.0459 65.2974C74.2285 65.4048 74.3057 65.623 74.2343 65.8238L72.4404 70.8329C72.3421 71.1072 72.0121 71.2286 71.7628 71.0815L67.6729 68.6733C67.4903 68.5659 67.4131 68.3476 67.4845 68.1468L69.2784 63.1378C69.3767 62.8635 69.7067 62.7421 69.956 62.8892Z" fill="url(#paint95_linear_304_8860)"/>
<path d="M34.1128 51.3023L38.2028 53.7105C38.3841 53.8179 38.4625 54.0362 38.3912 54.237L36.5972 59.246C36.4989 59.5203 36.1689 59.6417 35.9196 59.4947L31.8297 57.0864C31.6471 56.9791 31.5699 56.7608 31.6413 56.56L33.4352 51.551C33.5335 51.2766 33.8635 51.1552 34.1128 51.3023Z" fill="url(#paint96_linear_304_8860)"/>
<path d="M40.7312 55.2841L44.8211 57.6923C45.0037 57.7997 45.0809 58.018 45.0095 58.2188L43.2156 63.2278C43.1173 63.5021 42.7873 63.6235 42.538 63.4765L38.4481 61.0683C38.2667 60.9609 38.1883 60.7426 38.2597 60.5418L40.0536 55.5328C40.1519 55.2584 40.4819 55.137 40.7312 55.2841Z" fill="url(#paint97_linear_304_8860)"/>
<path d="M47.3486 59.2648L51.4385 61.673C51.6211 61.7804 51.6983 61.9987 51.6269 62.1995L49.833 67.2085C49.7346 67.4828 49.4046 67.6042 49.1554 67.4571L45.0654 65.0489C44.8829 64.9415 44.8057 64.7232 44.877 64.5224L46.671 59.5134C46.7693 59.2391 47.0993 59.1177 47.3486 59.2648Z" fill="url(#paint98_linear_304_8860)"/>
<path d="M53.9659 63.2453L58.0559 65.6535C58.2384 65.7609 58.3157 65.9792 58.2443 66.1799L56.4503 71.189C56.352 71.4633 56.022 71.5847 55.7728 71.4376L51.6828 69.0294C51.5003 68.922 51.423 68.7037 51.4944 68.5029L53.2884 63.4939C53.3867 63.2196 53.7167 63.0982 53.9659 63.2453Z" fill="url(#paint99_linear_304_8860)"/>
<path d="M60.5821 67.2273L64.6721 69.6355C64.8546 69.7429 64.9319 69.9612 64.8605 70.1619L63.0665 75.171C62.9682 75.4453 62.6382 75.5667 62.389 75.4196L58.299 73.0114C58.1165 72.904 58.0392 72.6857 58.1106 72.4849L59.9046 67.4759C60.0029 67.2016 60.3329 67.0802 60.5821 67.2273Z" fill="url(#paint100_linear_304_8860)"/>
<path d="M67.1996 71.2078L71.2896 73.616C71.4721 73.7234 71.5493 73.9417 71.478 74.1424L69.684 79.1515C69.5857 79.4258 69.2557 79.5472 69.0064 79.4001L64.9165 76.9919C64.7339 76.8845 64.6567 76.6662 64.7281 76.4654L66.5221 71.4564C66.6204 71.1821 66.9504 71.0607 67.1996 71.2078Z" fill="url(#paint101_linear_304_8860)"/>
<path d="M90.4017 26.95L48.2061 2.08608C47.3179 1.56312 46.3403 1.37614 45.4041 1.46485C46.2502 1.438 47.1173 1.63995 47.9143 2.10922L90.1091 26.9734C91.9862 28.08 92.844 30.3365 92.1722 32.405L75.4041 84.1143C74.8026 85.968 73.176 87.1376 71.4031 87.3057C73.2871 87.2462 75.0624 86.045 75.6954 84.0897L92.4636 32.3805C93.1342 30.3108 92.2776 28.0543 90.4005 26.9477L90.4017 26.95Z" fill="#EDEDEF"/>
<path d="M30.4755 135.278L2.17804 120.406V131.971L30.4755 146.62V135.278Z" fill="url(#paint102_linear_304_8860)"/>
<path d="M30.3059 135.278L47.151 126.512V138.075L30.3059 146.62V135.278Z" fill="url(#paint103_linear_304_8860)"/>
<path d="M30.3059 135.278L2.17804 120.406L18.9378 111.64L47.0651 126.511L30.3059 135.278Z" fill="url(#paint104_linear_304_8860)"/>
<path d="M30.7158 110.414L1.24482 94.9251V127.133L30.7158 142.39V110.414Z" fill="url(#paint105_linear_304_8860)"/>
<path d="M3.69343 102.164C3.69343 100.716 5.23811 99.7853 6.523 100.461L26.6706 111.049C27.6524 111.565 28.2667 112.581 28.2667 113.688V135.602C28.2667 136.864 26.9268 137.676 25.8046 137.095L5.21704 126.437C4.28087 125.953 3.69343 124.989 3.69343 123.937V102.164Z" fill="url(#paint106_linear_304_8860)"/>
<path d="M30.5397 110.414L48.0847 101.284V133.491L30.5397 142.389V110.414Z" fill="url(#paint107_linear_304_8860)"/>
<path d="M30.5379 110.414L1.24482 94.9251L18.6999 85.7951L47.9942 101.283L30.5379 110.414Z" fill="url(#paint108_linear_304_8860)"/>
<path d="M38.3793 120.973L34.0577 115.936V121.257L38.3793 123.46V120.973Z" fill="url(#paint109_linear_304_8860)"/>
<path d="M38.2807 120.973L48.0846 115.872V118.487L38.2807 123.459V120.973Z" fill="url(#paint110_linear_304_8860)"/>
<path d="M38.2797 120.972L34.0577 115.936L43.8111 110.834L48.0332 115.871L38.2797 120.972Z" fill="url(#paint111_linear_304_8860)"/>
<path d="M26.7696 131.069V133.167L5.88034 122.355V107.78L7.61809 108.691V121.149L26.7696 131.069Z" fill="url(#paint112_linear_304_8860)"/>
<path d="M26.7713 118.756V131.07L7.61976 121.15V108.692L26.7713 118.756Z" fill="url(#paint113_linear_304_8860)"/>
<path d="M7.61809 121.149L5.88034 122.355V107.78L7.61809 108.691V121.149Z" fill="#9B9A9A"/>
<path d="M7.61809 121.149L26.7696 131.069V133.167L5.88034 122.355L7.61809 121.149Z" fill="white"/>
<path d="M20.3577 122.854V123.994L12.2938 119.818V114.571L13.4558 115.184V119.282L20.3577 122.854Z" fill="#686565"/>
<path d="M20.3588 118.813V122.854L13.4558 119.282V115.184L20.3588 118.813Z" fill="#9B9A9A"/>
<path d="M13.4558 119.282L12.2938 119.818L20.3577 123.994V122.854L13.4558 119.282Z" fill="url(#paint114_linear_304_8860)"/>
<path d="M30.3843 107.407L0.5 91.7013V94.6886L30.3843 110.159V107.407Z" fill="#DCC600"/>
<path d="M30.2044 107.407L47.9947 98.1489V101.136L30.2044 110.159V107.407Z" fill="#DCC600"/>
<path d="M30.2044 107.407L0.5 91.7013L18.1997 82.442L47.9047 98.1484L30.2044 107.407Z" fill="#FDE614"/>
<path d="M15.4155 117.976V118.709L14.1629 118.061V117.317L15.4155 117.976Z" fill="#FFDB43"/>
<path d="M17.3352 118.981V119.715L16.0826 119.067V118.323L17.3352 118.981Z" fill="#F46E78"/>
<path d="M19.2549 119.989V120.722L18.0023 120.074V119.33L19.2549 119.989Z" fill="#25F290"/>
</g>
<defs>
<linearGradient id="paint0_linear_304_8860" x1="47.3798" y1="137.092" x2="47.3798" y2="22.4007" gradientUnits="userSpaceOnUse">
<stop stop-color="#E4E3E4"/>
<stop offset="1" stop-color="#939494"/>
</linearGradient>
<linearGradient id="paint1_linear_304_8860" x1="134.046" y1="74.3323" x2="-16.9978" y2="74.0375" gradientUnits="userSpaceOnUse">
<stop stop-color="#555656"/>
<stop offset="1" stop-color="#BDBDBE"/>
</linearGradient>
<linearGradient id="paint2_linear_304_8860" x1="0.5" y1="73.796" x2="94.248" y2="73.796" gradientUnits="userSpaceOnUse">
<stop stop-color="#F0EFF0"/>
<stop offset="1" stop-color="#DAD9DA"/>
</linearGradient>
<linearGradient id="paint3_linear_304_8860" x1="0.549337" y1="73.5181" x2="94.3948" y2="73.5181" gradientUnits="userSpaceOnUse">
<stop stop-color="#E4E3E4"/>
<stop offset="1" stop-color="#939494"/>
</linearGradient>
<linearGradient id="paint4_linear_304_8860" x1="-3.21002" y1="73.6237" x2="86.8694" y2="73.6237" gradientUnits="userSpaceOnUse">
<stop stop-color="#555656"/>
<stop offset="1" stop-color="#BDBDBE"/>
</linearGradient>
<linearGradient id="paint5_linear_304_8860" x1="92.4835" y1="73.9386" x2="23.9754" y2="73.9386" gradientUnits="userSpaceOnUse">
<stop stop-color="#E4E3E4"/>
<stop offset="1" stop-color="#939494"/>
</linearGradient>
<linearGradient id="paint6_linear_304_8860" x1="-0.15161" y1="71.8132" x2="77.1242" y2="72.2419" gradientUnits="userSpaceOnUse">
<stop stop-color="#F0EFF0"/>
<stop offset="1" stop-color="#DAD9DA"/>
</linearGradient>
<linearGradient id="paint7_linear_304_8860" x1="0.500929" y1="73.4459" x2="94.248" y2="73.4459" gradientUnits="userSpaceOnUse">
<stop stop-color="#555656"/>
<stop offset="1" stop-color="#BDBDBE"/>
</linearGradient>
<linearGradient id="paint8_linear_304_8860" x1="0.500929" y1="73.796" x2="94.248" y2="73.796" gradientUnits="userSpaceOnUse">
<stop stop-color="#555656"/>
<stop offset="1" stop-color="#BDBDBE"/>
</linearGradient>
<linearGradient id="paint9_linear_304_8860" x1="0.500929" y1="73.4459" x2="94.248" y2="73.4459" gradientUnits="userSpaceOnUse">
<stop stop-color="#555656"/>
<stop offset="1" stop-color="#BDBDBE"/>
</linearGradient>
<linearGradient id="paint10_linear_304_8860" x1="0.598291" y1="73.5181" x2="94.4438" y2="73.5181" gradientUnits="userSpaceOnUse">
<stop stop-color="#E4E3E4"/>
<stop offset="1" stop-color="#939494"/>
</linearGradient>
<linearGradient id="paint11_linear_304_8860" x1="-3.21002" y1="73.755" x2="86.8694" y2="73.755" gradientUnits="userSpaceOnUse">
<stop stop-color="#555656"/>
<stop offset="1" stop-color="#BDBDBE"/>
</linearGradient>
<linearGradient id="paint12_linear_304_8860" x1="92.4835" y1="73.9386" x2="23.9754" y2="73.9386" gradientUnits="userSpaceOnUse">
<stop stop-color="#E4E3E4"/>
<stop offset="1" stop-color="#939494"/>
</linearGradient>
<linearGradient id="paint13_linear_304_8860" x1="-0.15161" y1="71.6072" x2="77.2029" y2="72.0645" gradientUnits="userSpaceOnUse">
<stop stop-color="#F0EFF0"/>
<stop offset="1" stop-color="#DAD9DA"/>
</linearGradient>
<linearGradient id="paint14_linear_304_8860" x1="0.500929" y1="73.9707" x2="94.3248" y2="73.9707" gradientUnits="userSpaceOnUse">
<stop stop-color="#555656"/>
<stop offset="1" stop-color="#BDBDBE"/>
</linearGradient>
<linearGradient id="paint15_linear_304_8860" x1="0.500929" y1="73.9707" x2="94.3248" y2="73.9707" gradientUnits="userSpaceOnUse">
<stop stop-color="#555656"/>
<stop offset="1" stop-color="#BDBDBE"/>
</linearGradient>
<linearGradient id="paint16_linear_304_8860" x1="0.500929" y1="73.6214" x2="94.3248" y2="73.6214" gradientUnits="userSpaceOnUse">
<stop stop-color="#555656"/>
<stop offset="1" stop-color="#BDBDBE"/>
</linearGradient>
<linearGradient id="paint17_linear_304_8860" x1="0.598291" y1="73.5181" x2="94.3948" y2="73.5181" gradientUnits="userSpaceOnUse">
<stop stop-color="#E4E3E4"/>
<stop offset="1" stop-color="#939494"/>
</linearGradient>
<linearGradient id="paint18_linear_304_8860" x1="-3.16112" y1="73.6237" x2="86.8694" y2="73.6237" gradientUnits="userSpaceOnUse">
<stop stop-color="#555656"/>
<stop offset="1" stop-color="#BDBDBE"/>
</linearGradient>
<linearGradient id="paint19_linear_304_8860" x1="92.4835" y1="73.796" x2="23.9754" y2="73.796" gradientUnits="userSpaceOnUse">
<stop stop-color="#E4E3E4"/>
<stop offset="1" stop-color="#939494"/>
</linearGradient>
<linearGradient id="paint20_linear_304_8860" x1="-0.15161" y1="71.8132" x2="77.2009" y2="72.2419" gradientUnits="userSpaceOnUse">
<stop stop-color="#F0EFF0"/>
<stop offset="1" stop-color="#DAD9DA"/>
</linearGradient>
<linearGradient id="paint21_linear_304_8860" x1="0.500929" y1="73.796" x2="94.3248" y2="73.796" gradientUnits="userSpaceOnUse">
<stop stop-color="#555656"/>
<stop offset="1" stop-color="#BDBDBE"/>
</linearGradient>
<linearGradient id="paint22_linear_304_8860" x1="0.500929" y1="73.4459" x2="94.3248" y2="73.4459" gradientUnits="userSpaceOnUse">
<stop stop-color="#555656"/>
<stop offset="1" stop-color="#BDBDBE"/>
</linearGradient>
<linearGradient id="paint23_linear_304_8860" x1="0.500929" y1="73.796" x2="94.3248" y2="73.796" gradientUnits="userSpaceOnUse">
<stop stop-color="#555656"/>
<stop offset="1" stop-color="#BDBDBE"/>
</linearGradient>
<linearGradient id="paint24_linear_304_8860" x1="47.39" y1="137.105" x2="47.39" y2="22.3985" gradientUnits="userSpaceOnUse">
<stop stop-color="#F0EFF0"/>
<stop offset="1" stop-color="#DAD9DA"/>
</linearGradient>
<linearGradient id="paint25_linear_304_8860" x1="47.374" y1="121.038" x2="47.374" y2="23.6406" gradientUnits="userSpaceOnUse">
<stop stop-color="#555656"/>
<stop offset="1" stop-color="#BDBDBE"/>
</linearGradient>
<linearGradient id="paint26_linear_304_8860" x1="28.4235" y1="23.0481" x2="70.8225" y2="97.8175" gradientUnits="userSpaceOnUse">
<stop stop-color="#555656"/>
<stop offset="1" stop-color="#BDBDBE"/>
</linearGradient>
<linearGradient id="paint27_linear_304_8860" x1="0.499927" y1="73.7951" x2="94.2481" y2="73.7951" gradientUnits="userSpaceOnUse">
<stop stop-color="#E4E3E4"/>
<stop offset="1" stop-color="white"/>
</linearGradient>
<linearGradient id="paint28_linear_304_8860" x1="64.9833" y1="20.3299" x2="52.2549" y2="114.833" gradientUnits="userSpaceOnUse">
<stop stop-color="#E4E3E4"/>
<stop offset="1" stop-color="#BDBDBE"/>
</linearGradient>
<linearGradient id="paint29_linear_304_8860" x1="30.7554" y1="131.915" x2="76.5698" y2="20.8663" gradientUnits="userSpaceOnUse">
<stop stop-color="#E4E3E4"/>
<stop offset="0.43" stop-color="white"/>
<stop offset="1" stop-color="#DAD9DA"/>
</linearGradient>
<linearGradient id="paint30_linear_304_8860" x1="0.508319" y1="73.796" x2="94.2558" y2="73.796" gradientUnits="userSpaceOnUse">
<stop stop-color="#555656"/>
<stop offset="1" stop-color="#1E1E1E"/>
</linearGradient>
<linearGradient id="paint31_linear_304_8860" x1="0.508319" y1="73.796" x2="94.258" y2="73.796" gradientUnits="userSpaceOnUse">
<stop stop-color="#555656"/>
<stop offset="1" stop-color="#1E1E1E"/>
</linearGradient>
<linearGradient id="paint32_linear_304_8860" x1="0.506073" y1="73.8165" x2="94.2558" y2="73.8165" gradientUnits="userSpaceOnUse">
<stop stop-color="#555656"/>
<stop offset="1" stop-color="#1E1E1E"/>
</linearGradient>
<linearGradient id="paint33_linear_304_8860" x1="0.508319" y1="73.796" x2="94.2558" y2="73.796" gradientUnits="userSpaceOnUse">
<stop stop-color="#555656"/>
<stop offset="1" stop-color="#1E1E1E"/>
</linearGradient>
<linearGradient id="paint34_linear_304_8860" x1="0.492192" y1="73.796" x2="94.2558" y2="73.796" gradientUnits="userSpaceOnUse">
<stop stop-color="#555656"/>
<stop offset="1" stop-color="#1E1E1E"/>
</linearGradient>
<linearGradient id="paint35_linear_304_8860" x1="0.508319" y1="73.796" x2="94.2558" y2="73.796" gradientUnits="userSpaceOnUse">
<stop stop-color="#555656"/>
<stop offset="1" stop-color="#1E1E1E"/>
</linearGradient>
<linearGradient id="paint36_linear_304_8860" x1="0.508319" y1="73.796" x2="94.2558" y2="73.796" gradientUnits="userSpaceOnUse">
<stop stop-color="#555656"/>
<stop offset="1" stop-color="#1E1E1E"/>
</linearGradient>
<linearGradient id="paint37_linear_304_8860" x1="0.508319" y1="73.796" x2="94.2558" y2="73.796" gradientUnits="userSpaceOnUse">
<stop stop-color="#555656"/>
<stop offset="1" stop-color="#1E1E1E"/>
</linearGradient>
<linearGradient id="paint38_linear_304_8860" x1="0.492192" y1="73.796" x2="94.258" y2="73.796" gradientUnits="userSpaceOnUse">
<stop stop-color="#555656"/>
<stop offset="1" stop-color="#1E1E1E"/>
</linearGradient>
<linearGradient id="paint39_linear_304_8860" x1="0.506073" y1="73.796" x2="94.2558" y2="73.796" gradientUnits="userSpaceOnUse">
<stop stop-color="#555656"/>
<stop offset="1" stop-color="#1E1E1E"/>
</linearGradient>
<linearGradient id="paint40_linear_304_8860" x1="0.489946" y1="73.796" x2="94.2558" y2="73.796" gradientUnits="userSpaceOnUse">
<stop stop-color="#555656"/>
<stop offset="1" stop-color="#1E1E1E"/>
</linearGradient>
<linearGradient id="paint41_linear_304_8860" x1="0.508319" y1="73.796" x2="94.2558" y2="73.796" gradientUnits="userSpaceOnUse">
<stop stop-color="#555656"/>
<stop offset="1" stop-color="#1E1E1E"/>
</linearGradient>
<linearGradient id="paint42_linear_304_8860" x1="0.492192" y1="73.8165" x2="94.258" y2="73.8165" gradientUnits="userSpaceOnUse">
<stop stop-color="#555656"/>
<stop offset="1" stop-color="#1E1E1E"/>
</linearGradient>
<linearGradient id="paint43_linear_304_8860" x1="0.506073" y1="73.796" x2="94.2558" y2="73.796" gradientUnits="userSpaceOnUse">
<stop stop-color="#555656"/>
<stop offset="1" stop-color="#1E1E1E"/>
</linearGradient>
<linearGradient id="paint44_linear_304_8860" x1="0.492192" y1="73.796" x2="94.2558" y2="73.796" gradientUnits="userSpaceOnUse">
<stop stop-color="#555656"/>
<stop offset="1" stop-color="#1E1E1E"/>
</linearGradient>
<linearGradient id="paint45_linear_304_8860" x1="0.508319" y1="73.796" x2="94.258" y2="73.796" gradientUnits="userSpaceOnUse">
<stop stop-color="#555656"/>
<stop offset="1" stop-color="#1E1E1E"/>
</linearGradient>
<linearGradient id="paint46_linear_304_8860" x1="0.508319" y1="73.796" x2="94.2742" y2="73.796" gradientUnits="userSpaceOnUse">
<stop stop-color="#555656"/>
<stop offset="1" stop-color="#1E1E1E"/>
</linearGradient>
<linearGradient id="paint47_linear_304_8860" x1="0.506073" y1="73.796" x2="94.2558" y2="73.796" gradientUnits="userSpaceOnUse">
<stop stop-color="#555656"/>
<stop offset="1" stop-color="#1E1E1E"/>
</linearGradient>
<linearGradient id="paint48_linear_304_8860" x1="0.492192" y1="73.796" x2="94.2558" y2="73.796" gradientUnits="userSpaceOnUse">
<stop stop-color="#555656"/>
<stop offset="1" stop-color="#1E1E1E"/>
</linearGradient>
<linearGradient id="paint49_linear_304_8860" x1="0.508319" y1="73.8165" x2="94.258" y2="73.8165" gradientUnits="userSpaceOnUse">
<stop stop-color="#555656"/>
<stop offset="1" stop-color="#1E1E1E"/>
</linearGradient>
<linearGradient id="paint50_linear_304_8860" x1="0.506073" y1="73.796" x2="94.2719" y2="73.796" gradientUnits="userSpaceOnUse">
<stop stop-color="#555656"/>
<stop offset="1" stop-color="#1E1E1E"/>
</linearGradient>
<linearGradient id="paint51_linear_304_8860" x1="0.508319" y1="73.796" x2="94.2558" y2="73.796" gradientUnits="userSpaceOnUse">
<stop stop-color="#555656"/>
<stop offset="1" stop-color="#1E1E1E"/>
</linearGradient>
<linearGradient id="paint52_linear_304_8860" x1="0.508319" y1="73.796" x2="94.2558" y2="73.796" gradientUnits="userSpaceOnUse">
<stop stop-color="#555656"/>
<stop offset="1" stop-color="#1E1E1E"/>
</linearGradient>
<linearGradient id="paint53_linear_304_8860" x1="0.508319" y1="73.796" x2="94.2558" y2="73.796" gradientUnits="userSpaceOnUse">
<stop stop-color="#555656"/>
<stop offset="1" stop-color="#1E1E1E"/>
</linearGradient>
<linearGradient id="paint54_linear_304_8860" x1="0.506073" y1="73.796" x2="94.2719" y2="73.796" gradientUnits="userSpaceOnUse">
<stop stop-color="#555656"/>
<stop offset="1" stop-color="#1E1E1E"/>
</linearGradient>
<linearGradient id="paint55_linear_304_8860" x1="0.508319" y1="73.796" x2="94.2558" y2="73.796" gradientUnits="userSpaceOnUse">
<stop stop-color="#555656"/>
<stop offset="1" stop-color="#1E1E1E"/>
</linearGradient>
<linearGradient id="paint56_linear_304_8860" x1="0.508319" y1="73.796" x2="94.258" y2="73.796" gradientUnits="userSpaceOnUse">
<stop stop-color="#555656"/>
<stop offset="1" stop-color="#1E1E1E"/>
</linearGradient>
<linearGradient id="paint57_linear_304_8860" x1="0.506073" y1="73.796" x2="94.2558" y2="73.796" gradientUnits="userSpaceOnUse">
<stop stop-color="#555656"/>
<stop offset="1" stop-color="#1E1E1E"/>
</linearGradient>
<linearGradient id="paint58_linear_304_8860" x1="0.506073" y1="73.796" x2="94.2558" y2="73.796" gradientUnits="userSpaceOnUse">
<stop stop-color="#555656"/>
<stop offset="1" stop-color="#1E1E1E"/>
</linearGradient>
<linearGradient id="paint59_linear_304_8860" x1="0.492192" y1="73.8165" x2="94.2558" y2="73.8165" gradientUnits="userSpaceOnUse">
<stop stop-color="#555656"/>
<stop offset="1" stop-color="#1E1E1E"/>
</linearGradient>
<linearGradient id="paint60_linear_304_8860" x1="0.508319" y1="73.796" x2="94.258" y2="73.796" gradientUnits="userSpaceOnUse">
<stop stop-color="#555656"/>
<stop offset="1" stop-color="#1E1E1E"/>
</linearGradient>
<linearGradient id="paint61_linear_304_8860" x1="0.506073" y1="73.796" x2="94.2558" y2="73.796" gradientUnits="userSpaceOnUse">
<stop stop-color="#555656"/>
<stop offset="1" stop-color="#1E1E1E"/>
</linearGradient>
<linearGradient id="paint62_linear_304_8860" x1="0.508319" y1="73.796" x2="94.2558" y2="73.796" gradientUnits="userSpaceOnUse">
<stop stop-color="#555656"/>
<stop offset="1" stop-color="#1E1E1E"/>
</linearGradient>
<linearGradient id="paint63_linear_304_8860" x1="0.492192" y1="73.796" x2="94.2558" y2="73.796" gradientUnits="userSpaceOnUse">
<stop stop-color="#555656"/>
<stop offset="1" stop-color="#1E1E1E"/>
</linearGradient>
<linearGradient id="paint64_linear_304_8860" x1="0.508319" y1="73.796" x2="94.2558" y2="73.796" gradientUnits="userSpaceOnUse">
<stop stop-color="#555656"/>
<stop offset="1" stop-color="#1E1E1E"/>
</linearGradient>
<linearGradient id="paint65_linear_304_8860" x1="0.489946" y1="73.796" x2="94.2558" y2="73.796" gradientUnits="userSpaceOnUse">
<stop stop-color="#555656"/>
<stop offset="1" stop-color="#1E1E1E"/>
</linearGradient>
<linearGradient id="paint66_linear_304_8860" x1="396.867" y1="-101.551" x2="-368.702" y2="149.867" gradientUnits="userSpaceOnUse">
<stop stop-color="#555656"/>
<stop offset="1" stop-color="#BDBDBE"/>
</linearGradient>
<linearGradient id="paint67_linear_304_8860" x1="338.478" y1="-71.3972" x2="-427.094" y2="180.046" gradientUnits="userSpaceOnUse">
<stop stop-color="#555656"/>
<stop offset="1" stop-color="#BDBDBE"/>
</linearGradient>
<linearGradient id="paint68_linear_304_8860" x1="280.078" y1="-41.2237" x2="-485.506" y2="210.205" gradientUnits="userSpaceOnUse">
<stop stop-color="#555656"/>
<stop offset="1" stop-color="#BDBDBE"/>
</linearGradient>
<linearGradient id="paint69_linear_304_8860" x1="221.677" y1="-11.0707" x2="-543.877" y2="240.347" gradientUnits="userSpaceOnUse">
<stop stop-color="#555656"/>
<stop offset="1" stop-color="#BDBDBE"/>
</linearGradient>
<linearGradient id="paint70_linear_304_8860" x1="163.28" y1="19.0828" x2="-602.292" y2="270.515" gradientUnits="userSpaceOnUse">
<stop stop-color="#555656"/>
<stop offset="1" stop-color="#BDBDBE"/>
</linearGradient>
<linearGradient id="paint71_linear_304_8860" x1="104.884" y1="49.2563" x2="-660.685" y2="300.674" gradientUnits="userSpaceOnUse">
<stop stop-color="#555656"/>
<stop offset="1" stop-color="#BDBDBE"/>
</linearGradient>
<linearGradient id="paint72_linear_304_8860" x1="470.787" y1="-137.773" x2="-294.797" y2="113.655" gradientUnits="userSpaceOnUse">
<stop stop-color="#555656"/>
<stop offset="1" stop-color="#BDBDBE"/>
</linearGradient>
<linearGradient id="paint73_linear_304_8860" x1="412.381" y1="-107.64" x2="-353.176" y2="143.793" gradientUnits="userSpaceOnUse">
<stop stop-color="#555656"/>
<stop offset="1" stop-color="#BDBDBE"/>
</linearGradient>
<linearGradient id="paint74_linear_304_8860" x1="353.977" y1="-77.4667" x2="-411.591" y2="173.962" gradientUnits="userSpaceOnUse">
<stop stop-color="#555656"/>
<stop offset="1" stop-color="#BDBDBE"/>
</linearGradient>
<linearGradient id="paint75_linear_304_8860" x1="295.6" y1="-47.2932" x2="-469.999" y2="204.146" gradientUnits="userSpaceOnUse">
<stop stop-color="#555656"/>
<stop offset="1" stop-color="#BDBDBE"/>
</linearGradient>
<linearGradient id="paint76_linear_304_8860" x1="237.179" y1="-17.1602" x2="-528.393" y2="234.283" gradientUnits="userSpaceOnUse">
<stop stop-color="#555656"/>
<stop offset="1" stop-color="#BDBDBE"/>
</linearGradient>
<linearGradient id="paint77_linear_304_8860" x1="178.795" y1="13.0133" x2="-586.774" y2="264.431" gradientUnits="userSpaceOnUse">
<stop stop-color="#555656"/>
<stop offset="1" stop-color="#BDBDBE"/>
</linearGradient>
<linearGradient id="paint78_linear_304_8860" x1="544.686" y1="-174.016" x2="-220.883" y2="77.4124" gradientUnits="userSpaceOnUse">
<stop stop-color="#555656"/>
<stop offset="1" stop-color="#BDBDBE"/>
</linearGradient>
<linearGradient id="paint79_linear_304_8860" x1="486.302" y1="-143.863" x2="-279.286" y2="107.58" gradientUnits="userSpaceOnUse">
<stop stop-color="#555656"/>
<stop offset="1" stop-color="#BDBDBE"/>
</linearGradient>
<linearGradient id="paint80_linear_304_8860" x1="427.879" y1="-113.71" x2="-337.674" y2="137.708" gradientUnits="userSpaceOnUse">
<stop stop-color="#555656"/>
<stop offset="1" stop-color="#BDBDBE"/>
</linearGradient>
<linearGradient id="paint81_linear_304_8860" x1="369.483" y1="-83.5363" x2="-396.071" y2="167.882" gradientUnits="userSpaceOnUse">
<stop stop-color="#555656"/>
<stop offset="1" stop-color="#BDBDBE"/>
</linearGradient>
<linearGradient id="paint82_linear_304_8860" x1="311.102" y1="-53.3828" x2="-454.47" y2="198.05" gradientUnits="userSpaceOnUse">
<stop stop-color="#555656"/>
<stop offset="1" stop-color="#BDBDBE"/>
</linearGradient>
<linearGradient id="paint83_linear_304_8860" x1="252.693" y1="-23.2297" x2="-512.879" y2="228.214" gradientUnits="userSpaceOnUse">
<stop stop-color="#555656"/>
<stop offset="1" stop-color="#BDBDBE"/>
</linearGradient>
<linearGradient id="paint84_linear_304_8860" x1="618.584" y1="-210.259" x2="-146.97" y2="41.1586" gradientUnits="userSpaceOnUse">
<stop stop-color="#555656"/>
<stop offset="1" stop-color="#BDBDBE"/>
</linearGradient>
<linearGradient id="paint85_linear_304_8860" x1="560.2" y1="-180.106" x2="-205.372" y2="71.3378" gradientUnits="userSpaceOnUse">
<stop stop-color="#555656"/>
<stop offset="1" stop-color="#BDBDBE"/>
</linearGradient>
<linearGradient id="paint86_linear_304_8860" x1="501.816" y1="-149.953" x2="-263.767" y2="101.476" gradientUnits="userSpaceOnUse">
<stop stop-color="#555656"/>
<stop offset="1" stop-color="#BDBDBE"/>
</linearGradient>
<linearGradient id="paint87_linear_304_8860" x1="443.394" y1="-119.779" x2="-322.16" y2="131.639" gradientUnits="userSpaceOnUse">
<stop stop-color="#555656"/>
<stop offset="1" stop-color="#BDBDBE"/>
</linearGradient>
<linearGradient id="paint88_linear_304_8860" x1="385.013" y1="-89.6058" x2="-380.556" y2="161.812" gradientUnits="userSpaceOnUse">
<stop stop-color="#555656"/>
<stop offset="1" stop-color="#BDBDBE"/>
</linearGradient>
<linearGradient id="paint89_linear_304_8860" x1="326.601" y1="-59.4523" x2="-438.957" y2="191.98" gradientUnits="userSpaceOnUse">
<stop stop-color="#555656"/>
<stop offset="1" stop-color="#BDBDBE"/>
</linearGradient>
<linearGradient id="paint90_linear_304_8860" x1="692.525" y1="-246.502" x2="-73.0585" y2="4.92594" gradientUnits="userSpaceOnUse">
<stop stop-color="#555656"/>
<stop offset="1" stop-color="#BDBDBE"/>
</linearGradient>
<linearGradient id="paint91_linear_304_8860" x1="634.098" y1="-216.329" x2="-131.455" y2="35.089" gradientUnits="userSpaceOnUse">
<stop stop-color="#555656"/>
<stop offset="1" stop-color="#BDBDBE"/>
</linearGradient>
<linearGradient id="paint92_linear_304_8860" x1="575.715" y1="-186.175" x2="-189.857" y2="65.2683" gradientUnits="userSpaceOnUse">
<stop stop-color="#555656"/>
<stop offset="1" stop-color="#BDBDBE"/>
</linearGradient>
<linearGradient id="paint93_linear_304_8860" x1="517.305" y1="-156.022" x2="-248.264" y2="95.3951" gradientUnits="userSpaceOnUse">
<stop stop-color="#555656"/>
<stop offset="1" stop-color="#BDBDBE"/>
</linearGradient>
<linearGradient id="paint94_linear_304_8860" x1="458.917" y1="-125.849" x2="-306.651" y2="125.58" gradientUnits="userSpaceOnUse">
<stop stop-color="#555656"/>
<stop offset="1" stop-color="#BDBDBE"/>
</linearGradient>
<linearGradient id="paint95_linear_304_8860" x1="400.512" y1="-95.6953" x2="-365.061" y2="155.737" gradientUnits="userSpaceOnUse">
<stop stop-color="#555656"/>
<stop offset="1" stop-color="#BDBDBE"/>
</linearGradient>
<linearGradient id="paint96_linear_304_8860" x1="766.424" y1="-282.725" x2="0.855871" y2="-31.2962" gradientUnits="userSpaceOnUse">
<stop stop-color="#555656"/>
<stop offset="1" stop-color="#BDBDBE"/>
</linearGradient>
<linearGradient id="paint97_linear_304_8860" x1="708.024" y1="-252.572" x2="-57.5599" y2="-1.14359" gradientUnits="userSpaceOnUse">
<stop stop-color="#555656"/>
<stop offset="1" stop-color="#BDBDBE"/>
</linearGradient>
<linearGradient id="paint98_linear_304_8860" x1="649.612" y1="-222.418" x2="-115.945" y2="29.0144" gradientUnits="userSpaceOnUse">
<stop stop-color="#555656"/>
<stop offset="1" stop-color="#BDBDBE"/>
</linearGradient>
<linearGradient id="paint99_linear_304_8860" x1="591.216" y1="-192.245" x2="-174.353" y2="59.1725" gradientUnits="userSpaceOnUse">
<stop stop-color="#555656"/>
<stop offset="1" stop-color="#BDBDBE"/>
</linearGradient>
<linearGradient id="paint100_linear_304_8860" x1="532.819" y1="-162.092" x2="-232.734" y2="89.326" gradientUnits="userSpaceOnUse">
<stop stop-color="#555656"/>
<stop offset="1" stop-color="#BDBDBE"/>
</linearGradient>
<linearGradient id="paint101_linear_304_8860" x1="474.406" y1="-131.938" x2="-291.151" y2="119.494" gradientUnits="userSpaceOnUse">
<stop stop-color="#555656"/>
<stop offset="1" stop-color="#BDBDBE"/>
</linearGradient>
<linearGradient id="paint102_linear_304_8860" x1="-8.09127" y1="73.3031" x2="114.748" y2="73.6948" gradientUnits="userSpaceOnUse">
<stop stop-color="#B7B7B7"/>
<stop offset="1" stop-color="#EFEFEF"/>
</linearGradient>
<linearGradient id="paint103_linear_304_8860" x1="7.17535" y1="88.7109" x2="72.0113" y2="74.4431" gradientUnits="userSpaceOnUse">
<stop stop-color="#B7B7B7"/>
<stop offset="1" stop-color="#EFEFEF"/>
</linearGradient>
<linearGradient id="paint104_linear_304_8860" x1="48.5593" y1="160.509" x2="27.7767" y2="-15.1323" gradientUnits="userSpaceOnUse">
<stop stop-color="#FDFDFF"/>
<stop offset="1" stop-color="#EFEFEF"/>
</linearGradient>
<linearGradient id="paint105_linear_304_8860" x1="61.769" y1="17.7037" x2="37.5799" y2="119.518" gradientUnits="userSpaceOnUse">
<stop stop-color="#FDFDFF"/>
<stop offset="1" stop-color="#EFEFEF"/>
</linearGradient>
<linearGradient id="paint106_linear_304_8860" x1="61.2382" y1="16.5077" x2="35.0932" y2="119.523" gradientUnits="userSpaceOnUse">
<stop stop-color="#FDFDFF"/>
<stop offset="1" stop-color="#EFEFEF"/>
</linearGradient>
<linearGradient id="paint107_linear_304_8860" x1="42.1873" y1="129.815" x2="47.0457" y2="10.7813" gradientUnits="userSpaceOnUse">
<stop stop-color="#B7B7B7"/>
<stop offset="1" stop-color="#EFEFEF"/>
</linearGradient>
<linearGradient id="paint108_linear_304_8860" x1="56.9145" y1="2.76773" x2="-20.7893" y2="69.5583" gradientUnits="userSpaceOnUse">
<stop stop-color="#FDFDFF"/>
<stop offset="1" stop-color="#EFEFEF"/>
</linearGradient>
<linearGradient id="paint109_linear_304_8860" x1="12.685" y1="120.134" x2="61.575" y2="37.7681" gradientUnits="userSpaceOnUse">
<stop stop-color="#FDFDFF"/>
<stop offset="1" stop-color="#EFEFEF"/>
</linearGradient>
<linearGradient id="paint110_linear_304_8860" x1="45.5948" y1="132.727" x2="60.856" y2="9.19382" gradientUnits="userSpaceOnUse">
<stop stop-color="#B7B7B7"/>
<stop offset="1" stop-color="#EFEFEF"/>
</linearGradient>
<linearGradient id="paint111_linear_304_8860" x1="48.9478" y1="157.017" x2="34.3429" y2="-12.6375" gradientUnits="userSpaceOnUse">
<stop stop-color="#FDFDFF"/>
<stop offset="1" stop-color="#EFEFEF"/>
</linearGradient>
<linearGradient id="paint112_linear_304_8860" x1="57.5964" y1="20.9964" x2="28.5953" y2="113.109" gradientUnits="userSpaceOnUse">
<stop stop-color="#B7B7B7"/>
<stop offset="1" stop-color="#EFEFEF"/>
</linearGradient>
<linearGradient id="paint113_linear_304_8860" x1="38.8103" y1="107.486" x2="66.8194" y2="44.8364" gradientUnits="userSpaceOnUse">
<stop stop-color="#B7B7B7"/>
<stop offset="1" stop-color="#EFEFEF"/>
</linearGradient>
<linearGradient id="paint114_linear_304_8860" x1="52.428" y1="27.7849" x2="15.2414" y2="84.6111" gradientUnits="userSpaceOnUse">
<stop stop-color="#FDFDFF"/>
<stop offset="1" stop-color="#EFEFEF"/>
</linearGradient>
<clipPath id="clip0_304_8860">
<rect width="66" height="146" fill="white" transform="translate(0.5 0.972656)"/>
</clipPath>
</defs>
</svg>
