<svg width="49" height="147" viewBox="0 0 49 147" fill="none" xmlns="http://www.w3.org/2000/svg">
<path d="M18.0888 129.795H30.8438V130.732H29.3134L26.1559 134.641H25.5927L28.7502 130.732H18.0888V129.795Z" fill="#455157"/>
<path opacity="0.2" d="M18.0888 129.795H30.8438V130.732H29.3134L26.1559 134.641H25.5927L28.7502 130.732H18.0888V129.795Z" fill="white"/>
<path d="M0.991833 126.368C2.1069 123.06 4.91165 121.812 4.91165 121.812H24.0784L26.502 122.958L22.7699 134.005H3.60315L1.17957 132.859C1.17957 132.859 -0.208576 129.92 0.991833 126.368Z" fill="#455157"/>
<path d="M3.53356 134.005H34.3867V146.483H3.53356V134.005Z" fill="#455157"/>
<path opacity="0.2" d="M3.53243 134.005H22.7051V146.483H3.53243V134.005Z" fill="white"/>
<path opacity="0.2" d="M1.17364 132.859H20.3404C20.3404 132.859 18.9579 129.92 20.1583 126.368C21.2734 123.06 24.0781 121.812 24.0781 121.812H4.90571C4.90571 121.812 2.10665 123.06 0.991579 126.368C-0.20883 129.92 1.17364 132.859 1.17364 132.859Z" fill="white"/>
<path opacity="0.1" d="M1.17341 132.86L3.60268 134.006H22.7695L20.3402 132.86H1.17341Z" fill="white"/>
<path opacity="0.2" d="M14.7126 126.533C14.7126 126.533 11.8225 127.985 8.75036 128.093C5.67822 128.201 4.77365 126.533 4.77365 126.533L5.20033 125.222C5.20033 125.222 5.93992 126.425 8.153 126.663C10.3661 126.902 15.0938 125.177 15.0938 125.177L14.7183 126.533H14.7126Z" fill="black"/>
<path d="M15.0879 125.177C15.0879 125.177 12.0499 123.679 9.31341 123.94C6.57693 124.201 5.20015 125.223 5.20015 125.223L4.77347 126.533C4.77347 126.533 8.89241 123.991 14.7124 126.533L15.0879 125.177Z" fill="#455157"/>
<path d="M59.0846 2.57977L60.1641 87.0718L4.49895 87.7791L3.41951 3.28714L59.0846 2.57977Z" fill="#455157"/>
<path opacity="0.6" d="M59.0846 2.57977L60.1641 87.0718L4.49895 87.7791L3.41951 3.28714L59.0846 2.57977Z" fill="white"/>
<path d="M17.9235 51.9947L18.0645 63.0239L5.52106 63.1833L5.38016 52.1541L17.9235 51.9947Z" fill="#455157"/>
<path d="M18.0778 64.1505L18.2188 75.1797L5.67536 75.3391L5.53445 64.3099L18.0778 64.1505Z" fill="#455157"/>
<path d="M31.5935 51.816L31.7344 62.8452L19.191 63.0046L19.0501 51.9754L31.5935 51.816Z" fill="#455157"/>
<path d="M17.4587 15.5387L17.5996 26.5679L5.05623 26.7273L4.91532 15.6981L17.4587 15.5387Z" fill="#455157"/>
<path d="M31.7478 63.9767L31.8887 75.0059L19.3453 75.1653L19.2044 64.1361L31.7478 63.9767Z" fill="#455157"/>
<path d="M17.7732 39.839L17.9141 50.8682L5.37067 51.0276L5.22976 39.9984L17.7732 39.839Z" fill="#455157"/>
<path d="M17.611 27.6891L17.752 38.7183L5.20856 38.8777L5.06766 27.8485L17.611 27.6891Z" fill="#455157"/>
<path d="M58.4235 39.3268L58.5645 50.356L46.3794 50.5108L46.2385 39.4816L58.4235 39.3268Z" fill="#455157"/>
<path d="M58.5818 51.4762L58.7227 62.5054L46.5377 62.6602L46.3967 51.631L58.5818 51.4762Z" fill="#455157"/>
<path d="M58.111 15.0211L58.252 26.0503L46.0669 26.2051L45.926 15.176L58.111 15.0211Z" fill="#455157"/>
<path d="M58.7321 63.6271L58.873 74.6562L46.688 74.8111L46.5471 63.7819L58.7321 63.6271Z" fill="#455157"/>
<path d="M58.2732 27.171L58.4141 38.2002L46.2291 38.355L46.0882 27.3259L58.2732 27.171Z" fill="#455157"/>
<path d="M17.3133 4.23395L17.4434 14.4121L4.89997 14.5715L4.76993 4.39335L17.3133 4.23395Z" fill="#455157"/>
<path d="M18.2293 76.3008L18.3594 86.479L5.81599 86.6384L5.68596 76.4602L18.2293 76.3008Z" fill="#455157"/>
<path d="M58.8934 75.7818L59.0234 85.96L46.8384 86.1148L46.7084 75.9366L58.8934 75.7818Z" fill="#455157"/>
<path d="M57.9715 3.72174L58.1016 13.8999L45.9166 14.0547L45.7865 3.87659L57.9715 3.72174Z" fill="#455157"/>
<path d="M45.111 39.4923L45.252 50.5215L32.7086 50.6809L32.5677 39.6517L45.111 39.4923Z" fill="#455157"/>
<path d="M45.2673 51.6476L45.4082 62.6768L32.8648 62.8362L32.7239 51.807L45.2673 51.6476Z" fill="#455157"/>
<path d="M30.9813 4.06159L31.1113 14.2397L18.5679 14.3991L18.4379 4.22098L30.9813 4.06159Z" fill="#455157"/>
<path d="M31.9051 76.127L32.0352 86.3052L19.4918 86.4646L19.3617 76.2864L31.9051 76.127Z" fill="#455157"/>
<path d="M31.1267 15.3658L31.2676 26.395L18.7242 26.5544L18.5833 15.5252L31.1267 15.3658Z" fill="#455157"/>
<path d="M31.2849 27.5157L31.4258 38.5449L18.8824 38.7043L18.7415 27.6751L31.2849 27.5157Z" fill="#455157"/>
<path d="M45.4177 63.8033L45.5586 74.8325L33.0152 74.9919L32.8743 63.9627L45.4177 63.8033Z" fill="#455157"/>
<path d="M45.5731 75.9532L45.7031 86.1313L33.1597 86.2907L33.0297 76.1126L45.5731 75.9532Z" fill="#455157"/>
<path d="M44.6512 3.88776L44.7812 14.0659L32.2379 14.2253L32.1078 4.04716L44.6512 3.88776Z" fill="#455157"/>
<path d="M31.4353 39.6656L31.5762 50.6948L19.0328 50.8542L18.8919 39.825L31.4353 39.6656Z" fill="#455157"/>
<path d="M44.7966 15.1871L44.9375 26.2163L32.3941 26.3757L32.2532 15.3465L44.7966 15.1871Z" fill="#455157"/>
<path d="M44.9528 27.3414L45.0938 38.3706L32.5504 38.53L32.4095 27.5008L44.9528 27.3414Z" fill="#455157"/>
<g opacity="0.1">
<path d="M23.1662 3.03498L59.4805 33.8621L59.0822 2.58105L23.1662 3.03498Z" fill="white"/>
<path d="M7.21814 3.24043L59.6562 47.7595L59.5595 40.1449L15.9569 3.12695L7.21814 3.24043Z" fill="white"/>
<path d="M3.50847 10.5488L3.55967 14.3618L59.8438 62.1322L59.7925 58.3192L3.50847 10.5488Z" fill="white"/>
</g>
<g opacity="0.1">
<path d="M4.41358 81.3159L4.49893 87.7788L11.9121 87.688L4.41358 81.3159Z" fill="white"/>
<path d="M4.27727 70.3418L4.35123 76.3562L17.607 87.6135L24.5137 87.5227L4.27727 70.3418Z" fill="white"/>
<path d="M4.12926 59.0049L4.16909 62.0065L34.0835 87.404L37.5312 87.3586L4.12926 59.0049Z" fill="white"/>
</g>
<path d="M46.604 50.8278C46.604 50.8278 40.9092 38.7253 41.3416 35.86C41.7739 32.9947 51.3316 45.4092 51.3316 45.4092L52.0996 49.6589L46.604 50.8221V50.8278Z" fill="#407BFF"/>
<path opacity="0.4" d="M46.604 50.8278C46.604 50.8278 40.9092 38.7253 41.3416 35.86C41.7739 32.9947 51.3316 45.4092 51.3316 45.4092L52.0996 49.6589L46.604 50.8221V50.8278Z" fill="#FDE614"/>
<path opacity="0.2" d="M46.9965 50.5094C46.9965 50.5094 41.3018 38.407 41.7341 35.5416C42.1665 32.6763 51.7242 45.0908 51.7242 45.0908L52.4922 49.3406L46.9965 50.5037V50.5094Z" fill="#FDE614"/>
<path d="M37.3477 142.528L32.8817 142.994L32.6541 140.412L32.0397 133.387L36.5113 132.917L37.1884 140.679L37.3477 142.528Z" fill="#F3D4CF"/>
<path opacity="0.2" d="M36.5105 132.917L37.1875 140.679L32.6531 140.412L32.0387 133.387L36.5105 132.917Z" fill="black"/>
<path d="M32.4026 141.564H37.665C37.8413 141.564 37.9949 141.689 38.0348 141.859L38.8881 145.706C38.9621 146.052 38.7402 146.387 38.3932 146.461C38.3477 146.472 38.3022 146.478 38.251 146.472C36.5499 146.444 35.3097 146.341 33.1706 146.341C31.8564 146.341 27.8798 146.478 26.065 146.478C24.2501 146.478 24.0112 144.685 24.7565 144.52C28.096 143.794 30.6048 142.79 31.6744 141.831C31.8735 141.649 32.1352 141.553 32.4026 141.558V141.564Z" fill="#455157"/>
<path d="M31.6365 138.664L38.0256 138.868C35.6987 96.2552 34.6177 94.082 55.3552 73.9503C55.8387 80.0386 56.3849 86.3539 56.9197 91.6195C57.2554 94.8764 57.3578 97.7248 57.8983 99.8072C61.5906 113.919 70.4716 138.902 70.4716 138.902L76.707 139.18C76.707 139.18 68.9013 104.948 68.0991 93.787C67.0466 79.1478 76.1722 62.2843 67.297 46.4365L46.5937 50.4595L46.7416 55.5378C26.9827 84.3736 23.3643 90.6038 31.6309 138.664H31.6365Z" fill="#FFA010"/>
<path opacity="0.4" d="M31.6365 138.664L38.0256 138.868C35.6987 96.2552 34.6177 94.082 55.3552 73.9503C55.8387 80.0386 56.3849 86.3539 56.9197 91.6195C57.2554 94.8764 57.3578 97.7248 57.8983 99.8072C61.5906 113.919 70.4716 138.902 70.4716 138.902L76.707 139.18C76.707 139.18 68.9013 104.948 68.0991 93.787C67.0466 79.1478 76.1722 62.2843 67.297 46.4365L46.5937 50.4595L46.7416 55.5378C26.9827 84.3736 23.3643 90.6038 31.6309 138.664H31.6365Z" fill="white"/>
<path d="M35.7209 35.1738C35.7209 35.1738 23.9497 37.2959 21.7024 36.9328C19.4551 36.5696 7.54169 27.2016 7.54169 27.2016C7.54169 27.2016 3.61606 26.986 3.41124 25.6582C3.20074 24.3305 2.67164 21.9587 3.79812 22.0324C4.92461 22.1062 8.21303 23.5701 8.21303 23.5701L8.63973 24.6596C8.63973 24.6596 21.7536 32.5523 22.2429 32.7225C22.7322 32.8984 34.0311 29.8174 34.0311 29.8174L35.7266 35.1738H35.7209Z" fill="#F3D4CF"/>
<path d="M37.5234 18.8369C37.6486 18.9844 37.7794 19.1263 37.916 19.2568C38.7295 20.0454 39.7365 20.5334 40.7776 20.7093C41.0506 20.7603 41.3294 20.783 41.6025 20.7887C43.0589 20.8171 44.4925 20.2554 45.4767 19.1036C45.8807 18.6383 46.2106 18.0652 46.4325 17.3957C47.32 14.7744 46.2675 12.7545 44.7713 9.20827C44.4584 8.43661 43.9748 7.75007 43.349 7.21105C41.1587 5.2876 37.8249 5.50888 35.902 7.68766C33.1883 10.7289 35.2421 16.0907 37.5234 18.8312V18.8369Z" fill="#F3D4CF"/>
<path opacity="0.2" d="M40.7855 20.7095C41.0586 20.7606 41.3373 20.7832 41.6104 20.7889C43.0667 20.8173 44.5002 20.2556 45.4844 19.1039C44.9155 18.5536 44.2897 18.2358 44.2897 18.2358C44.2897 18.2358 42.0655 18.928 40.7855 20.7095Z" fill="black"/>
<path d="M33.9423 9.51985C34.1471 9.51985 35.7286 10.8646 35.8253 11.3639C36.0927 12.7086 37.6231 14.615 38.9657 15.2221C40.3026 15.8292 42.3564 18.7116 42.3564 18.7116C42.3564 18.7116 44.5865 16.8449 46.9247 16.8051C46.9247 16.8051 49.6782 11.7951 46.9702 5.8999L33.9479 9.51985H33.9423Z" fill="#455157"/>
<path opacity="0.2" d="M33.9423 9.51985C34.1471 9.51985 35.7286 10.8646 35.8253 11.3639C36.0927 12.7086 37.6231 14.615 38.9657 15.2221C40.3026 15.8292 42.3564 18.7116 42.3564 18.7116C42.3564 18.7116 44.5865 16.8449 46.9247 16.8051C46.9247 16.8051 49.6782 11.7951 46.9702 5.8999L33.9479 9.51985H33.9423Z" fill="white"/>
<path d="M39.9534 14.0601C40.1184 14.9111 39.9705 15.6657 39.5552 16.1593C38.9977 16.8004 38.0477 16.0401 37.6381 14.9508C37.2854 13.9863 37.1262 12.4545 37.9624 12.2559C38.7986 12.0573 39.743 13.0105 39.9534 14.0601Z" fill="#F3D4CF"/>
<path d="M36.7598 10.7295C36.7598 10.7295 36.3502 19.893 43.4219 19.9725V20.3526C43.4219 20.3526 37.0728 20.9257 35.5936 11.4387L36.7598 10.7295Z" fill="#455157"/>
<path d="M47.8208 8.40283C47.8208 8.40283 47.434 9.40145 46.0686 9.90644C44.7032 10.4114 38.2005 8.72625 38.2005 8.72625L37.0342 9.59437C37.0342 9.59437 43.5767 11.7448 46.0686 11.3873C48.5604 11.0299 48.1622 9.18584 48.1622 9.18584L47.8208 8.40283Z" fill="#282828"/>
<path d="M51.3262 20.7951C50.3818 23.1725 43.4182 23.8023 43.4182 23.8023C43.4182 23.8023 43.5376 23.0363 43.3954 21.9696C43.3101 21.3511 43.0427 20.7383 42.6899 20.1426C42.5079 19.8305 42.2974 19.5241 42.0812 19.229L46.6326 16.8232C47.7021 18.7127 48.7603 19.7851 51.3262 20.7894V20.7951Z" fill="#F3D4CF"/>
<path d="M32.5355 12.2267C32.5355 12.2267 32.1885 12.987 32.7745 13.4976C33.3604 14.0026 34.6177 13.4976 34.6177 13.4976C34.6177 13.4976 38.9642 6.60953 47.64 6.84216C47.64 6.84216 48.2772 5.95135 48.1464 5.34425C48.0155 4.74281 46.7639 4.32862 46.7639 4.32862C46.7639 4.32862 45.9447 3.46618 44.511 2.60942C43.3732 1.92856 41.8372 1.24202 40.0167 1.01506C35.9262 0.49306 31.6822 4.8336 31.5001 5.90029C31.3181 6.96698 32.308 8.28333 32.308 8.28333C32.308 8.28333 31.9496 10.3883 32.5298 12.2267H32.5355Z" fill="#FDE614"/>
<path opacity="0.2" d="M32.5333 12.2268C36.6807 5.17984 46.7617 4.33443 46.7617 4.33443C46.7617 4.33443 45.9425 3.47199 44.5088 2.61523C44.4235 3.49469 43.4222 3.84647 42.6087 3.93158C41.4879 4.04506 36.84 2.76276 34.6099 4.3401C32.3854 5.91177 32.3058 8.29481 32.3058 8.29481C32.3058 8.29481 31.9474 10.3998 32.5277 12.2382L32.5333 12.2268Z" fill="black"/>
<path d="M30.9173 137.977L31.2302 139.764H38.7344V138.119L30.9173 137.977Z" fill="#407BFF"/>
<path d="M36.4537 26.4463C32.8014 28.6364 29.9113 30.7187 29.9113 30.7187L32.5454 36.3132L43.0645 34.4805C43.0645 34.4805 42.1428 32.1542 40.3109 29.2889C38.4847 26.4236 36.4537 26.4463 36.4537 26.4463Z" fill="#FDE614"/>
<path opacity="0.4" d="M30.9173 137.977L31.2302 139.764H38.7344V138.119L30.9173 137.977Z" fill="#FDE614"/>
<path d="M46.1947 51.1579L46.2174 53.155L49.8184 52.4345L49.7103 50.4941L46.1947 51.1579Z" fill="#455157"/>
<path d="M67.2969 46.442C67.2969 46.442 62.6942 24.7214 57.9948 20.0118C57.9948 20.0118 46.0359 17.8557 36.4551 26.4463C36.4551 26.4463 44.5851 40.365 46.5935 50.4593L67.2969 46.4363V46.442Z" fill="#FDE614"/>
<path d="M52.4863 26.8439C52.4863 26.8439 48.4413 23.5416 42.3255 22.2593L40.7781 23.0763C40.7781 23.0763 44.8913 23.7061 52.3953 27.9389L52.4863 26.8439Z" fill="#455157"/>
<path d="M9.43555 24.7331L7.80859 28.001L7.35918 27.6039C7.35918 27.6039 3.3316 27.428 3.07561 26.9514C2.81962 26.4749 1.84117 21.7602 2.49536 21.4992C3.14956 21.2382 8.22955 22.9857 8.41728 23.0367C8.605 23.0878 8.85531 24.387 8.85531 24.387L9.43555 24.7331Z" fill="#FDE614"/>
</svg>
