<svg width="14" height="17" viewBox="0 0 14 17" fill="none" xmlns="http://www.w3.org/2000/svg">
<path d="M7 0.625C5.35954 0.626861 3.78681 1.27935 2.62683 2.43933C1.46685 3.59931 0.814361 5.17204 0.8125 6.8125C0.8125 12.107 6.4375 16.1057 6.67727 16.273C6.77184 16.3393 6.88452 16.3748 7 16.3748C7.11548 16.3748 7.22816 16.3393 7.32273 16.273C7.5625 16.1057 13.1875 12.107 13.1875 6.8125C13.1856 5.17204 12.5331 3.59931 11.3732 2.43933C10.2132 1.27935 8.64046 0.626861 7 0.625ZM7 4.5625C7.44501 4.5625 7.88002 4.69446 8.25003 4.94169C8.62004 5.18893 8.90843 5.54033 9.07873 5.95146C9.24903 6.3626 9.29358 6.815 9.20677 7.25145C9.11995 7.68791 8.90566 8.08882 8.59099 8.40349C8.27632 8.71816 7.87541 8.93245 7.43895 9.01927C7.0025 9.10608 6.5501 9.06153 6.13896 8.89123C5.72783 8.72093 5.37643 8.43254 5.12919 8.06253C4.88196 7.69252 4.75 7.25751 4.75 6.8125C4.75 6.21576 4.98705 5.64347 5.40901 5.22151C5.83097 4.79955 6.40326 4.5625 7 4.5625Z" fill="#C6C6C6"/>
</svg>
