<svg width="189" height="61" viewBox="0 0 189 61" fill="none" xmlns="http://www.w3.org/2000/svg">
<path d="M29.5756 36.5124H18.6885C18.6885 36.391 18.6885 36.2957 18.6885 36.1916C18.6885 34.7094 18.6885 33.2272 18.6885 31.7449C18.6885 31.0255 18.1771 30.4967 17.5097 30.488C16.8422 30.488 16.3221 30.9908 16.3221 31.6669C16.3221 33.1665 16.3221 34.6661 16.3221 36.1656C16.3221 36.2697 16.3221 36.3823 16.3221 36.5297C16.0534 36.5297 15.8107 36.5124 15.568 36.5297C15.0479 36.573 14.5192 36.573 14.0251 36.7117C12.5775 37.1191 11.5287 38.4887 11.494 39.9883C11.4767 40.6817 11.468 41.3925 11.5807 42.0773C11.7801 43.2735 12.5342 44.0969 13.6177 44.6083C13.8431 44.7124 13.9124 44.8337 13.9124 45.0764C13.9037 47.1048 13.9037 49.1418 13.9124 51.1701C13.9211 53.7098 15.698 56.0762 18.1338 56.8043C18.3158 56.8563 18.5065 56.8997 18.7059 56.9517V60.7136C18.6105 60.7136 18.5238 60.731 18.4285 60.731C15.3513 60.731 12.2741 60.731 9.19697 60.731C7.37668 60.731 5.93777 59.6215 5.52171 57.8965C5.45236 57.6018 5.43502 57.2811 5.43502 56.969C5.43502 48.6303 5.43502 40.3003 5.43502 31.9616C5.43502 31.7883 5.48703 31.6842 5.62572 31.5889C11.7281 27.5062 17.8304 23.4236 23.9327 19.3322C24.1061 19.2195 24.2101 19.2369 24.3748 19.3409C28.7348 22.2707 33.1035 25.2005 37.4636 28.1217C39.1885 29.2745 40.9048 30.4274 42.6298 31.5716C42.7858 31.6756 42.8551 31.7796 42.8551 31.9789C42.8551 40.3003 42.8378 48.613 42.8551 56.9344C42.8551 58.6853 41.7196 60.2196 40.0553 60.6096C39.7346 60.6876 39.4052 60.7223 39.0759 60.7223C35.9987 60.7223 32.9215 60.7223 29.8443 60.731C29.619 60.731 29.541 60.6876 29.541 60.4449C29.5583 59.3701 29.5496 58.2866 29.541 57.2117C29.541 57.021 29.593 56.9344 29.7837 56.8824C32.1847 56.2756 33.9357 54.3426 34.2997 51.8982C34.3431 51.6035 34.3604 51.2914 34.3604 50.9881C34.3604 48.9857 34.3604 46.9747 34.3604 44.9724C34.3604 44.8077 34.4124 44.721 34.5598 44.6517C35.938 44.0276 36.6835 42.9527 36.7701 41.4532C36.8135 40.6817 36.8482 39.9016 36.6228 39.1475C36.2154 37.7432 34.9065 36.5297 33.0862 36.5384C32.8088 36.5384 32.5315 36.521 32.2541 36.5384C32.0114 36.5557 31.942 36.4864 31.942 36.235C31.9507 34.7441 31.942 33.2532 31.942 31.7622C31.942 31.2335 31.734 30.8348 31.2399 30.6094C30.4684 30.254 29.5756 30.8174 29.567 31.6669C29.567 33.1751 29.567 34.6834 29.567 36.1916C29.567 36.2957 29.567 36.391 29.567 36.521L29.5756 36.5124Z" fill="#FDE614"/>
<path d="M24.132 42.58C21.1416 42.58 18.1511 42.58 15.1606 42.58C14.3891 42.58 13.895 42.1119 13.869 41.3405C13.8517 40.9244 13.8517 40.517 13.869 40.1009C13.895 39.4162 14.4151 38.9221 15.0999 38.9221C21.1242 38.9221 27.1485 38.9221 33.1729 38.9221C33.8403 38.9221 34.3604 39.4162 34.3864 40.0836C34.4037 40.517 34.4037 40.9591 34.3864 41.4012C34.369 42.0773 33.8403 42.58 33.1555 42.58C30.1477 42.58 27.1399 42.58 24.132 42.58Z" fill="#FDE614"/>
<path d="M0.00882308 28.4944C-0.0171812 27.8096 0.355547 27.2635 0.988317 26.8388C4.54223 24.4724 8.08747 22.0887 11.6327 19.7136C15.7067 16.9918 19.7807 14.2614 23.846 11.5309C24.0541 11.3923 24.1841 11.3836 24.3921 11.5309C28.7435 14.4521 33.1036 17.3732 37.4636 20.2944C40.7141 22.4701 43.9733 24.6544 47.2239 26.8214C47.6659 27.1162 48.0127 27.4889 48.1514 28.009C48.3681 28.8324 48.212 29.5779 47.5706 30.15C46.9118 30.7394 46.0017 30.8521 45.2475 30.4274C44.6408 30.0806 44.0687 29.6732 43.4879 29.2918C37.3163 25.1658 31.1446 21.0312 24.9729 16.9052C24.3661 16.4978 23.8807 16.4978 23.2653 16.9052C19.5554 19.3842 15.8454 21.8633 12.1355 24.351C9.19699 26.3187 6.25851 28.2863 3.32003 30.254C2.60058 30.7394 1.84646 30.8521 1.05766 30.436C0.346879 30.046 -0.00851328 29.4305 0.000154801 28.5117L0.00882308 28.4944Z" fill="#FDE614"/>
<path d="M27.8506 9.11255C28.206 8.58379 28.544 8.07237 28.8994 7.56962C28.9167 7.54362 29.0814 7.56963 29.1421 7.61297C30.217 8.33242 31.2918 9.05187 32.3666 9.77132C35.8425 12.1117 39.3098 14.4521 42.7857 16.7838C44.8573 18.1794 46.929 19.5749 49.0007 20.9705C49.0614 21.0138 49.1221 21.0572 49.2087 21.1178C48.8447 21.6553 48.4893 22.184 48.1079 22.7474C41.3641 18.2054 34.6203 13.672 27.8419 9.10388L27.8506 9.11255Z" fill="#FDE614"/>
<path d="M43.8693 23.5796C43.1585 23.5796 42.5604 22.9728 42.5778 22.2707C42.5951 21.5513 43.1845 20.9792 43.8953 20.9792C44.5974 20.9792 45.2042 21.5859 45.1955 22.288C45.1955 23.0075 44.5974 23.5882 43.8693 23.5882V23.5796Z" fill="#FDE614"/>
<path d="M28.3274 12.8225C28.3274 12.0944 28.8908 11.5223 29.6102 11.5136C30.3297 11.5136 30.9191 12.077 30.9278 12.7878C30.9365 13.5073 30.347 14.1054 29.6189 14.1054C28.8908 14.1054 28.3187 13.5419 28.3187 12.8138L28.3274 12.8225Z" fill="#FDE614"/>
<path d="M16.2874 44.9724H16.6255C21.6269 44.9724 26.6371 44.9724 31.6386 44.9724C31.8755 44.9724 31.994 45.0909 31.994 45.3278C31.994 47.1828 31.994 49.0377 31.994 50.8927C31.994 52.7303 30.8671 54.1779 29.1248 54.5853C28.8474 54.646 28.5614 54.672 28.2754 54.672C25.5189 54.672 22.7625 54.672 20.006 54.672C17.917 54.672 16.3134 53.1464 16.2701 51.0661C16.2354 49.0897 16.2614 47.1048 16.2701 45.1284C16.2701 45.0938 16.2701 45.0591 16.2874 44.9811V44.9724Z" fill="#FDE614"/>
<path d="M27.1399 57.0817V60.7223C27.0532 60.7223 26.9665 60.7396 26.8712 60.7396C25.0422 60.7396 23.2132 60.7396 21.3843 60.7396C21.1589 60.7396 21.0982 60.679 21.0982 60.4536C21.1069 59.4134 21.0982 58.3819 21.0982 57.3418C21.0982 57.2551 21.0982 57.1771 21.0982 57.0817H27.1399Z" fill="#FDE614"/>
<path d="M53.0227 11.7997C50.821 11.8083 48.9747 10.0054 48.9227 7.86434C48.8794 5.70599 50.509 3.65166 53.0227 3.65166C55.3718 3.65166 57.0534 5.52396 57.0794 7.61297C57.1141 9.96202 55.3198 11.791 53.0141 11.7997H53.0227Z" fill="#FDE614"/>
<path d="M46.8337 7.2229C47.0331 7.2229 47.2411 7.2229 47.4405 7.2229C47.7872 7.23157 48.0212 7.4396 48.0212 7.72565C48.0212 8.0117 47.7872 8.2284 47.4491 8.23707C47.0331 8.23707 46.6257 8.23707 46.2096 8.23707C45.8629 8.23707 45.6375 8.02904 45.6375 7.73432C45.6375 7.43094 45.8542 7.24024 46.2009 7.2229C46.2009 7.2229 46.2183 7.2229 46.2269 7.2229C46.4263 7.2229 46.6343 7.2229 46.8337 7.2229Z" fill="#FDE614"/>
<path d="M59.1857 8.23708C58.969 8.23708 58.7436 8.23708 58.5269 8.23708C58.2149 8.21974 57.9982 8.01171 57.9895 7.74299C57.9895 7.46562 58.2062 7.23158 58.5269 7.23158C58.9604 7.22291 59.4024 7.22291 59.8358 7.23158C60.1565 7.23158 60.3646 7.44828 60.3646 7.72566C60.3646 8.0117 60.1565 8.21974 59.8272 8.24575C59.8098 8.24575 59.7925 8.24575 59.7751 8.24575C59.5758 8.24575 59.3677 8.24575 59.1684 8.24575L59.1857 8.23708Z" fill="#FDE614"/>
<path d="M49.6249 11.6956C49.5902 11.7563 49.5382 11.895 49.4515 11.9904C49.1482 12.3111 48.8361 12.6145 48.5241 12.9178C48.29 13.1432 48.0126 13.1519 47.8046 12.9525C47.6052 12.7618 47.5966 12.4584 47.8046 12.2331C48.1167 11.9037 48.4374 11.5829 48.7668 11.2709C48.9228 11.1235 49.1135 11.0629 49.3215 11.1582C49.5122 11.2536 49.6162 11.4009 49.6249 11.6956Z" fill="#FDE614"/>
<path d="M56.4033 3.76434C56.438 3.71233 56.49 3.57364 56.5766 3.46963C56.88 3.14891 57.1834 2.84552 57.5041 2.54214C57.7382 2.31677 58.0156 2.31677 58.2236 2.51614C58.423 2.70684 58.4229 3.01889 58.2149 3.23559C57.9029 3.56497 57.5735 3.88569 57.2528 4.19775C57.0967 4.35377 56.906 4.39711 56.698 4.30176C56.5073 4.21508 56.4033 4.05906 56.412 3.75567L56.4033 3.76434Z" fill="#FDE614"/>
<path d="M49.6681 3.9117C49.5641 4.03305 49.4861 4.22375 49.3474 4.27576C49.2001 4.33643 48.9487 4.32777 48.8447 4.24108C48.4546 3.9117 48.0992 3.53897 47.7525 3.16624C47.5791 2.98421 47.6311 2.67216 47.8132 2.50747C48.0039 2.33411 48.2639 2.31677 48.4546 2.4988C48.8187 2.83686 49.1654 3.19225 49.5034 3.54764C49.5728 3.62565 49.5988 3.75567 49.6681 3.92037V3.9117Z" fill="#FDE614"/>
<path d="M58.4056 12.6405C58.3015 12.7705 58.2235 12.9352 58.0848 13.0305C57.9201 13.1605 57.7121 13.1259 57.5734 12.9872C57.2007 12.6318 56.8366 12.2764 56.4899 11.9037C56.3166 11.7216 56.3599 11.4356 56.5419 11.2622C56.7239 11.0802 56.984 11.0369 57.1747 11.2189C57.5474 11.5656 57.9028 11.9383 58.2582 12.3024C58.3189 12.3717 58.3362 12.4758 58.4056 12.6318V12.6405Z" fill="#FDE614"/>
<path d="M53.4995 1.54531C53.4995 1.77935 53.4995 2.01339 53.4995 2.24742C53.4995 2.53347 53.2828 2.74151 53.0055 2.74151C52.7281 2.74151 52.5201 2.53347 52.5201 2.24742C52.5201 1.78802 52.5201 1.31994 52.5201 0.860533C52.5201 0.55715 52.7108 0.383789 53.0141 0.383789C53.3175 0.383789 53.4909 0.565817 53.4995 0.8692C53.4995 0.8692 53.4995 0.886538 53.4995 0.895206C53.4995 1.11191 53.4995 1.32861 53.4995 1.55398V1.54531Z" fill="#FDE614"/>
<path d="M53.4995 13.906C53.4995 14.14 53.4995 14.3741 53.4995 14.6168C53.4995 14.9202 53.3088 15.0849 52.9968 15.0849C52.7021 15.0849 52.5287 14.9115 52.5201 14.6168C52.5201 14.1574 52.5201 13.6893 52.5201 13.2299C52.5201 12.9352 52.7281 12.7358 53.0141 12.7358C53.3002 12.7358 53.4909 12.9352 53.4995 13.2299C53.4995 13.4553 53.4995 13.6806 53.4995 13.9147V13.906Z" fill="#FDE614"/>
<path d="M69.024 41.9906L72.1706 45.9865C71.3558 46.784 70.3936 47.3994 69.2928 47.8155C68.1919 48.2316 67.0217 48.4396 65.7648 48.4396C64.508 48.4396 63.3204 48.2316 62.1936 47.8155C61.0667 47.3994 60.0699 46.8013 59.2118 46.0125C58.3536 45.2237 57.6689 44.2703 57.1574 43.1521C56.646 42.0339 56.386 40.7597 56.386 39.3555C56.386 37.9512 56.646 36.677 57.1574 35.5588C57.6689 34.4407 58.3623 33.4785 59.2291 32.6984C60.0959 31.9096 61.0927 31.3115 62.2196 30.8954C63.3464 30.4793 64.534 30.2713 65.7648 30.2713C67.1431 30.2713 68.3826 30.54 69.4835 31.0688C70.5843 31.5975 71.4771 32.3343 72.1619 33.2791L69.0154 36.7204C68.634 36.2696 68.1659 35.8796 67.6198 35.5415C67.0737 35.2034 66.4583 35.0387 65.7648 35.0387C65.2881 35.0387 64.8114 35.1341 64.3433 35.3161C63.8752 35.4982 63.4678 35.7755 63.1124 36.1483C62.757 36.521 62.4796 36.9717 62.2629 37.5092C62.0462 38.0466 61.9422 38.6707 61.9422 39.3728C61.9422 40.0749 62.0462 40.699 62.2629 41.2364C62.4796 41.7738 62.7657 42.2246 63.1124 42.5973C63.4678 42.97 63.8752 43.2474 64.3433 43.4295C64.8114 43.6115 65.2794 43.7068 65.7648 43.7068C66.5016 43.7068 67.1344 43.5595 67.6632 43.2734C68.1919 42.9874 68.6426 42.5713 69.0067 42.0252L69.024 41.9906Z" fill="#FDE614"/>
<path d="M81.2633 30.254C82.5115 30.254 83.7077 30.462 84.8346 30.8781C85.9614 31.2941 86.9582 31.8922 87.8164 32.681C88.6745 33.4698 89.3593 34.4233 89.8707 35.5415C90.3821 36.6597 90.6422 37.9339 90.6422 39.3381C90.6422 40.7423 90.3821 42.0166 89.8707 43.1347C89.3593 44.2529 88.6745 45.2151 87.8164 45.9952C86.9582 46.784 85.9614 47.3821 84.8346 47.7982C83.7077 48.2142 82.5115 48.4223 81.2633 48.4223C80.0151 48.4223 78.8189 48.2142 77.6921 47.7982C76.5652 47.3821 75.5684 46.784 74.7102 45.9952C73.8521 45.2064 73.1673 44.2529 72.6559 43.1347C72.1445 42.0166 71.8844 40.7423 71.8844 39.3381C71.9018 37.9252 72.1618 36.6597 72.6819 35.5415C73.1933 34.4233 73.8781 33.4612 74.7362 32.681C75.5944 31.8922 76.5826 31.2941 77.7094 30.8781C78.8276 30.462 80.0151 30.254 81.272 30.254H81.2633ZM77.4407 39.3468C77.4407 40.0489 77.5447 40.673 77.7614 41.2104C77.9781 41.7478 78.2642 42.1986 78.6109 42.5713C78.9663 42.944 79.3737 43.2214 79.8417 43.4034C80.3098 43.5855 80.7779 43.6808 81.2633 43.6808C81.7487 43.6808 82.2341 43.5855 82.6936 43.4034C83.153 43.2214 83.5517 42.944 83.9071 42.5713C84.2625 42.1986 84.5485 41.7478 84.7652 41.2104C84.9819 40.673 85.0859 40.0489 85.0859 39.3468C85.0859 38.6447 84.9819 38.0206 84.7652 37.4831C84.5485 36.9457 84.2625 36.495 83.9071 36.1223C83.5517 35.7495 83.153 35.4808 82.6936 35.2901C82.2341 35.1081 81.7574 35.0127 81.2633 35.0127C80.7692 35.0127 80.3098 35.1081 79.8417 35.2901C79.3737 35.4721 78.9663 35.7495 78.6109 36.1223C78.2555 36.495 77.9781 36.9457 77.7614 37.4831C77.5447 38.0206 77.4407 38.6447 77.4407 39.3468Z" fill="#FDE614"/>
<path d="M92.8092 48.0062V30.6874H98.1487V36.8677H101.824V30.6874H107.164V48.0062H101.824V41.2018H98.1487V48.0062H92.8092Z" fill="#FDE614"/>
<path d="M110.631 30.6874H115.97V43.6722H119.654V30.6874H124.994V43.6722H126.727V50.3119L122.185 51.2481V47.9975H110.64V30.6787L110.631 30.6874Z" fill="#FDE614"/>
<path d="M128.669 48.0062V30.6874H140.31L139.374 35.0127H133.939V37.0844H138.941L138.048 41.2018H133.931V43.6808H140.302L139.365 48.0149H128.66L128.669 48.0062Z" fill="#FDE614"/>
<path d="M142.477 48.0062V30.6874H155.176L154.24 35.0127H147.747V37.2058H149.767C150.669 37.2058 151.501 37.3011 152.272 37.4831C153.044 37.6652 153.711 37.9686 154.283 38.376C154.855 38.7834 155.297 39.3208 155.627 39.9882C155.956 40.6557 156.121 41.4791 156.121 42.45C156.121 43.5075 155.956 44.3916 155.627 45.1111C155.297 45.8218 154.847 46.3939 154.283 46.8273C153.711 47.2607 153.044 47.5641 152.272 47.7375C151.501 47.9109 150.669 48.0062 149.767 48.0062H142.477ZM147.747 41.1064V43.8975H148.71C149.412 43.8975 149.914 43.7675 150.201 43.5161C150.487 43.2561 150.634 42.9094 150.634 42.4586C150.634 42.0859 150.487 41.7738 150.201 41.5051C149.914 41.2364 149.412 41.1064 148.71 41.1064H147.747Z" fill="#FDE614"/>
<path d="M172.495 30.6874L166.965 44.1836C166.418 45.5185 165.76 46.5586 164.98 47.3128C164.199 48.0669 163.142 48.4396 161.79 48.4396C161.088 48.4396 160.498 48.3963 160.03 48.3182C159.562 48.2402 159.155 48.1362 158.799 48.0062L159.952 43.6548C160.16 43.7848 160.42 43.8889 160.724 43.9755C161.027 44.0622 161.296 44.1056 161.521 44.1056C161.92 44.1056 162.18 44.0015 162.292 43.7848C162.405 43.5681 162.396 43.3341 162.266 43.0741L156.684 30.6874H162.145L164.91 37.6652L167.051 30.6874H172.495Z" fill="#FDE614"/>
<path d="M188.99 50.3119L184.448 51.2481V47.9975H175.763V51.2481L171.221 50.3119V43.6722H171.992C172.235 43.6722 172.452 43.5768 172.651 43.3948C172.85 43.2127 173.024 42.9614 173.171 42.658C173.318 42.3546 173.431 41.9992 173.509 41.6005C173.587 41.2018 173.63 40.777 173.63 40.3263V30.6787H187.265V43.6635H188.999V50.3032L188.99 50.3119ZM181.917 35.0127H178.667V40.7163C178.667 41.6265 178.589 42.2939 178.441 42.71C178.285 43.1261 178.103 43.4468 177.878 43.6722H181.917V35.0127Z" fill="#FDE614"/>
</svg>
