<svg width="89" height="14" viewBox="0 0 89 14" fill="none" xmlns="http://www.w3.org/2000/svg">
<path d="M8.42771 7.82663L10.526 10.4914C9.98261 11.0231 9.341 11.4335 8.6069 11.711C7.87279 11.9885 7.09245 12.1272 6.25431 12.1272C5.41616 12.1272 4.62425 11.9885 3.87281 11.711C3.12137 11.4335 2.45664 11.0347 1.88439 10.5087C1.31213 9.98268 0.855487 9.34685 0.514448 8.60119C0.173409 7.85552 0 7.00582 0 6.06941C0 5.133 0.173409 4.28329 0.514448 3.53763C0.855487 2.79197 1.31791 2.15035 1.89594 1.63012C2.47398 1.10411 3.13871 0.705269 3.89015 0.427814C4.64159 0.150358 5.4335 0.0116299 6.25431 0.0116299C7.17338 0.0116299 7.99996 0.190823 8.73406 0.543423C9.46816 0.896022 10.0635 1.38735 10.5202 2.0174L8.42193 4.31219C8.16759 4.01161 7.85545 3.7515 7.49129 3.52607C7.12713 3.30063 6.71673 3.19081 6.25431 3.19081C5.93639 3.19081 5.61847 3.25439 5.30633 3.37578C4.9942 3.49716 4.72252 3.68214 4.48553 3.93069C4.24854 4.17924 4.06356 4.47982 3.91906 4.8382C3.77455 5.19658 3.70518 5.61276 3.70518 6.08097C3.70518 6.54917 3.77455 6.96536 3.91906 7.32374C4.06356 7.68212 4.25432 7.98269 4.48553 8.23125C4.72252 8.4798 4.9942 8.66477 5.30633 8.78616C5.61847 8.90754 5.93061 8.97113 6.25431 8.97113C6.74563 8.97113 7.1676 8.87286 7.5202 8.68211C7.8728 8.49136 8.17337 8.21391 8.41614 7.84975L8.42771 7.82663Z" fill="#282828"/>
<path d="M16.5912 0C17.4236 0 18.2212 0.138728 18.9727 0.416184C19.7241 0.693639 20.3889 1.09248 20.9611 1.61849C21.5334 2.1445 21.99 2.78033 22.331 3.52599C22.6721 4.27166 22.8455 5.12136 22.8455 6.05777C22.8455 6.99418 22.6721 7.84389 22.331 8.58956C21.99 9.33522 21.5334 9.97683 20.9611 10.4971C20.3889 11.0231 19.7241 11.4219 18.9727 11.6994C18.2212 11.9768 17.4236 12.1156 16.5912 12.1156C15.7588 12.1156 14.9611 11.9768 14.2097 11.6994C13.4583 11.4219 12.7935 11.0231 12.2213 10.4971C11.649 9.97105 11.1924 9.33522 10.8513 8.58956C10.5103 7.84389 10.3369 6.99418 10.3369 6.05777C10.3484 5.11558 10.5219 4.27166 10.8687 3.52599C11.2097 2.78033 11.6664 2.13872 12.2386 1.61849C12.8109 1.09248 13.4698 0.693639 14.2213 0.416184C14.9669 0.138728 15.7588 0 16.597 0H16.5912ZM14.0421 6.06355C14.0421 6.53176 14.1114 6.94795 14.2559 7.30632C14.4004 7.6647 14.5912 7.96528 14.8224 8.21383C15.0594 8.46239 15.3311 8.64736 15.6432 8.76875C15.9554 8.89013 16.2675 8.95371 16.5912 8.95371C16.9149 8.95371 17.2386 8.89013 17.5449 8.76875C17.8513 8.64736 18.1172 8.46239 18.3542 8.21383C18.5912 7.96528 18.7819 7.6647 18.9264 7.30632C19.0709 6.94795 19.1403 6.53176 19.1403 6.06355C19.1403 5.59535 19.0709 5.17916 18.9264 4.82079C18.7819 4.46241 18.5912 4.16183 18.3542 3.91328C18.1172 3.66472 17.8513 3.48553 17.5449 3.35836C17.2386 3.23698 16.9207 3.17339 16.5912 3.17339C16.2617 3.17339 15.9554 3.23698 15.6432 3.35836C15.3311 3.47975 15.0594 3.66472 14.8224 3.91328C14.5854 4.16183 14.4004 4.46241 14.2559 4.82079C14.1114 5.17916 14.0421 5.59535 14.0421 6.06355Z" fill="#282828"/>
<path d="M24.2897 11.839V0.289903H27.8504V4.41127H30.3012V0.289903H33.8619V11.839H30.3012V7.30143H27.8504V11.839H24.2897Z" fill="#282828"/>
<path d="M36.1723 0.289287H39.7329V8.9482H42.1896V0.289287H45.7502V8.9482H46.9063V13.3759L43.8774 14.0002V11.8326H36.178V0.283506L36.1723 0.289287Z" fill="#282828"/>
<path d="M48.2033 11.839V0.289903H55.9662L55.342 3.17428H51.7177V4.55578H55.0529L54.4576 7.30143H51.7119V8.9546H55.9605L55.3362 11.8448H48.1975L48.2033 11.839Z" fill="#282828"/>
<path d="M57.4112 11.839V0.289903H65.8794L65.2551 3.17428H60.9256V4.6367H62.2724C62.8736 4.6367 63.4285 4.70028 63.943 4.82167C64.4574 4.94306 64.9025 5.14537 65.284 5.41705C65.6655 5.68872 65.9603 6.0471 66.1799 6.49218C66.3996 6.93727 66.5094 7.4864 66.5094 8.1338C66.5094 8.839 66.3996 9.42859 66.1799 9.90836C65.9603 10.3823 65.6597 10.7638 65.284 11.0529C64.9025 11.3419 64.4574 11.5442 63.943 11.6598C63.4285 11.7754 62.8736 11.839 62.2724 11.839H57.4112ZM60.9256 7.23785V9.09911H61.5672C62.0354 9.09911 62.3707 9.01241 62.5615 8.84478C62.7522 8.67137 62.8505 8.44016 62.8505 8.13958C62.8505 7.89103 62.7522 7.68293 62.5615 7.50374C62.3707 7.32455 62.0354 7.23785 61.5672 7.23785H60.9256Z" fill="#282828"/>
<path d="M77.4279 0.289903L73.7401 9.28986C73.3759 10.18 72.9366 10.8737 72.4164 11.3766C71.8962 11.8794 71.191 12.128 70.2892 12.128C69.821 12.128 69.428 12.0991 69.1158 12.0471C68.8037 11.995 68.532 11.9257 68.295 11.839L69.0638 8.93726C69.2025 9.02396 69.3759 9.09333 69.5782 9.15113C69.7806 9.20894 69.9597 9.23783 70.11 9.23783C70.3759 9.23783 70.5493 9.16847 70.6245 9.02397C70.6996 8.87946 70.6938 8.72339 70.6071 8.54998L66.8846 0.289903H70.5262L72.3701 4.94306L73.7979 0.289903H77.4279Z" fill="#282828"/>
<path d="M88.4271 13.3759L85.3982 14.0002V11.8326H79.6064V14.0002L76.5775 13.3759V8.9482H77.0919C77.2538 8.9482 77.3983 8.88462 77.5312 8.76323C77.6642 8.64185 77.7798 8.47422 77.878 8.27191C77.9763 8.0696 78.0515 7.8326 78.1035 7.56671C78.1555 7.30081 78.1844 7.01758 78.1844 6.717V0.283506H87.2768V8.94243H88.4329V13.3701L88.4271 13.3759ZM83.7104 3.17367H81.5428V6.97712C81.5428 7.58405 81.4907 8.02914 81.3925 8.30659C81.2884 8.58405 81.1671 8.79792 81.0168 8.9482H83.7104V3.17367Z" fill="#282828"/>
</svg>
