<svg width="146" height="48" viewBox="0 0 146 48" fill="none" xmlns="http://www.w3.org/2000/svg">
<path d="M22.7465 28.5766H14.3733C14.3733 28.4833 14.3733 28.4099 14.3733 28.3299C14.3733 27.19 14.3733 26.05 14.3733 24.91C14.3733 24.3567 13.9799 23.95 13.4666 23.9433C12.9533 23.9433 12.5533 24.33 12.5533 24.85C12.5533 26.0033 12.5533 27.1566 12.5533 28.3099C12.5533 28.3899 12.5533 28.4766 12.5533 28.5899C12.3466 28.5899 12.16 28.5766 11.9733 28.5899C11.5733 28.6233 11.1666 28.6233 10.7866 28.7299C9.67332 29.0433 8.86666 30.0966 8.84 31.2499C8.82666 31.7832 8.82 32.3299 8.90666 32.8566C9.05999 33.7765 9.63999 34.4099 10.4733 34.8032C10.6466 34.8832 10.7 34.9765 10.7 35.1632C10.6933 36.7232 10.6933 38.2898 10.7 39.8498C10.7066 41.8031 12.0733 43.6231 13.9466 44.1831C14.0866 44.2231 14.2333 44.2564 14.3866 44.2964V47.1897C14.3133 47.1897 14.2466 47.203 14.1733 47.203C11.8066 47.203 9.43999 47.203 7.07335 47.203C5.67337 47.203 4.56672 46.3497 4.24672 45.0231C4.19339 44.7964 4.18005 44.5497 4.18005 44.3097C4.18005 37.8965 4.18005 31.4899 4.18005 25.0767C4.18005 24.9433 4.22005 24.8633 4.32672 24.79C9.01999 21.65 13.7133 18.5101 18.4065 15.3634C18.5399 15.2768 18.6199 15.2901 18.7465 15.3701C22.0998 17.6234 25.4598 19.8767 28.8131 22.1234C30.1397 23.01 31.4597 23.8967 32.7864 24.7767C32.9064 24.8567 32.9597 24.9366 32.9597 25.09C32.9597 31.4899 32.9464 37.8832 32.9597 44.2831C32.9597 45.6297 32.0864 46.8097 30.8064 47.1097C30.5597 47.1697 30.3064 47.1964 30.0531 47.1964C27.6864 47.1964 25.3198 47.1964 22.9532 47.203C22.7798 47.203 22.7198 47.1697 22.7198 46.983C22.7332 46.1564 22.7265 45.3231 22.7198 44.4964C22.7198 44.3497 22.7598 44.2831 22.9065 44.2431C24.7531 43.7764 26.0998 42.2898 26.3798 40.4098C26.4131 40.1831 26.4264 39.9431 26.4264 39.7098C26.4264 38.1698 26.4264 36.6232 26.4264 35.0832C26.4264 34.9565 26.4664 34.8899 26.5798 34.8365C27.6398 34.3565 28.2131 33.5299 28.2798 32.3766C28.3131 31.7832 28.3398 31.1832 28.1664 30.6032C27.8531 29.5233 26.8464 28.5899 25.4465 28.5966C25.2331 28.5966 25.0198 28.5833 24.8065 28.5966C24.6198 28.6099 24.5665 28.5566 24.5665 28.3633C24.5731 27.2166 24.5665 26.07 24.5665 24.9233C24.5665 24.5167 24.4065 24.21 24.0265 24.0367C23.4331 23.7633 22.7465 24.1967 22.7398 24.85C22.7398 26.01 22.7398 27.17 22.7398 28.3299C22.7398 28.4099 22.7398 28.4833 22.7398 28.5833L22.7465 28.5766Z" fill="#282828"/>
<path d="M18.5599 33.2432C16.2599 33.2432 13.9599 33.2432 11.6599 33.2432C11.0666 33.2432 10.6866 32.8832 10.6666 32.2899C10.6533 31.9699 10.6533 31.6566 10.6666 31.3366C10.6866 30.8099 11.0866 30.4299 11.6133 30.4299C16.2465 30.4299 20.8798 30.4299 25.5131 30.4299C26.0264 30.4299 26.4264 30.8099 26.4464 31.3232C26.4598 31.6566 26.4598 31.9966 26.4464 32.3366C26.4331 32.8566 26.0264 33.2432 25.4998 33.2432C23.1865 33.2432 20.8732 33.2432 18.5599 33.2432Z" fill="#282828"/>
<path d="M0.00678579 22.41C-0.013214 21.8834 0.27345 21.4634 0.76011 21.1367C3.49341 19.3167 6.22004 17.4834 8.94667 15.6568C12.08 13.5635 15.2133 11.4635 18.3399 9.36351C18.4999 9.25684 18.5999 9.25018 18.7599 9.36351C22.1065 11.6101 25.4598 13.8568 28.8131 16.1034C31.3131 17.7767 33.8197 19.4567 36.3197 21.1234C36.6597 21.35 36.9263 21.6367 37.033 22.0367C37.1997 22.67 37.0797 23.2433 36.5863 23.6833C36.0797 24.1367 35.3797 24.2233 34.7997 23.8967C34.333 23.63 33.893 23.3167 33.4464 23.0233C28.6998 19.85 23.9532 16.6701 19.2065 13.4968C18.7399 13.1835 18.3666 13.1835 17.8932 13.4968C15.0399 15.4034 12.1866 17.3101 9.33334 19.2234C7.07336 20.7367 4.81339 22.25 2.55342 23.7633C2.00009 24.1367 1.4201 24.2233 0.813443 23.9033C0.266783 23.6033 -0.00654753 23.13 0.000119057 22.4233L0.00678579 22.41Z" fill="#282828"/>
<path d="M21.4198 7.50353C21.6931 7.09687 21.9531 6.70354 22.2264 6.31688C22.2397 6.29688 22.3664 6.31688 22.4131 6.35021C23.2397 6.90354 24.0664 7.45686 24.893 8.01019C27.5663 9.81017 30.233 11.6101 32.9063 13.4035C34.4996 14.4768 36.0929 15.5501 37.6862 16.6234C37.7329 16.6568 37.7796 16.6901 37.8462 16.7367C37.5662 17.1501 37.2929 17.5567 36.9996 17.9901C31.813 14.4968 26.6264 11.0102 21.4131 7.49686L21.4198 7.50353Z" fill="#282828"/>
<path d="M33.7397 18.6301C33.193 18.6301 32.733 18.1634 32.7464 17.6234C32.7597 17.0701 33.213 16.6301 33.7597 16.6301C34.2997 16.6301 34.7663 17.0967 34.7597 17.6367C34.7597 18.1901 34.2997 18.6367 33.7397 18.6367V18.6301Z" fill="#282828"/>
<path d="M21.7865 10.3568C21.7865 9.79684 22.2198 9.35684 22.7731 9.35018C23.3264 9.35018 23.7798 9.7835 23.7864 10.3302C23.7931 10.8835 23.3398 11.3435 22.7798 11.3435C22.2198 11.3435 21.7798 10.9102 21.7798 10.3502L21.7865 10.3568Z" fill="#282828"/>
<path d="M12.5266 35.0832H12.7866C16.6332 35.0832 20.4865 35.0832 24.3331 35.0832C24.5153 35.0832 24.6064 35.1743 24.6064 35.3565C24.6064 36.7832 24.6064 38.2098 24.6064 39.6365C24.6064 41.0498 23.7398 42.1631 22.3998 42.4764C22.1864 42.5231 21.9664 42.5431 21.7465 42.5431C19.6265 42.5431 17.5065 42.5431 15.3865 42.5431C13.7799 42.5431 12.5466 41.3698 12.5132 39.7698C12.4866 38.2498 12.5066 36.7232 12.5132 35.2032C12.5132 35.1765 12.5132 35.1499 12.5266 35.0899V35.0832Z" fill="#282828"/>
<path d="M20.8732 44.3964V47.1964C20.8065 47.1964 20.7398 47.2097 20.6665 47.2097C19.2599 47.2097 17.8532 47.2097 16.4466 47.2097C16.2732 47.2097 16.2266 47.163 16.2266 46.9897C16.2332 46.1897 16.2266 45.3964 16.2266 44.5964C16.2266 44.5297 16.2266 44.4697 16.2266 44.3964H20.8732Z" fill="#282828"/>
<path d="M40.7796 9.57018C39.0862 9.57684 37.6663 8.19019 37.6263 6.54355C37.5929 4.88357 38.8462 3.30359 40.7796 3.30359C42.5862 3.30359 43.8795 4.74357 43.8995 6.35022C43.9262 8.15686 42.5462 9.56351 40.7729 9.57018H40.7796Z" fill="#282828"/>
<path d="M36.0196 6.05022C36.1729 6.05022 36.3329 6.05022 36.4863 6.05022C36.7529 6.05688 36.9329 6.21688 36.9329 6.43688C36.9329 6.65687 36.7529 6.82354 36.4929 6.83021C36.1729 6.83021 35.8596 6.83021 35.5396 6.83021C35.2729 6.83021 35.0996 6.67021 35.0996 6.44355C35.0996 6.21022 35.2663 6.06355 35.5329 6.05022C35.5329 6.05022 35.5463 6.05022 35.5529 6.05022C35.7063 6.05022 35.8663 6.05022 36.0196 6.05022Z" fill="#282828"/>
<path d="M45.5195 6.83021C45.3528 6.83021 45.1795 6.83021 45.0128 6.83021C44.7728 6.81688 44.6062 6.65688 44.5995 6.45022C44.5995 6.23689 44.7662 6.05689 45.0128 6.05689C45.3461 6.05022 45.6861 6.05022 46.0195 6.05689C46.2661 6.05689 46.4261 6.22355 46.4261 6.43688C46.4261 6.65688 46.2661 6.81688 46.0128 6.83688C45.9995 6.83688 45.9861 6.83688 45.9728 6.83688C45.8195 6.83688 45.6595 6.83688 45.5061 6.83688L45.5195 6.83021Z" fill="#282828"/>
<path d="M38.1663 9.49017C38.1396 9.53684 38.0996 9.64351 38.033 9.71684C37.7996 9.9635 37.5596 10.1968 37.3196 10.4302C37.1396 10.6035 36.9263 10.6102 36.7663 10.4568C36.613 10.3102 36.6063 10.0768 36.7663 9.9035C37.0063 9.65017 37.253 9.40351 37.5063 9.16351C37.6263 9.05018 37.773 9.00351 37.933 9.07685C38.0796 9.15018 38.1596 9.26351 38.1663 9.49017Z" fill="#282828"/>
<path d="M43.3795 3.39025C43.4062 3.35025 43.4462 3.24359 43.5129 3.16359C43.7462 2.91692 43.9795 2.68359 44.2262 2.45026C44.4062 2.27693 44.6195 2.27693 44.7795 2.43026C44.9328 2.57693 44.9328 2.81692 44.7728 2.98359C44.5328 3.23692 44.2795 3.48358 44.0328 3.72358C43.9128 3.84358 43.7662 3.87691 43.6062 3.80358C43.4595 3.73691 43.3795 3.61692 43.3862 3.38359L43.3795 3.39025Z" fill="#282828"/>
<path d="M38.1996 3.50358C38.1196 3.59692 38.0596 3.74358 37.9529 3.78358C37.8396 3.83025 37.6462 3.82358 37.5662 3.75691C37.2662 3.50358 36.9929 3.21692 36.7262 2.93026C36.5929 2.79026 36.6329 2.55026 36.7729 2.4236C36.9196 2.29026 37.1196 2.27693 37.2662 2.41693C37.5462 2.67693 37.8129 2.95026 38.0729 3.22359C38.1262 3.28359 38.1462 3.38358 38.1996 3.51025V3.50358Z" fill="#282828"/>
<path d="M44.9195 10.2168C44.8395 10.3168 44.7795 10.4435 44.6728 10.5168C44.5461 10.6168 44.3861 10.5902 44.2795 10.4835C43.9928 10.2102 43.7128 9.93683 43.4461 9.65017C43.3128 9.51017 43.3461 9.29018 43.4861 9.15685C43.6261 9.01685 43.8261 8.98351 43.9728 9.12351C44.2595 9.39018 44.5328 9.67684 44.8061 9.95684C44.8528 10.0102 44.8661 10.0902 44.9195 10.2102V10.2168Z" fill="#282828"/>
<path d="M41.1463 1.68361C41.1463 1.8636 41.1463 2.0436 41.1463 2.2236C41.1463 2.44359 40.9796 2.60359 40.7663 2.60359C40.5529 2.60359 40.3929 2.44359 40.3929 2.2236C40.3929 1.87027 40.3929 1.51027 40.3929 1.15694C40.3929 0.923614 40.5396 0.790283 40.7729 0.790283C41.0063 0.790283 41.1396 0.93028 41.1463 1.16361C41.1463 1.16361 41.1463 1.17695 41.1463 1.18361C41.1463 1.35028 41.1463 1.51694 41.1463 1.69027V1.68361Z" fill="#282828"/>
<path d="M41.1463 11.1902C41.1463 11.3702 41.1463 11.5502 41.1463 11.7368C41.1463 11.9701 40.9996 12.0968 40.7596 12.0968C40.5329 12.0968 40.3996 11.9635 40.3929 11.7368C40.3929 11.3835 40.3929 11.0235 40.3929 10.6702C40.3929 10.4435 40.5529 10.2902 40.7729 10.2902C40.9929 10.2902 41.1396 10.4435 41.1463 10.6702C41.1463 10.8435 41.1463 11.0168 41.1463 11.1968V11.1902Z" fill="#282828"/>
<path d="M53.0861 32.7899L55.5061 35.8632C54.8794 36.4765 54.1394 36.9498 53.2928 37.2698C52.4461 37.5898 51.5461 37.7498 50.5795 37.7498C49.6128 37.7498 48.6995 37.5898 47.8328 37.2698C46.9662 36.9498 46.1995 36.4898 45.5395 35.8832C44.8795 35.2765 44.3529 34.5432 43.9595 33.6832C43.5662 32.8232 43.3662 31.8432 43.3662 30.7632C43.3662 29.6832 43.5662 28.7032 43.9595 27.8433C44.3529 26.9833 44.8862 26.2433 45.5528 25.6433C46.2195 25.0366 46.9862 24.5766 47.8528 24.2566C48.7195 23.9366 49.6328 23.7766 50.5795 23.7766C51.6394 23.7766 52.5928 23.9833 53.4394 24.39C54.2861 24.7966 54.9727 25.3633 55.4994 26.0899L53.0794 28.7366C52.7861 28.3899 52.4261 28.0899 52.0061 27.8299C51.5861 27.5699 51.1128 27.4433 50.5795 27.4433C50.2128 27.4433 49.8461 27.5166 49.4861 27.6566C49.1261 27.7966 48.8128 28.0099 48.5395 28.2966C48.2662 28.5833 48.0528 28.9299 47.8862 29.3432C47.7195 29.7566 47.6395 30.2366 47.6395 30.7766C47.6395 31.3165 47.7195 31.7965 47.8862 32.2099C48.0528 32.6232 48.2728 32.9699 48.5395 33.2565C48.8128 33.5432 49.1261 33.7565 49.4861 33.8965C49.8461 34.0365 50.2061 34.1098 50.5795 34.1098C51.1461 34.1098 51.6328 33.9965 52.0394 33.7765C52.4461 33.5565 52.7928 33.2365 53.0728 32.8165L53.0861 32.7899Z" fill="#282828"/>
<path d="M62.4993 23.7633C63.4592 23.7633 64.3792 23.9233 65.2459 24.2433C66.1125 24.5633 66.8792 25.0233 67.5392 25.63C68.1992 26.2366 68.7258 26.9699 69.1192 27.8299C69.5125 28.6899 69.7125 29.6699 69.7125 30.7499C69.7125 31.8299 69.5125 32.8099 69.1192 33.6698C68.7258 34.5298 68.1992 35.2698 67.5392 35.8698C66.8792 36.4765 66.1125 36.9365 65.2459 37.2565C64.3792 37.5765 63.4592 37.7365 62.4993 37.7365C61.5393 37.7365 60.6193 37.5765 59.7526 37.2565C58.886 36.9365 58.1193 36.4765 57.4593 35.8698C56.7993 35.2632 56.2727 34.5298 55.8793 33.6698C55.486 32.8099 55.286 31.8299 55.286 30.7499C55.2993 29.6632 55.4993 28.6899 55.8993 27.8299C56.2927 26.9699 56.8193 26.2299 57.4793 25.63C58.1393 25.0233 58.8993 24.5633 59.766 24.2433C60.6259 23.9233 61.5393 23.7633 62.5059 23.7633H62.4993ZM59.5593 30.7566C59.5593 31.2965 59.6393 31.7765 59.806 32.1899C59.9726 32.6032 60.1926 32.9499 60.4593 33.2365C60.7326 33.5232 61.0459 33.7365 61.4059 33.8765C61.7659 34.0165 62.1259 34.0898 62.4993 34.0898C62.8726 34.0898 63.2459 34.0165 63.5992 33.8765C63.9526 33.7365 64.2592 33.5232 64.5326 33.2365C64.8059 32.9499 65.0259 32.6032 65.1926 32.1899C65.3592 31.7765 65.4392 31.2965 65.4392 30.7566C65.4392 30.2166 65.3592 29.7366 65.1926 29.3232C65.0259 28.9099 64.8059 28.5632 64.5326 28.2766C64.2592 27.9899 63.9526 27.7833 63.5992 27.6366C63.2459 27.4966 62.8792 27.4233 62.4993 27.4233C62.1193 27.4233 61.7659 27.4966 61.4059 27.6366C61.0459 27.7766 60.7326 27.9899 60.4593 28.2766C60.186 28.5632 59.9726 28.9099 59.806 29.3232C59.6393 29.7366 59.5593 30.2166 59.5593 30.7566Z" fill="#282828"/>
<path d="M71.3792 37.4165V24.0966H75.4858V28.8499H78.3124V24.0966H82.419V37.4165H78.3124V32.1832H75.4858V37.4165H71.3792Z" fill="#282828"/>
<path d="M85.0857 24.0966H89.1923V34.0832H92.0256V24.0966H96.1322V34.0832H97.4655V39.1898L93.9723 39.9098V37.4098H85.0924V24.09L85.0857 24.0966Z" fill="#282828"/>
<path d="M98.9588 37.4165V24.0966H107.912L107.192 27.4233H103.012V29.0166H106.859L106.172 32.1832H103.005V34.0898H107.905L107.185 37.4231H98.9521L98.9588 37.4165Z" fill="#282828"/>
<path d="M109.579 37.4165V24.0966H119.345L118.625 27.4233H113.632V29.1099H115.185C115.879 29.1099 116.519 29.1832 117.112 29.3232C117.705 29.4632 118.219 29.6966 118.659 30.0099C119.099 30.3232 119.439 30.7365 119.692 31.2499C119.945 31.7632 120.072 32.3965 120.072 33.1432C120.072 33.9565 119.945 34.6365 119.692 35.1898C119.439 35.7365 119.092 36.1765 118.659 36.5098C118.219 36.8431 117.705 37.0765 117.112 37.2098C116.519 37.3431 115.879 37.4165 115.185 37.4165H109.579ZM113.632 32.1099V34.2565H114.372C114.912 34.2565 115.299 34.1565 115.519 33.9632C115.739 33.7632 115.852 33.4965 115.852 33.1499C115.852 32.8632 115.739 32.6232 115.519 32.4165C115.299 32.2099 114.912 32.1099 114.372 32.1099H113.632Z" fill="#282828"/>
<path d="M132.665 24.0966L128.412 34.4765C127.992 35.5032 127.485 36.3031 126.885 36.8831C126.285 37.4631 125.472 37.7498 124.432 37.7498C123.892 37.7498 123.438 37.7165 123.078 37.6565C122.718 37.5965 122.405 37.5165 122.132 37.4165L123.018 34.0698C123.178 34.1698 123.378 34.2498 123.612 34.3165C123.845 34.3832 124.052 34.4165 124.225 34.4165C124.532 34.4165 124.732 34.3365 124.818 34.1698C124.905 34.0032 124.898 33.8232 124.798 33.6232L120.505 24.0966H124.705L126.832 29.4632L128.478 24.0966H132.665Z" fill="#282828"/>
<path d="M145.352 39.1898L141.858 39.9098V37.4098H135.178V39.9098L131.685 39.1898V34.0832H132.278C132.465 34.0832 132.632 34.0098 132.785 33.8698C132.938 33.7298 133.072 33.5365 133.185 33.3032C133.298 33.0699 133.385 32.7965 133.445 32.4899C133.505 32.1832 133.538 31.8565 133.538 31.5099V24.09H144.025V34.0765H145.358V39.1831L145.352 39.1898ZM139.912 27.4233H137.412V31.8099C137.412 32.5099 137.352 33.0232 137.238 33.3432C137.118 33.6632 136.978 33.9098 136.805 34.0832H139.912V27.4233Z" fill="#282828"/>
</svg>
