<svg width="24" height="24" viewBox="0 0 24 24" fill="none" xmlns="http://www.w3.org/2000/svg">
<path d="M20.25 4.125H3.75C3.45163 4.125 3.16548 4.24353 2.9545 4.4545C2.74353 4.66548 2.625 4.95163 2.625 5.25V17.25C2.625 17.5484 2.74353 17.8345 2.9545 18.0455C3.16548 18.2565 3.45163 18.375 3.75 18.375H9.32531C9.39005 18.375 9.45369 18.3917 9.51004 18.4236C9.56639 18.4555 9.61353 18.5014 9.64688 18.5569L11.0334 20.8256C11.1335 20.9918 11.2748 21.1293 11.4437 21.2247C11.6126 21.3201 11.8032 21.3703 11.9972 21.3703C12.1912 21.3703 12.3818 21.3201 12.5507 21.2247C12.7196 21.1293 12.8609 20.9918 12.9609 20.8256L14.3512 18.5512C14.3846 18.4958 14.4317 18.4498 14.4881 18.418C14.5444 18.3861 14.6081 18.3694 14.6728 18.3694H20.25C20.5484 18.3694 20.8345 18.2508 21.0455 18.0399C21.2565 17.8289 21.375 17.5427 21.375 17.2444V5.25C21.375 4.95163 21.2565 4.66548 21.0455 4.4545C20.8345 4.24353 20.5484 4.125 20.25 4.125ZM20.625 17.25C20.625 17.3495 20.5855 17.4448 20.5152 17.5152C20.4448 17.5855 20.3495 17.625 20.25 17.625H14.6747C14.481 17.6251 14.2905 17.6752 14.1219 17.7704C13.9532 17.8657 13.812 18.0029 13.7119 18.1687L12.3216 20.4431C12.2884 20.4991 12.2412 20.5454 12.1846 20.5776C12.1281 20.6098 12.0641 20.6268 11.9991 20.6268C11.934 20.6268 11.87 20.6098 11.8135 20.5776C11.757 20.5454 11.7098 20.4991 11.6766 20.4431L10.2891 18.1725C10.1894 18.0058 10.0482 17.8678 9.87929 17.7718C9.7104 17.6759 9.51955 17.6253 9.32531 17.625H3.75C3.65054 17.625 3.55516 17.5855 3.48484 17.5152C3.41451 17.4448 3.375 17.3495 3.375 17.25V5.25C3.375 5.15054 3.41451 5.05516 3.48484 4.98483C3.55516 4.91451 3.65054 4.875 3.75 4.875H20.25C20.3495 4.875 20.4448 4.91451 20.5152 4.98483C20.5855 5.05516 20.625 5.15054 20.625 5.25V17.25ZM12.75 11.25C12.75 11.3983 12.706 11.5433 12.6236 11.6667C12.5412 11.79 12.4241 11.8861 12.287 11.9429C12.15 11.9997 11.9992 12.0145 11.8537 11.9856C11.7082 11.9566 11.5746 11.8852 11.4697 11.7803C11.3648 11.6754 11.2934 11.5418 11.2644 11.3963C11.2355 11.2508 11.2503 11.1 11.3071 10.963C11.3639 10.8259 11.46 10.7088 11.5833 10.6264C11.7067 10.544 11.8517 10.5 12 10.5C12.1989 10.5 12.3897 10.579 12.5303 10.7197C12.671 10.8603 12.75 11.0511 12.75 11.25ZM8.625 11.25C8.625 11.3983 8.58101 11.5433 8.4986 11.6667C8.41619 11.79 8.29906 11.8861 8.16201 11.9429C8.02497 11.9997 7.87417 12.0145 7.72868 11.9856C7.5832 11.9566 7.44956 11.8852 7.34467 11.7803C7.23978 11.6754 7.16835 11.5418 7.13941 11.3963C7.11047 11.2508 7.12532 11.1 7.18209 10.963C7.23886 10.8259 7.33499 10.7088 7.45832 10.6264C7.58166 10.544 7.72666 10.5 7.875 10.5C8.07391 10.5 8.26468 10.579 8.40533 10.7197C8.54598 10.8603 8.625 11.0511 8.625 11.25ZM16.875 11.25C16.875 11.3983 16.831 11.5433 16.7486 11.6667C16.6662 11.79 16.5491 11.8861 16.412 11.9429C16.275 11.9997 16.1242 12.0145 15.9787 11.9856C15.8332 11.9566 15.6996 11.8852 15.5947 11.7803C15.4898 11.6754 15.4184 11.5418 15.3894 11.3963C15.3605 11.2508 15.3753 11.1 15.4321 10.963C15.4889 10.8259 15.585 10.7088 15.7083 10.6264C15.8317 10.544 15.9767 10.5 16.125 10.5C16.3239 10.5 16.5147 10.579 16.6553 10.7197C16.796 10.8603 16.875 11.0511 16.875 11.25Z" fill="#282828"/>
</svg>
