<svg width="21" height="20" viewBox="0 0 21 20" fill="none" xmlns="http://www.w3.org/2000/svg">
<path d="M10.3438 10.625V15.625C10.3438 15.7493 10.2944 15.8685 10.2065 15.9565C10.1186 16.0444 9.99935 16.0937 9.87503 16.0937C9.75071 16.0937 9.63148 16.0444 9.54357 15.9565C9.45566 15.8685 9.40628 15.7493 9.40628 15.625V11.757L3.95628 17.2062C3.86742 17.289 3.74989 17.3341 3.62845 17.332C3.50701 17.3298 3.39115 17.2806 3.30526 17.1948C3.21938 17.1089 3.17018 16.993 3.16804 16.8716C3.1659 16.7501 3.21098 16.6326 3.29378 16.5437L8.743 11.0937H4.87503C4.75071 11.0937 4.63148 11.0444 4.54357 10.9565C4.45566 10.8685 4.40628 10.7493 4.40628 10.625C4.40628 10.5007 4.45566 10.3815 4.54357 10.2935C4.63148 10.2056 4.75071 10.1562 4.87503 10.1562H9.87503C9.99935 10.1562 10.1186 10.2056 10.2065 10.2935C10.2944 10.3815 10.3438 10.5007 10.3438 10.625ZM16.75 2.65625H6.75003C6.45995 2.65625 6.18175 2.77148 5.97663 2.9766C5.77151 3.18172 5.65628 3.45992 5.65628 3.75V7.5C5.65628 7.62432 5.70566 7.74355 5.79357 7.83146C5.88148 7.91936 6.00071 7.96875 6.12503 7.96875C6.24935 7.96875 6.36857 7.91936 6.45648 7.83146C6.54439 7.74355 6.59378 7.62432 6.59378 7.5V3.75C6.59378 3.70856 6.61024 3.66882 6.63954 3.63951C6.66884 3.61021 6.70859 3.59375 6.75003 3.59375H16.75C16.7915 3.59375 16.8312 3.61021 16.8605 3.63951C16.8898 3.66882 16.9063 3.70856 16.9063 3.75V13.75C16.9063 13.7914 16.8898 13.8312 16.8605 13.8605C16.8312 13.8898 16.7915 13.9062 16.75 13.9062H13C12.8757 13.9062 12.7565 13.9556 12.6686 14.0435C12.5807 14.1314 12.5313 14.2507 12.5313 14.375C12.5313 14.4993 12.5807 14.6185 12.6686 14.7065C12.7565 14.7944 12.8757 14.8437 13 14.8437H16.75C17.0401 14.8437 17.3183 14.7285 17.5234 14.5234C17.7285 14.3183 17.8438 14.0401 17.8438 13.75V3.75C17.8438 3.45992 17.7285 3.18172 17.5234 2.9766C17.3183 2.77148 17.0401 2.65625 16.75 2.65625Z" fill="#0057FF"/>
</svg>
