<svg width="311" height="36" viewBox="0 0 311 36" fill="none" xmlns="http://www.w3.org/2000/svg">
<path d="M261.009 21.2612C260.983 20.5658 261.361 20.0112 262.004 19.5798C265.615 17.1766 269.218 14.7557 272.82 12.3437C276.959 9.57948 281.099 6.8065 285.229 4.03352C285.441 3.89267 285.573 3.88387 285.784 4.03352C290.206 7.00017 294.636 9.96682 299.066 12.9335C302.369 15.143 305.68 17.3614 308.983 19.5622C309.432 19.8615 309.785 20.24 309.926 20.7682C310.146 21.6045 309.987 22.3616 309.336 22.9426C308.666 23.5412 307.741 23.6557 306.975 23.2243C306.359 22.8722 305.777 22.4584 305.187 22.0711C298.916 17.8808 292.645 13.6817 286.374 9.49145C285.758 9.07771 285.265 9.07771 284.639 9.49145C280.87 12.0091 277.1 14.5268 273.331 17.0533C270.345 19.0516 267.359 21.0499 264.373 23.0482C263.642 23.5412 262.876 23.6557 262.075 23.2331C261.352 22.837 260.991 22.2119 261 21.2788L261.009 21.2612Z" fill="#FDE614"/>
<path d="M289.298 1.57749C289.659 1.0405 290.003 0.521116 290.364 0.0105363C290.382 -0.015873 290.549 0.010539 290.611 0.0545545C291.703 0.785212 292.795 1.51587 293.887 2.24653C297.419 4.62337 300.942 7.0002 304.474 9.36824C306.579 10.7855 308.684 12.2028 310.789 13.6201C310.85 13.6642 310.912 13.7082 311 13.7698C310.63 14.3156 310.269 14.8526 309.881 15.4248C303.029 10.812 296.177 6.20792 289.29 1.56869L289.298 1.57749Z" fill="#FDE614"/>
<path d="M305.574 16.2698C304.852 16.2698 304.244 15.6536 304.262 14.9406C304.28 14.2099 304.879 13.6289 305.601 13.6289C306.314 13.6289 306.931 14.2451 306.922 14.9582C306.922 15.6888 306.314 16.2786 305.574 16.2786V16.2698Z" fill="#FDE614"/>
<path d="M289.783 5.34526C289.783 4.6058 290.356 4.02479 291.087 4.01599C291.818 4.01599 292.417 4.58819 292.425 5.31005C292.434 6.0407 291.835 6.64812 291.096 6.64812C290.356 6.64812 289.774 6.07592 289.774 5.33646L289.783 5.34526Z" fill="#FDE614"/>
<rect y="31.4932" width="311" height="4" rx="2" fill="#FDE614"/>
</svg>
