<svg width="20" height="21" viewBox="0 0 20 21" fill="none" xmlns="http://www.w3.org/2000/svg">
<path d="M9.84378 11.084V16.084C9.84378 16.2083 9.79439 16.3275 9.70648 16.4154C9.61857 16.5033 9.49935 16.5527 9.37503 16.5527C9.25071 16.5527 9.13148 16.5033 9.04357 16.4154C8.95566 16.3275 8.90628 16.2083 8.90628 16.084V12.216L3.45628 17.6652C3.36742 17.748 3.24989 17.7931 3.12845 17.791C3.00701 17.7888 2.89115 17.7396 2.80526 17.6537C2.71938 17.5679 2.67018 17.452 2.66804 17.3306C2.6659 17.2091 2.71098 17.0916 2.79378 17.0027L8.243 11.5527H4.37503C4.25071 11.5527 4.13148 11.5033 4.04357 11.4154C3.95566 11.3275 3.90628 11.2083 3.90628 11.084C3.90628 10.9597 3.95566 10.8404 4.04357 10.7525C4.13148 10.6646 4.25071 10.6152 4.37503 10.6152H9.37503C9.49935 10.6152 9.61857 10.6646 9.70648 10.7525C9.79439 10.8404 9.84378 10.9597 9.84378 11.084ZM16.25 3.11523H6.25003C5.95995 3.11523 5.68175 3.23047 5.47663 3.43559C5.27151 3.6407 5.15628 3.9189 5.15628 4.20898V7.95898C5.15628 8.0833 5.20566 8.20253 5.29357 8.29044C5.38148 8.37835 5.50071 8.42773 5.62503 8.42773C5.74935 8.42773 5.86857 8.37835 5.95648 8.29044C6.04439 8.20253 6.09378 8.0833 6.09378 7.95898V4.20898C6.09378 4.16754 6.11024 4.1278 6.13954 4.0985C6.16884 4.0692 6.20859 4.05273 6.25003 4.05273H16.25C16.2915 4.05273 16.3312 4.0692 16.3605 4.0985C16.3898 4.1278 16.4063 4.16754 16.4063 4.20898V14.209C16.4063 14.2504 16.3898 14.2902 16.3605 14.3195C16.3312 14.3488 16.2915 14.3652 16.25 14.3652H12.5C12.3757 14.3652 12.2565 14.4146 12.1686 14.5025C12.0807 14.5904 12.0313 14.7097 12.0313 14.834C12.0313 14.9583 12.0807 15.0775 12.1686 15.1654C12.2565 15.2533 12.3757 15.3027 12.5 15.3027H16.25C16.5401 15.3027 16.8183 15.1875 17.0234 14.9824C17.2285 14.7773 17.3438 14.4991 17.3438 14.209V4.20898C17.3438 3.9189 17.2285 3.6407 17.0234 3.43559C16.8183 3.23047 16.5401 3.11523 16.25 3.11523Z" fill="#F3F3F3"/>
</svg>
