<svg width="835" height="823" viewBox="0 0 835 823" fill="none" xmlns="http://www.w3.org/2000/svg">
<g style="mix-blend-mode:color-burn" opacity="0.15">
<path d="M29.0558 823H29.7435V782.168H52.7548V823H53.4425V782.168H82.5057V811.633L70.9794 823H96.0917L84.5654 811.633V782.168H112.635V823H113.323V782.168H136.334V823H137.022V782.168H165.954V811.633L154.428 823H179.54L168.014 811.633V782.168H196.427V823H197.115V782.168H220.126V823H220.814V782.168H249.406V811.633L237.88 823H262.992L251.466 811.633V782.168H280.01V823H280.697V782.168H303.709V823H304.396V782.168H332.854V811.633L321.328 823H346.44L334.914 811.633V782.168H363.166V823H363.853V782.168H386.865V823H387.552V782.168H416.306V811.633L404.78 823H429.892L418.366 811.633V782.168H446.535V823H447.223V782.168H470.234V823H470.922V782.168H499.754V811.633L488.228 823H513.34L501.814 811.633V782.168H529.904V823H530.592V782.168H553.603V823H554.291V782.168H583.206V811.633L571.68 823H596.792L585.266 811.633V782.168H613.064V823H613.751V782.168H636.763V823H637.45V782.168H666.658V811.633L655.132 823H680.244L668.718 811.633V782.168H696.567V823H697.255V782.168H720.266V823H720.954V782.168H750.11V811.633L738.584 823H763.696L752.17 811.633V782.168H781.075V823H781.762V782.168H804.774V823H805.461V782.168H834.59V781.49H805.461V741.716H823.067L834.593 753.083V728.318L823.067 739.685H805.461V699.952H834.59V699.273H805.461V659.418H823.067L834.593 670.785V646.02L823.067 657.387H805.461V617.315H834.59V616.637H805.461V577.121H823.067L834.593 588.487V563.722L823.067 575.089H805.461V536.767H834.59V536.089H805.461V494.823H823.067L834.593 506.19V481.425L823.067 492.792H805.461V453.296H834.59V452.618H805.461V412.525H823.067L834.593 423.892V399.127L823.067 410.494H805.461V371.497H834.59V370.819H805.461V330.228H823.067L834.593 341.595V316.83L823.067 328.196H805.461V288.86H834.59V288.182H805.461V247.93H823.067L834.593 259.297V234.532L823.067 245.899H805.461V206.851H834.59V206.173H805.461V165.632H823.067L834.593 176.999V152.234L823.067 163.601H805.461V124.495H834.59V123.817H805.461V83.3348H823.067L834.593 94.7016V69.9367L823.067 81.3036H805.461V41.9978H834.59V41.3196H805.461V-0.000488281H804.774V41.2992H781.762V-0.000488281H781.075V41.2992H752.17V11.3663L763.696 -0.000488281H738.584L750.11 11.3663V41.2992H720.954V-0.000488281H720.266V41.2992H697.255V-0.000488281H696.567V41.2992H668.718V11.3663L680.275 -0.000488281H655.163L666.689 11.3663V41.2992H637.481V-0.000488281H636.794V41.2992H613.782V-0.000488281H613.095V41.2992H585.297V11.3663L596.82 -0.000488281H571.708L583.234 11.3663V41.2992H554.318V-0.000488281H553.631V41.2992H530.619V-0.000488281H529.932V41.2992H501.842V11.3663L513.368 -0.000488281H488.256L499.782 11.3663V41.2992H470.949V-0.000488281H470.261V41.2992H447.25V-0.000488281H446.562V41.2992H418.393V11.3663L429.913 -0.000488281H404.8L416.327 11.3663V41.2992H387.573V-0.000488281H386.885V41.2992H363.874V-0.000488281H363.186V41.2992H334.935V11.3663L346.457 -0.000488281H321.345L332.871 11.3663V41.2992H304.413V-0.000488281H303.726V41.2992H280.714V-0.000488281H280.027V41.2992H251.483V11.3663L263.006 -0.000488281H237.893L249.42 11.3663V41.2992H220.828V-0.000488281H220.14V41.2992H197.129V-0.000488281H196.441V41.2992H168.028V11.3663L179.55 -0.000488281H154.438L165.964 11.3663V41.2992H137.032V-0.000488281H136.344V41.2992H113.333V-0.000488281H112.645V41.2992H84.5757V11.3663L96.0951 -0.000488281H70.9829L82.5091 11.3663V41.2992H53.4459V-0.000488281H52.7582V41.2992H29.747V-0.000488281H29.0593V41.2992H0.0854699V41.9774H29.0558V81.2832H11.6117L0.0854699 69.9164V94.6813L11.6117 83.3145H29.0593V123.797H0.0854699V124.475H29.0558V163.581H11.6117L0.0854699 152.217V176.982L11.6117 165.615H29.0558V206.156H0.0854699V206.834H29.0558V245.882H11.6117L0.0854699 234.515V259.28L11.6117 247.913H29.0593V288.165H0.0854699V288.843H29.0558V328.18H11.6083L0.0854699 316.816V341.581L11.6117 330.214H29.0558V370.805H0.0854699V371.483H29.0558V410.48H11.6117L0.0854699 399.117V423.882L11.6117 412.515H29.0558V452.608H0.0854699V453.286H29.0558V492.782H11.6083L0.0854699 481.415V506.18L11.6117 494.813H29.0558V536.079H0.0854699V536.757H29.0558V575.079H11.6117L0.0854699 563.716V588.481L11.6117 577.114H29.0593V616.63H0.0854699V617.308H29.0558V657.38H11.6117L0.0854699 646.017V670.782L11.6117 659.415H29.0558V699.27H0.0854699V699.948H29.0558V739.681H11.6083L0.0820312 728.314V753.079L11.6083 741.712H29.0524V781.486H0.0854699V782.164H29.0558V822.996V823ZM781.797 41.9774H804.808V81.2832H781.797V41.9774ZM781.797 83.3178H804.808V123.8H781.797V83.3178ZM781.797 124.479H804.808V163.584H781.797V124.479ZM781.797 165.619H804.808V206.159H781.797V165.619ZM781.797 206.837H804.808V245.885H781.797V206.837ZM781.797 247.92H804.808V288.172H781.797V247.92ZM781.797 288.85H804.808V328.186H781.797V288.85ZM781.797 330.221H804.808V370.812H781.797V330.221ZM781.797 371.49H804.808V410.487H781.797V371.49ZM781.797 412.522H804.808V452.614H781.797V412.522ZM781.797 453.293H804.808V492.788H781.797V453.293ZM781.797 494.823H804.808V536.089H781.797V494.823ZM781.797 536.767H804.808V575.089H781.797V536.767ZM781.797 577.124H804.808V616.64H781.797V577.124ZM781.797 617.318H804.808V657.39H781.797V617.318ZM781.797 659.425H804.808V699.28H781.797V659.425ZM781.797 699.958H804.808V739.691H781.797V699.958ZM781.797 741.726H804.808V781.5H781.797V741.726ZM752.204 41.9876H781.109V81.2934H762.699L752.204 70.9439V41.9876ZM752.204 93.6741L762.699 83.3246H781.109V123.807H752.204V93.6741ZM752.204 124.485H781.109V163.591H762.699L752.204 153.242V124.485ZM752.204 175.975L762.699 165.626H781.109V206.166H752.204V175.975ZM752.204 206.844H781.109V245.892H762.699L752.204 235.543V206.844ZM752.204 258.273L762.699 247.923H781.109V288.175H752.204V258.273ZM752.204 288.853H781.109V328.19H762.699L752.204 317.84V288.853ZM752.204 340.57L762.699 330.221H781.109V370.812H752.204V340.57ZM752.204 371.49H781.109V410.487H762.699L752.204 400.138V371.49ZM752.204 422.871L762.699 412.522H781.109V452.614H752.204V422.871ZM752.204 453.293H781.109V492.788H762.699L752.204 482.439V453.293ZM752.204 505.169L762.699 494.82H781.109V536.085H752.204V505.169ZM752.204 536.764H781.109V575.086H762.699L752.204 564.736V536.764ZM752.204 587.47L762.699 577.121H781.109V616.637H752.204V587.47ZM752.204 617.315H781.109V657.387H762.699L752.204 647.037V617.315ZM752.204 669.768L762.699 659.418H781.109V699.273H752.204V669.768ZM752.204 699.952H781.109V739.685H762.699L752.204 729.335V699.952ZM752.204 752.069L762.699 741.719H781.109V781.493H752.204V752.069ZM720.985 41.9808H750.141V70.9371L739.646 81.2866H720.985V41.9808ZM720.985 83.3212H739.646L750.141 93.6708V123.804H720.985V83.3212ZM720.985 124.482H750.141V153.238L739.646 163.588H720.985V124.482ZM720.985 165.622H739.646L750.141 175.972V206.162H720.985V165.622ZM720.985 206.841H750.141V235.539L739.646 245.889H720.985V206.841ZM720.985 247.923H739.646L750.141 258.273V288.175H720.985V247.923ZM720.985 288.853H750.141V317.84L739.646 328.19H720.985V288.853ZM720.985 330.224H739.646L750.141 340.574V370.815H720.985V330.224ZM720.985 371.493H750.141V400.141L739.646 410.491H720.985V371.493ZM720.985 412.525H739.646L750.141 422.875V452.618H720.985V412.525ZM720.985 453.296H750.141V482.442L739.646 492.792H720.985V453.296ZM720.985 494.826H739.646L750.141 505.176V536.092H720.985V494.826ZM720.985 536.77H750.141V564.743L739.646 575.093H720.985V536.77ZM720.985 577.127H739.646L750.141 587.477V616.643H720.985V577.127ZM720.985 617.322H750.141V647.044L739.646 657.394H720.985V617.322ZM720.985 659.428H739.646L750.141 669.778V699.283H720.985V659.428ZM720.985 699.962H750.141V729.345L739.646 739.695H720.985V699.962ZM720.985 741.729H739.646L750.141 752.079V781.503H720.985V741.729ZM697.286 41.9774H720.297V81.2832H697.286V41.9774ZM697.286 83.3178H720.297V123.8H697.286V83.3178ZM697.286 124.479H720.297V163.584H697.286V124.479ZM697.286 165.619H720.297V206.159H697.286V165.619ZM697.286 206.837H720.297V245.885H697.286V206.837ZM697.286 247.92H720.297V288.172H697.286V247.92ZM697.286 288.85H720.297V328.186H697.286V288.85ZM697.286 330.221H720.297V370.812H697.286V330.221ZM697.286 371.49H720.297V410.487H697.286V371.49ZM697.286 412.522H720.297V452.614H697.286V412.522ZM697.286 453.293H720.297V492.788H697.286V453.293ZM697.286 494.823H720.297V536.089H697.286V494.823ZM697.286 536.767H720.297V575.089H697.286V536.767ZM697.286 577.124H720.297V616.64H697.286V577.124ZM697.286 617.318H720.297V657.39H697.286V617.318ZM697.286 659.425H720.297V699.28H697.286V659.425ZM697.286 699.958H720.297V739.691H697.286V699.958ZM697.286 741.726H720.297V781.5H697.286V741.726ZM668.749 41.9774H696.598V81.2832H679.243L668.749 70.9337V41.9774ZM668.749 93.664L679.243 83.3145H696.598V123.797H668.749V93.664ZM668.749 124.475H696.598V163.581H679.243L668.749 153.231V124.475ZM668.749 175.965L679.243 165.615H696.598V206.156H668.749V175.965ZM668.749 206.834H696.598V245.882H679.243L668.749 235.532V206.834ZM668.749 258.263L679.243 247.913H696.598V288.165H668.749V258.263ZM668.749 288.843H696.598V328.18H679.243L668.749 317.83V288.843ZM668.749 340.56L679.243 330.211H696.598V370.802H668.749V340.56ZM668.749 371.48H696.598V410.477H679.243L668.749 400.128V371.48ZM668.749 422.861L679.243 412.512H696.598V452.604H668.749V422.861ZM668.749 453.282H696.598V492.778H679.243L668.749 482.429V453.282ZM668.749 505.159L679.243 494.809H696.598V536.075H668.749V505.159ZM668.749 536.753H696.598V575.076H679.243L668.749 564.726V536.753ZM668.749 587.46L679.243 577.11H696.598V616.626H668.749V587.46ZM668.749 617.305H696.598V657.377H679.243L668.749 647.027V617.305ZM668.749 669.758L679.243 659.408H696.598V699.263H668.749V669.758ZM668.749 699.941H696.598V739.674H679.243L668.749 729.325V699.941ZM668.749 752.059L679.243 741.709H696.598V781.483H668.749V752.059ZM637.481 41.9774H666.689V70.9337L656.194 81.2832H637.481V41.9774ZM637.481 83.3178H656.194L666.689 93.6674V123.8H637.481V83.3178ZM637.481 124.479H666.689V153.235L656.194 163.584H637.481V124.479ZM637.481 165.619H656.194L666.689 175.968V206.159H637.481V165.619ZM637.481 206.837H666.689V235.536L656.194 245.885H637.481V206.837ZM637.481 247.92H656.194L666.689 258.269V288.172H637.481V247.92ZM637.481 288.85H666.689V317.837L656.194 328.186H637.481V288.85ZM637.481 330.221H656.194L666.689 340.57V370.812H637.481V330.221ZM637.481 371.49H666.689V400.138L656.194 410.487H637.481V371.49ZM637.481 412.522H656.194L666.689 422.871V452.614H637.481V412.522ZM637.481 453.293H666.689V482.439L656.194 492.788H637.481V453.293ZM637.481 494.823H656.194L666.689 505.172V536.089H637.481V494.823ZM637.481 536.767H666.689V564.74L656.194 575.089H637.481V536.767ZM637.481 577.124H656.194L666.689 587.474V616.64H637.481V577.124ZM637.481 617.318H666.689V647.041L656.194 657.39H637.481V617.318ZM637.481 659.425H656.194L666.689 669.774V699.28H637.481V659.425ZM637.481 699.958H666.689V729.342L656.194 739.691H637.481V699.958ZM637.481 741.726H656.194L666.689 752.076V781.5H637.481V741.726ZM613.779 41.9774H636.79V81.2832H613.779V41.9774ZM613.779 83.3178H636.79V123.8H613.779V83.3178ZM613.779 124.479H636.79V163.584H613.779V124.479ZM613.779 165.619H636.79V206.159H613.779V165.619ZM613.779 206.837H636.79V245.885H613.779V206.837ZM613.779 247.92H636.79V288.172H613.779V247.92ZM613.779 288.85H636.79V328.186H613.779V288.85ZM613.779 330.221H636.79V370.812H613.779V330.221ZM613.779 371.49H636.79V410.487H613.779V371.49ZM613.779 412.522H636.79V452.614H613.779V412.522ZM613.779 453.293H636.79V492.788H613.779V453.293ZM613.779 494.823H636.79V536.089H613.779V494.823ZM613.779 536.767H636.79V575.089H613.779V536.767ZM613.779 577.124H636.79V616.64H613.779V577.124ZM613.779 617.318H636.79V657.39H613.779V617.318ZM613.779 659.425H636.79V699.28H613.779V659.425ZM613.779 699.958H636.79V739.691H613.779V699.958ZM613.779 741.726H636.79V781.5H613.779V741.726ZM585.297 41.9774H613.095V81.2832H595.792L585.297 70.9337V41.9774ZM585.297 93.664L595.792 83.3145H613.095V123.797H585.297V93.664ZM585.297 124.475H613.095V163.581H595.792L585.297 153.231V124.475ZM585.297 175.965L595.792 165.615H613.095V206.156H585.297V175.965ZM585.297 206.834H613.095V245.882H595.792L585.297 235.532V206.834ZM585.297 258.263L595.792 247.913H613.095V288.165H585.297V258.263ZM585.297 288.843H613.095V328.18H595.792L585.297 317.83V288.843ZM585.297 340.56L595.792 330.211H613.095V370.802H585.297V340.56ZM585.297 371.48H613.095V410.477H595.792L585.297 400.128V371.48ZM585.297 422.861L595.792 412.512H613.095V452.604H585.297V422.861ZM585.297 453.282H613.095V492.778H595.792L585.297 482.429V453.282ZM585.297 505.159L595.792 494.809H613.095V536.075H585.297V505.159ZM585.297 536.753H613.095V575.076H595.792L585.297 564.726V536.753ZM585.297 587.46L595.792 577.11H613.095V616.626H585.297V587.46ZM585.297 617.305H613.095V657.377H595.792L585.297 647.027V617.305ZM585.297 669.758L595.792 659.408H613.095V699.263H585.297V669.758ZM585.297 699.941H613.095V739.674H595.792L585.297 729.325V699.941ZM585.297 752.059L595.792 741.709H613.095V781.483H585.297V752.059ZM554.318 41.9774H583.234V70.9337L572.739 81.2832H554.318V41.9774ZM554.318 83.3178H572.739L583.234 93.6674V123.8H554.318V83.3178ZM554.318 124.479H583.234V153.235L572.739 163.584H554.318V124.479ZM554.318 165.619H572.739L583.234 175.968V206.159H554.318V165.619ZM554.318 206.837H583.234V235.536L572.739 245.885H554.318V206.837ZM554.318 247.92H572.739L583.234 258.269V288.172H554.318V247.92ZM554.318 288.85H583.234V317.837L572.739 328.186H554.318V288.85ZM554.318 330.221H572.739L583.234 340.57V370.812H554.318V330.221ZM554.318 371.49H583.234V400.138L572.739 410.487H554.318V371.49ZM554.318 412.522H572.739L583.234 422.871V452.614H554.318V412.522ZM554.318 453.293H583.234V482.439L572.739 492.788H554.318V453.293ZM554.318 494.823H572.739L583.234 505.172V536.089H554.318V494.823ZM554.318 536.767H583.234V564.74L572.739 575.089H554.318V536.767ZM554.318 577.124H572.739L583.234 587.474V616.64H554.318V577.124ZM554.318 617.318H583.234V647.041L572.739 657.39H554.318V617.318ZM554.318 659.425H572.739L583.234 669.774V699.28H554.318V659.425ZM554.318 699.958H583.234V729.342L572.739 739.691H554.318V699.958ZM554.318 741.726H572.739L583.234 752.076V781.5H554.318V741.726ZM530.619 41.9774H553.631V81.2832H530.619V41.9774ZM530.619 83.3178H553.631V123.8H530.619V83.3178ZM530.619 124.479H553.631V163.584H530.619V124.479ZM530.619 165.619H553.631V206.159H530.619V165.619ZM530.619 206.837H553.631V245.885H530.619V206.837ZM530.619 247.92H553.631V288.172H530.619V247.92ZM530.619 288.85H553.631V328.186H530.619V288.85ZM530.619 330.221H553.631V370.812H530.619V330.221ZM530.619 371.49H553.631V410.487H530.619V371.49ZM530.619 412.522H553.631V452.614H530.619V412.522ZM530.619 453.293H553.631V492.788H530.619V453.293ZM530.619 494.823H553.631V536.089H530.619V494.823ZM530.619 536.767H553.631V575.089H530.619V536.767ZM530.619 577.124H553.631V616.64H530.619V577.124ZM530.619 617.318H553.631V657.39H530.619V617.318ZM530.619 659.425H553.631V699.28H530.619V659.425ZM530.619 699.958H553.631V739.691H530.619V699.958ZM530.619 741.726H553.631V781.5H530.619V741.726ZM501.842 41.9774H529.932V81.2832H512.336L501.842 70.9337V41.9774ZM501.842 93.664L512.336 83.3145H529.932V123.797H501.842V93.664ZM501.842 124.475H529.932V163.581H512.336L501.842 153.231V124.475ZM501.842 175.965L512.336 165.615H529.932V206.156H501.842V175.965ZM501.842 206.834H529.932V245.882H512.336L501.842 235.532V206.834ZM501.842 258.263L512.336 247.913H529.932V288.165H501.842V258.263ZM501.842 288.843H529.932V328.18H512.336L501.842 317.83V288.843ZM501.842 340.56L512.336 330.211H529.932V370.802H501.842V340.56ZM501.842 371.48H529.932V410.477H512.336L501.842 400.128V371.48ZM501.842 422.861L512.336 412.512H529.932V452.604H501.842V422.861ZM501.842 453.282H529.932V492.778H512.336L501.842 482.429V453.282ZM501.842 505.159L512.336 494.809H529.932V536.075H501.842V505.159ZM501.842 536.753H529.932V575.076H512.336L501.842 564.726V536.753ZM501.842 587.46L512.336 577.11H529.932V616.626H501.842V587.46ZM501.842 617.305H529.932V657.377H512.336L501.842 647.027V617.305ZM501.842 669.758L512.336 659.408H529.932V699.263H501.842V669.758ZM501.842 699.941H529.932V739.674H512.336L501.842 729.325V699.941ZM501.842 752.059L512.336 741.709H529.932V781.483H501.842V752.059ZM470.946 41.9774H499.779V70.9337L489.284 81.2832H470.946V41.9774ZM470.946 83.3178H489.284L499.779 93.6674V123.8H470.946V83.3178ZM470.946 124.479H499.779V153.235L489.284 163.584H470.946V124.479ZM470.946 165.619H489.284L499.779 175.968V206.159H470.946V165.619ZM470.946 206.837H499.779V235.536L489.284 245.885H470.946V206.837ZM470.946 247.92H489.284L499.779 258.269V288.172H470.946V247.92ZM470.946 288.85H499.779V317.837L489.284 328.186H470.946V288.85ZM470.946 330.221H489.284L499.779 340.57V370.812H470.946V330.221ZM470.946 371.49H499.779V400.138L489.284 410.487H470.946V371.49ZM470.946 412.522H489.284L499.779 422.871V452.614H470.946V412.522ZM470.946 453.293H499.779V482.439L489.284 492.788H470.946V453.293ZM470.946 494.823H489.284L499.779 505.172V536.089H470.946V494.823ZM470.946 536.767H499.779V564.74L489.284 575.089H470.946V536.767ZM470.946 577.124H489.284L499.779 587.474V616.64H470.946V577.124ZM470.946 617.318H499.779V647.041L489.284 657.39H470.946V617.318ZM470.946 659.425H489.284L499.779 669.774V699.28H470.946V659.425ZM470.946 699.958H499.779V729.342L489.284 739.691H470.946V699.958ZM470.946 741.726H489.284L499.779 752.076V781.5H470.946V741.726ZM447.247 41.9774H470.258V81.2832H447.247V41.9774ZM447.247 83.3178H470.258V123.8H447.247V83.3178ZM447.247 124.479H470.258V163.584H447.247V124.479ZM447.247 165.619H470.258V206.159H447.247V165.619ZM447.247 206.837H470.258V245.885H447.247V206.837ZM447.247 247.92H470.258V288.172H447.247V247.92ZM447.247 288.85H470.258V328.186H447.247V288.85ZM447.247 330.221H470.258V370.812H447.247V330.221ZM447.247 371.49H470.258V410.487H447.247V371.49ZM447.247 412.522H470.258V452.614H447.247V412.522ZM447.247 453.293H470.258V492.788H447.247V453.293ZM447.247 494.823H470.258V536.089H447.247V494.823ZM447.247 536.767H470.258V575.089H447.247V536.767ZM447.247 577.124H470.258V616.64H447.247V577.124ZM447.247 617.318H470.258V657.39H447.247V617.318ZM447.247 659.425H470.258V699.28H447.247V659.425ZM447.247 699.958H470.258V739.691H447.247V699.958ZM447.247 741.726H470.258V781.5H447.247V741.726ZM418.386 41.9774H446.556V81.2832H428.878L418.383 70.9337V41.9774H418.386ZM418.386 93.664L428.881 83.3145H446.559V123.797H418.39V93.664H418.386ZM418.386 124.475H446.556V163.581H428.878L418.383 153.231V124.475H418.386ZM418.386 175.965L428.881 165.615H446.559V206.156H418.39V175.965H418.386ZM418.386 206.834H446.556V245.882H428.878L418.383 235.532V206.834H418.386ZM418.386 258.263L428.881 247.913H446.559V288.165H418.39V258.263H418.386ZM418.386 288.843H446.556V328.18H428.878L418.383 317.83V288.843H418.386ZM418.386 340.56L428.881 330.211H446.559V370.802H418.39V340.56H418.386ZM418.386 371.48H446.556V410.477H428.878L418.383 400.128V371.48H418.386ZM418.386 422.861L428.881 412.512H446.559V452.604H418.39V422.861H418.386ZM418.386 453.282H446.556V492.778H428.878L418.383 482.429V453.282H418.386ZM418.386 505.159L428.881 494.809H446.559V536.075H418.39V505.159H418.386ZM418.386 536.753H446.556V575.076H428.878L418.383 564.726V536.753H418.386ZM418.386 587.46L428.881 577.11H446.559V616.626H418.39V587.46H418.386ZM418.386 617.305H446.556V657.377H428.878L418.383 647.027V617.305H418.386ZM418.386 669.758L428.881 659.408H446.559V699.263H418.39V669.758H418.386ZM418.386 699.941H446.556V739.674H428.878L418.383 729.325V699.941H418.386ZM418.386 752.059L428.881 741.709H446.559V781.483H418.39V752.059H418.386ZM387.573 41.9774H416.327V70.9337L405.832 81.2832H387.573V41.9774ZM387.573 83.3178H405.832L416.327 93.6674V123.8H387.573V83.3178ZM387.573 124.479H416.327V153.235L405.832 163.584H387.573V124.479ZM387.573 165.619H405.832L416.327 175.968V206.159H387.573V165.619ZM387.573 206.837H416.327V235.536L405.832 245.885H387.573V206.837ZM387.573 247.92H405.832L416.327 258.269V288.172H387.573V247.92ZM387.573 288.85H416.327V317.837L405.832 328.186H387.573V288.85ZM387.573 330.221H405.832L416.327 340.57V370.812H387.573V330.221ZM387.573 371.49H416.327V400.138L405.832 410.487H387.573V371.49ZM387.573 412.522H405.832L416.327 422.871V452.614H387.573V412.522ZM387.573 453.293H416.327V482.439L405.832 492.788H387.573V453.293ZM387.573 494.823H405.832L416.327 505.172V536.089H387.573V494.823ZM387.573 536.767H416.327V564.74L405.832 575.089H387.573V536.767ZM387.573 577.124H405.832L416.327 587.474V616.64H387.573V577.124ZM387.573 617.318H416.327V647.041L405.832 657.39H387.573V617.318ZM387.573 659.425H405.832L416.327 669.774V699.28H387.573V659.425ZM387.573 699.958H416.327V729.342L405.832 739.691H387.573V699.958ZM387.573 741.726H405.832L416.327 752.076V781.5H387.573V741.726ZM363.871 41.9774H386.882V81.2832H363.871V41.9774ZM363.871 83.3178H386.882V123.8H363.871V83.3178ZM363.871 124.479H386.882V163.584H363.871V124.479ZM363.871 165.619H386.882V206.159H363.871V165.619ZM363.871 206.837H386.882V245.885H363.871V206.837ZM363.871 247.92H386.882V288.172H363.871V247.92ZM363.871 288.85H386.882V328.186H363.871V288.85ZM363.871 330.221H386.882V370.812H363.871V330.221ZM363.871 371.49H386.882V410.487H363.871V371.49ZM363.871 412.522H386.882V452.614H363.871V412.522ZM363.871 453.293H386.882V492.788H363.871V453.293ZM363.871 494.823H386.882V536.089H363.871V494.823ZM363.871 536.767H386.882V575.089H363.871V536.767ZM363.871 577.124H386.882V616.64H363.871V577.124ZM363.871 617.318H386.882V657.39H363.871V617.318ZM363.871 659.425H386.882V699.28H363.871V659.425ZM363.871 699.958H386.882V739.691H363.871V699.958ZM363.871 741.726H386.882V781.5H363.871V741.726ZM334.935 41.9774H363.186V81.2832H345.429L334.935 70.9337V41.9774ZM334.935 93.664L345.429 83.3145H363.186V123.797H334.935V93.664ZM334.935 124.475H363.186V163.581H345.429L334.935 153.231V124.475ZM334.935 175.965L345.429 165.615H363.186V206.156H334.935V175.965ZM334.935 206.834H363.186V245.882H345.429L334.935 235.532V206.834ZM334.935 258.263L345.429 247.913H363.186V288.165H334.935V258.263ZM334.935 288.843H363.186V328.18H345.429L334.935 317.83V288.843ZM334.935 340.56L345.429 330.211H363.186V370.802H334.935V340.56ZM334.935 371.48H363.186V410.477H345.429L334.935 400.128V371.48ZM334.935 422.861L345.429 412.512H363.186V452.604H334.935V422.861ZM334.935 453.282H363.186V492.778H345.429L334.935 482.429V453.282ZM334.935 505.159L345.429 494.809H363.186V536.075H334.935V505.159ZM334.935 536.753H363.186V575.076H345.429L334.935 564.726V536.753ZM334.935 587.46L345.429 577.11H363.186V616.626H334.935V587.46ZM334.935 617.305H363.186V657.377H345.429L334.935 647.027V617.305ZM334.935 669.758L345.429 659.408H363.186V699.263H334.935V669.758ZM334.935 699.941H363.186V739.674H345.429L334.935 729.325V699.941ZM334.935 752.059L345.429 741.709H363.186V781.483H334.935V752.059ZM304.41 41.9774H332.868V70.9337L322.373 81.2832H304.407V41.9774H304.41ZM304.41 83.3178H322.377L332.871 93.6674V123.8H304.413V83.3178H304.41ZM304.41 124.479H332.868V153.235L322.373 163.584H304.407V124.479H304.41ZM304.41 165.619H322.377L332.871 175.968V206.159H304.413V165.619H304.41ZM304.41 206.837H332.868V235.536L322.373 245.885H304.407V206.837H304.41ZM304.41 247.92H322.377L332.871 258.269V288.172H304.413V247.92H304.41ZM304.41 288.85H332.868V317.837L322.373 328.186H304.407V288.85H304.41ZM304.41 330.221H322.377L332.871 340.57V370.812H304.413V330.221H304.41ZM304.41 371.49H332.868V400.138L322.373 410.487H304.407V371.49H304.41ZM304.41 412.522H322.377L332.871 422.871V452.614H304.413V412.522H304.41ZM304.41 453.293H332.868V482.439L322.373 492.788H304.407V453.293H304.41ZM304.41 494.823H322.377L332.871 505.172V536.089H304.413V494.823H304.41ZM304.41 536.767H332.868V564.74L322.373 575.089H304.407V536.767H304.41ZM304.41 577.124H322.377L332.871 587.474V616.64H304.413V577.124H304.41ZM304.41 617.318H332.868V647.041L322.373 657.39H304.407V617.318H304.41ZM304.41 659.425H322.377L332.871 669.774V699.28H304.413V659.425H304.41ZM304.41 699.958H332.868V729.342L322.373 739.691H304.407V699.958H304.41ZM304.41 741.726H322.377L332.871 752.076V781.5H304.413V741.726H304.41ZM280.711 41.9774H303.722V81.2832H280.711V41.9774ZM280.711 83.3178H303.722V123.8H280.711V83.3178ZM280.711 124.479H303.722V163.584H280.711V124.479ZM280.711 165.619H303.722V206.159H280.711V165.619ZM280.711 206.837H303.722V245.885H280.711V206.837ZM280.711 247.92H303.722V288.172H280.711V247.92ZM280.711 288.85H303.722V328.186H280.711V288.85ZM280.711 330.221H303.722V370.812H280.711V330.221ZM280.711 371.49H303.722V410.487H280.711V371.49ZM280.711 412.522H303.722V452.614H280.711V412.522ZM280.711 453.293H303.722V492.788H280.711V453.293ZM280.711 494.823H303.722V536.089H280.711V494.823ZM280.711 536.767H303.722V575.089H280.711V536.767ZM280.711 577.124H303.722V616.64H280.711V577.124ZM280.711 617.318H303.722V657.39H280.711V617.318ZM280.711 659.425H303.722V699.28H280.711V659.425ZM280.711 699.958H303.722V739.691H280.711V699.958ZM280.711 741.726H303.722V781.5H280.711V741.726ZM251.479 41.9774H280.023V81.2832H261.974L251.479 70.9337V41.9774ZM251.479 93.664L261.974 83.3145H280.023V123.797H251.479V93.664ZM251.479 124.475H280.023V163.581H261.974L251.479 153.231V124.475ZM251.479 175.965L261.974 165.615H280.023V206.156H251.479V175.965ZM251.479 206.834H280.023V245.882H261.974L251.479 235.532V206.834ZM251.479 258.263L261.974 247.913H280.023V288.165H251.479V258.263ZM251.479 288.843H280.023V328.18H261.974L251.479 317.83V288.843ZM251.479 340.56L261.974 330.211H280.023V370.802H251.479V340.56ZM251.479 371.48H280.023V410.477H261.974L251.479 400.128V371.48ZM251.479 422.861L261.974 412.512H280.023V452.604H251.479V422.861ZM251.479 453.282H280.023V492.778H261.974L251.479 482.429V453.282ZM251.479 505.159L261.974 494.809H280.023V536.075H251.479V505.159ZM251.479 536.753H280.023V575.076H261.974L251.479 564.726V536.753ZM251.479 587.46L261.974 577.11H280.023V616.626H251.479V587.46ZM251.479 617.305H280.023V657.377H261.974L251.479 647.027V617.305ZM251.479 669.758L261.974 659.408H280.023V699.263H251.479V669.758ZM251.479 699.941H280.023V739.674H261.974L251.479 729.325V699.941ZM251.479 752.059L261.974 741.709H280.023V781.483H251.479V752.059ZM220.824 41.9774H249.416V70.9337L238.922 81.2832H220.824V41.9774ZM220.824 83.3178H238.922L249.416 93.6674V123.8H220.824V83.3178ZM220.824 124.479H249.416V153.235L238.922 163.584H220.824V124.479ZM220.824 165.619H238.922L249.416 175.968V206.159H220.824V165.619ZM220.824 206.837H249.416V235.536L238.922 245.885H220.824V206.837ZM220.824 247.92H238.922L249.416 258.269V288.172H220.824V247.92ZM220.824 288.85H249.416V317.837L238.922 328.186H220.824V288.85ZM220.824 330.221H238.922L249.416 340.57V370.812H220.824V330.221ZM220.824 371.49H249.416V400.138L238.922 410.487H220.824V371.49ZM220.824 412.522H238.922L249.416 422.871V452.614H220.824V412.522ZM220.824 453.293H249.416V482.439L238.922 492.788H220.824V453.293ZM220.824 494.823H238.922L249.416 505.172V536.089H220.824V494.823ZM220.824 536.767H249.416V564.74L238.922 575.089H220.824V536.767ZM220.824 577.124H238.922L249.416 587.474V616.64H220.824V577.124ZM220.824 617.318H249.416V647.041L238.922 657.39H220.824V617.318ZM220.824 659.425H238.922L249.416 669.774V699.28H220.824V659.425ZM220.824 699.958H249.416V729.342L238.922 739.691H220.824V699.958ZM220.824 741.726H238.922L249.416 752.076V781.5H220.824V741.726ZM197.125 41.9774H220.136V81.2832H197.125V41.9774ZM197.125 83.3178H220.136V123.8H197.125V83.3178ZM197.125 124.479H220.136V163.584H197.125V124.479ZM197.125 165.619H220.136V206.159H197.125V165.619ZM197.125 206.837H220.136V245.885H197.125V206.837ZM197.125 247.92H220.136V288.172H197.125V247.92ZM197.125 288.85H220.136V328.186H197.125V288.85ZM197.125 330.221H220.136V370.812H197.125V330.221ZM197.125 371.49H220.136V410.487H197.125V371.49ZM197.125 412.522H220.136V452.614H197.125V412.522ZM197.125 453.293H220.136V492.788H197.125V453.293ZM197.125 494.823H220.136V536.089H197.125V494.823ZM197.125 536.767H220.136V575.089H197.125V536.767ZM197.125 577.124H220.136V616.64H197.125V577.124ZM197.125 617.318H220.136V657.39H197.125V617.318ZM197.125 659.425H220.136V699.28H197.125V659.425ZM197.125 699.958H220.136V739.691H197.125V699.958ZM197.125 741.726H220.136V781.5H197.125V741.726ZM168.024 41.9774H196.437V81.2832H178.519L168.024 70.9337V41.9774ZM168.024 93.664L178.519 83.3145H196.437V123.797H168.024V93.664ZM168.024 124.475H196.437V163.581H178.519L168.024 153.231V124.475ZM168.024 175.965L178.519 165.615H196.437V206.156H168.024V175.965ZM168.024 206.834H196.437V245.882H178.519L168.024 235.532V206.834ZM168.024 258.263L178.519 247.913H196.437V288.165H168.024V258.263ZM168.024 288.843H196.437V328.18H178.519L168.024 317.83V288.843ZM168.024 340.56L178.519 330.211H196.437V370.802H168.024V340.56ZM168.024 371.48H196.437V410.477H178.519L168.024 400.128V371.48ZM168.024 422.861L178.519 412.512H196.437V452.604H168.024V422.861ZM168.024 453.282H196.437V492.778H178.519L168.024 482.429V453.282ZM168.024 505.159L178.519 494.809H196.437V536.075H168.024V505.159ZM168.024 536.753H196.437V575.076H178.519L168.024 564.726V536.753ZM168.024 587.46L178.519 577.11H196.437V616.626H168.024V587.46ZM168.024 617.305H196.437V657.377H178.519L168.024 647.027V617.305ZM168.024 669.758L178.519 659.408H196.437V699.263H168.024V669.758ZM168.024 699.941H196.437V739.674H178.519L168.024 729.325V699.941ZM168.024 752.059L178.519 741.709H196.437V781.483H168.024V752.059ZM137.028 41.9774H165.961V70.9337L155.466 81.2832H137.028V41.9774ZM137.028 83.3178H155.466L165.961 93.6674V123.8H137.028V83.3178ZM137.028 124.479H165.961V153.235L155.466 163.584H137.028V124.479ZM137.028 165.619H155.466L165.961 175.968V206.159H137.028V165.619ZM137.028 206.837H165.961V235.536L155.466 245.885H137.028V206.837ZM137.028 247.92H155.466L165.961 258.269V288.172H137.028V247.92ZM137.028 288.85H165.961V317.837L155.466 328.186H137.028V288.85ZM137.028 330.221H155.466L165.961 340.57V370.812H137.028V330.221ZM137.028 371.49H165.961V400.138L155.466 410.487H137.028V371.49ZM137.028 412.522H155.466L165.961 422.871V452.614H137.028V412.522ZM137.028 453.293H165.961V482.439L155.466 492.788H137.028V453.293ZM137.028 494.823H155.466L165.961 505.172V536.089H137.028V494.823ZM137.028 536.767H165.961V564.74L155.466 575.089H137.028V536.767ZM137.028 577.124H155.466L165.961 587.474V616.64H137.028V577.124ZM137.028 617.318H165.961V647.041L155.466 657.39H137.028V617.318ZM137.028 659.425H155.466L165.961 669.774V699.28H137.028V659.425ZM137.028 699.958H165.961V729.342L155.466 739.691H137.028V699.958ZM137.028 741.726H155.466L165.961 752.076V781.5H137.028V741.726ZM113.329 41.9774H136.341V81.2832H113.329V41.9774ZM113.329 83.3178H136.341V123.8H113.329V83.3178ZM113.329 124.479H136.341V163.584H113.329V124.479ZM113.329 165.619H136.341V206.159H113.329V165.619ZM113.329 206.837H136.341V245.885H113.329V206.837ZM113.329 247.92H136.341V288.172H113.329V247.92ZM113.329 288.85H136.341V328.186H113.329V288.85ZM113.329 330.221H136.341V370.812H113.329V330.221ZM113.329 371.49H136.341V410.487H113.329V371.49ZM113.329 412.522H136.341V452.614H113.329V412.522ZM113.329 453.293H136.341V492.788H113.329V453.293ZM113.329 494.823H136.341V536.089H113.329V494.823ZM113.329 536.767H136.341V575.089H113.329V536.767ZM113.329 577.124H136.341V616.64H113.329V577.124ZM113.329 617.318H136.341V657.39H113.329V617.318ZM113.329 659.425H136.341V699.28H113.329V659.425ZM113.329 699.958H136.341V739.691H113.329V699.958ZM113.329 741.726H136.341V781.5H113.329V741.726ZM84.5723 41.9774H112.642V81.2832H95.0635L84.5689 70.9337V41.9774H84.5723ZM84.5723 93.664L95.067 83.3145H112.645V123.797H84.5757V93.664H84.5723ZM84.5723 124.475H112.642V163.581H95.0635L84.5689 153.231V124.475H84.5723ZM84.5723 175.965L95.067 165.615H112.645V206.156H84.5757V175.965H84.5723ZM84.5723 206.834H112.642V245.882H95.0635L84.5689 235.532V206.834H84.5723ZM84.5723 258.263L95.067 247.913H112.645V288.165H84.5757V258.263H84.5723ZM84.5723 288.843H112.642V328.18H95.0635L84.5689 317.83V288.843H84.5723ZM84.5723 340.56L95.067 330.211H112.645V370.802H84.5757V340.56H84.5723ZM84.5723 371.48H112.642V410.477H95.0635L84.5689 400.128V371.48H84.5723ZM84.5723 422.861L95.067 412.512H112.645V452.604H84.5757V422.861H84.5723ZM84.5723 453.282H112.642V492.778H95.0635L84.5689 482.429V453.282H84.5723ZM84.5723 505.159L95.067 494.809H112.645V536.075H84.5757V505.159H84.5723ZM84.5723 536.753H112.642V575.076H95.0635L84.5689 564.726V536.753H84.5723ZM84.5723 587.46L95.067 577.11H112.645V616.626H84.5757V587.46H84.5723ZM84.5723 617.305H112.642V657.377H95.0635L84.5689 647.027V617.305H84.5723ZM84.5723 669.758L95.067 659.408H112.645V699.263H84.5757V669.758H84.5723ZM84.5723 699.941H112.642V739.674H95.0635L84.5689 729.325V699.941H84.5723ZM84.5723 752.059L95.067 741.709H112.645V781.483H84.5757V752.059H84.5723ZM53.4459 41.9774H82.5091V70.9337L72.0145 81.2832H53.4459V41.9774ZM53.4459 83.3178H72.0145L82.5091 93.6674V123.8H53.4459V83.3178ZM53.4459 124.479H82.5091V153.235L72.0145 163.584H53.4459V124.479ZM53.4459 165.619H72.0145L82.5091 175.968V206.159H53.4459V165.619ZM53.4459 206.837H82.5091V235.536L72.0145 245.885H53.4459V206.837ZM53.4459 247.92H72.0145L82.5091 258.269V288.172H53.4459V247.92ZM53.4459 288.85H82.5091V317.837L72.0145 328.186H53.4459V288.85ZM53.4459 330.221H72.0145L82.5091 340.57V370.812H53.4459V330.221ZM53.4459 371.49H82.5091V400.138L72.0145 410.487H53.4459V371.49ZM53.4459 412.522H72.0145L82.5091 422.871V452.614H53.4459V412.522ZM53.4459 453.293H82.5091V482.439L72.0145 492.788H53.4459V453.293ZM53.4459 494.823H72.0145L82.5091 505.172V536.089H53.4459V494.823ZM53.4459 536.767H82.5091V564.74L72.0145 575.089H53.4459V536.767ZM53.4459 577.124H72.0145L82.5091 587.474V616.64H53.4459V577.124ZM53.4459 617.318H82.5091V647.041L72.0145 657.39H53.4459V617.318ZM53.4459 659.425H72.0145L82.5091 669.774V699.28H53.4459V659.425ZM53.4459 699.958H82.5091V729.342L72.0145 739.691H53.4459V699.958ZM53.4459 741.726H72.0145L82.5091 752.076V781.5H53.4459V741.726ZM29.7435 41.9774H52.7548V81.2832H29.7435V41.9774ZM29.7435 83.3178H52.7548V123.8H29.7435V83.3178ZM29.7435 124.479H52.7548V163.584H29.7435V124.479ZM29.7435 165.619H52.7548V206.159H29.7435V165.619ZM29.7435 206.837H52.7548V245.885H29.7435V206.837ZM29.7435 247.92H52.7548V288.172H29.7435V247.92ZM29.7435 288.85H52.7548V328.186H29.7435V288.85ZM29.7435 330.221H52.7548V370.812H29.7435V330.221ZM29.7435 371.49H52.7548V410.487H29.7435V371.49ZM29.7435 412.522H52.7548V452.614H29.7435V412.522ZM29.7435 453.293H52.7548V492.788H29.7435V453.293ZM29.7435 494.823H52.7548V536.089H29.7435V494.823ZM29.7435 536.767H52.7548V575.089H29.7435V536.767ZM29.7435 577.124H52.7548V616.64H29.7435V577.124ZM29.7435 617.318H52.7548V657.39H29.7435V617.318ZM29.7435 659.425H52.7548V699.28H29.7435V659.425ZM29.7435 699.958H52.7548V739.691H29.7435V699.958ZM29.7435 741.726H52.7548V781.5H29.7435V741.726Z" fill="#282828"/>
</g>
</svg>
