<svg width="109" height="37" viewBox="0 0 109 37" fill="none" xmlns="http://www.w3.org/2000/svg">
<path fill-rule="evenodd" clip-rule="evenodd" d="M7.16298 31.3556C6.81985 33.3143 4.95409 34.8941 2.99539 34.8941C1.02955 34.8941 -0.285783 33.3 0.0573459 31.3556C0.400475 29.3969 2.26624 27.817 4.21064 27.817C6.19078 27.7956 7.50611 29.3969 7.16298 31.3556ZM11.5021 16.4723C11.5021 16.4723 9.82938 24.9433 9.02874 28.9608C8.39967 32.0776 7.44892 35.5446 3.6602 35.7948C3.52438 35.8091 3.37426 35.8091 3.2027 35.8091C2.13757 35.8091 1.10818 35.4874 0.286099 34.8941C1.06529 35.852 2.30913 36.4024 3.6602 36.6312C6.13359 37.0887 9.06449 36.5311 10.7587 35.5088C13.8111 33.7003 14.7047 30.7265 15.3337 27.5096C15.8842 24.7718 17.5212 16.4509 17.5212 16.4509H11.5021V16.4723Z" fill="#DDDDDD"/>
<path fill-rule="evenodd" clip-rule="evenodd" d="M21.9747 36.3238H16.1487L19.0867 21.269H24.9128L21.9747 36.3238ZM25.8778 16.6224C25.6062 18.238 24.0478 19.5533 22.4322 19.5533C20.8095 19.5533 19.7229 18.238 20.0089 16.6224C20.2948 14.9997 21.8389 13.6844 23.4545 13.6844C25.0772 13.7058 26.1638 14.9997 25.8778 16.6224ZM43.7992 24.0784C43.7992 24.2928 43.7777 24.5001 43.742 24.7289L43.7205 24.8432L41.4759 36.3595H35.6427L37.6228 26.1371C37.6443 25.6582 37.5085 25.0148 36.5434 24.8432C35.2281 24.6145 33.6483 24.7646 32.3115 26.1371L30.3099 36.3381H24.4839L27.4219 21.2618H33.248L33.0192 22.4413C33.3051 22.2698 35.7213 20.9187 38.2948 20.8258C40.8039 20.7328 43.742 21.5692 43.7992 24.0784ZM48.6316 26.5589L51.0907 28.9536L49.6395 36.3238H43.8349L47.738 16.3722H53.5855L52.3059 22.8274L48.6316 26.5589ZM57.0096 26.5589L67.5609 36.3238H60.0978L50.0613 26.5589L60.0978 16.3722H67.5609L57.0096 26.5589ZM86.1685 26.3516C85.6323 32.1204 80.5283 36.8027 74.7594 36.8027C68.9906 36.8027 64.7229 32.1204 65.259 26.3516C65.7737 20.5827 70.8921 15.9004 76.6609 15.9004C82.4512 15.9004 86.6975 20.5613 86.1685 26.3516ZM80.8714 26.3516C81.1359 23.5136 79.0414 21.2118 76.2034 21.2118C73.3655 21.2118 70.8563 23.5136 70.5918 26.3516C70.3202 29.1824 72.4147 31.4914 75.2527 31.4914C78.0692 31.4914 80.6069 29.1824 80.8714 26.3516Z" fill="#DDDDDD"/>
<path fill-rule="evenodd" clip-rule="evenodd" d="M78.9556 10.2245C78.784 9.92426 78.5196 9.61687 78.1907 9.36667C77.8476 9.12362 77.4687 8.90917 77.0327 8.75905C76.5895 8.60893 76.1534 8.49455 75.6816 8.41592C74.2876 8.20861 72.9938 7.77255 71.7928 7.06485C71.6999 7.00766 71.5855 6.89328 71.4711 6.72172C71.3567 6.55015 71.2995 6.37859 71.2995 6.20702C71.2995 5.5994 71.4139 4.99177 71.6069 4.38415C71.8142 3.76937 72.0787 3.29757 72.3861 2.95444C72.9008 2.38256 73.8134 1.88693 75.124 1.46755C76.4608 1.03149 77.9262 0.82418 79.5847 0.82418C80.5712 0.82418 81.3361 0.895665 81.8865 1.05293C82.4226 1.20305 82.6871 1.43181 82.6871 1.75349C82.6871 2.26818 82.6085 2.6685 82.4798 2.95444C82.344 3.24038 82.1939 3.42624 82.0223 3.50488C81.8508 3.59781 81.5791 3.73363 81.1645 3.88375C80.7284 4.04102 80.3424 4.19114 80.0422 4.3627C79.7134 4.53427 79.4489 4.68439 79.2201 4.84165C78.9914 4.99177 78.8555 5.07041 78.8055 5.07041L78.7054 4.99177C78.7054 4.8774 78.8198 4.68439 79.07 4.45563C79.313 4.22688 79.6204 4.01957 79.9636 3.82656C80.3424 3.6407 80.5354 3.50488 80.5354 3.44769C80.5354 3.35476 80.3281 3.31902 79.9064 3.31902C78.6339 3.31902 77.4473 3.42625 76.3821 3.655C75.2956 3.88375 74.4592 4.16969 73.8301 4.55571C73.2011 4.91314 72.9008 5.29201 72.9008 5.69233C72.9008 5.94253 73.0295 6.09265 73.2797 6.20702C73.5442 6.3071 74.1018 6.47867 74.9953 6.70742C75.8674 6.92902 76.6466 7.21497 77.3543 7.50091C78.348 7.92267 79.0843 8.38018 79.5847 8.83768C80.0565 9.29519 80.3067 9.80988 80.3067 10.3746C80.3067 10.7606 80.2138 11.161 80.0207 11.5613C79.8277 11.9616 79.5418 12.319 79.1844 12.6407C78.8198 12.9695 78.4052 13.234 77.9262 13.4628C77.5259 13.6343 77.0112 13.7845 76.4036 13.9346C75.796 14.0919 75.124 14.2062 74.402 14.2992C73.68 14.3778 72.9937 14.435 72.3432 14.435C71.1494 14.435 70.1772 14.3206 69.4552 14.0919C68.7261 13.8631 68.3472 13.52 68.3472 13.0625C68.3472 12.8552 68.483 12.5478 68.7261 12.0903C68.9763 11.6542 69.2622 11.3683 69.6053 11.2181C69.8913 11.1038 70.1772 11.0466 70.4632 11.0037C70.7277 10.9894 70.8778 11.0251 70.8778 11.1038L70.842 11.1753L70.7634 11.2324L70.6919 11.2753C70.5585 11.3325 70.4441 11.3706 70.3488 11.3897L70.1343 11.4826L70.0629 11.6185C70.0629 11.7686 70.7634 11.8258 72.1931 11.8258C73.4298 11.8258 74.4377 11.79 75.2384 11.6899C76.0247 11.597 76.7253 11.4469 77.3329 11.2181C77.9048 10.9465 78.4624 10.6248 78.9556 10.2245ZM87.4481 11.4254C87.1836 11.5613 86.7833 11.6185 86.2686 11.597C85.375 12.6621 84.5887 13.1768 83.9024 13.1768C83.5235 13.1768 83.1804 13.041 82.8587 12.798C82.537 12.5478 82.2868 12.1832 82.0938 11.7471C81.908 11.3111 81.8079 10.8178 81.8079 10.2817C81.8079 9.84562 81.9651 9.35238 82.2511 8.81624C82.537 8.28725 82.9159 7.77255 83.3948 7.31505C83.8452 6.85754 84.3456 6.47867 84.8746 6.19273C85.4107 5.90678 85.904 5.74952 86.34 5.74952C86.6689 5.74952 86.9119 5.8067 87.1049 5.90678C87.2979 5.99972 87.3909 6.13554 87.3909 6.3214C87.3909 6.45722 87.3122 6.60734 87.1621 6.80035C87.4123 6.85754 87.5982 6.92902 87.6983 7.06485C87.7912 7.20067 87.8269 7.42942 87.8269 7.77255C87.8269 8.09662 87.7507 8.51362 87.5982 9.02354C87.4481 9.52394 87.2408 9.99574 86.9691 10.4318L87.1621 10.6248H87.3122C87.4266 10.6248 87.541 10.5891 87.6554 10.5319C87.7698 10.4747 87.8698 10.4175 87.9628 10.3389C88.0271 10.3103 88.1844 10.1959 88.4131 10.0243C88.4703 9.44531 88.6347 8.79479 88.8778 8.07279C89.2209 7.10059 89.657 6.13554 90.2074 5.14189C90.7578 4.1554 91.3297 3.29757 91.923 2.55412C92.5164 1.81068 93.0668 1.29598 93.5815 0.995745C93.7888 0.881368 93.9389 0.802734 94.0533 0.802734C94.1891 0.802734 94.3035 0.859923 94.3392 0.995745C94.3964 1.11012 94.4179 1.33887 94.4179 1.63911C94.4179 2.58987 94.039 3.76937 93.2527 5.16334C92.4735 6.55015 91.3869 7.97986 90.0215 9.42386C89.9429 9.78844 89.9215 10.0529 89.9215 10.2459C89.9215 10.682 90.0215 11.0466 90.2074 11.3111C90.4004 11.5756 90.6649 11.7328 91.008 11.7328C91.1796 11.7328 91.3726 11.6542 91.5585 11.5184C91.7515 11.3897 91.9802 11.2181 92.1875 11.0251C92.3591 10.8536 92.7308 10.5104 93.267 10.0172C93.2813 9.88375 93.3027 9.76223 93.3313 9.65261C93.4099 9.44531 93.5243 9.21655 93.6959 8.9878C93.8817 8.78049 94.1677 8.47311 94.568 8.11568C95.6188 7.15778 96.6268 6.45722 97.6133 5.99972C98.6069 5.54221 99.3504 5.31346 99.9008 5.31346C100.051 5.31346 100.165 5.37065 100.301 5.50647C100.415 5.62084 100.53 5.74952 100.587 5.92108C100.666 6.07835 100.701 6.19273 100.701 6.28566C100.701 6.40003 100.644 6.49296 100.551 6.55015C100.451 6.60734 100.28 6.68597 100.051 6.76461C100.094 6.87184 100.165 7.00766 100.244 7.17922C100.323 7.35079 100.38 7.48661 100.415 7.60099C100.451 7.71536 100.473 7.78685 100.473 7.88693C100.473 8.05849 100.301 8.35873 99.9794 8.79479C99.6506 9.2523 99.4075 9.58113 99.2717 9.78844C99.1431 9.99574 99.0644 10.2674 99.0644 10.5676C99.0644 11.0823 99.2932 11.3325 99.765 11.3325C100.215 11.3325 100.909 10.9322 101.824 10.1459V10.0744C102.188 9.63832 102.474 9.2523 102.66 8.95206C102.453 8.87343 102.281 8.78049 102.188 8.68041C102.088 8.56604 102.031 8.40162 102.031 8.18717C102.031 7.94412 102.131 7.63673 102.338 7.23641C102.546 6.85754 102.796 6.51441 103.103 6.17128C103.404 5.8496 103.675 5.63514 103.918 5.54221L104.183 5.46358C104.319 5.46358 104.397 5.52076 104.397 5.65659C104.397 5.77096 104.283 5.99972 104.068 6.36429C105.484 6.14983 106.377 6.03546 106.756 6.03546C106.906 6.03546 107.006 6.0569 107.064 6.07835C107.178 6.13554 107.271 6.28566 107.35 6.51441C107.421 6.74316 107.464 6.97192 107.464 7.17922C107.464 7.32934 107.407 7.48661 107.271 7.65817C107.135 7.82974 106.928 8.07279 106.62 8.40162C106.263 8.79479 105.956 9.21655 105.713 9.67406C105.462 10.1316 105.348 10.4747 105.348 10.7177C105.348 11.0466 105.555 11.1967 105.941 11.1967C106.356 11.1967 107.078 10.7749 108.129 9.92426V10.6034C107.557 11.1967 107.099 11.6756 106.72 12.0116C106.356 12.3548 106.013 12.6407 105.691 12.8337C105.384 13.041 105.098 13.1411 104.855 13.1411C104.569 13.1411 104.319 13.0053 104.126 12.7408C103.94 12.4739 103.847 12.0926 103.847 11.597C103.847 11.3111 103.918 10.9679 104.068 10.5891C104.226 10.2102 104.454 9.80988 104.74 9.35238C105.041 8.90917 105.369 8.45881 105.727 8.0156C105.541 8.05849 105.327 8.11568 105.083 8.15142C104.833 8.18717 104.583 8.24435 104.319 8.28725C104.054 8.32299 103.847 8.38018 103.69 8.40162C103.289 9.20226 102.724 9.92426 102.017 10.5748V10.6034C100.28 12.5263 99.043 13.4985 98.2852 13.4985C98.0136 13.4985 97.8277 13.427 97.7133 13.234C97.599 13.0625 97.5418 12.798 97.5418 12.4548C97.5418 11.9044 97.7276 11.1181 98.128 10.0958C97.12 11.1967 96.3766 11.9973 95.9048 12.4691C95.4044 12.9481 95.0041 13.1768 94.6824 13.1768C94.5299 13.1768 94.3392 13.0434 94.1105 12.7765C93.8817 12.512 93.6959 12.1832 93.5029 11.7686C93.3813 11.4683 93.2956 11.161 93.2598 10.8464C91.9016 12.5907 90.8007 13.4628 89.9429 13.4628C89.4473 13.4628 89.066 13.1959 88.7991 12.6621C88.5346 12.1689 88.3988 11.5327 88.3845 10.7606C88.0056 11.0895 87.6983 11.3111 87.4481 11.4254ZM86.4187 7.21497C85.8468 7.5581 85.375 7.86548 84.9532 8.15142C84.5529 8.43736 84.2098 8.70186 83.9238 8.9878C83.6379 9.27374 83.4473 9.55968 83.352 9.84562C83.1804 10.6034 83.0875 11.0251 83.0875 11.0823C83.0875 11.5398 83.4091 11.7686 84.0382 11.7686C84.3242 11.7686 84.8174 11.5184 85.5251 11.0037C85.4107 10.6796 85.3535 10.377 85.3535 10.0958C85.3535 9.65261 85.4465 9.21655 85.618 8.75905C85.8087 8.32061 86.0755 7.80591 86.4187 7.21497ZM90.379 7.97986C90.7411 7.63673 91.0843 7.23641 91.4083 6.77891C91.7515 6.3214 92.0589 5.8496 92.3591 5.3492C92.645 4.84165 92.8952 4.38415 93.0454 3.98383C93.2169 3.58351 93.2956 3.27613 93.2956 3.06882C93.2956 2.9187 93.2384 2.81862 93.124 2.81862C93.0811 2.81862 92.9882 2.86151 92.8738 2.933C92.4592 3.27613 91.9802 3.94094 91.4655 4.95603C90.9723 5.96397 90.5863 6.97192 90.379 7.97986ZM99.5005 6.97192C97.7133 7.78685 96.4338 8.47311 95.6903 9.04499C94.9326 9.61687 94.5537 10.2078 94.5537 10.8178C94.5537 11.0251 94.5894 11.2181 94.6681 11.3468C94.7396 11.4826 94.8396 11.5613 94.9683 11.5613C95.0469 11.5613 95.1756 11.5184 95.3686 11.404C96.0906 10.9894 96.7411 10.4175 97.3488 9.75269C97.9421 9.08073 98.6641 8.15142 99.5005 6.97192Z" fill="#DDDDDD"/>
</svg>
