<svg width="108" height="37" viewBox="0 0 108 37" fill="none" xmlns="http://www.w3.org/2000/svg">
<path fill-rule="evenodd" clip-rule="evenodd" d="M9.01027 4.28328V7.7428H12.162H15.3137L15.4816 7.30496L15.6495 6.86713V4.17756V1.488L15.3175 1.15588L14.9856 0.823769H11.9979H9.01027V4.28328ZM16.6744 0.997852L16.4794 1.19269V4.46788V7.7428H21.601H26.7224L27.2029 7.99272L27.6831 8.24236L28.853 8.58858L30.0232 8.93481L31.2586 10.2403L32.4944 11.5458L33.0897 13.3115L33.6853 15.077L33.5215 16.2784L33.3577 17.4795L32.8465 18.6309L32.335 19.7819L31.5535 20.7071L30.772 21.6323L29.6425 22.3677L28.513 23.1031L21.943 23.1941L15.3729 23.2854V16.2399V9.19442L14.9861 8.87337L14.5997 8.55233L11.874 8.63203L9.14859 8.71147L9.07611 19.5743L9.00391 30.4372L17.9284 30.4314L26.8532 30.4256L28.513 30.0439L30.1728 29.662L31.4177 29.202L32.6626 28.7421L33.7691 28.007L34.8756 27.2716L36.1205 25.9728L37.3654 24.6739L37.684 24.2751L38.003 23.8763L38.878 22.1939L39.753 20.5117L40.0625 18.6245L40.3718 16.7375L40.3757 15.6305L40.3796 14.5235L40.0352 12.5861L39.691 10.6488L39.1032 9.40337L38.5156 8.15794L37.6763 6.91252L36.8367 5.66709L35.6049 4.51383L34.3733 3.36084L32.8911 2.61054L31.4089 1.86024L29.6843 1.43098L27.9598 1.00173L22.4146 0.902093L16.8695 0.802734L16.6744 0.997852ZM48.7074 10.7479L47.8775 10.9466L46.5306 11.5632L45.1833 12.1796L43.5855 13.8133L41.9877 15.4473L41.6706 16.5076L41.3536 17.5678L41.0576 18.5656L40.7613 19.5633L40.9057 20.7796L41.0504 21.996L41.3085 23.1388L41.5666 24.2815L42.2062 25.3528L42.8458 26.4242L43.84 27.4825L44.8345 28.5406L46.276 29.2272L47.7176 29.9136L49.1807 30.1469L50.6438 30.3802L52.2655 30.1209L53.8871 29.8616L55.1701 29.2056L56.4532 28.55L57.3185 27.7637L58.1835 26.9777L59.0475 25.6088L59.9111 24.24V23.6023V22.9647H57.2668H54.6227L53.5809 23.8022L52.5391 24.6399L51.1764 24.7899L49.8139 24.9402L48.6084 24.2984L47.4028 23.6566L46.8523 22.7571L46.3018 21.8576H52.6735H59.0452L59.7172 21.6022L60.3889 21.3464L60.5402 20.9526L60.6912 20.5585L60.2962 18.6729L59.9012 16.7874L59.058 15.3131L58.2148 13.8387L57.0574 12.9274L55.8999 12.0163L54.5369 11.3814L53.1739 10.7468L51.3556 10.648L49.5373 10.5489L48.7074 10.7479ZM60.5687 10.9142L60.414 11.318L60.7518 12.3672L61.0899 13.4164L61.2901 13.6932L61.4904 13.9699L62.3815 16.5992L63.2722 19.2284L63.654 20.0587L64.036 20.889L64.4413 21.996L64.8466 23.1031L65.5915 25.0404L66.3365 26.9777L66.765 28.4999L67.1933 30.0221L66.3185 32.7391L65.4438 35.4557V36.1294V36.8027H68.1764H70.9087L71.1779 36.4568L71.4471 36.1108L72.2103 33.8967L72.9733 31.6827L73.3287 30.8524L73.6839 30.0221L74.2953 28.4252L74.9069 26.8283L75.2771 25.6576L75.6472 24.4869L76.3712 22.5495L77.0948 20.6122L78.2885 17.2911L79.4822 13.9699L79.8222 13.1396L80.1619 12.3094L80.2028 11.4791L80.2438 10.6488L78.169 10.5641L76.0943 10.4791L75.2519 10.635L74.4093 10.791L74.056 11.9654L73.7025 13.1396L73.2942 14.6618L72.8858 16.184L72.623 16.7375L72.36 17.2911L71.7895 18.9516L71.2194 20.6122L70.9159 21.6896L70.6125 22.7671L69.6926 19.9209L68.7728 17.0749L68.019 14.4152L67.2652 11.7558L66.876 11.1331L66.4867 10.5104H63.6053H60.7236L60.5687 10.9142ZM87.9896 10.6831L87.4363 10.824L85.9148 11.5259L84.3933 12.228L84.255 12.4071L84.1167 12.5861L83.5634 12.8881L83.0101 13.1903L81.9827 14.6508L80.9556 16.1112L80.5304 17.5739L80.1055 19.0369V20.7135V22.3904L80.6786 23.9228L81.2518 25.4555H81.5086H81.7653V25.812V26.1682L83.0793 27.4302L84.3933 28.6922L85.3734 29.2751L86.3535 29.858L88.0015 30.1167L89.6494 30.3755L91.388 30.1295L93.1267 29.8832L94.431 29.2156L95.7353 28.5478L96.7102 27.4858L97.6848 26.4242L98.3199 25.51L98.9548 24.5959L99.0049 23.8495L99.055 23.1031L96.4117 23.0245L93.7685 22.9459L92.9538 23.6519L92.1391 24.3576L91.0577 24.6524L89.9764 24.9471L88.9924 24.7625L88.0084 24.5776L87.2341 24.0261L86.4598 23.4745L86.0418 22.666L85.6241 21.8576L91.9244 21.8538L98.2251 21.8502L98.822 21.6899L99.4187 21.5297L99.5396 21.0675L99.6605 20.605L99.4564 18.948L99.2522 17.2911L98.9343 16.5992L98.6162 15.9073L98.2549 15.2807L97.8936 14.6544L96.6762 13.4535L95.4587 12.2526L93.826 11.4799L92.1936 10.7072L90.3681 10.6247L88.5428 10.542L87.9896 10.6831ZM53.6605 17.1272L54.6066 18.0447L54.7433 18.5672L54.88 19.09H50.6178H46.356V18.9267V18.7634L47.1112 17.7123L47.8661 16.6614L48.5635 16.3683L49.2607 16.0753L50.9877 16.1425L52.7147 16.21L53.6605 17.1272ZM91.99 16.4552L92.7817 16.8649L93.3596 17.5997L93.9372 18.3345V18.7122V19.09H89.7581H85.579L85.7488 18.6469L85.9187 18.2041L86.5392 17.4267L87.1597 16.6493L87.7129 16.3661L88.2662 16.083L89.7324 16.0645L91.1982 16.0456L91.99 16.4552Z" fill="#DDDDDD"/>
</svg>
