<svg width="142" height="31" viewBox="0 0 142 31" fill="none" xmlns="http://www.w3.org/2000/svg">
<path d="M71.3671 17.7225C70.6353 17.392 69.2661 16.9906 67.2831 16.5421C65.3001 16.0936 64.0725 15.645 63.6004 15.2201C63.1282 14.7952 62.8922 14.2522 62.8922 13.5676C62.8922 12.7886 63.2227 12.1512 63.9073 11.6082C64.5919 11.0652 65.6542 10.782 67.1414 10.782C68.5579 10.782 69.6202 11.0889 70.352 11.679C71.0838 12.2692 71.5088 13.1663 71.6268 14.3466L73.9875 14.1578C73.9403 13.0719 73.6334 12.104 73.0904 11.2305C72.5239 10.3806 71.7212 9.71964 70.6825 9.2711C69.6438 8.82256 68.4162 8.6101 67.047 8.6101C65.7958 8.6101 64.6863 8.82256 63.6476 9.24749C62.6325 9.67242 61.8535 10.2862 61.3341 11.1125C60.8148 11.9387 60.5315 12.8122 60.5315 13.7329C60.5315 14.5827 60.7439 15.3618 61.1689 16.0464C61.5938 16.731 62.2548 17.2975 63.1519 17.7697C63.8365 18.1238 65.0168 18.5251 66.7165 18.9264C68.4162 19.3278 69.5022 19.6347 69.9979 19.8235C70.7769 20.1068 71.3199 20.4845 71.6504 20.9094C71.9809 21.3344 72.1461 21.8537 72.1461 22.4439C72.1461 23.0105 71.9809 23.5534 71.6268 24.0256C71.2727 24.5213 70.7533 24.899 70.0451 25.1823C69.3369 25.4656 68.5107 25.6073 67.59 25.6073C66.5277 25.6073 65.607 25.4184 64.7571 25.0643C63.9309 24.6866 63.2935 24.2144 62.8922 23.6243C62.4909 23.0341 62.2312 22.255 62.1367 21.3344L59.8233 21.5232C59.8469 22.7744 60.201 23.8839 60.8384 24.8518C61.4758 25.8433 62.3728 26.5752 63.506 27.0709C64.6391 27.5667 66.0319 27.8027 67.708 27.8027C69.03 27.8027 70.2104 27.5667 71.2727 27.0709C72.335 26.5752 73.1376 25.9142 73.7042 25.0407C74.2708 24.1672 74.5541 23.2465 74.5541 22.255C74.5541 21.2635 74.2944 20.3665 73.775 19.611C73.2321 18.832 72.453 18.2182 71.3671 17.7225ZM96.8864 8.91699H94.3368V27.4722H105.904V24.9227H96.8864V8.91699ZM113.907 8.91699L107.014 27.4722H109.611L111.523 21.8537H119.455L121.509 27.4722H124.318L117 8.91699H113.907ZM112.207 19.8707L115.347 10.6403L118.723 19.8707H112.207ZM138.458 22.4439C137.821 21.4524 137.231 20.5789 136.735 19.9888C136.452 19.6346 135.98 19.2097 135.531 18.9973C137.16 18.8556 138.034 18.2418 138.883 17.3448C139.733 16.4477 140.158 15.3381 140.158 14.0161C140.158 13.001 139.898 12.0567 139.379 11.2069C138.86 10.357 138.175 9.76685 137.325 9.43635C136.452 9.10585 135.201 8.9406 133.572 8.9406H125.356V27.4958H127.882V19.2569H130.644C131.282 19.2569 131.73 19.2805 132.014 19.3514C132.391 19.4458 132.769 19.611 133.147 19.8471C133.501 20.0832 133.926 20.5081 134.374 21.0983C134.847 21.6885 135.437 22.5383 136.145 23.6479L138.6 27.4958H141.669L138.458 22.4439ZM133.076 17.1323H127.882V10.9708H133.666C135.035 10.9708 136.027 11.2541 136.664 11.8207C137.302 12.3872 137.609 13.1191 137.609 13.9925C137.609 14.5827 137.443 15.1493 137.113 15.6686C136.782 16.188 136.31 16.5421 135.673 16.7782C135.083 17.0143 134.209 17.1323 133.076 17.1323ZM83.9969 8.6101C78.9922 8.6101 76.2774 11.561 75.3803 15.5034C75.2387 16.1408 75.0498 17.3684 75.0498 18.171C75.0498 19.0681 75.2387 20.3665 75.4039 21.0511C76.3482 24.9227 78.945 27.8027 83.9969 27.8027C89.0488 27.8027 91.2915 25.2059 92.4246 21.6177C92.6843 20.7678 92.944 19.375 92.944 18.2182C92.944 17.3211 92.7551 16.0464 92.5899 15.3617C91.6456 11.4666 89.1196 8.6101 83.9969 8.6101ZM90.182 20.272C89.5918 23.3646 87.4435 25.7017 83.9969 25.7017C80.6211 25.7017 78.6145 23.5534 77.8827 20.6498C77.7646 20.2012 77.623 19.5874 77.5758 17.9821C77.5758 17.3448 77.7882 16.1172 77.8355 15.9283C78.4728 12.9538 80.4558 10.7347 83.9733 10.7347C87.4435 10.7347 89.3085 12.8122 90.0639 15.645C90.1347 15.9283 90.3708 17.1087 90.3944 18.0058C90.418 19.0445 90.2528 19.9415 90.182 20.272Z" fill="#DDDDDD"/>
<path d="M43.1803 5.3051C42.3304 3.77063 41.1265 2.80273 39.8281 2.80273C38.5297 2.80273 37.3493 3.74702 36.5231 5.23427L23.0906 27.7791H28.6619L39.8517 8.96421L44.3134 16.4949H37.4437L34.8942 20.7914H46.8866L51.0414 27.8027H56.5655L43.1803 5.3051Z" fill="#DDDDDD"/>
<path d="M22.0991 16.6129C22.0991 20.6262 20.9188 23.5534 18.5345 25.3948C16.4098 27.0001 13.2701 27.8027 9.09165 27.8027H0.00292969V23.459H9.06805C11.8773 23.459 13.9547 23.0341 15.3003 22.1842C16.9292 21.1219 17.7318 19.2569 17.7318 16.6129V2.92077H22.0991V16.6129Z" fill="#DDDDDD"/>
</svg>
