<svg width="108" height="31" viewBox="0 0 108 31" fill="none" xmlns="http://www.w3.org/2000/svg">
<path fill-rule="evenodd" clip-rule="evenodd" d="M11.8974 1.11562C4.11821 2.79158 -1.4441 11.2208 0.336554 18.6352C0.396095 18.8826 0.493411 19.3682 0.552952 19.7145C0.716645 20.6663 1.93876 23.206 2.83295 24.453C9.54524 33.8137 23.723 32.6077 28.5217 22.2678C29.499 20.1619 29.5242 20.0991 29.7541 19.1961C32.3381 9.04841 22.2917 -1.12392 11.8974 1.11562ZM50.6146 3.33032C50.6146 4.45459 50.6902 5.31964 50.7912 5.354C50.8884 5.38692 51.9812 5.38907 53.2197 5.35867L55.4714 5.30345V3.335V1.36655H53.043H50.6146V3.33032ZM44.6573 8.08676C43.6114 8.46667 42.7725 9.05777 41.8983 10.0302L41.0809 10.9392V9.57061V8.20207H38.6525H36.2241V17.0163V25.8305H38.6525H41.0809V20.1565V14.4825L41.8968 13.6102C43.111 12.3122 44.1941 11.9046 46.0765 12.0375L47.5679 12.1427L47.5172 10.0376L47.4667 7.93225L46.3874 7.89123C45.7938 7.86875 45.0152 7.95671 44.6573 8.08676ZM62.4273 8.20315C59.8121 9.1326 58.5294 10.8005 58.5294 13.2713C58.5294 15.7613 59.7778 16.904 64.6929 18.9133C66.421 19.6199 67.1997 20.3346 67.1997 21.2138C67.1997 23.3487 63.6929 23.7338 59.4565 22.064C58.9394 21.86 58.4787 21.6932 58.4328 21.6932C58.1495 21.6932 58.3709 25.1097 58.6643 25.2642C60.3763 26.1669 65.9952 26.4106 68.1272 25.6746C70.4845 24.8608 71.9675 23.1942 72.1527 21.1502C72.4197 18.2064 70.82 16.6135 65.7247 14.75C60.5488 12.8569 63.9332 9.73107 69.3223 11.4272C70.967 11.9447 70.8817 12.0161 70.8623 10.1394L70.8452 8.47891L69.8589 8.23948C68.0169 7.79212 63.6438 7.77089 62.4273 8.20315ZM79.736 8.10295C71.1641 10.467 71.9536 23.9704 80.7788 25.9338C83.2822 26.4909 89.4421 25.8024 89.484 24.9611C89.647 21.692 89.7265 21.8064 87.6677 22.3485C83.3738 23.4791 80.2507 22.5203 79.2128 19.7527C78.5371 17.9511 78.1058 18.0956 84.1626 18.0956H89.4691V16.649C89.4691 10.191 85.3331 6.55957 79.736 8.10295ZM101.011 8.13263C99.7069 8.58953 98.5877 9.41034 97.5188 10.6936L97.0241 11.2876V9.74492V8.20207H94.5957H92.1673V17.0163V25.8305H94.5957H97.0241V20.1736V14.5168L98.1484 13.3532C99.5507 11.9015 100.651 11.515 102.019 11.9922C103.094 12.3665 103.14 12.6836 103.14 19.6068V25.8305H105.569H107.997V19.4778C107.997 12.7135 107.887 11.4685 107.18 10.2504C106.005 8.22347 103.352 7.31255 101.011 8.13263ZM50.6146 17.0163V25.8305H53.043H55.4714V17.0163V8.20207H53.043H50.6146V17.0163ZM83.4961 11.4137C84.1298 11.8648 84.5646 12.8605 84.7254 14.2278L84.8416 15.2175H81.7748H78.708L78.962 14.1292C79.6213 11.3032 81.6415 10.0932 83.4961 11.4137Z" fill="#DDDDDD"/>
</svg>
