<svg width="121" height="31" viewBox="0 0 121 31" fill="none" xmlns="http://www.w3.org/2000/svg">
<path fill-rule="evenodd" clip-rule="evenodd" d="M18.8887 11.5316C14.4841 11.5316 10.9241 15.0916 10.9241 19.4962C10.9241 20.703 11.1856 21.8293 11.6683 22.8349H4.62884V12.0747H0.00292969V27.0586H10.019L12.1309 23.7199C13.5388 25.9725 16.0327 27.4608 18.8686 27.4608C23.2733 27.4608 26.8332 23.9009 26.8332 19.4962C26.8533 15.0916 23.2733 11.5316 18.8887 11.5316ZM18.8887 23.2573C16.8171 23.2573 15.1277 21.5678 15.1277 19.4962C15.1277 17.4246 16.8171 15.7352 18.8887 15.7352C20.9603 15.7352 22.6498 17.4246 22.6498 19.4962C22.6498 21.5678 20.9603 23.2573 18.8887 23.2573Z" fill="#DDDDDD"/>
<path fill-rule="evenodd" clip-rule="evenodd" d="M38.3578 21.2661L32.7464 12.0747H28.1204V27.0385H32.2033V17.847L37.7946 27.0385H42.4206V12.0747H38.3578V21.2661Z" fill="#DDDDDD"/>
<path fill-rule="evenodd" clip-rule="evenodd" d="M59.3554 18.0883H51.6322V20.7432H55.4133C54.8904 22.3321 53.4021 23.4584 51.6322 23.4584C49.4198 23.4584 47.6498 21.6684 47.6498 19.4761C47.6498 17.2637 49.4399 15.4938 51.6322 15.4938C52.678 15.4938 53.6434 15.9162 54.3474 16.5799H59.0336C57.8671 13.6233 54.991 11.5316 51.612 11.5316C47.2074 11.5316 43.6474 15.0916 43.6474 19.4962C43.6474 23.9009 47.2074 27.4608 51.612 27.4608C56.0167 27.4608 59.5767 23.9009 59.5767 19.4962C59.5767 19.0135 59.5364 18.5509 59.456 18.1084H59.3554V18.0883Z" fill="#DDDDDD"/>
<path d="M65.8116 2.80273H61.1656V7.42864H65.8116V2.80273Z" fill="#DDDDDD"/>
<path d="M65.8116 11.9942H61.1656V27.4206H65.8116V11.9942Z" fill="#DDDDDD"/>
<path fill-rule="evenodd" clip-rule="evenodd" d="M80.1318 19.3554C79.6089 19.0537 78.9251 18.7319 78.02 18.4101L76.3707 17.7062C76.3707 17.7062 75.0835 17.2838 75.164 16.057C75.164 16.057 75.1439 15.6748 75.4254 15.3128C76.592 13.744 80.4134 14.8502 81.6201 15.6748V14.0256L81.6604 12.7786C81.6604 12.7786 80.9967 12.4568 79.8905 12.2154C78.3418 11.8936 76.8534 11.8735 75.345 12.4166C73.9572 12.8993 72.4488 13.9652 72.2879 16.238C72.2879 16.238 71.9057 18.9331 75.2847 20.3208C75.2847 20.3208 76.5518 20.7834 77.316 21.0851C77.316 21.0851 79.2871 21.7689 79.1262 23.1768C79.1262 23.1768 79.086 24.0417 78.1809 24.4842C76.6724 25.2283 73.9572 24.4238 72.6499 23.8808L72.2879 23.6998V26.5557C74.2187 27.4809 76.7931 27.6821 78.8647 27.0586C80.6547 26.5155 82.1632 24.8864 82.2638 22.9556C82.304 21.246 81.5598 20.18 80.1318 19.3554Z" fill="#DDDDDD"/>
<path fill-rule="evenodd" clip-rule="evenodd" d="M111.045 23.9411V19.6169C111.045 19.1141 110.944 18.6515 110.763 18.2492C110.582 17.847 110.321 17.5051 109.999 17.2034C109.677 16.9218 109.315 16.6804 108.893 16.4994C108.43 16.2983 107.928 16.1776 107.405 16.0972C106.882 16.0368 106.359 16.0167 105.856 16.0771C105.353 16.1374 104.87 16.238 104.448 16.419C103.985 16.6 103.543 16.8615 103.141 17.1833C102.738 17.5252 102.397 17.9073 102.135 18.39C101.874 18.8325 101.693 19.3152 101.592 19.8582H104.287C104.327 19.637 104.408 19.4359 104.508 19.2549C104.649 18.9934 104.83 18.7923 105.072 18.6314C105.273 18.4906 105.494 18.3699 105.755 18.2895C106.017 18.209 106.278 18.1688 106.54 18.1688C106.801 18.1688 107.063 18.209 107.324 18.2895C107.545 18.3498 107.666 18.4504 107.847 18.571C108.008 18.6917 108.149 18.8526 108.249 19.0537C108.35 19.2549 108.39 19.4761 108.39 19.7376V20.3409C107.022 20.703 105.856 20.9845 104.247 21.3265C103.804 21.427 103.422 21.5477 103.08 21.7287C102.738 21.9097 102.457 22.1511 102.195 22.4125C101.954 22.674 101.753 22.9757 101.612 23.2975C101.451 23.6796 101.351 24.0819 101.331 24.4841C101.31 24.9065 101.371 25.3088 101.512 25.6909C101.652 26.073 101.874 26.4351 102.175 26.7368C102.457 27.0183 102.819 27.2597 103.241 27.4407C103.664 27.6217 104.166 27.7424 104.75 27.7826C105.554 27.843 106.298 27.7625 106.962 27.5413C107.626 27.32 108.229 26.9781 108.752 26.4954C108.792 26.6563 108.833 26.8373 108.893 26.9781C108.953 27.139 108.993 27.2999 109.074 27.4608H111.809C111.568 26.8776 111.387 26.3144 111.266 25.7311C111.105 25.1479 111.045 24.5646 111.045 23.9411ZM108.35 23.4584C108.35 23.8607 108.249 24.2026 108.068 24.5043C107.887 24.806 107.706 25.0674 107.405 25.2685C107.183 25.4093 106.942 25.53 106.66 25.6306C106.399 25.711 106.117 25.7714 105.836 25.8116C105.554 25.8317 105.353 25.8317 105.072 25.7915C104.83 25.7512 104.609 25.6909 104.448 25.5702C104.267 25.4697 104.146 25.3289 104.046 25.168C103.945 25.0071 103.885 24.8462 103.865 24.6652C103.845 24.4439 103.865 24.2026 103.985 23.9813C104.086 23.7601 104.267 23.559 104.508 23.3981C104.75 23.2372 105.051 23.1366 105.434 23.0562C106.6 22.7947 107.203 22.6338 108.37 22.3924V23.4584H108.35Z" fill="#DDDDDD"/>
<path fill-rule="evenodd" clip-rule="evenodd" d="M94.3112 18.8727C94.0699 18.4302 93.7883 18.028 93.4263 17.666C92.9235 17.143 92.3402 16.7408 91.6765 16.4793C91.0128 16.1977 90.3088 16.057 89.5445 16.057C89.0015 16.057 88.4786 16.1374 87.9758 16.2983C87.4729 16.4391 87.0103 16.6603 86.5679 16.9419C86.1455 17.2235 85.7432 17.5654 85.4214 17.9677C84.979 18.4906 84.6371 19.094 84.4158 19.7577C84.1745 20.4214 84.0538 21.1455 84.0538 21.9097C84.0538 22.7947 84.1946 23.5992 84.4762 24.3434C84.7577 25.0875 85.1801 25.7311 85.7432 26.2742C86.0651 26.596 86.4271 26.8574 86.8494 27.0787C87.2517 27.2999 87.6942 27.4809 88.1367 27.6016C88.5993 27.7223 89.0618 27.7826 89.5445 27.8027C90.1077 27.8027 90.6306 27.7223 91.1334 27.5614C91.6363 27.4005 92.0989 27.1792 92.5413 26.8977C92.9838 26.6161 93.366 26.2541 93.7079 25.8719C94.1503 25.349 94.4721 24.7456 94.6934 24.0819C94.9347 23.3981 95.0353 22.6941 95.0353 21.9298C95.0353 21.3667 94.975 20.8438 94.8543 20.3409C94.7336 19.7979 94.5526 19.3353 94.3112 18.8727ZM92.1793 23.2975C92.0184 23.74 91.7972 24.102 91.5156 24.3836C91.234 24.6652 90.9122 24.8663 90.5703 25.0071C90.2284 25.1479 89.8462 25.2082 89.4842 25.1881C89.1222 25.1881 88.7803 25.1076 88.4585 24.9669C88.1367 24.8261 87.835 24.6249 87.5735 24.3434C87.312 24.0618 87.0908 23.7199 86.9098 23.3176C86.7891 22.9958 86.7087 22.6338 86.6885 22.2516C86.6684 21.8695 86.6885 21.4874 86.769 21.1253C86.8494 20.7432 86.9701 20.4214 87.1511 20.0996C87.3322 19.7979 87.5534 19.5364 87.7947 19.3152C88.0361 19.1141 88.3177 18.9331 88.5992 18.8325C88.8808 18.7118 89.1825 18.6515 89.4842 18.6314C89.7859 18.6113 90.0876 18.6515 90.3893 18.752C90.691 18.8526 90.9725 18.9934 91.234 19.1945C91.4955 19.3957 91.7368 19.6571 91.938 19.9588C92.1592 20.2806 92.3 20.6225 92.3804 21.0047C92.4609 21.3868 92.5011 21.7689 92.4609 22.1511C92.3804 22.5533 92.3 22.9355 92.1793 23.2975Z" fill="#DDDDDD"/>
<path d="M99.5405 12.0344H96.8454V27.4206H99.5405V12.0344Z" fill="#DDDDDD"/>
<path fill-rule="evenodd" clip-rule="evenodd" d="M119.291 16.0771C117.24 16.0167 116.496 17.2838 116.234 17.8671V16.0368H113.539V27.4005H116.234V22.1712C116.375 21.0851 116.958 19.7175 117.984 19.0336C118.688 18.5509 119.633 18.39 120.659 18.9934V16.3989C119.975 16.1374 119.291 16.0771 119.291 16.0771Z" fill="#DDDDDD"/>
</svg>
