<svg width="108" height="51" viewBox="0 0 108 51" fill="none" xmlns="http://www.w3.org/2000/svg">
<path d="M23.6128 34.5803C19.474 34.5803 16.4191 33.447 14.0039 31.0059L15.729 29.1961C17.6019 31.2676 20.1144 32.2525 23.5178 32.2525C28.1461 32.2525 30.6594 30.5421 30.6594 27.1766C30.6594 24.5824 29.2307 23.2846 26.1261 22.9747L22.1842 22.6112C17.405 22.1964 15.0373 19.9688 15.0373 16.0829C15.0373 11.7815 18.3893 8.98376 23.5615 8.98376C26.5552 8.91308 29.4869 9.84335 31.8911 11.6269L30.2174 13.3877C28.3022 11.9496 25.9565 11.2007 23.5615 11.2627C19.6709 11.2627 17.5023 13.025 17.5023 16.0829C17.5023 18.6732 18.9807 19.9688 22.332 20.281L26.1766 20.643C30.1163 21.0049 33.1244 22.2997 33.1244 27.1766C33.1244 31.7329 29.4291 34.5803 23.6128 34.5803Z" fill="#DDDDDD"/>
<path d="M64.514 34.2732C60.6709 34.2732 58.7964 31.682 58.7964 27.7961V1.11526H61.3113V27.7449C61.3113 30.5426 62.147 31.9407 64.959 31.9407H66.6833V34.2732L64.514 34.2732Z" fill="#DDDDDD"/>
<path d="M71.3778 4.69161C70.989 4.71692 70.6015 4.6252 70.2654 4.42829C69.9293 4.23138 69.66 3.93832 69.4923 3.58698C69.3246 3.23563 69.2663 2.84212 69.3247 2.45728C69.3831 2.07244 69.5557 1.71394 69.8202 1.42809C70.0846 1.14223 70.4288 0.942147 70.8083 0.853678C71.1877 0.765209 71.585 0.792417 71.9488 0.931788C72.3126 1.07116 72.6262 1.31629 72.8491 1.63553C73.0721 1.95476 73.1941 2.33344 73.1994 2.72265C73.2158 3.22416 73.0339 3.71197 72.693 4.08047C72.3521 4.44898 71.8796 4.66853 71.3778 4.69161ZM70.0955 9.29531H72.6096V34.2728H70.0955V9.29531Z" fill="#DDDDDD"/>
<path d="M84.8514 34.5804C80.705 34.5804 77.6417 33.447 75.228 31.0059L76.9515 29.1961C78.8267 31.2676 81.3446 32.2525 84.7541 32.2525C89.3931 32.2525 91.9064 30.5422 91.9064 27.1766C91.9064 24.5825 90.477 23.2846 87.3701 22.9747L83.4228 22.6112C78.6306 22.1965 76.2621 19.9688 76.2621 16.0829C76.2621 11.7815 79.6157 8.98379 84.8016 8.98379C87.7976 8.9128 90.7315 9.84302 93.1381 11.6269L91.4644 13.3878C89.5467 11.9494 87.1988 11.2005 84.8016 11.2627C80.9011 11.2627 78.7302 13.025 78.7302 16.0829C78.7302 18.6733 80.2101 19.9688 83.5676 20.2811L87.4175 20.643C91.3641 21.005 94.3707 22.2998 94.3707 27.1766C94.3707 31.7329 90.6746 34.5804 84.8514 34.5804Z" fill="#DDDDDD"/>
<path d="M52.348 31.8356C50.4624 33.5992 47.9761 34.5805 45.393 34.5805C42.81 34.5805 40.3236 33.5992 38.438 31.8356C35.7922 29.1924 35.3234 25.3555 35.3234 21.778C35.3234 18.1998 35.7922 14.3628 38.438 11.7181C40.3229 9.95314 42.8095 8.97094 45.393 8.97094C47.9765 8.97094 50.4631 9.95314 52.348 11.7181C54.9923 14.3628 55.4604 18.1997 55.4604 21.778C55.4604 25.3555 54.9923 29.1925 52.348 31.8356ZM50.5816 13.43C49.199 12.0673 47.3348 11.3034 45.3926 11.3034C43.4504 11.3034 41.5863 12.0673 40.2036 13.43C38.1262 15.5038 37.9699 18.8731 37.9699 21.778C37.9699 24.6806 38.1262 28.0522 40.2036 30.1253C41.5865 31.4875 43.4506 32.2511 45.3926 32.2511C47.3347 32.2511 49.1987 31.4875 50.5816 30.1253C52.6575 28.0522 52.813 24.6806 52.813 21.778C52.813 18.8732 52.6575 15.5038 50.5816 13.43Z" fill="#DDDDDD"/>
<path d="M93.5961 48.1537C93.6055 47.7846 93.5374 47.4175 93.3962 47.0763C93.2764 46.8023 93.0871 46.5644 92.8469 46.386C92.5979 46.2079 92.3179 46.0773 92.0212 46.0011C91.6828 45.9111 91.3369 45.8525 90.9878 45.8259L89.5447 45.6965C89.0515 45.6892 88.5718 45.5347 88.1674 45.2527C88.0185 45.1226 87.9017 44.9598 87.8262 44.7772C87.7508 44.5945 87.7186 44.3969 87.7323 44.1997C87.7216 43.9566 87.7696 43.7144 87.8721 43.4937C87.9746 43.2729 88.1287 43.0799 88.3213 42.931C88.8202 42.6036 89.4115 42.4458 90.0073 42.481C90.4678 42.4774 90.9262 42.5419 91.3678 42.6723C91.7759 42.7959 92.1602 42.9873 92.5045 43.2386L93.1334 42.6104C92.8603 42.4057 92.5632 42.2351 92.2487 42.1022C91.9074 41.9592 91.5521 41.852 91.1885 41.7824C90.7997 41.7044 90.4039 41.666 90.0073 41.6676C89.4279 41.6579 88.8524 41.7649 88.3152 41.9821C87.8706 42.1657 87.4862 42.4697 87.2053 42.8598C86.938 43.255 86.7991 43.7229 86.8077 44.1998C86.7912 44.5039 86.8428 44.808 86.9586 45.0898C87.0744 45.3716 87.2515 45.6241 87.4772 45.829C88.0563 46.2701 88.7614 46.5149 89.4895 46.5276L90.9694 46.657C91.4347 46.6676 91.885 46.8227 92.2579 47.1008C92.4009 47.2345 92.5122 47.3984 92.5836 47.5806C92.655 47.7628 92.6848 47.9586 92.6708 48.1538C92.6846 48.4199 92.6284 48.685 92.5079 48.9228C92.3873 49.1605 92.2066 49.3626 91.9837 49.509C91.3769 49.8505 90.684 50.0089 89.9889 49.9651C89.4185 49.9759 88.8506 49.8849 88.3121 49.6965C87.8384 49.5235 87.4118 49.242 87.0666 48.8746L86.4186 49.5213C86.8634 49.9508 87.3955 50.2797 87.9789 50.4855C88.6386 50.7042 89.3308 50.8092 90.0257 50.7961C90.6723 50.8077 91.3154 50.6982 91.9216 50.4732C92.4112 50.2921 92.8391 49.9758 93.1556 49.561C93.4502 49.1515 93.6046 48.6579 93.5961 48.1537ZM84.6621 42.5178C84.383 42.2291 84.0453 42.0034 83.6716 41.8558C83.3012 41.7235 82.9098 41.6597 82.5165 41.6676C82.1674 41.6664 81.8201 41.7175 81.4862 41.8191C81.1626 41.9146 80.8568 42.0622 80.5808 42.2561C80.3121 42.4443 80.0837 42.6842 79.909 42.9616V41.7786H78.9652V50.6852H79.909V45.1977C79.9067 44.8487 79.9597 44.5016 80.066 44.1692C80.1645 43.8557 80.3201 43.5631 80.5248 43.306C80.728 43.0569 80.9842 42.8561 81.2748 42.7183C81.5937 42.5693 81.9423 42.4944 82.2943 42.4994C82.512 42.4942 82.7296 42.515 82.9424 42.5614C83.1279 42.6047 83.3049 42.6784 83.4663 42.7795C83.6525 42.9 83.824 43.0418 83.9773 43.2019L84.6621 42.5178ZM74.0267 45.6774H68.7734C68.7826 45.4685 68.7918 45.2864 68.8071 45.1357C68.8201 44.9818 68.8385 44.8464 68.8592 44.7263C68.8832 44.6067 68.9134 44.4884 68.9496 44.3719C68.9864 44.2579 69.0323 44.1317 69.0883 43.9962C69.213 43.6959 69.3984 43.4244 69.6329 43.1988C69.863 42.9751 70.1354 42.7992 70.4341 42.6815C71.0546 42.4387 71.744 42.4387 72.3645 42.6815C72.6652 42.8003 72.9392 42.9778 73.1705 43.2035C73.4019 43.4292 73.5859 43.6987 73.7119 43.9962C73.7678 44.1317 73.8138 44.2579 73.8506 44.3719C73.8843 44.489 73.9157 44.6061 73.9379 44.7263C73.9638 44.8616 73.9822 44.9983 73.993 45.1357C74.0046 45.2864 74.0176 45.4685 74.0267 45.6774ZM74.9705 46.435V46.0103C74.9877 45.2107 74.8404 44.416 74.5377 43.6756C74.2866 43.0694 73.8591 42.5525 73.3105 42.1918C72.7385 41.8346 72.0744 41.6524 71.4001 41.6676C70.7187 41.6508 70.0485 41.8422 69.4789 42.2163C68.9276 42.6044 68.5031 43.1463 68.2587 43.7743C67.9568 44.5579 67.8111 45.3928 67.8297 46.2322C67.749 47.4433 68.0936 48.6446 68.8041 49.6292C69.1539 50.0251 69.5897 50.336 70.0781 50.5382C70.5664 50.7405 71.0946 50.8287 71.6222 50.7961C72.0576 50.802 72.4919 50.7502 72.9137 50.6423C73.2748 50.5455 73.6179 50.3915 73.9302 50.1863C74.2594 49.966 74.5646 49.7121 74.841 49.4287L74.1378 48.8746C73.9131 49.1052 73.6649 49.3117 73.3971 49.4906C73.1566 49.6473 72.8922 49.7639 72.6142 49.8358C72.308 49.9128 71.9931 49.9498 71.6774 49.946C71.1189 49.9634 70.5669 49.8214 70.0864 49.5366C69.644 49.2518 69.3016 48.8364 69.1066 48.3481C68.8689 47.739 68.7556 47.0886 68.7734 46.435H74.9705ZM64.7595 50.6852V49.8541H64.1114C63.9203 49.8683 63.7284 49.8406 63.5491 49.7729C63.3698 49.7052 63.2075 49.5992 63.0735 49.4623C62.8343 49.1525 62.7169 48.766 62.7434 48.3757V42.481H64.7595V41.7785H62.7434V38.9334H61.8004V41.7785H60.5794V42.481H61.8004V48.3573C61.7934 48.7714 61.8763 49.182 62.0432 49.561C62.1979 49.8991 62.4489 50.1842 62.7648 50.3806C63.1218 50.591 63.5309 50.6965 63.9452 50.6852H64.7595ZM58.7662 42.5178C58.4874 42.2295 58.1502 42.0038 57.7773 41.8558C57.4066 41.7236 57.0149 41.6598 56.6214 41.6676C56.2723 41.6665 55.925 41.7175 55.5911 41.8191C55.2672 41.9146 54.9612 42.0622 54.6849 42.2561C54.4164 42.4445 54.188 42.6843 54.0131 42.9616V41.7786H53.0694V50.6852H54.0131V45.1977C54.0108 44.8487 54.0638 44.5016 54.1701 44.1692C54.2689 43.8556 54.4247 43.563 54.6297 43.306C54.8325 43.0567 55.0884 42.8559 55.3789 42.7183C55.6981 42.5693 56.0469 42.4945 56.3992 42.4994C56.6167 42.4941 56.834 42.5149 57.0465 42.5614C57.232 42.6047 57.4091 42.6784 57.5704 42.7795C57.7569 42.9 57.9286 43.0417 58.0821 43.2019L58.7662 42.5178ZM48.1309 45.6774H42.8783C42.8875 45.4685 42.8967 45.2864 42.912 45.1357C42.9243 44.9818 42.9426 44.8464 42.9641 44.7263C42.9894 44.6061 43.0169 44.489 43.0537 44.3719C43.0905 44.2579 43.1372 44.1317 43.1924 43.9962C43.3177 43.696 43.5033 43.4246 43.7378 43.1988C43.9681 42.9749 44.2407 42.799 44.5398 42.6815C45.16 42.4387 45.8491 42.4387 46.4694 42.6815C46.7681 42.7992 47.0405 42.9751 47.2706 43.1988C47.5053 43.4245 47.6912 43.6959 47.8168 43.9962C47.8719 44.1317 47.9179 44.2579 47.9554 44.3719C47.9905 44.4884 48.0192 44.6067 48.0412 44.7263C48.0685 44.8614 48.0872 44.9981 48.0972 45.1357C48.1094 45.2864 48.1217 45.4685 48.1309 45.6774ZM49.0746 46.435V46.0103C49.0916 45.2108 48.9446 44.4162 48.6426 43.6756C48.3912 43.0695 47.9638 42.5527 47.4154 42.1918C46.8431 41.8346 46.1788 41.6524 45.5042 41.6676C44.823 41.6507 44.153 41.8421 43.5838 42.2163C43.0322 42.6043 42.6075 43.1463 42.3628 43.7743C42.0612 44.5579 41.9157 45.3929 41.9346 46.2322C41.8535 47.4434 42.1981 48.6447 42.9089 49.6292C43.2587 50.0251 43.6943 50.336 44.1825 50.5382C44.6708 50.7405 45.1988 50.8287 45.7263 50.7961C46.1617 50.802 46.596 50.7503 47.0178 50.6423C47.3792 50.5451 47.7228 50.3911 48.0359 50.1863C48.3642 49.9656 48.6689 49.7117 48.9451 49.4287L48.2419 48.8746C48.0173 49.105 47.7693 49.3115 47.502 49.4906C47.2613 49.647 46.9969 49.7636 46.7191 49.8358C46.4129 49.9128 46.098 49.9498 45.7823 49.946C45.2237 49.9636 44.6717 49.8216 44.1912 49.5366C43.7487 49.2519 43.406 48.8365 43.2107 48.3481C42.9737 47.7389 42.8607 47.0885 42.8783 46.435H49.0746ZM39.6411 41.7785H38.6055L35.9229 49.5764L33.2411 41.7785H32.2054L35.461 50.6852H36.3856L39.6411 41.7785ZM29.3198 50.6852V44.9941C29.3278 44.5102 29.2463 44.0289 29.0793 43.5746C28.9335 43.1755 28.6997 42.8143 28.3953 42.5178C28.1026 42.2367 27.7539 42.0205 27.3719 41.8834C26.9395 41.7349 26.4847 41.6619 26.0275 41.6676C25.5246 41.6601 25.0257 41.759 24.5637 41.9576C24.1149 42.1577 23.7173 42.4567 23.4008 42.8323V41.7785H22.4579V50.6852H23.4008V45.1601C23.3876 44.6641 23.4902 44.1718 23.7004 43.7222C23.8854 43.3394 24.1846 43.0231 24.5568 42.817C24.9752 42.5962 25.4434 42.4868 25.9164 42.4994C26.2525 42.4777 26.5893 42.5277 26.9044 42.6462C27.2196 42.7647 27.5058 42.9489 27.7441 43.1865C28.1981 43.7404 28.4243 44.4459 28.3769 45.1601V50.6851L29.3198 50.6852ZM17.9261 41.7785H16.9832V50.6852H17.9261V41.7785ZM18.0372 37.5292H16.8721V38.6931H18.0372V37.5292Z" fill="#DDDDDD"/>
</svg>
