<svg width="135" height="23" viewBox="0 0 135 23" fill="none" xmlns="http://www.w3.org/2000/svg">
<path d="M12.8655 12.8786L16.0687 16.9465C15.2392 17.7583 14.2597 18.3848 13.1391 18.8084C12.0184 19.232 10.8272 19.4437 9.54768 19.4437C8.26818 19.4437 7.05928 19.232 5.91214 18.8084C4.76501 18.3848 3.75024 17.776 2.87666 16.973C2.00307 16.17 1.30597 15.1993 0.785344 14.061C0.264722 12.9227 0 11.6256 0 10.1961C0 8.76657 0.264722 7.46943 0.785344 6.33112C1.30597 5.19282 2.01189 4.21334 2.8943 3.41917C3.77671 2.61618 4.79148 2.00731 5.93862 1.58375C7.08575 1.1602 8.29465 0.948418 9.54768 0.948418C10.9507 0.948418 12.2126 1.22197 13.3332 1.76024C14.4539 2.29851 15.3628 3.04856 16.0599 4.01038L12.8567 7.51355C12.4685 7.0547 11.992 6.65761 11.436 6.31347C10.8801 5.96933 10.2536 5.80167 9.54768 5.80167C9.06235 5.80167 8.57703 5.89874 8.10052 6.08404C7.62402 6.26935 7.20929 6.55173 6.8475 6.93116C6.48571 7.3106 6.20334 7.76945 5.98274 8.31655C5.76214 8.86364 5.65624 9.49897 5.65624 10.2137C5.65624 10.9285 5.76214 11.5638 5.98274 12.1109C6.20334 12.658 6.49454 13.1169 6.8475 13.4963C7.20929 13.8757 7.62402 14.1581 8.10052 14.3434C8.57703 14.5287 9.05353 14.6258 9.54768 14.6258C10.2977 14.6258 10.9419 14.4758 11.4802 14.1846C12.0184 13.8934 12.4773 13.4698 12.8479 12.9139L12.8655 12.8786Z" fill="#282828"/>
<path d="M25.3277 0.930664C26.5984 0.930664 27.8161 1.14244 28.9632 1.566C30.1104 1.98956 31.1252 2.59842 31.9987 3.40142C32.8723 4.20441 33.5694 5.17506 34.09 6.31336C34.6107 7.45167 34.8754 8.74881 34.8754 10.1783C34.8754 11.6078 34.6107 12.905 34.09 14.0433C33.5694 15.1816 32.8723 16.1611 31.9987 16.9552C31.1252 17.7582 30.1104 18.3671 28.9632 18.7906C27.8161 19.2142 26.5984 19.426 25.3277 19.426C24.057 19.426 22.8393 19.2142 21.6922 18.7906C20.5451 18.3671 19.5303 17.7582 18.6567 16.9552C17.7831 16.1522 17.086 15.1816 16.5654 14.0433C16.0448 12.905 15.78 11.6078 15.78 10.1783C15.7977 8.73999 16.0624 7.45167 16.5919 6.31336C17.1125 5.17506 17.8096 4.19558 18.6832 3.40142C19.5568 2.59842 20.5627 1.98956 21.7098 1.566C22.8481 1.14244 24.057 0.930664 25.3365 0.930664H25.3277ZM21.4363 10.1871C21.4363 10.9019 21.5422 11.5372 21.7628 12.0843C21.9834 12.6314 22.2746 13.0903 22.6275 13.4697C22.9893 13.8491 23.4041 14.1315 23.8806 14.3168C24.3571 14.5021 24.8336 14.5992 25.3277 14.5992C25.8219 14.5992 26.316 14.5021 26.7837 14.3168C27.2514 14.1315 27.6573 13.8491 28.0191 13.4697C28.3809 13.0903 28.6721 12.6314 28.8927 12.0843C29.1133 11.5372 29.2191 10.9019 29.2191 10.1871C29.2191 9.47239 29.1133 8.83706 28.8927 8.28996C28.6721 7.74287 28.3809 7.28401 28.0191 6.90458C27.6573 6.52514 27.2514 6.2516 26.7837 6.05746C26.316 5.87216 25.8307 5.77509 25.3277 5.77509C24.8247 5.77509 24.3571 5.87216 23.8806 6.05746C23.4041 6.24277 22.9893 6.52514 22.6275 6.90458C22.2658 7.28401 21.9834 7.74287 21.7628 8.28996C21.5422 8.83706 21.4363 9.47239 21.4363 10.1871Z" fill="#282828"/>
<path d="M37.0801 19.0038V1.37322H42.5157V7.6648H46.2571V1.37322H51.6928V19.0038H46.2571V12.0769H42.5157V19.0038H37.0801Z" fill="#282828"/>
<path d="M55.2197 1.37228H60.6554V14.5908H64.4056V1.37228H69.8413V14.5908H71.6061V21.35L66.9823 22.303V18.994H55.2285V1.36346L55.2197 1.37228Z" fill="#282828"/>
<path d="M73.586 19.0038V1.37322H85.4367L84.4837 5.77645H78.951V7.88541H84.0425L83.1337 12.0769H78.9422V14.6005H85.4279L84.4749 19.0126H73.5771L73.586 19.0038Z" fill="#282828"/>
<path d="M87.6426 19.0038V1.37322H100.57L99.6169 5.77645H93.0076V8.00894H95.0637C95.9814 8.00894 96.8285 8.10601 97.6138 8.29131C98.3992 8.47662 99.0786 8.78547 99.661 9.2002C100.243 9.61494 100.693 10.162 101.029 10.8415C101.364 11.5209 101.532 12.3592 101.532 13.3475C101.532 14.4241 101.364 15.3241 101.029 16.0565C100.693 16.7801 100.235 17.3625 99.661 17.8037C99.0786 18.2449 98.3992 18.5537 97.6138 18.7302C96.8285 18.9067 95.9814 19.0038 95.0637 19.0038H87.6426ZM93.0076 11.9798V14.8212H93.9871C94.7019 14.8212 95.2137 14.6888 95.5049 14.4329C95.7961 14.1682 95.9461 13.8152 95.9461 13.3564C95.9461 12.9769 95.7961 12.6592 95.5049 12.3857C95.2137 12.1122 94.7019 11.9798 93.9871 11.9798H93.0076Z" fill="#282828"/>
<path d="M118.2 1.37322L112.57 15.1123C112.014 16.4713 111.343 17.5301 110.549 18.2978C109.755 19.0655 108.678 19.445 107.302 19.445C106.587 19.445 105.987 19.4009 105.511 19.3214C105.034 19.242 104.619 19.1361 104.258 19.0038L105.431 14.5741C105.643 14.7064 105.908 14.8123 106.217 14.9006C106.525 14.9888 106.799 15.0329 107.028 15.0329C107.434 15.0329 107.699 14.927 107.814 14.7064C107.928 14.4858 107.92 14.2476 107.787 13.9829L102.104 1.37322H107.664L110.479 8.47663L112.658 1.37322H118.2Z" fill="#282828"/>
<path d="M134.991 21.35L130.367 22.303V18.994H121.525V22.303L116.901 21.35V14.5908H117.687C117.934 14.5908 118.154 14.4937 118.357 14.3084C118.56 14.1231 118.737 13.8672 118.887 13.5584C119.037 13.2495 119.152 12.8877 119.231 12.4818C119.31 12.0759 119.354 11.6435 119.354 11.1847V1.36346H133.235V14.582H135V21.3412L134.991 21.35ZM127.79 5.77551H124.481V11.5818C124.481 12.5083 124.402 13.1878 124.252 13.6113C124.093 14.0349 123.908 14.3614 123.678 14.5908H127.79V5.77551Z" fill="#282828"/>
</svg>
