<svg width="147" height="31" viewBox="0 0 147 31" fill="none" xmlns="http://www.w3.org/2000/svg">
<path fill-rule="evenodd" clip-rule="evenodd" d="M77.3577 5.89055L76.0033 5.97807L74.6489 6.59522L73.2944 7.21236L72.6924 7.88183L72.0905 8.55101L71.5637 8.74649L71.037 8.94168V9.40243V9.86288H70.736H70.435V10.314V10.7651H70.1798H69.9246L69.3882 11.9534L68.8518 13.1417L68.8618 16.0791L68.872 19.0166L69.2019 19.1263L69.5321 19.2364V19.8223V20.4081L69.9836 20.5811L70.435 20.7543V21.1946V21.6352L70.8113 22.0151L71.1875 22.3952L71.7856 23.1967L72.3839 23.9982H72.7638H73.1439V24.299V24.5997H73.7459H74.3479V24.9005V25.2012H75.2508H76.1538V25.502V25.8027H78.8627H81.5716V25.502V25.2012H82.5585H83.5455L83.9795 24.5997L84.4135 23.9982H84.7879H85.1627L86.0762 23.1062L86.9893 22.2139V21.7528V21.2915H87.2903H87.5913V20.8403V20.3892H87.8923H88.1933V19.5119V18.6349L88.5695 18.5095L88.9458 18.3841V15.8779V13.3718L88.5695 13.2463L88.1933 13.1209V12.2439V11.3666H87.8923H87.5913V10.7651V10.1636H87.2903H86.9893V9.84935V9.53476L86.2504 8.79672L85.5118 8.05837H85.3348H85.1581L84.7088 7.68243L84.2597 7.30649L83.8401 6.93055L83.4206 6.55461H82.9474H82.4745V6.27943V6.00454L80.5934 5.90349L78.7122 5.80273L77.3577 5.89055ZM8.97515 6.50649L8.46527 7.02439L7.24446 9.64003L6.02366 12.256V12.563V12.8704H5.72267H5.42168V13.4719V14.0734H5.17638H4.93107L4.42391 15.1363L3.91675 16.1991V16.64V17.0809H3.61576H3.31477V17.8328V18.5847H3.01378H2.71279V19.1862V19.7877H2.41181H2.11082V20.357V20.9263L1.65934 21.0996L1.20786 21.2725V21.8836V22.4945H0.906871H0.605883V23.096V23.6975H0.304894H0.00390625V24.4494V25.2012H3.11341H6.22291L6.64941 24.3742L7.07621 23.5471L7.33566 23.3585L7.59512 23.1697L8.54022 23.2503L9.48502 23.3309L12.2327 23.3636L14.9802 23.3967L15.3543 24.299L15.7284 25.2012H18.8521H21.976V24.4494V23.6975H21.675H21.374V23.096V22.4945H21.073H20.7721V21.8836V21.2725L20.3206 21.0996L19.8691 20.9263V20.2039V19.4815L19.0089 18.582L18.1483 17.6824H14.0841H10.0199L10.1637 16.9306L10.3076 16.1787H10.5737H10.8395V15.4268V14.6749H11.1405H11.4414V14.0734V13.4719H11.7424H12.0434V12.72V11.9681H12.3444H12.6454V11.0659V10.1636H13.0969H13.5484V9.62228V9.08093L13.8289 8.79522L14.1094 8.5095L14.1768 7.75762L14.2439 7.00574L14.1973 6.47943L14.1503 5.95311L11.8177 5.97085L9.48502 5.9889L8.97515 6.50649ZM28.5219 7.47071L27.0928 8.9883V9.75341V10.5185L29.6512 13.0463L32.2096 15.5742V15.9062V16.2382L31.3066 17.0809L30.4037 17.9236V18.2542V18.5847H30.0949H29.7857L28.4394 19.9303L27.0928 21.2755V21.893V22.5104L28.4394 23.8557L29.7857 25.2012H30.0949H30.4037V25.502V25.8027H31.0056H31.6076L31.6094 25.5772L31.6109 25.3516L32.9639 23.9242L34.3165 22.4966V22.1949V21.893H34.631H34.9459L35.6878 21.1516L36.4294 20.4106L36.9532 20.6066L37.4769 20.803L38.7561 22.1477L40.0353 23.4924V23.7453V23.9982H40.3661H40.6968L41.5402 24.9005L42.3836 25.8027H42.8724H43.3609L45.1593 24.0388L46.958 22.2746L46.9484 21.8584L46.9387 21.4418L46.539 20.9155L46.1393 20.3892H45.9364H45.7339L44.6907 19.3465L43.6471 18.3041L43.6387 18.0683L43.6306 17.8328L42.5937 17.0809L41.5568 16.3291L41.5486 15.9555L41.5402 15.5817L42.2174 14.7814L42.8947 13.9811L43.8729 12.9847L44.8511 11.9883V11.6773V11.3666H45.1656H45.4804L46.2191 10.6283L46.958 9.89025V9.58228V9.27431L45.2959 7.61386L43.6342 5.95311H43.0247H42.4152L40.0214 8.35492L37.6274 10.7567V11.0617V11.3666H37.0254H36.4234V11.0524V10.7378L35.6845 9.99973L34.9459 9.26138H34.7496H34.5531L33 7.60724L31.4472 5.95311H30.6989H29.9507L28.5219 7.47071ZM55.1572 6.5504L54.7837 7.148V16.1745V25.2012H57.7935H60.8034V15.9381V6.67491L60.4422 6.31401L60.0811 5.95311H57.8059H55.5304L55.1572 6.5504ZM97.2229 6.40424V6.85537H96.922H96.621V15.6674V24.4794L96.9822 24.8403L97.3434 25.2012H99.992H102.641V22.1937V19.1862H102.942H103.243V19.9381V20.69H103.544H103.845V21.5922V22.4945H104.146H104.447V22.8993V23.3044L104.92 24.2527L105.394 25.2012H106.898H108.403L108.832 24.7715L109.262 24.342V23.7188V23.096H109.563H109.864V22.1937V21.2915H110.316H110.767V20.7501V20.2088L111.039 19.923L111.311 19.6373L111.465 19.0358L111.62 18.4343L111.626 21.2915L111.632 24.1486L111.651 24.6749L111.67 25.2012H114.379H117.088V15.5772V5.95311H114.488H111.887L111.487 6.47943L111.088 7.00574L111.078 7.53206L111.068 8.05837H110.767H110.466V8.65988V9.26138H110.165H109.864V9.86288V10.4644H109.596H109.328L109.139 11.2163L108.95 11.9681H108.655H108.359V12.5697V13.1712H108.058H107.758V13.794V14.4172L107.315 14.8593L106.872 15.3017L106.68 14.5372L106.488 13.7727H106.22H105.952V13.1712V12.5697H105.651H105.35V11.9681V11.3666H105.049H104.748V10.7829V10.1991L104.447 10.0133L104.146 9.8274V9.24364V8.65988H103.845H103.544V8.05837V7.45687H103.092H102.641V6.70499V5.95311H99.9318H97.2229V6.40424ZM133.542 6.15371L133.341 6.35401V6.90559V7.45687H133.04H132.739V8.05837V8.65988H132.439H132.138V9.26138V9.86288H131.837H131.536V10.4857V11.1089L131.159 11.5281L130.783 11.9474L130.407 12.3961L130.031 12.8451V13.2912V13.7372L129.73 13.923L129.429 14.1089V14.6927V15.2764H129.128H128.827V15.8779V16.4794H128.526H128.225V17.0809V17.6824H127.956H127.688L127.499 18.4343L127.31 19.1862H127.015H126.72V19.77V20.3537L126.419 20.5396L126.118 20.7254V21.3092V21.893H125.817H125.516V22.4945V23.096H125.215H124.914V24.1486V25.2012H127.924H130.934V24.7288V24.256L131.364 23.8265L131.794 23.3967H135.878H139.963V23.8692V24.342L140.393 24.7715L140.823 25.2012H143.875H146.927L146.716 24.5245L146.505 23.8479L146.244 23.7477L145.983 23.6472V23.071V22.4945H145.682H145.381V21.893V21.2915H145.08H144.779V20.5396V19.7877H144.478H144.177V19.3152V18.8424L143.673 18.3378L143.168 17.8328L138.631 17.6638L134.094 17.4951L134.47 17.4382L134.846 17.3817V16.7588V16.1357L135.298 15.6845L135.749 15.2334V14.6536V14.0734H136.05H136.351V13.4719V12.8704H136.652H136.953V12.1185V11.3666H137.254H137.555V10.7651V10.1636H137.856H138.157V9.26138V8.35912H138.458H138.759V7.15612V5.95311H136.251H133.743L133.542 6.15371ZM81.4346 12.105L82.1736 12.843V13.1576V13.4719H82.4745H82.7755V14.0734V14.6749H83.0765H83.3775V15.8602V17.0454L83.0765 17.2313L82.7755 17.4172V17.8641V18.3113L82.0366 19.0494L81.298 19.7877H80.8504H80.4031L80.2171 20.0884L80.0311 20.3892H79.0096H77.988L77.2214 20.04L76.4548 19.6912V19.4385V19.1862H76.0716H75.6888L75.1894 18.2088L74.6901 17.2313L74.5035 16.5694L74.3166 15.9074L74.6441 14.6927L74.9715 13.4776L75.7466 12.7564L76.5219 12.0352L76.8644 11.7158L77.2073 11.3967L78.9515 11.3817L80.696 11.3666L81.4346 12.105Z" fill="#DDDDDD"/>
</svg>
