<svg width="113" height="31" viewBox="0 0 113 31" fill="none" xmlns="http://www.w3.org/2000/svg">
<path d="M34.1499 7.13843C34.1499 9.53384 32.2107 11.473 29.8164 11.473C27.4222 11.473 25.479 9.53384 25.479 7.13843C25.479 4.74473 27.4222 2.80273 29.8164 2.80273C32.2107 2.80273 34.1499 4.74473 34.1499 7.13843Z" fill="#DDDDDD"/>
<path d="M5.18095 6.55544C-0.214429 6.55544 0.00515026 12.3443 0.00515026 12.3443H7.37674V27.8005H12.909V12.3443H20.2949C20.2949 12.3443 20.4968 6.55544 15.1048 6.55544H5.18095ZM56.8746 23.6535H52.9638C52.6444 23.6535 52.4682 23.382 52.4682 23.082C52.4682 22.7814 52.6444 22.5197 52.9638 22.5197H56.8746V23.6535ZM56.8719 13.4616H44.6815C44.6815 13.4616 45.7891 13.9834 46.7176 15.3391C47.6473 16.7034 47.7089 17.9091 47.7089 17.9091H56.4156C56.6842 17.9091 56.8747 18.0271 56.8747 18.2969V18.8125H51.7223C49.4666 18.8125 47.5463 20.8674 47.5463 23.4972C47.5463 26.1247 50.0278 27.8027 51.5238 27.8027H61.5195V18.5262C61.5195 15.1868 59.0933 13.4616 56.8719 13.4616ZM26.8692 27.8027H32.2213V13.4616H26.8692V27.8027ZM46.4546 19.0677C46.4158 15.9451 43.5174 13.4619 39.9785 13.4619H33.5103V27.8024H38.803V19.131C38.803 18.5612 39.3357 18.0993 39.9785 18.0993C40.6189 18.0993 41.1585 18.5612 41.1585 19.131V27.8024H46.4563V19.0677H46.4546ZM20.2894 14.6889V13.4616H15.2516V27.8027H20.2894V22.0183C20.4474 20.9028 20.9396 20.0518 21.6177 19.4307C23.0829 18.0961 25.5906 18.1429 25.6146 18.1458V13.4616C25.2587 13.4456 22.7681 13.4353 20.2894 14.6889ZM106.068 13.6465H107.827V15.6638C108.363 14.8682 108.93 14.2768 109.528 13.8821C110.126 13.4891 110.746 13.2918 111.394 13.2918C111.879 13.2918 112.401 13.4492 112.957 13.76L112.039 15.2583C111.67 15.098 111.359 15.0159 111.107 15.0159C110.517 15.0159 109.951 15.2606 109.406 15.7465C108.857 16.233 108.441 16.9881 108.156 18.0096C107.937 18.7972 107.827 20.3862 107.827 22.7793V27.4481H106.068V13.6465ZM97.5463 15.0156C96.5694 15.0156 95.666 15.2608 94.8395 15.7462C94.0148 16.2327 93.3567 16.9136 92.8679 17.792C92.3797 18.6703 92.135 19.5988 92.135 20.5786C92.135 21.5511 92.3797 22.4801 92.8725 23.3681C93.3658 24.2533 94.0279 24.944 94.8578 25.4385C95.6916 25.9329 96.5813 26.1788 97.5344 26.1788C98.496 26.1788 99.4051 25.9352 100.263 25.4442C101.123 24.9554 101.788 24.2921 102.249 23.456C102.712 22.621 102.946 21.6777 102.946 20.63C102.946 19.033 102.427 17.6984 101.385 16.6256C100.344 15.5551 99.0657 15.0156 97.5463 15.0156ZM104.607 13.6462V27.4483H102.845V25.0752C102.107 25.9826 101.278 26.6613 100.357 27.1181C99.4404 27.5749 98.4378 27.8025 97.3444 27.8025C95.4076 27.8025 93.7519 27.0953 92.3797 25.678C91.0114 24.2624 90.3265 22.5383 90.3265 20.509C90.3265 18.5209 91.0183 16.823 92.4013 15.4097C93.785 13.9981 95.4509 13.2914 97.3969 13.2914C98.5205 13.2914 99.538 13.5327 100.448 14.0146C101.357 14.4954 102.155 15.2192 102.845 16.1842V13.6462H104.607ZM87.4143 8.67366H89.1738V27.8027H87.4143V8.67366ZM79.1128 15.0156C77.6607 15.0156 76.4146 15.5671 75.3725 16.6633C74.3311 17.764 73.807 19.0923 73.807 20.6476C73.807 21.6549 74.0459 22.5908 74.5227 23.4588C74.9961 24.3286 75.6389 24.9993 76.4476 25.4693C77.2558 25.9438 78.1427 26.1788 79.1128 26.1788C80.0818 26.1788 80.9675 25.9438 81.7797 25.4693C82.5884 24.9993 83.2301 24.3286 83.7052 23.4588C84.1797 22.5908 84.4181 21.6549 84.4181 20.6476C84.4181 19.0923 83.8934 17.764 82.8485 16.6633C81.8002 15.5671 80.5558 15.0156 79.1128 15.0156ZM79.1202 13.2914C81.2213 13.2914 82.9626 14.0603 84.3445 15.6002C85.6009 17.0043 86.2283 18.6657 86.2283 20.5838C86.2283 22.5132 85.5633 24.1991 84.2373 25.6415C82.9095 27.0827 81.2031 27.8025 79.1202 27.8025C77.0276 27.8025 75.3155 27.0827 73.99 25.6415C72.6623 24.1991 71.9996 22.5132 71.9996 20.5838C71.9996 18.6743 72.6264 17.0169 73.8817 15.6127C75.2636 14.0642 77.0094 13.2914 79.1202 13.2914ZM71.0194 15.1061L69.8902 16.285C68.9457 15.3724 68.024 14.9156 67.1212 14.9156C66.548 14.9156 66.0615 15.1078 65.652 15.4928C65.2414 15.8749 65.0377 16.3238 65.0377 16.8348C65.0377 17.2871 65.2066 17.7182 65.5408 18.1289C65.8773 18.5458 66.5845 19.038 67.6602 19.5986C68.9668 20.291 69.8582 20.9537 70.3282 21.588C70.789 22.2284 71.0194 22.9482 71.0194 23.7524C71.0194 24.8828 70.6265 25.841 69.8348 26.6252C69.0461 27.4105 68.0577 27.8023 66.8742 27.8023C66.0843 27.8023 65.3263 27.6352 64.6106 27.3044C63.8891 26.9708 63.2965 26.5117 62.8254 25.9254L63.9302 24.6564C64.8319 25.6733 65.7912 26.1786 66.8041 26.1786C67.513 26.1786 68.117 25.9482 68.6155 25.4862C69.1128 25.0248 69.3626 24.4807 69.3626 23.8562C69.3626 23.3434 69.1966 22.8855 68.8676 22.4851C68.5379 22.0899 67.7948 21.5948 66.6381 20.9965C65.3936 20.3509 64.549 19.7184 64.1001 19.0927C63.653 18.4654 63.43 17.7502 63.43 16.946C63.43 15.8966 63.787 15.0262 64.5011 14.3321C65.2134 13.6392 66.1094 13.2918 67.1987 13.2918C68.4637 13.2918 69.7396 13.8975 71.0194 15.1061Z" fill="#DDDDDD"/>
</svg>
