<svg width="161" height="31" viewBox="0 0 161 31" fill="none" xmlns="http://www.w3.org/2000/svg">
<path d="M13.7991 10.5905C13.6948 10.4167 13.5906 10.243 13.4864 10.0692C13.2084 9.65226 12.8956 9.30477 12.5481 8.99203C12.0269 8.5403 11.5057 8.15806 10.9497 7.91482C10.3937 7.67158 9.83776 7.49784 9.31653 7.42834C8.76055 7.35885 8.27407 7.28935 7.78759 7.28935C7.44011 7.28935 7.02312 7.28936 6.60614 7.35885C6.15441 7.3936 5.70267 7.49784 5.21619 7.63684C4.72971 7.77583 4.24324 7.98432 3.75675 8.26231C3.27027 8.5403 2.78379 8.92254 2.33206 9.37427C2.15832 9.51327 1.94983 9.75651 1.70659 10.104C1.46335 10.4515 1.18536 10.8685 0.942117 11.3897C0.698877 11.9109 0.455639 12.5364 0.281896 13.3009C0.108153 14.0306 0.00390625 14.8993 0.00390625 15.8723C0.00390625 16.1155 0.00390837 16.463 0.038657 16.88C0.0734055 17.297 0.142903 17.7487 0.2124 18.2699C0.316646 18.7912 0.455641 19.3124 0.664133 19.8684C0.872624 20.4243 1.15061 20.9456 1.4981 21.4668C1.77609 21.8838 2.12357 22.3008 2.5058 22.683C2.88804 23.0652 3.33977 23.4127 3.89575 23.7255C4.41698 24.0382 5.0077 24.2814 5.66793 24.4552C6.32815 24.6289 7.09262 24.7332 7.92659 24.7332C8.48256 24.7332 9.00379 24.6984 9.52502 24.5594C10.0463 24.4552 10.5675 24.2467 11.0887 24.0035C11.6099 23.7255 12.0964 23.378 12.5829 22.9262C12.9304 22.6135 13.2431 22.2313 13.5211 21.8143C13.6254 21.6405 13.7296 21.5015 13.8338 21.3278L11.2972 19.7641C11.2624 19.8336 11.2277 19.8684 11.2277 19.9379C11.0192 20.3548 10.776 20.7371 10.498 21.0498C10.1157 21.4668 9.73351 21.7795 9.28178 21.9533C8.83005 22.1618 8.34357 22.266 7.82234 22.266C7.33586 22.266 6.91888 22.1965 6.53664 22.0575C6.15441 21.9185 5.84167 21.7448 5.56368 21.5015C5.28569 21.2583 5.04245 21.0151 4.83396 20.7718C4.62547 20.4938 4.45173 20.2506 4.34748 19.9726C4.20849 19.7294 4.10424 19.4166 3.99999 19.0344C3.89575 18.6522 3.7915 18.2352 3.75675 17.7139C3.68726 17.1927 3.65251 16.602 3.65251 15.8723C3.65251 15.3858 3.68726 14.9341 3.722 14.4476C3.75675 13.9958 3.861 13.5441 3.96525 13.0924C4.06949 12.6406 4.24324 12.2237 4.45173 11.8414C4.79921 11.1465 5.25094 10.6252 5.80692 10.2777C6.3629 9.93025 7.02312 9.75651 7.82234 9.75651C8.48256 9.75651 9.07329 9.8955 9.55977 10.1387C10.0462 10.382 10.4632 10.799 10.8455 11.3549C11.0192 11.5982 11.193 11.9109 11.2972 12.2237L13.7991 10.5905Z" fill="#DDDDDD"/>
<path d="M32.5284 24.5247V17.5055C32.5284 17.158 32.5632 16.8105 32.5979 16.4631C32.6674 16.1156 32.7369 15.7681 32.9107 15.4553C33.0497 15.1426 33.2929 14.8299 33.5709 14.5519C33.7099 14.4129 33.8489 14.3086 34.0226 14.2044C34.1964 14.1001 34.4049 13.9959 34.6481 13.9264C34.8913 13.8569 35.1346 13.8222 35.4473 13.8222C35.5863 13.8222 35.7601 13.8222 35.9338 13.8569C36.1076 13.8917 36.2813 13.9612 36.455 14.0307C36.6288 14.1349 36.8025 14.2391 36.9763 14.4476C37.15 14.6561 37.2543 14.8646 37.3238 15.1079C37.3932 15.3511 37.428 15.5943 37.4627 15.8376C37.4627 16.0808 37.4975 16.3588 37.4627 16.602V24.5595H40.3121V16.0113C40.3121 15.4206 40.2426 14.9341 40.1384 14.5171C40.0341 14.1001 39.8951 13.7179 39.7562 13.4399C39.5824 13.1619 39.4087 12.9187 39.2349 12.745C38.9917 12.5017 38.7137 12.2932 38.401 12.1542C38.0882 12.0152 37.7407 11.8762 37.3932 11.8067C37.0458 11.7372 36.6983 11.7025 36.3508 11.7025C35.7253 11.7025 35.1346 11.8067 34.6481 12.0152C34.1269 12.2237 33.7099 12.5017 33.3277 12.8492C32.9454 13.1967 32.6674 13.6137 32.4242 14.0654H32.3895V11.911H29.7486V24.5247H32.5284Z" fill="#DDDDDD"/>
<path d="M64.7058 8.71411V13.3704C64.6016 13.1967 64.4626 13.0229 64.2889 12.884C64.1499 12.7102 63.9414 12.5712 63.7329 12.4322C63.3507 12.1542 62.9337 11.9805 62.5167 11.8415C62.0997 11.7372 61.7175 11.6677 61.2657 11.6677C60.6055 11.6677 59.98 11.772 59.4241 12.0152C58.8333 12.2585 58.2774 12.6755 57.7909 13.2314C57.5129 13.5094 57.2696 13.8917 57.0264 14.3434C56.7832 14.7951 56.6094 15.3511 56.4357 15.9766C56.2967 16.6368 56.1924 17.3665 56.1924 18.2352C56.1924 18.8955 56.2619 19.4862 56.3314 20.0074C56.4357 20.5287 56.5399 20.9804 56.6789 21.3626C56.8179 21.7449 56.9569 22.0576 57.1307 22.3356C57.2696 22.5788 57.4086 22.7873 57.5129 22.9611C57.8951 23.4823 58.3121 23.8645 58.7291 24.1078C59.1461 24.3857 59.563 24.5595 59.98 24.6637C60.397 24.768 60.7793 24.8027 61.1615 24.8027C61.648 24.8027 62.0997 24.7332 62.5862 24.5942C63.0727 24.4552 63.4896 24.212 63.8719 23.8645C64.1846 23.6213 64.4278 23.3085 64.6711 22.9263L64.8796 24.5595H67.4857V7.01143L64.7058 8.71411ZM64.4279 19.4167C64.4279 20.1117 64.1846 20.9804 63.7676 21.6059C63.3159 22.2313 62.5514 22.6483 61.7522 22.6831C60.7445 22.6831 60.0843 22.1271 59.6673 21.3279C59.4241 20.8414 59.2851 20.3202 59.1808 19.7989C59.1113 19.3472 59.0418 18.7912 59.0418 18.131C59.0418 17.575 59.1113 16.9843 59.2503 16.4283C59.4241 15.6638 59.841 14.7951 60.5708 14.3434C60.9183 14.1349 61.3352 14.0307 61.8217 14.0307C62.6209 14.0307 63.2464 14.3086 63.7329 14.9341C63.9414 15.2121 64.1151 15.5248 64.2541 15.9071C64.3931 16.2893 64.4626 16.6368 64.4626 17.0538L64.4279 19.4167Z" fill="#DDDDDD"/>
<path d="M73.2887 11.9109H70.4393V24.5246H73.2887V11.9109ZM71.9335 7.39353C72.9064 7.39353 73.6709 8.0885 73.6709 8.99197C73.6709 9.86069 72.8717 10.5904 71.9335 10.5904C70.9605 10.5904 70.1961 9.89543 70.1961 8.99197C70.1961 8.12325 70.9953 7.39353 71.9335 7.39353Z" fill="#DDDDDD"/>
<path d="M80.829 13.7527C81.1417 13.6832 81.4892 13.6484 81.9409 13.6484C82.1842 13.6484 82.4274 13.6484 82.6707 13.6832C82.9487 13.7179 83.1919 13.7874 83.4351 13.8917C83.6784 13.9959 83.8869 14.1696 84.0606 14.3781C84.1649 14.5171 84.2343 14.6909 84.3038 14.8646C84.3733 15.0384 84.4081 15.2121 84.4428 15.3858C84.4776 15.5596 84.4776 15.7333 84.5123 15.8723C84.5123 16.0113 84.5123 16.1156 84.5123 16.1851V16.602L83.1224 16.6368C82.8097 16.6368 82.4622 16.6716 82.0452 16.6716C81.6282 16.7063 81.2112 16.741 80.7247 16.8105C80.273 16.88 79.8213 16.9843 79.3696 17.0885C78.9178 17.1928 78.5008 17.3665 78.1186 17.5403C77.5626 17.8183 77.1109 18.1657 76.7982 18.548C76.4854 18.9302 76.2422 19.3124 76.1379 19.7294C75.9989 20.1464 75.9642 20.5634 75.9642 20.9456C75.9642 21.3974 76.0337 21.8144 76.2074 22.2661C76.3464 22.7178 76.5897 23.1348 76.9371 23.4823C77.2846 23.8645 77.7364 24.1425 78.2923 24.3858C78.8483 24.629 79.5433 24.7332 80.3425 24.7332C80.6205 24.7332 80.8985 24.6985 81.2807 24.6637C81.6282 24.629 82.0104 24.5247 82.3927 24.351C82.7749 24.1773 83.1571 23.934 83.5394 23.6213C83.9216 23.3085 84.2343 22.8568 84.5123 22.3356C84.5471 22.7873 84.5818 23.2043 84.6166 23.5518C84.6513 23.8993 84.7208 24.212 84.7556 24.49H87.605C87.5702 24.2468 87.5355 23.934 87.5007 23.6213C87.466 23.3085 87.4312 22.9958 87.3965 22.6831C87.3617 22.3703 87.3617 22.0576 87.3617 21.7796V16.4978C87.3617 16.1503 87.3617 15.8028 87.327 15.4553C87.2922 15.1079 87.2227 14.7604 87.1185 14.4129C87.0142 14.0654 86.8752 13.7527 86.6668 13.4399C86.4583 13.1272 86.1803 12.8492 85.8328 12.606C85.3811 12.2932 84.8598 12.05 84.2344 11.911C83.6089 11.772 82.9139 11.7025 82.1147 11.7025C81.4892 11.7025 80.9332 11.7372 80.4468 11.8067C79.995 11.8762 79.6128 11.9457 79.3 12.05C78.9873 12.1542 78.7441 12.2585 78.5356 12.3627C78.2923 12.467 78.0491 12.6407 77.8059 12.8492L78.7093 14.8299C79.3001 14.3434 80.0645 13.8917 80.829 13.7527ZM84.5123 18.3742V19.0345C84.5123 19.3124 84.4776 19.5904 84.4081 19.9032C84.3386 20.2159 84.2691 20.4939 84.1301 20.7719C84.0259 21.0499 83.8521 21.3279 83.6784 21.5364C83.5046 21.7796 83.2614 21.9881 83.0182 22.1618C82.7749 22.3356 82.4622 22.4746 82.1842 22.5788C81.8715 22.6831 81.5587 22.7178 81.246 22.7178C81.0375 22.7178 80.8637 22.6831 80.6552 22.6483C80.4467 22.6136 80.2383 22.5441 80.0645 22.4746C79.856 22.3703 79.717 22.2661 79.5433 22.1271C79.4738 22.0576 79.4043 21.9881 79.3348 21.8838C79.2653 21.7796 79.1958 21.6406 79.1263 21.5016C79.0568 21.3626 79.0568 21.1889 79.0221 20.9804C79.0221 20.7719 79.0568 20.5286 79.1263 20.2507C79.1958 19.9727 79.3695 19.6947 79.6128 19.4514C79.856 19.2082 80.2035 18.965 80.69 18.7912C80.9332 18.687 81.246 18.6175 81.5587 18.5827C81.8714 18.548 82.1842 18.5132 82.4622 18.4785C82.7749 18.4437 83.0182 18.4437 83.1919 18.4437L84.5123 18.3742Z" fill="#DDDDDD"/>
<path d="M93.4777 24.5247V17.5055C93.4777 17.158 93.5125 16.8105 93.5472 16.4631C93.6167 16.1156 93.6862 15.7681 93.86 15.4553C93.999 15.1426 94.2422 14.8299 94.5202 14.5519C94.6592 14.4129 94.7982 14.3086 94.9719 14.2044C95.1457 14.1001 95.3542 13.9959 95.5974 13.9264C95.8406 13.8569 96.0839 13.8222 96.3966 13.8222C96.5356 13.8222 96.7094 13.8222 96.8831 13.8569C97.0568 13.8917 97.2306 13.9612 97.4043 14.0307C97.5781 14.1349 97.7518 14.2391 97.9256 14.4476C98.0993 14.6561 98.2035 14.8646 98.273 15.1079C98.3425 15.3511 98.3773 15.5943 98.412 15.8376C98.412 16.0808 98.4468 16.3588 98.412 16.602V24.5595H101.261V16.0113C101.261 15.4206 101.192 14.9341 101.088 14.5171C100.983 14.1001 100.844 13.7179 100.671 13.4399C100.497 13.1619 100.323 12.9187 100.149 12.745C99.9062 12.5017 99.6282 12.2932 99.3155 12.1542C99.0028 12.0152 98.6553 11.8762 98.3078 11.8067C97.9603 11.7372 97.6128 11.7025 97.2653 11.7025C96.6399 11.7025 96.0491 11.8067 95.5627 12.0152C95.0414 12.2237 94.6244 12.5017 94.2422 12.8492C93.86 13.1967 93.582 13.6137 93.3387 14.0654H93.304V11.911H90.6631V24.5247H93.4777Z" fill="#DDDDDD"/>
<path d="M115.647 10.3124C115.474 9.99961 115.3 9.72162 115.091 9.44363C114.848 9.1309 114.57 8.8529 114.292 8.60966C113.91 8.29692 113.493 8.05369 113.006 7.87994C112.52 7.67145 112.033 7.53245 111.512 7.46296C110.991 7.35871 110.47 7.32396 109.914 7.32396C109.393 7.32396 108.871 7.35871 108.385 7.42821C107.864 7.4977 107.412 7.6367 106.96 7.77569C106.508 7.94944 106.091 8.15793 105.744 8.40117C105.396 8.64442 105.084 8.95715 104.771 9.33938C104.493 9.72162 104.25 10.1386 104.076 10.6251C103.902 11.1116 103.798 11.6675 103.798 12.2583C103.798 12.8142 103.902 13.3007 104.041 13.7177C104.215 14.1347 104.423 14.5169 104.667 14.8297C104.91 15.1424 105.153 15.3856 105.396 15.5941C105.64 15.7679 105.883 15.9416 106.161 16.0806C106.439 16.2196 106.717 16.3586 106.995 16.4629C107.273 16.5671 107.551 16.6714 107.794 16.7409C108.037 16.8103 108.246 16.8798 108.454 16.9146L110.921 17.5053C111.443 17.6443 111.894 17.8181 112.207 17.9918C112.555 18.2003 112.798 18.4088 112.972 18.6173C113.145 18.8605 113.284 19.069 113.354 19.2775C113.423 19.486 113.458 19.6945 113.458 19.903C113.458 20.1462 113.423 20.3895 113.319 20.6327C113.215 20.9107 113.041 21.1539 112.798 21.3972C112.555 21.6404 112.207 21.8141 111.79 21.9879C111.338 22.1269 110.817 22.2311 110.122 22.2311C109.844 22.2311 109.566 22.2311 109.288 22.1616C108.976 22.1269 108.663 22.0574 108.35 21.9531C107.516 21.6752 106.369 20.9454 105.987 20.2157L103.937 21.9184C104.076 22.0921 104.215 22.2659 104.354 22.4049C104.667 22.7176 104.945 23.0304 105.257 23.2388C105.605 23.5168 106.022 23.7601 106.474 23.9686C106.96 24.1771 107.481 24.3508 108.107 24.4898C108.698 24.6288 109.393 24.6983 110.157 24.6983C110.643 24.6983 111.165 24.6635 111.721 24.5593C112.277 24.4898 112.798 24.3161 113.319 24.1423C113.84 23.9338 114.327 23.6906 114.744 23.3431C115.126 23.0651 115.439 22.7176 115.717 22.3006C115.995 21.8837 116.238 21.4319 116.412 20.9454C116.585 20.4589 116.655 19.9377 116.655 19.4165C116.655 18.93 116.585 18.4435 116.446 17.9918C116.307 17.5401 116.099 17.1578 115.856 16.8103C115.613 16.4629 115.335 16.1501 115.022 15.8721C114.674 15.5941 114.327 15.3856 113.945 15.2119C113.562 15.0382 113.18 14.8992 112.798 14.7949C112.416 14.6907 112.033 14.5864 111.686 14.5169L109.427 13.961C109.219 13.9262 108.941 13.8567 108.663 13.7525C108.385 13.6482 108.107 13.544 107.829 13.3702C107.551 13.2312 107.342 13.0227 107.134 12.7795C106.96 12.5363 106.856 12.2235 106.856 11.876C106.856 11.6328 106.891 11.3896 106.995 11.1463C107.099 10.9031 107.238 10.6598 107.447 10.4513C107.655 10.2429 107.968 10.0344 108.315 9.93011C108.698 9.79112 109.149 9.72162 109.705 9.72162C110.192 9.72162 110.678 9.79112 111.13 9.93011C111.582 10.0691 111.999 10.2776 112.346 10.5556C112.798 10.9031 113.389 11.5633 113.493 12.0498L113.91 11.7023L115.647 10.3124Z" fill="#DDDDDD"/>
<path d="M118.392 18.2697C118.392 18.93 118.462 19.5554 118.636 20.1462C118.775 20.7716 119.018 21.3276 119.331 21.8488C119.643 22.3701 120.026 22.8565 120.477 23.2388C120.79 23.5168 121.138 23.76 121.555 24.0033C121.972 24.2465 122.423 24.4202 122.944 24.5592C123.466 24.6982 124.091 24.7677 124.751 24.7677C125.412 24.7677 126.037 24.6982 126.558 24.5592C127.08 24.4202 127.566 24.2465 127.948 24.0033C128.365 23.76 128.713 23.5168 129.025 23.2388C129.477 22.8218 129.859 22.3701 130.172 21.8488C130.485 21.3276 130.693 20.7369 130.867 20.1462C131.006 19.5554 131.11 18.8952 131.11 18.2697C131.11 17.6095 131.041 16.984 130.867 16.3933C130.728 15.8026 130.485 15.2118 130.172 14.6906C129.859 14.1694 129.477 13.6829 129.025 13.3007C128.713 13.0227 128.365 12.7794 127.948 12.5362C127.531 12.293 127.08 12.1192 126.558 11.9802C126.037 11.8412 125.412 11.7717 124.751 11.7717C124.091 11.7717 123.466 11.8412 122.944 11.9802C122.423 12.1192 121.937 12.293 121.555 12.5362C121.138 12.7794 120.79 13.0227 120.477 13.3007C120.026 13.7176 119.643 14.1694 119.331 14.6906C119.018 15.2118 118.809 15.8026 118.636 16.3933C118.497 16.984 118.392 17.6095 118.392 18.2697ZM121.659 18.2697C121.659 17.679 121.694 17.1925 121.798 16.7755C121.867 16.3585 121.972 16.0111 122.076 15.7331C122.18 15.4551 122.284 15.2466 122.389 15.0728C122.493 14.8991 122.562 14.7949 122.632 14.7601C122.736 14.6559 122.875 14.5169 123.049 14.3779C123.222 14.2389 123.466 14.0999 123.744 13.9956C124.022 13.8914 124.334 13.8219 124.717 13.8219C125.099 13.8219 125.412 13.8914 125.69 13.9956C125.968 14.0999 126.176 14.2041 126.385 14.3779C126.558 14.5169 126.697 14.6559 126.802 14.7601C126.871 14.8296 126.941 14.9339 127.045 15.0728C127.149 15.2118 127.253 15.4551 127.358 15.7331C127.462 16.0111 127.566 16.3585 127.636 16.7755C127.705 17.1925 127.74 17.7137 127.775 18.2697C127.775 18.8605 127.74 19.3469 127.636 19.7639C127.566 20.1809 127.462 20.5284 127.358 20.8064C127.253 21.0844 127.149 21.2929 127.045 21.4666C126.941 21.6403 126.871 21.7446 126.802 21.7793C126.697 21.8836 126.558 22.0226 126.385 22.1616C126.211 22.3006 125.968 22.4396 125.69 22.5438C125.412 22.6481 125.099 22.7175 124.717 22.7175C124.334 22.7175 124.022 22.6481 123.744 22.5438C123.466 22.4396 123.257 22.3006 123.049 22.1616C122.875 22.0226 122.736 21.8836 122.632 21.7793C122.562 21.7098 122.493 21.6056 122.389 21.4666C122.284 21.3276 122.18 21.0844 122.076 20.8064C121.972 20.5284 121.867 20.1809 121.798 19.7639C121.694 19.3469 121.659 18.8257 121.659 18.2697Z" fill="#DDDDDD"/>
<path d="M132.952 8.74866V24.6983H136.149V6.80273L132.952 8.74866Z" fill="#DDDDDD"/>
<path d="M152.238 24.5245H155.504V18.4783C155.469 17.1926 155.469 14.6212 157.519 14.4822C158.18 14.4474 159.396 14.6212 160.091 14.8992L160.855 12.3625C159.257 11.7718 157.936 11.1463 156.407 12.4668C155.99 12.849 155.747 13.3355 155.539 13.7177C155.33 14.0999 155.226 14.4474 155.191 14.7254H155.122V11.876H152.238V24.5245Z" fill="#DDDDDD"/>
<path d="M47.3316 13.7525C47.6443 13.683 47.9918 13.6482 48.4435 13.6482C48.6867 13.6482 48.93 13.6482 49.1732 13.683C49.4165 13.7177 49.6945 13.7872 49.9377 13.8915C50.1809 13.9957 50.3894 14.1694 50.5632 14.3779C50.6674 14.5169 50.7369 14.6907 50.8064 14.8644C50.8759 15.0382 50.9107 15.2119 50.9454 15.3856C50.9801 15.5594 50.9802 15.7331 51.0149 15.8721C51.0149 16.0111 51.0149 16.1154 51.0149 16.1849V16.6018L49.625 16.6366C49.3122 16.6366 48.9647 16.6713 48.5477 16.6713C48.1308 16.7061 47.7138 16.7408 47.2273 16.8103C46.7756 16.8798 46.3238 16.9841 45.8721 17.0883C45.4204 17.1926 45.0034 17.3663 44.6559 17.5401C44.0999 17.8181 43.6482 18.1655 43.3355 18.5478C43.0227 18.93 42.7795 19.3122 42.6752 19.7292C42.5362 20.1462 42.5015 20.5632 42.5015 20.9454C42.5015 21.3972 42.571 21.8142 42.7447 22.2659C42.8837 22.7176 43.127 23.1346 43.4745 23.4821C43.8219 23.8643 44.2737 24.1423 44.8297 24.3856C45.3856 24.6288 46.0806 24.733 46.9146 24.733C47.1578 24.733 47.4705 24.6983 47.8528 24.6635C48.2003 24.6288 48.5825 24.5245 48.9647 24.3508C49.347 24.1771 49.7292 23.9338 50.1114 23.6211C50.4937 23.3083 50.8064 22.8566 51.0844 22.3354C51.1192 22.7871 51.1539 23.2041 51.1886 23.5516C51.2234 23.8991 51.2929 24.2118 51.3276 24.4898H54.177C54.1423 24.2466 54.1075 23.9338 54.038 23.6211C54.0033 23.3083 53.9685 22.9956 53.9338 22.6829C53.899 22.3701 53.899 22.0574 53.899 21.7794V16.4976C53.899 16.1501 53.899 15.8026 53.8643 15.4551C53.8295 15.1077 53.76 14.7602 53.6558 14.4127C53.5516 14.0652 53.4126 13.7525 53.2041 13.4397C52.9956 13.127 52.7176 12.849 52.3701 12.6058C51.9184 12.293 51.3971 12.0498 50.7717 11.9108C50.1462 11.7718 49.4512 11.7023 48.652 11.7023C48.0265 11.7023 47.4705 11.737 46.9841 11.8065C46.5323 11.876 46.1501 11.9455 45.8374 12.0498C45.5246 12.154 45.2814 12.2583 45.0729 12.3625C44.8297 12.4668 44.5864 12.6405 44.3432 12.849L45.2466 14.8297C45.8026 14.3432 46.5671 13.8915 47.3316 13.7525ZM51.0149 18.374V19.0343C51.0149 19.3122 50.9802 19.5902 50.9107 19.903C50.8412 20.2157 50.7717 20.4937 50.6327 20.7717C50.5284 21.0497 50.3547 21.3277 50.1809 21.5362C50.0072 21.7794 49.764 21.9879 49.5207 22.1616C49.2775 22.3354 48.9647 22.4744 48.6867 22.5786C48.374 22.6829 48.0613 22.7176 47.7485 22.7176C47.54 22.7176 47.3663 22.6829 47.1578 22.6481C46.9493 22.6134 46.7408 22.5439 46.5671 22.4744C46.3586 22.3701 46.2196 22.2659 46.0459 22.1269C45.9764 22.0574 45.9069 21.9879 45.8374 21.8836C45.7679 21.7794 45.6984 21.6404 45.6289 21.5014C45.5594 21.3624 45.5594 21.1887 45.5246 20.9802C45.5246 20.7717 45.5594 20.5284 45.6289 20.2505C45.6984 19.9725 45.8721 19.6945 46.1153 19.4512C46.3586 19.208 46.7061 18.9648 47.1926 18.791C47.4358 18.6868 47.7485 18.6173 48.0613 18.5825C48.374 18.5478 48.6867 18.513 48.9647 18.4783C49.2775 18.4435 49.5207 18.4435 49.6945 18.4435L51.0149 18.374Z" fill="#DDDDDD"/>
<path d="M20.3666 13.7525C20.6794 13.683 21.0269 13.6482 21.4786 13.6482C21.7218 13.6482 21.9651 13.6482 22.2083 13.683C22.4863 13.7177 22.7296 13.7872 22.9728 13.8915C23.216 13.9957 23.4245 14.1694 23.5983 14.3779C23.7025 14.5169 23.772 14.6907 23.8415 14.8644C23.911 15.0382 23.9458 15.2119 23.9805 15.3856C24.0152 15.5594 24.0152 15.7331 24.05 15.8721C24.05 16.0111 24.05 16.1154 24.05 16.1849V16.6018L22.6601 16.6366C22.3473 16.6366 21.9998 16.6713 21.5828 16.6713C21.1659 16.7061 20.7489 16.7408 20.2624 16.8103C19.8107 16.8798 19.3589 16.9841 18.9072 17.0883C18.4555 17.1926 18.0385 17.3663 17.691 17.5401C17.135 17.8181 16.6833 18.1655 16.3706 18.5478C16.0578 18.93 15.8146 19.3122 15.7103 19.7292C15.5713 20.1462 15.5366 20.5632 15.5366 20.9454C15.5366 21.3972 15.6061 21.8142 15.7798 22.2659C15.9188 22.7176 16.1621 23.1346 16.5096 23.4821C16.857 23.8643 17.3088 24.1423 17.8648 24.3856C18.4207 24.6288 19.1157 24.733 19.9497 24.733C20.2277 24.733 20.5056 24.6983 20.8879 24.6635C21.2354 24.6288 21.6176 24.5245 21.9998 24.3508C22.3821 24.1771 22.7643 23.9338 23.1465 23.6211C23.5288 23.3083 23.8415 22.8566 24.1195 22.3354C24.1542 22.7871 24.189 23.2041 24.2237 23.5516C24.2585 23.8991 24.328 24.2118 24.3627 24.4898H27.2121C27.1774 24.2466 27.1426 23.9338 27.0731 23.6211C27.0384 23.3083 27.0036 22.9956 26.9689 22.6829C26.9341 22.3701 26.9341 22.0574 26.9341 21.7794V16.4976C26.9341 16.1501 26.9341 15.8026 26.8994 15.4551C26.8646 15.1077 26.7951 14.7602 26.6909 14.4127C26.5866 14.0652 26.4476 13.7525 26.2392 13.4397C26.0307 13.127 25.7527 12.849 25.4052 12.6058C24.9535 12.293 24.4322 12.0498 23.8068 11.9108C23.1813 11.7718 22.4863 11.7023 21.6871 11.7023C21.0616 11.7023 20.5056 11.737 20.0192 11.8065C19.5674 11.876 19.1852 11.9455 18.8725 12.0498C18.5597 12.154 18.3165 12.2583 18.108 12.3625C17.8648 12.4668 17.6215 12.6405 17.3783 12.849L18.2817 14.8297C18.8377 14.3432 19.6369 13.8915 20.3666 13.7525ZM24.05 18.374V19.0343C24.05 19.3122 24.0153 19.5902 23.9458 19.903C23.8763 20.2157 23.8068 20.4937 23.6678 20.7717C23.5635 21.0497 23.3898 21.3277 23.216 21.5362C23.0423 21.7794 22.7991 21.9879 22.5558 22.1616C22.2778 22.3354 21.9998 22.4744 21.7218 22.5786C21.4091 22.6829 21.0964 22.7176 20.7836 22.7176C20.5751 22.7176 20.4014 22.6829 20.1929 22.6481C19.9844 22.6134 19.7759 22.5439 19.6022 22.4744C19.3937 22.3701 19.2547 22.2659 19.081 22.1269C19.0115 22.0574 18.942 21.9879 18.8725 21.8836C18.803 21.7794 18.7335 21.6404 18.664 21.5014C18.5945 21.3624 18.5945 21.1887 18.5597 20.9802C18.5597 20.7717 18.5945 20.5284 18.664 20.2505C18.7335 19.9725 18.9072 19.6945 19.1504 19.4512C19.3937 19.208 19.7412 18.9648 20.2277 18.791C20.4709 18.6868 20.7836 18.6173 21.0964 18.5825C21.4091 18.5478 21.7218 18.513 21.9998 18.4783C22.3126 18.4435 22.5558 18.4435 22.7296 18.4435L24.05 18.374Z" fill="#DDDDDD"/>
<path d="M142.96 13.7525C143.272 13.683 143.62 13.6482 144.072 13.6482C144.315 13.6482 144.558 13.6482 144.801 13.683C145.079 13.7177 145.323 13.7872 145.566 13.8915C145.809 13.9957 146.018 14.1694 146.191 14.3779C146.296 14.5169 146.365 14.6907 146.435 14.8644C146.504 15.0382 146.539 15.2119 146.574 15.3856C146.608 15.5594 146.608 15.7331 146.643 15.8721C146.643 16.0111 146.643 16.1154 146.643 16.1849V16.6018L145.253 16.6366C144.94 16.6366 144.593 16.6713 144.176 16.6713C143.759 16.7061 143.342 16.7408 142.855 16.8103C142.404 16.8798 141.952 16.9841 141.5 17.0883C141.048 17.1926 140.632 17.3663 140.284 17.5401C139.728 17.8181 139.276 18.1655 138.964 18.5478C138.651 18.93 138.408 19.3122 138.303 19.7292C138.164 20.1462 138.13 20.5632 138.13 20.9454C138.13 21.3972 138.199 21.8142 138.373 22.2659C138.512 22.7176 138.755 23.1346 139.103 23.4821C139.45 23.8643 139.902 24.1423 140.458 24.3856C141.014 24.6288 141.709 24.733 142.508 24.733C142.786 24.733 143.064 24.6983 143.446 24.6635C143.794 24.6288 144.176 24.5245 144.558 24.3508C144.94 24.1771 145.323 23.9338 145.705 23.6211C146.087 23.3083 146.4 22.8566 146.678 22.3354C146.713 22.7871 146.747 23.2041 146.782 23.5516C146.817 23.8991 146.886 24.2118 146.921 24.4898H149.77C149.736 24.2466 149.701 23.9338 149.631 23.6211C149.597 23.3083 149.562 22.9956 149.527 22.6829C149.492 22.3701 149.492 22.0574 149.492 21.7794V16.4976C149.492 16.1501 149.492 15.8026 149.458 15.4551C149.423 15.1077 149.353 14.7602 149.249 14.4127C149.145 14.0652 149.006 13.7525 148.797 13.4397C148.589 13.127 148.311 12.849 147.963 12.6058C147.512 12.293 146.991 12.0498 146.365 11.9108C145.74 11.7718 145.045 11.7023 144.245 11.7023C143.62 11.7023 143.064 11.737 142.577 11.8065C142.126 11.876 141.743 11.9455 141.431 12.0498C141.118 12.154 140.875 12.2583 140.666 12.3625C140.423 12.4668 140.18 12.6405 139.937 12.849L140.84 14.8297C141.465 14.3432 142.23 13.8915 142.96 13.7525ZM146.643 18.374V19.0343C146.643 19.3122 146.608 19.5902 146.539 19.903C146.469 20.2157 146.4 20.4937 146.261 20.7717C146.157 21.0497 145.983 21.3277 145.809 21.5362C145.635 21.7794 145.392 21.9879 145.149 22.1616C144.906 22.3354 144.593 22.4744 144.315 22.5786C144.002 22.6829 143.689 22.7176 143.377 22.7176C143.168 22.7176 142.994 22.6829 142.786 22.6481C142.577 22.6134 142.369 22.5439 142.195 22.4744C141.987 22.3701 141.848 22.2659 141.674 22.1269C141.604 22.0574 141.535 21.9879 141.465 21.8836C141.396 21.7794 141.326 21.6404 141.257 21.5014C141.187 21.3624 141.188 21.1887 141.153 20.9802C141.153 20.7717 141.187 20.5284 141.257 20.2505C141.326 19.9725 141.5 19.6945 141.743 19.4512C141.987 19.208 142.334 18.9648 142.821 18.791C143.064 18.6868 143.377 18.6173 143.689 18.5825C144.002 18.5478 144.315 18.513 144.593 18.4783C144.906 18.4435 145.149 18.4435 145.323 18.4435L146.643 18.374Z" fill="#DDDDDD"/>
</svg>
