<svg width="161" height="31" viewBox="0 0 161 31" fill="none" xmlns="http://www.w3.org/2000/svg">
<path d="M6.18853 16.5876L8.38858 9.87169C8.62016 8.90676 9.5851 8.32781 10.55 8.59799C10.5886 8.59799 10.6658 8.63659 10.7044 8.63659C10.7816 8.63659 10.9746 8.71378 11.0518 8.71378C12.0167 9.17694 12.4027 10.3349 11.9395 11.2612L8.1184 20.6016C7.57803 22.0297 6.6131 22.5701 5.26219 22.0297C4.64463 21.7595 4.14287 21.2578 3.91128 20.6016L0.167331 11.184C-0.25724 10.2191 0.167331 9.06116 1.13227 8.59799C2.0972 8.17343 3.25513 8.59799 3.7183 9.56292C3.7183 9.64011 3.75689 9.67871 3.79549 9.7559L6.11133 16.5876H6.18853Z" fill="#DDDDDD"/>
<path d="M13.2136 10.3733C13.2136 9.87156 13.4066 9.4084 13.754 9.02243C14.4487 8.28908 15.6452 8.25048 16.3786 8.98383L16.4172 9.02243C16.7646 9.3698 16.9575 9.87156 16.9575 10.3733V20.3313C16.9961 21.3734 16.147 22.2612 15.1049 22.2998C14.0241 22.2998 13.175 21.412 13.1364 20.3313V10.3733H13.2136ZM13.561 3.46447C14.3715 2.61533 15.761 2.57673 16.6102 3.38727C16.6488 3.42587 16.6488 3.42587 16.6874 3.46447C17.5365 4.275 17.5751 5.66449 16.7646 6.51362C16.726 6.55222 16.726 6.55221 16.6874 6.59081C15.8768 7.43994 14.4873 7.47855 13.6382 6.66801C13.5996 6.62941 13.5996 6.62941 13.561 6.59081C13.0978 6.20484 12.8276 5.66449 12.8662 5.08553C12.8662 4.42938 13.0978 3.85044 13.561 3.46447Z" fill="#DDDDDD"/>
<path d="M26.2591 8.4437C29.1154 8.79107 30.0803 10.0262 29.7329 11.2999C29.6171 12.0718 28.9224 12.6508 28.1504 12.6508H27.803L27.6101 12.5736L27.2627 12.4964L26.9925 12.4192L26.6451 12.342C24.3293 11.6472 22.4766 12.9595 22.4766 15.5455C22.4766 18.1315 24.4451 19.4438 26.9153 18.5561L27.3785 18.3631L27.5715 18.2859C28.382 17.9385 29.3469 18.2859 29.6943 19.0965C29.7715 19.2508 29.8101 19.4052 29.7715 19.5596C29.9645 20.5245 29.2311 21.4123 27.4557 21.9526C26.9925 22.1456 26.5293 22.2228 26.0276 22.2228C22.2064 22.5316 18.8485 19.6368 18.5783 15.8157C18.2695 11.9946 21.1643 8.63668 24.9854 8.3665C25.3714 8.4051 25.796 8.4437 26.2591 8.4437Z" fill="#DDDDDD"/>
<path d="M32.6666 8.59808V6.35947C32.6666 5.31735 33.5157 4.50681 34.5193 4.50681C35.5614 4.50681 36.3719 5.35595 36.3719 6.35947V8.59808H37.5299C37.993 8.59808 38.4562 8.79107 38.765 9.13844C39.4211 9.75599 39.4597 10.7595 38.8808 11.4157C38.8422 11.4543 38.8036 11.4929 38.765 11.5315C38.4176 11.8788 37.993 12.0718 37.5299 12.0718H36.3719V20.3316C36.3719 20.8333 36.1789 21.2965 35.8316 21.6824C35.0982 22.3772 33.9017 22.3772 33.1684 21.6824C32.821 21.3351 32.628 20.8333 32.628 20.3316V12.0718H31.9332C31.4701 12.0718 31.0455 11.9174 30.6981 11.6086C30.042 10.9911 30.0034 9.94897 30.6209 9.29283L30.6981 9.21564C31.0455 8.86827 31.4701 8.67528 31.9332 8.67528L32.6666 8.59808Z" fill="#DDDDDD"/>
<path d="M40.0387 10.2964C40.0773 9.25424 40.965 8.44371 42.0071 8.44371C43.1651 8.36652 43.9756 9.06126 43.8598 9.79461V9.98759C43.937 9.9104 44.0528 9.71741 44.2072 9.64022C45.6353 8.05775 47.3336 8.05774 48.1055 9.17705C48.6459 9.91039 48.5301 10.9139 47.8353 11.4929C47.7582 11.5701 47.5652 11.6859 47.488 11.7631L47.295 11.8402L46.7546 12.0332C46.3686 12.1876 45.9827 12.342 45.5967 12.5736C44.3616 13.2683 44.0142 13.9245 44.0142 14.542V20.2158C44.0142 21.2965 43.1265 22.1456 42.0457 22.1842C41.0422 22.2228 40.1931 21.4123 40.1931 20.4088C40.1931 20.3702 40.1931 20.3316 40.1931 20.3316C40.1931 20.2544 40.0387 10.2964 40.0387 10.2964Z" fill="#DDDDDD"/>
<path d="M49.1863 11.6856C50.3443 9.67851 52.4671 8.44341 54.783 8.40481C58.6041 8.25043 61.8849 11.1452 62.1551 14.9663C62.3866 18.826 59.4146 22.1067 55.5935 22.3383C51.7724 22.5699 48.453 19.5979 48.2214 15.7768V15.4295C48.2214 14.0786 48.5688 12.8049 49.1863 11.6856ZM52.1197 15.9312C52.4671 18.247 53.818 19.212 55.4005 18.8646C56.4812 18.6716 57.369 17.6295 57.5234 15.9312C57.6006 15.5067 57.6006 15.0821 57.5234 14.6961C57.5234 13.3838 56.6742 12.2259 55.4005 11.8399C53.818 11.4926 52.3899 12.4575 52.1197 14.6961V15.9312Z" fill="#DDDDDD"/>
<path d="M63.0426 10.3736C63.1198 9.33146 63.9303 8.48232 65.011 8.40513C65.783 8.25074 66.5163 8.7139 66.7093 9.48584V9.87181C67.3655 9.09987 68.2918 8.59811 69.2954 8.44373C69.9129 8.36653 70.5305 8.36653 71.148 8.44373C73.5797 8.63671 75.4323 10.7595 75.2393 13.2297C75.2393 13.2297 75.2393 13.2297 75.2393 13.2683V20.3702C75.2393 21.4123 74.3902 22.3 73.3095 22.3C72.3446 22.3 71.534 21.6053 71.4182 20.6404V13.8859C71.4182 13.2683 71.148 12.6894 70.7235 12.3034C69.9129 11.4543 68.5234 11.4157 67.6743 12.2262C67.6357 12.2648 67.6357 12.2648 67.5971 12.3034C67.1725 12.728 66.9409 13.3069 66.9795 13.8859V20.3702C66.8637 21.4123 65.9374 22.1842 64.8953 22.107C63.9689 22.0299 63.2742 21.2965 63.1584 20.3702V10.3736H63.0426Z" fill="#DDDDDD"/>
<path d="M87.6676 16.5102C87.7834 17.012 87.9764 17.4366 88.2852 17.8611C89.2501 19.0962 91.1414 19.3664 93.2643 18.3243C94.4994 17.6295 94.8467 17.6295 95.5029 17.8611C95.8503 18.0155 96.1591 18.2857 96.3134 18.6717C96.8538 20.0226 95.1555 22.2998 90.5238 22.2998C86.7799 22.4542 83.6149 19.5594 83.4219 15.8155C83.4219 15.0821 83.4991 14.3874 83.6921 13.6927C84.2325 11.0681 86.2781 9.02241 88.9413 8.52065C91.9133 7.9803 94.8467 9.56278 96.0433 12.3418C96.352 12.9979 96.5064 13.7313 96.5836 14.4646C96.7766 15.9699 96.2363 16.5874 95.0011 16.5874L87.6676 16.5102ZM92.9169 14.1172C92.9169 14.0014 92.8783 13.9242 92.8397 13.847C92.4923 12.0716 91.1414 11.1839 89.7133 11.5312C88.6712 11.84 87.8606 12.6891 87.6676 13.7698V14.04H92.9169V14.1172Z" fill="#DDDDDD"/>
<path d="M98.0505 10.3736C98.1277 9.37005 98.8996 8.52092 99.9032 8.40513C100.675 8.25074 101.408 8.7139 101.601 9.48584V9.87181C102.258 9.09987 103.184 8.59811 104.187 8.44373C104.805 8.36653 105.423 8.36653 106.04 8.44373C108.472 8.63671 110.324 10.7595 110.131 13.2297C110.131 13.2297 110.131 13.2297 110.131 13.2683V20.3702C110.131 21.4123 109.282 22.3 108.202 22.3C107.237 22.3 106.426 21.6053 106.31 20.6404V13.8859C106.31 13.2683 106.04 12.6894 105.616 12.3034C104.805 11.4543 103.416 11.4157 102.566 12.2262C102.528 12.2648 102.528 12.2648 102.489 12.3034C102.065 12.728 101.833 13.3069 101.872 13.8859V20.3702C101.756 21.4123 100.829 22.1842 99.7874 22.107C98.861 22.0299 98.1663 21.2965 98.0505 20.3702V10.3736Z" fill="#DDDDDD"/>
<path d="M115.998 16.5102C116.114 17.012 116.307 17.4366 116.616 17.8611C117.581 19.0962 119.472 19.3664 121.595 18.3243C122.83 17.6295 123.177 17.6295 123.834 17.8611C124.181 18.0155 124.49 18.2857 124.644 18.6717C125.184 20.0226 123.486 22.2998 118.854 22.2998C115.111 22.4542 111.946 19.5594 111.753 15.8155C111.753 15.0821 111.83 14.3874 112.023 13.6927C112.563 11.0681 114.609 9.02241 117.272 8.52065C120.244 7.9803 123.177 9.56278 124.374 12.3418C124.683 12.9979 124.837 13.7313 124.914 14.4646C125.107 15.9699 124.567 16.5874 123.332 16.5874L115.998 16.5102ZM121.248 14.1172C121.248 14.0014 121.209 13.9242 121.17 13.847C120.707 12.0716 119.472 11.1839 118.044 11.5312C117.002 11.84 116.191 12.6891 115.998 13.7698C115.998 13.8856 115.96 13.9628 115.921 14.04H121.248V14.1172Z" fill="#DDDDDD"/>
<path d="M126.381 10.2964C126.42 9.25424 127.307 8.44371 128.35 8.44371C129.507 8.36652 130.318 9.06126 130.202 9.79461V9.98759C130.279 9.9104 130.395 9.71741 130.55 9.64022C132.055 8.05775 133.676 8.05774 134.448 9.17705C134.988 9.91039 134.872 10.9139 134.178 11.4929C134.023 11.6087 133.908 11.6859 133.715 11.7631L133.522 11.8402L132.981 12.0332C132.595 12.1876 132.209 12.342 131.823 12.5736C130.588 13.2683 130.241 13.9245 130.241 14.542V20.2158C130.241 21.2965 129.353 22.1842 128.272 22.1842C127.192 22.1842 126.304 21.2965 126.304 20.2158L126.381 10.2964Z" fill="#DDDDDD"/>
<path d="M143.981 9.7558C144.059 8.94526 144.792 8.36631 145.564 8.4049H145.757C146.799 8.4821 147.648 9.29264 147.725 10.3734V20.3314C147.725 25.3104 144.792 27.9736 139.658 27.4332C138.655 27.356 137.69 27.0858 136.802 26.6227C134.95 25.7349 134.679 24.4998 135.567 23.4963C136.069 22.956 136.841 22.8016 137.536 23.0331L138.346 23.3805C138.5 23.4963 138.693 23.5349 138.886 23.5735C142.167 24.7314 144.059 23.3805 144.059 20.9103V20.37C142.63 22.4156 139.157 22.763 136.686 20.37C134.988 18.5173 134.332 15.9699 134.911 13.5383C135.065 12.612 135.413 11.7628 135.876 10.9523C137.999 7.59437 142.283 7.2084 144.213 9.60141L143.981 9.7558ZM139.195 17.9384C140.083 19.0191 141.665 19.1735 142.746 18.2857C142.939 18.0927 143.094 18.0155 143.209 17.8226C143.673 17.0892 143.904 16.2787 143.904 15.4296C143.904 13.7313 143.287 12.6892 142.322 12.1488C140.623 11.3383 138.771 12.419 138.5 14.7348C138.5 15.005 138.423 15.198 138.423 15.4296C138.385 16.3559 138.655 17.205 139.195 17.9384Z" fill="#DDDDDD"/>
<path d="M149.771 8.59775C150.697 8.17318 151.778 8.55916 152.202 9.44689C152.202 9.48548 152.241 9.52408 152.241 9.56267C152.241 9.63987 152.318 9.75566 152.318 9.83286L154.711 16.2399L157.104 9.83286C157.336 8.82934 158.378 8.17319 159.382 8.44336C160.347 8.67495 160.964 9.60127 160.81 10.5662C160.81 10.7592 160.732 10.9522 160.617 11.1066L154.403 26.3137C154.132 27.3559 153.09 28.012 152.048 27.7418H152.009C151.932 27.7418 151.816 27.6646 151.739 27.6646C150.774 27.2787 150.311 26.1594 150.659 25.1944V25.1172L152.434 21.026L148.42 10.9908C148.343 9.98724 148.844 9.06091 149.771 8.59775Z" fill="#DDDDDD"/>
</svg>
