<svg width="108" height="46" viewBox="0 0 108 46" fill="none" xmlns="http://www.w3.org/2000/svg">
<path fill-rule="evenodd" clip-rule="evenodd" d="M72.4503 1.12894L71.8306 1.45489L71.5171 2.07315L71.2036 2.69117L71.2001 5.61079L71.1964 8.53017L71.5843 11.3045L71.9719 14.0786L72.1935 14.4903L72.415 14.902L72.5622 15.596L72.709 16.2903L73.3495 16.5332L73.9902 16.7762L74.6498 16.4607L75.3097 16.145L75.4778 15.2743L75.6459 14.4036L75.9015 12.9971L76.1572 11.5906L76.3293 7.76388L76.5014 3.93717L76.2229 2.91769L75.9442 1.89821L75.4631 1.46361L74.9818 1.02925L74.0259 0.915874L73.0697 0.802734L72.4503 1.12894ZM81.3124 2.99444L80.5631 3.36152L80.0153 4.20581L79.4676 5.05034L78.6016 7.23483L77.7356 9.41956L77.3002 11.2886L76.8649 13.1576L76.6608 13.4232L76.457 13.6889L76.2896 15.1095L76.1223 16.5302L76.5704 17.0244L77.0187 17.5186H77.4678H77.9169L78.5257 17.2419L79.1341 16.9651L79.4054 16.432L79.6764 15.8988L80.8084 14.1544L81.9401 12.41L82.5004 11.2886L83.0609 10.1672L83.1955 10.0426L83.3304 9.91796L83.9831 8.42277L84.6355 6.92756L84.8001 6.1386L84.9647 5.34963L84.7941 4.4423L84.6235 3.53496L84.0615 3.16764L83.4993 2.80007L82.7806 2.7136L82.0618 2.62712L81.3124 2.99444ZM63.7799 3.06746L63.2326 3.28726L62.812 3.9277L62.3914 4.56839L62.5075 5.74786L62.6237 6.92756L63.3298 8.42277L64.0359 9.91796L65.9303 12.7563L67.8243 15.595L68.258 16.2451L68.6913 16.8956L69.1175 17.2071L69.5433 17.5186H70.0731H70.6026L71.1781 16.9835L71.7539 16.4485L71.5995 15.3266L71.4454 14.2047L71.2378 13.9303L71.03 13.656L70.4568 11.6624L69.8838 9.66876L69.7064 9.41956L69.5293 9.17037L68.9424 7.55056L68.3556 5.93077L68.2147 5.80617L68.0741 5.68157L67.5756 4.7062L67.077 3.73058L66.3267 3.27405L65.5763 2.81751L64.9519 2.83246L64.3274 2.84742L63.7799 3.06746ZM87.8067 8.68492L86.8076 9.27378L86.393 9.78289L85.9781 10.2918H85.7863H85.5942L84.7297 11.2263L83.8652 12.1608L82.2141 14.0534L80.5631 15.9464L79.8762 16.758L79.1893 17.5699V18.2736V18.9776L79.8655 19.5082L80.5414 20.0387L81.1393 19.8889L81.7373 19.7394L82.399 19.2876L83.0609 18.8361L83.7855 18.3641L84.5101 17.8924L85.2842 17.4326L86.0583 16.9728L86.5738 16.4981L87.0896 16.0234H87.2774H87.4655L88.3854 15.1534L89.3054 14.2832L89.4922 14.2812L89.6791 14.279L90.6505 13.3445L91.6218 12.41L91.8999 11.8657L92.1779 11.3212V10.4081V9.49482L91.402 8.77189L90.6262 8.04896L89.716 8.07239L88.8058 8.09606L87.8067 8.68492ZM57.3476 8.54462L56.3627 8.73377L55.7877 9.45046L55.213 10.1672L55.2117 10.6995L55.2105 11.2315L55.5227 11.8286L55.8349 12.4259L56.3345 13.0536L56.834 13.6814L58.6949 15.0933L60.5558 16.5053L62.0242 17.3234L63.4927 18.1416L64.6594 18.8274L65.8261 19.5129L66.4044 19.7619L66.9826 20.0106H67.2276H67.4724L68.0854 19.3988L68.6986 18.7872V18.2761V17.7653L67.0243 15.8352L65.3503 13.9052L65.1465 13.7629L64.9424 13.6208L62.8865 11.6188L60.8305 9.61643L59.6353 8.9573L58.4399 8.29816L58.3864 8.32682L58.3327 8.35548L57.3476 8.54462ZM91.2989 16.3897L89.7955 16.7161L88.8011 17.154L87.8067 17.5918L87.432 17.705L87.0574 17.8178L86.5191 17.8552L85.9811 17.8924L86.0707 18.0369L86.1602 18.1817L84.5696 18.9714L82.9787 19.7614H82.7332H82.4879L81.7128 20.4399L80.9378 21.1182V21.6304V22.1425L81.3267 22.6962L81.7153 23.2502H82.7694H83.8232L85.9399 22.9897L88.0565 22.7293L88.8058 22.505L89.5552 22.281L91.5479 21.8823L93.5409 21.4838L94.6337 20.9393L95.7265 20.3948L96.0754 19.8979L96.4241 19.4013V18.5963V17.7912L96.1399 17.1689L95.8556 16.5467L95.1035 16.285L94.3514 16.0234L93.5769 16.043L92.8023 16.063L91.2989 16.3897ZM52.6525 16.6192L51.9678 16.9187L51.5989 17.4054L51.23 17.8924L51.222 18.8518L51.214 19.8112L52.028 20.6233L52.8421 21.4355L54.2521 21.8444L55.6621 22.2534H56.5396H57.4168L57.5002 22.4774L57.5834 22.7017L60.6237 22.9758L63.664 23.2502H64.9317H66.1993L66.5277 22.447L66.8562 21.6438L66.501 20.9336L66.1458 20.2231L65.7362 20.0801L65.3266 19.937L64.5103 19.6108L63.694 19.2846L63.5111 19.2326L63.3283 19.1805L62.0794 18.631L60.8305 18.0812L59.9563 17.8958L59.0821 17.7102L58.8323 17.5198L58.5825 17.3294L57.2087 16.9481L55.8349 16.5669L54.586 16.4435L53.3371 16.3199L52.6525 16.6192ZM37.9762 17.0618L37.1022 17.3157L36.9771 17.4981L36.8517 17.6808L36.0806 18.1279L35.3095 18.5747L34.9209 19.3549L34.5322 20.1352L34.2707 20.8828L34.0092 21.6304L33.8463 23.1746L33.6835 24.7189L32.6449 24.7944L31.6063 24.87L31.5351 27.4242L31.4639 29.9785L32.0347 30.0062L32.6054 30.0336L33.1639 29.9888L33.7222 29.9439L33.7884 37.7486L33.8543 45.5535L37.039 45.6233L40.2237 45.6931V37.8468V30.0005L42.0346 29.9272L43.8455 29.8539L43.9197 27.8611L43.9936 25.8685L43.8522 25.3068L43.7111 24.7453H41.9674H40.2237L40.2272 24.0601L40.2304 23.3748L40.3791 22.8223L40.5274 22.2698L41.0625 22.0812L41.5975 21.8923L42.9713 21.886L44.3451 21.8796V19.3876V16.8956L41.5975 16.8517L38.8499 16.8081L37.9762 17.0618ZM14.5027 18.8755L13.9969 19.9831V20.2299V20.4768L13.0227 23.4209L12.0488 26.3651L11.866 27.2336L11.6834 28.1023L11.3774 28.6042L11.0717 29.1063L10.6253 30.8507L10.179 32.5951L9.99289 32.8443L9.80655 33.0935L9.26977 35.0871L8.733 37.0807L8.3858 37.8283L8.03861 38.5759L7.60924 40.3203L7.17987 42.0647L6.99203 42.3139L6.8042 42.5631L6.40405 43.9168L6.00391 45.2702V45.4743V45.6781H9.09068H12.1775L12.751 43.4976L13.3242 41.3171L13.5358 41.0804L13.7471 40.8437V40.3891V39.9348L18.0333 40.0029L22.3198 40.0711L23.0291 42.4385L23.7385 44.8059L23.8924 45.242L24.0462 45.6781H27.6391H31.2316V45.2022V44.7262L30.5108 42.5233L29.7899 40.3203L29.2501 38.4513L28.7104 36.5823L28.4736 36.0839L28.237 35.5855L27.6406 33.5919L27.0441 31.5983L26.3772 29.3934L25.7103 27.1888L25.4895 26.7768L25.2684 26.3651L24.7271 24.247L24.1856 22.1288L24.0033 21.8796L23.8207 21.6304L23.3648 19.886L22.9092 18.1416L22.6367 17.9584L22.3645 17.7755L18.6865 17.7715L15.0085 17.7678L14.5027 18.8755ZM52.2131 24.6492L51.8385 24.7892L50.5059 25.397L49.1733 26.0048L48.133 27.0988L47.0926 28.1925L46.5199 29.1188L45.9472 30.0453L45.587 31.5694L45.2268 33.0935L45.223 35.1372L45.2193 37.1809L45.4958 38.5014L45.7723 39.8219L46.5266 41.1537L47.281 42.4851L48.1252 43.3277L48.9697 44.17L50.404 44.9864L51.8385 45.8027L54.9607 45.797L58.0829 45.791L59.5394 45.0053L60.9959 44.2196L62.0882 43.0658L63.1804 41.9122L63.8136 40.6179L64.4471 39.3235L64.6092 38.0775L64.771 36.8315L64.9346 36.5823L65.098 36.3331L65.0475 35.4609L64.9971 34.5887L64.7393 32.8765L64.4815 31.1645L63.8171 29.8098L63.153 28.4552L61.9917 27.2443L60.8305 26.0335L59.4567 25.3514L58.0829 24.6696L55.3354 24.5893L52.5878 24.5094L52.2131 24.6492ZM76.7073 24.6766L76.3486 24.8179L75.5266 25.564L74.7048 26.3101L74.5154 26.8361L74.3264 27.3619L74.1975 26.1159L74.0688 24.87H71.1964H68.3239V35.2117V45.5535H71.4462H74.5684L74.6933 39.6973L74.8182 33.8411L75.2338 33.0853L75.6492 32.3293L76.4682 31.6524L77.2875 30.9753H78.4882H79.6889V27.7357V24.4962L78.3775 24.5158L77.0662 24.5355L76.7073 24.6766ZM88.6809 24.6447L88.3063 24.7807L86.9325 25.4381L85.5587 26.0958L84.7269 26.8533L83.8952 27.6111L83.0324 28.8958L82.1697 30.1801L81.7468 32.0108L81.3237 33.8411L81.3432 35.4609L81.3626 37.0807L81.6706 38.4419L81.9789 39.8028L82.371 40.5601L82.7634 41.3171L83.5365 42.306L84.3098 43.2945L84.8094 43.7451L85.3089 44.1956L86.8076 44.9958L88.3063 45.796L91.4285 45.7992L94.5508 45.8027L96.0994 44.9941L97.6478 44.1854L98.3369 43.4989L99.0261 42.8123L99.973 41.1965L100.92 39.5807V39.0312V38.482L99.8586 38.3534L98.797 38.2251L96.9861 38.1035L95.1752 37.9818V38.4658V38.9497H94.9254H94.6757V39.3096V39.6694L94.1136 40.3084L93.5516 40.9471L92.3584 41.1046L91.1653 41.2621L90.1779 40.818L89.1905 40.3737L88.6859 39.3338L88.1814 38.2941V37.3758V36.4577H94.6757H101.17L101.162 35.6478L101.154 34.8379L100.912 32.9717L100.669 31.1057L99.8948 29.5522L99.1205 27.9987L97.968 26.9695L96.8158 25.9405L95.5584 25.3063L94.301 24.6718L91.6783 24.5904L89.0556 24.5089L88.6809 24.6447ZM19.1031 29.3555L19.4283 30.1031L19.8722 32.0344L20.316 33.9657H20.5283H20.7409V34.2149V34.4641H18.1462H15.5512L15.9394 32.9066L16.3275 31.3491L16.4887 31.2245L16.6498 31.0999L17.2295 28.8571L17.8095 26.6143L17.9551 26.3651L18.1007 26.1159L18.4394 27.3619L18.7779 28.6079L19.1031 29.3555ZM56.7943 29.4936L57.4465 30.0052L57.7407 31.0511L58.035 32.0967L58.059 35.0871L58.0829 38.0775L57.7382 39.261L57.3938 40.4442L56.5848 40.9431L55.776 41.4417H55.1021H54.4284L53.8827 41.1534L53.3371 40.8651L52.9053 40.3737L52.4734 39.8825L52.2808 38.9799L52.0882 38.0775V34.9625V31.8475L52.4267 30.8303L52.7649 29.8131L53.4258 29.4041L54.0865 28.995L55.1143 28.9885L56.1422 28.9817L56.7943 29.4936ZM93.4612 29.5437L94.1201 30.1031L94.3979 30.9502L94.6757 31.7972V32.1339V32.4705H91.4238H88.1719L88.3365 31.7852L88.5014 31.0999L88.8441 30.4209L89.1867 29.7421L89.8706 29.3717L90.5543 29.0017L91.6783 28.993L92.8023 28.9842L93.4612 29.5437Z" fill="#DDDDDD"/>
</svg>
