<svg width="118" height="31" viewBox="0 0 118 31" fill="none" xmlns="http://www.w3.org/2000/svg">
<path d="M13.0412 5.81289V13.756H4.00579V5.81289H0.00292969V25.5021H4.00579V17.5061H13.0412V25.5021H17.0441V5.81289H13.0412ZM35.5687 17.0877C35.5687 20.2893 33.9773 21.9978 31.0856 21.9978C28.1776 21.9978 26.576 20.2405 26.576 16.9515V5.82914H22.5752V17.0877C22.5752 22.6275 25.6582 25.8027 31.0327 25.8027C36.458 25.8027 39.5695 22.5666 39.5695 16.9251V5.81695H35.5687V17.0877ZM81.8244 19.3426L77.3454 5.80273H74.0812L69.6042 19.3426L65.2452 5.81289H60.988L67.8602 25.4939H71.1732L75.6604 12.5656L80.1435 25.4939H83.485L90.3409 5.81289H86.1915L81.8244 19.3426ZM97.5143 17.0267H104.794V13.4411H97.5143V9.41066H108.08V5.82508H93.5664V25.4879H108.461V21.9023H97.5143V17.0267ZM113.225 25.4716H117.172V5.80883H113.225V25.4716ZM51.9912 10.79L54.8443 17.3822H54.8341L55.0274 17.8373H48.9753L49.1666 17.3822H49.1626L51.9912 10.79ZM56.515 21.3883L58.2855 25.4858H62.4796L53.8716 5.92259L53.7942 5.8068H50.2961L41.6066 25.4858H45.6908L47.3677 21.6748L47.4877 21.3883H56.515Z" fill="#DDDDDD"/>
</svg>
