<svg width="21" height="21" viewBox="0 0 21 21" fill="none" xmlns="http://www.w3.org/2000/svg">
<path d="M17.2076 10.7739L8.45759 20.1489C8.36487 20.2479 8.24247 20.314 8.10888 20.3373C7.97528 20.3606 7.83773 20.3398 7.71699 20.278C7.59625 20.2163 7.49886 20.117 7.43953 19.995C7.38019 19.8731 7.36213 19.7352 7.38806 19.602L8.53338 13.8731L4.03103 12.1825C3.93434 12.1463 3.84811 12.0868 3.78005 12.0092C3.71199 11.9315 3.66422 11.8383 3.64101 11.7377C3.61779 11.6371 3.61986 11.5323 3.64702 11.4327C3.67418 11.3331 3.72559 11.2418 3.79666 11.1669L12.5467 1.79189C12.6394 1.69293 12.7618 1.62682 12.8954 1.60353C13.029 1.58023 13.1665 1.60103 13.2873 1.66276C13.408 1.7245 13.5054 1.82384 13.5647 1.94578C13.6241 2.06772 13.6421 2.20566 13.6162 2.33876L12.4677 8.07392L16.9701 9.7622C17.0661 9.79861 17.1516 9.85811 17.2191 9.93542C17.2867 10.0127 17.3341 10.1055 17.3573 10.2055C17.3805 10.3055 17.3786 10.4097 17.352 10.5088C17.3253 10.608 17.2747 10.699 17.2045 10.7739H17.2076Z" fill="#5E5E5E"/>
</svg>
