<svg width="24" height="25" viewBox="0 0 24 25" fill="none" xmlns="http://www.w3.org/2000/svg">
<path d="M15.397 19.6026C15.4523 19.6541 15.4966 19.7162 15.5273 19.7852C15.5581 19.8542 15.5746 19.9287 15.5759 20.0042C15.5773 20.0798 15.5634 20.1548 15.5351 20.2248C15.5068 20.2949 15.4647 20.3585 15.4113 20.4119C15.3579 20.4653 15.2942 20.5074 15.2242 20.5357C15.1542 20.564 15.0791 20.5779 15.0036 20.5766C14.9281 20.5752 14.8536 20.5587 14.7846 20.528C14.7156 20.4972 14.6535 20.4529 14.602 20.3976L7.10201 12.8976C6.99667 12.7922 6.9375 12.6492 6.9375 12.5001C6.9375 12.3511 6.99667 12.2081 7.10201 12.1026L14.602 4.60263C14.7086 4.50327 14.8497 4.44918 14.9954 4.45175C15.1411 4.45432 15.2802 4.51335 15.3832 4.61641C15.4863 4.71947 15.5453 4.85851 15.5479 5.00424C15.5505 5.14996 15.4964 5.291 15.397 5.39763L8.29544 12.5001L15.397 19.6026Z" fill="#282828"/>
</svg>
