<svg width="24" height="25" viewBox="0 0 24 25" fill="none" xmlns="http://www.w3.org/2000/svg">
<path d="M16.8971 12.8976L9.39714 20.3976C9.29051 20.497 9.14948 20.5511 9.00375 20.5485C8.85802 20.5459 8.71898 20.4869 8.61592 20.3838C8.51287 20.2808 8.45383 20.1417 8.45126 19.996C8.44869 19.8503 8.50278 19.7093 8.60214 19.6026L15.7037 12.5001L8.60214 5.39763C8.50278 5.291 8.44869 5.14996 8.45126 5.00424C8.45383 4.85851 8.51287 4.71947 8.61592 4.61641C8.71898 4.51335 8.85802 4.45432 9.00375 4.45175C9.14948 4.44918 9.29051 4.50327 9.39714 4.60263L16.8971 12.1026C17.0025 12.2081 17.0616 12.3511 17.0616 12.5001C17.0616 12.6492 17.0025 12.7922 16.8971 12.8976Z" fill="#282828"/>
</svg>
