<svg width="49" height="49" viewBox="0 0 49 49" fill="none" xmlns="http://www.w3.org/2000/svg">
<path d="M44.0014 24.9524C44.0073 27.1275 43.4218 29.2633 42.3076 31.1314C41.1935 32.9995 39.5926 34.5296 37.676 35.5582C35.7595 36.5867 33.5994 37.075 31.4268 36.9709C29.2542 36.8667 27.1508 36.174 25.3414 34.9668C25.0926 34.7975 24.7986 34.707 24.4977 34.707C24.1967 34.707 23.9027 34.7975 23.6539 34.9668C22.277 35.8905 20.7236 36.5188 19.0918 36.8122C17.4599 37.1055 15.7849 37.0575 14.1725 36.6711C12.5601 36.2848 11.0453 35.5685 9.72359 34.5674C8.40187 33.5664 7.30194 32.3023 6.49318 30.8549C5.68442 29.4075 5.18438 27.8082 5.0246 26.1578C4.86482 24.5075 5.04877 22.842 5.56484 21.2664C6.08092 19.6907 6.91792 18.2391 8.02305 17.003C9.12818 15.767 10.4775 14.7734 11.9858 14.0849C12.3245 13.9269 12.5919 13.648 12.7358 13.3031C13.7067 10.9851 15.341 9.00577 17.4333 7.61373C19.5257 6.22168 21.9827 5.479 24.4958 5.479C27.0089 5.479 29.4659 6.22168 31.5583 7.61373C33.6506 9.00577 35.2849 10.9851 36.2558 13.3031C36.3996 13.648 36.6671 13.9269 37.0058 14.0849C39.0873 15.04 40.8521 16.5707 42.0917 18.4964C43.3313 20.4221 43.9939 22.6623 44.0014 24.9524Z" fill="#FDE614"/>
<path d="M37.6438 12.7241C36.5587 10.1333 34.7322 7.92095 32.3936 6.36503C30.0551 4.80911 27.3089 3.979 24.5001 3.979C21.6912 3.979 18.945 4.80911 16.6065 6.36503C14.2679 7.92095 12.4414 10.1333 11.3563 12.7241C9.02139 13.8058 7.04266 15.5299 5.65144 17.6948C4.26023 19.8596 3.51402 22.3758 3.50005 24.9491C3.47943 32.2278 9.38005 38.2991 16.6513 38.4866C18.8509 38.544 21.031 38.0604 23.0001 37.0784V44.4866C23.0001 44.8844 23.1581 45.2659 23.4394 45.5472C23.7207 45.8285 24.1022 45.9866 24.5001 45.9866C24.8979 45.9866 25.2794 45.8285 25.5607 45.5472C25.842 45.2659 26.0001 44.8844 26.0001 44.4866V37.0784C27.8634 38.0077 29.9178 38.4899 32.0001 38.4866H32.3488C39.6201 38.2991 45.5207 32.2316 45.5 24.9528C45.4875 22.3787 44.7419 19.8615 43.3505 17.6958C41.9592 15.5301 39.9797 13.8055 37.6438 12.7241ZM32.2719 35.4866C30.1058 35.5459 27.9749 34.9299 26.1744 33.7241C26.1157 33.6866 26.0576 33.6509 26.0001 33.6172V25.9128L34.1713 21.8291C34.3476 21.7409 34.5048 21.6189 34.634 21.47C34.7631 21.3211 34.8617 21.1482 34.924 20.9612C34.9863 20.7742 35.0112 20.5768 34.9972 20.3802C34.9833 20.1836 34.9307 19.9916 34.8426 19.8153C34.7544 19.639 34.6324 19.4818 34.4835 19.3527C34.3346 19.2235 34.1617 19.125 33.9747 19.0626C33.7877 19.0003 33.5903 18.9754 33.3937 18.9894C33.197 19.0034 33.0051 19.0559 32.8288 19.1441L26.0001 22.5603V17.4866C26.0001 17.0887 25.842 16.7072 25.5607 16.4259C25.2794 16.1446 24.8979 15.9866 24.5001 15.9866C24.1022 15.9866 23.7207 16.1446 23.4394 16.4259C23.1581 16.7072 23.0001 17.0887 23.0001 17.4866V27.0603L16.1713 23.6441C15.8153 23.466 15.4031 23.4367 15.0254 23.5626C14.6478 23.6885 14.3356 23.9593 14.1576 24.3153C13.9795 24.6714 13.9502 25.0836 14.0761 25.4612C14.202 25.8389 14.4727 26.151 14.8288 26.3291L23.0001 30.4128V33.6116C22.9419 33.6453 22.8838 33.6809 22.8276 33.7184C21.0271 34.9263 18.8955 35.5442 16.7282 35.4866C14.3567 35.4273 12.0752 34.5668 10.2553 33.0452C8.43543 31.5236 7.18441 29.4306 6.70606 27.1071C6.22772 24.7837 6.55024 22.3667 7.62108 20.25C8.69192 18.1332 10.448 16.4415 12.6032 15.4503C13.2848 15.138 13.8237 14.5803 14.1126 13.8884C14.9688 11.8422 16.4108 10.0947 18.2573 8.86567C20.1039 7.63664 22.2725 6.98091 24.4907 6.98091C26.7088 6.98091 28.8775 7.63664 30.724 8.86567C32.5706 10.0947 34.0126 11.8422 34.8688 13.8884C35.1576 14.5803 35.6966 15.138 36.3782 15.4503C38.5334 16.4415 40.2894 18.1332 41.3603 20.25C42.4311 22.3667 42.7536 24.7837 42.2753 27.1071C41.7969 29.4306 40.5459 31.5236 38.726 33.0452C36.9061 34.5668 34.6246 35.4273 32.2532 35.4866H32.2719Z" fill="#282828"/>
</svg>
