<svg width="48" height="49" viewBox="0 0 48 49" fill="none" xmlns="http://www.w3.org/2000/svg">
<path d="M40.5 24.9863C40.5 28.2497 39.5323 31.4398 37.7193 34.1532C35.9062 36.8666 33.3293 38.9815 30.3143 40.2303C27.2993 41.4792 23.9817 41.8059 20.781 41.1693C17.5803 40.5326 14.6403 38.9612 12.3327 36.6536C10.0252 34.346 8.45371 31.406 7.81705 28.2053C7.18039 25.0046 7.50715 21.687 8.756 18.6721C10.0048 15.6571 12.1197 13.0801 14.8331 11.2671C17.5465 9.45404 20.7366 8.48633 24 8.48633C28.3761 8.48633 32.5729 10.2247 35.6673 13.3191C38.7616 16.4134 40.5 20.6103 40.5 24.9863Z" fill="#FDE614"/>
<path d="M22.5 24.9863V9.98633C22.5 9.5885 22.658 9.20697 22.9393 8.92567C23.2206 8.64436 23.6022 8.48633 24 8.48633C24.3978 8.48633 24.7794 8.64436 25.0607 8.92567C25.342 9.20697 25.5 9.5885 25.5 9.98633V24.9863C25.5 25.3842 25.342 25.7657 25.0607 26.047C24.7794 26.3283 24.3978 26.4863 24 26.4863C23.6022 26.4863 23.2206 26.3283 22.9393 26.047C22.658 25.7657 22.5 25.3842 22.5 24.9863ZM33.8194 10.2301C33.4862 10.0195 33.0836 9.94853 32.6985 10.0325C32.3135 10.1164 31.9769 10.3485 31.7616 10.6786C31.5463 11.0087 31.4696 11.4103 31.548 11.7965C31.6264 12.1827 31.8536 12.5226 32.1806 12.7426C36.5138 15.5682 39 20.0307 39 24.9863C39 28.9646 37.4196 32.7799 34.6066 35.5929C31.7936 38.406 27.9782 39.9863 24 39.9863C20.0218 39.9863 16.2064 38.406 13.3934 35.5929C10.5804 32.7799 9 28.9646 9 24.9863C9 20.0307 11.4863 15.5682 15.8194 12.7426C16.1464 12.5226 16.3736 12.1827 16.452 11.7965C16.5304 11.4103 16.4537 11.0087 16.2384 10.6786C16.0231 10.3485 15.6865 10.1164 15.3015 10.0325C14.9164 9.94853 14.5138 10.0195 14.1806 10.2301C8.98125 13.6201 6 18.9976 6 24.9863C6 29.7602 7.89642 34.3386 11.2721 37.7142C14.6477 41.0899 19.2261 42.9863 24 42.9863C28.7739 42.9863 33.3523 41.0899 36.7279 37.7142C40.1036 34.3386 42 29.7602 42 24.9863C42 18.9976 39.0187 13.6201 33.8194 10.2301Z" fill="#282828"/>
</svg>
