<svg width="48" height="49" viewBox="0 0 48 49" fill="none" xmlns="http://www.w3.org/2000/svg">
<path d="M34.5 24.9863C34.5 27.063 33.8842 29.0931 32.7304 30.8198C31.5767 32.5465 29.9368 33.8923 28.0182 34.6871C26.0996 35.4818 23.9884 35.6897 21.9516 35.2846C19.9148 34.8794 18.0438 33.8794 16.5754 32.4109C15.1069 30.9425 14.1069 29.0716 13.7018 27.0348C13.2966 24.998 13.5045 22.8868 14.2993 20.9682C15.094 19.0495 16.4398 17.4097 18.1665 16.2559C19.8932 15.1021 21.9233 14.4863 24 14.4863C26.7848 14.4863 29.4555 15.5926 31.4246 17.5617C33.3938 19.5308 34.5 22.2016 34.5 24.9863Z" fill="#FDE614"/>
<path d="M22.5 8.48633V3.98633C22.5 3.5885 22.658 3.20697 22.9393 2.92567C23.2206 2.64436 23.6022 2.48633 24 2.48633C24.3978 2.48633 24.7794 2.64436 25.0607 2.92567C25.342 3.20697 25.5 3.5885 25.5 3.98633V8.48633C25.5 8.88415 25.342 9.26568 25.0607 9.54699C24.7794 9.82829 24.3978 9.98633 24 9.98633C23.6022 9.98633 23.2206 9.82829 22.9393 9.54699C22.658 9.26568 22.5 8.88415 22.5 8.48633ZM36 24.9863C36 27.3597 35.2962 29.6798 33.9776 31.6532C32.6591 33.6266 30.7849 35.1646 28.5922 36.0729C26.3995 36.9811 23.9867 37.2188 21.6589 36.7558C19.3311 36.2927 17.1929 35.1498 15.5147 33.4716C13.8365 31.7934 12.6936 29.6552 12.2306 27.3274C11.7676 24.9996 12.0052 22.5868 12.9134 20.3941C13.8217 18.2014 15.3598 16.3273 17.3332 15.0087C19.3065 13.6901 21.6266 12.9863 24 12.9863C27.1815 12.9898 30.2318 14.2552 32.4814 16.5049C34.7311 18.7546 35.9965 21.8048 36 24.9863ZM33 24.9863C33 23.2063 32.4722 21.4662 31.4832 19.9862C30.4943 18.5062 29.0887 17.3526 27.4442 16.6714C25.7996 15.9902 23.99 15.812 22.2442 16.1593C20.4984 16.5065 18.8947 17.3637 17.636 18.6224C16.3774 19.881 15.5202 21.4847 15.1729 23.2305C14.8257 24.9763 15.0039 26.7859 15.6851 28.4305C16.3663 30.075 17.5198 31.4806 18.9999 32.4696C20.4799 33.4585 22.22 33.9863 24 33.9863C26.3862 33.9838 28.6739 33.0348 30.3612 31.3475C32.0485 29.6603 32.9975 27.3725 33 24.9863ZM10.9388 14.0476C11.2202 14.329 11.602 14.4872 12 14.4872C12.398 14.4872 12.7798 14.329 13.0613 14.0476C13.3427 13.7661 13.5008 13.3844 13.5008 12.9863C13.5008 12.5883 13.3427 12.2065 13.0613 11.9251L10.0612 8.92508C9.77979 8.64362 9.39805 8.48549 9 8.48549C8.60195 8.48549 8.22021 8.64362 7.93875 8.92508C7.65729 9.20654 7.49917 9.58828 7.49917 9.98633C7.49917 10.3844 7.65729 10.7661 7.93875 11.0476L10.9388 14.0476ZM10.9388 35.9251L7.93875 38.9251C7.65729 39.2065 7.49917 39.5883 7.49917 39.9863C7.49917 40.3844 7.65729 40.7661 7.93875 41.0476C8.22021 41.329 8.60195 41.4872 9 41.4872C9.39805 41.4872 9.77979 41.329 10.0612 41.0476L13.0613 38.0476C13.2006 37.9082 13.3112 37.7428 13.3866 37.5607C13.462 37.3786 13.5008 37.1834 13.5008 36.9863C13.5008 36.7892 13.462 36.5941 13.3866 36.412C13.3112 36.2299 13.2006 36.0644 13.0613 35.9251C12.9219 35.7857 12.7564 35.6752 12.5743 35.5997C12.3923 35.5243 12.1971 35.4855 12 35.4855C11.8029 35.4855 11.6077 35.5243 11.4257 35.5997C11.2436 35.6752 11.0781 35.7857 10.9388 35.9251ZM36 14.4863C36.197 14.4865 36.3922 14.4478 36.5743 14.3725C36.7564 14.2972 36.9218 14.1868 37.0612 14.0476L40.0612 11.0476C40.3427 10.7661 40.5008 10.3844 40.5008 9.98633C40.5008 9.58828 40.3427 9.20654 40.0612 8.92508C39.7798 8.64362 39.398 8.48549 39 8.48549C38.602 8.48549 38.2202 8.64362 37.9388 8.92508L34.9388 11.9251C34.7287 12.1349 34.5857 12.4022 34.5277 12.6934C34.4697 12.9845 34.4994 13.2863 34.6131 13.5605C34.7267 13.8347 34.9191 14.0691 35.166 14.2339C35.4129 14.3987 35.7032 14.4866 36 14.4863ZM37.0612 35.9251C36.7798 35.6436 36.398 35.4855 36 35.4855C35.602 35.4855 35.2202 35.6436 34.9388 35.9251C34.6573 36.2065 34.4992 36.5883 34.4992 36.9863C34.4992 37.3844 34.6573 37.7661 34.9388 38.0476L37.9388 41.0476C38.0781 41.1869 38.2436 41.2975 38.4257 41.3729C38.6077 41.4483 38.8029 41.4872 39 41.4872C39.1971 41.4872 39.3923 41.4483 39.5743 41.3729C39.7564 41.2975 39.9219 41.1869 40.0612 41.0476C40.2006 40.9082 40.3112 40.7428 40.3866 40.5607C40.462 40.3786 40.5008 40.1834 40.5008 39.9863C40.5008 39.7892 40.462 39.5941 40.3866 39.412C40.3112 39.2299 40.2006 39.0644 40.0612 38.9251L37.0612 35.9251ZM9 24.9863C9 24.5885 8.84196 24.207 8.56066 23.9257C8.27936 23.6444 7.89782 23.4863 7.5 23.4863H3C2.60218 23.4863 2.22064 23.6444 1.93934 23.9257C1.65804 24.207 1.5 24.5885 1.5 24.9863C1.5 25.3842 1.65804 25.7657 1.93934 26.047C2.22064 26.3283 2.60218 26.4863 3 26.4863H7.5C7.89782 26.4863 8.27936 26.3283 8.56066 26.047C8.84196 25.7657 9 25.3842 9 24.9863ZM24 39.9863C23.6022 39.9863 23.2206 40.1444 22.9393 40.4257C22.658 40.707 22.5 41.0885 22.5 41.4863V45.9863C22.5 46.3842 22.658 46.7657 22.9393 47.047C23.2206 47.3283 23.6022 47.4863 24 47.4863C24.3978 47.4863 24.7794 47.3283 25.0607 47.047C25.342 46.7657 25.5 46.3842 25.5 45.9863V41.4863C25.5 41.0885 25.342 40.707 25.0607 40.4257C24.7794 40.1444 24.3978 39.9863 24 39.9863ZM45 23.4863H40.5C40.1022 23.4863 39.7206 23.6444 39.4393 23.9257C39.158 24.207 39 24.5885 39 24.9863C39 25.3842 39.158 25.7657 39.4393 26.047C39.7206 26.3283 40.1022 26.4863 40.5 26.4863H45C45.3978 26.4863 45.7794 26.3283 46.0607 26.047C46.342 25.7657 46.5 25.3842 46.5 24.9863C46.5 24.5885 46.342 24.207 46.0607 23.9257C45.7794 23.6444 45.3978 23.4863 45 23.4863Z" fill="#282828"/>
</svg>
