<svg width="49" height="49" viewBox="0 0 49 49" fill="none" xmlns="http://www.w3.org/2000/svg">
<path d="M41 9.98633V39.9863C41 40.3842 40.842 40.7657 40.5607 41.047C40.2794 41.3283 39.8978 41.4863 39.5 41.4863H9.5C9.10218 41.4863 8.72064 41.3283 8.43934 41.047C8.15804 40.7657 8 40.3842 8 39.9863V9.98633C8 9.5885 8.15804 9.20697 8.43934 8.92567C8.72064 8.64436 9.10218 8.48633 9.5 8.48633H39.5C39.8978 8.48633 40.2794 8.64436 40.5607 8.92567C40.842 9.20697 41 9.5885 41 9.98633Z" fill="#FDE614"/>
<path d="M21.5 14.4862C21.5 14.884 21.342 15.2655 21.0607 15.5468C20.7794 15.8281 20.3978 15.9862 20 15.9862H8C7.60218 15.9862 7.22064 15.8281 6.93934 15.5468C6.65804 15.2655 6.5 14.884 6.5 14.4862C6.5 14.0884 6.65804 13.7068 6.93934 13.4255C7.22064 13.1442 7.60218 12.9862 8 12.9862H20C20.3978 12.9862 20.7794 13.1442 21.0607 13.4255C21.342 13.7068 21.5 14.0884 21.5 14.4862ZM20 33.9862H15.5V29.4862C15.5 29.0884 15.342 28.7068 15.0607 28.4255C14.7794 28.1442 14.3978 27.9862 14 27.9862C13.6022 27.9862 13.2206 28.1442 12.9393 28.4255C12.658 28.7068 12.5 29.0884 12.5 29.4862V33.9862H8C7.60218 33.9862 7.22064 34.1442 6.93934 34.4255C6.65804 34.7068 6.5 35.0884 6.5 35.4862C6.5 35.884 6.65804 36.2655 6.93934 36.5468C7.22064 36.8282 7.60218 36.9862 8 36.9862H12.5V41.4862C12.5 41.884 12.658 42.2655 12.9393 42.5468C13.2206 42.8282 13.6022 42.9862 14 42.9862C14.3978 42.9862 14.7794 42.8282 15.0607 42.5468C15.342 42.2655 15.5 41.884 15.5 41.4862V36.9862H20C20.3978 36.9862 20.7794 36.8282 21.0607 36.5468C21.342 36.2655 21.5 35.884 21.5 35.4862C21.5 35.0884 21.342 34.7068 21.0607 34.4255C20.7794 34.1442 20.3978 33.9862 20 33.9862ZM29 33.9862H41C41.3978 33.9862 41.7794 33.8282 42.0607 33.5468C42.342 33.2655 42.5 32.884 42.5 32.4862C42.5 32.0884 42.342 31.7068 42.0607 31.4255C41.7794 31.1442 41.3978 30.9862 41 30.9862H29C28.6022 30.9862 28.2206 31.1442 27.9393 31.4255C27.658 31.7068 27.5 32.0884 27.5 32.4862C27.5 32.884 27.658 33.2655 27.9393 33.5468C28.2206 33.8282 28.6022 33.9862 29 33.9862ZM41 36.9862H29C28.6022 36.9862 28.2206 37.1442 27.9393 37.4255C27.658 37.7068 27.5 38.0884 27.5 38.4862C27.5 38.884 27.658 39.2655 27.9393 39.5468C28.2206 39.8282 28.6022 39.9862 29 39.9862H41C41.3978 39.9862 41.7794 39.8282 42.0607 39.5468C42.342 39.2655 42.5 38.884 42.5 38.4862C42.5 38.0884 42.342 37.7068 42.0607 37.4255C41.7794 37.1442 41.3978 36.9862 41 36.9862ZM29.4387 20.0474C29.5781 20.1869 29.7435 20.2975 29.9256 20.373C30.1077 20.4485 30.3029 20.4874 30.5 20.4874C30.6971 20.4874 30.8923 20.4485 31.0744 20.373C31.2565 20.2975 31.4219 20.1869 31.5613 20.0474L35 16.6068L38.4387 20.0474C38.5781 20.1868 38.7436 20.2974 38.9257 20.3728C39.1077 20.4482 39.3029 20.487 39.5 20.487C39.6971 20.487 39.8923 20.4482 40.0743 20.3728C40.2564 20.2974 40.4219 20.1868 40.5612 20.0474C40.7006 19.9081 40.8112 19.7426 40.8866 19.5605C40.962 19.3784 41.0008 19.1833 41.0008 18.9862C41.0008 18.7891 40.962 18.5939 40.8866 18.4118C40.8112 18.2298 40.7006 18.0643 40.5612 17.9249L37.1206 14.4862L40.5612 11.0474C40.8427 10.766 41.0008 10.3842 41.0008 9.98619C41.0008 9.58814 40.8427 9.2064 40.5612 8.92494C40.2798 8.64347 39.898 8.48535 39.5 8.48535C39.102 8.48535 38.7202 8.64347 38.4387 8.92494L35 12.3656L31.5613 8.92494C31.2798 8.64347 30.898 8.48535 30.5 8.48535C30.102 8.48535 29.7202 8.64347 29.4387 8.92494C29.1573 9.2064 28.9992 9.58814 28.9992 9.98619C28.9992 10.3842 29.1573 10.766 29.4387 11.0474L32.8794 14.4862L29.4387 17.9249C29.2993 18.0642 29.1886 18.2297 29.1132 18.4118C29.0377 18.5939 28.9988 18.7891 28.9988 18.9862C28.9988 19.1833 29.0377 19.3785 29.1132 19.5606C29.1886 19.7427 29.2993 19.9081 29.4387 20.0474Z" fill="#282828"/>
</svg>
