<svg width="33" height="33" viewBox="0 0 33 33" fill="none" xmlns="http://www.w3.org/2000/svg">
<path d="M23.5 16.9585C23.5 18.343 23.0895 19.6963 22.3203 20.8475C21.5511 21.9986 20.4579 22.8958 19.1788 23.4257C17.8997 23.9555 16.4922 24.0941 15.1344 23.824C13.7765 23.5539 12.5292 22.8872 11.5503 21.9082C10.5713 20.9293 9.9046 19.682 9.63451 18.3241C9.36441 16.9663 9.50303 15.5588 10.0328 14.2797C10.5627 13.0006 11.4599 11.9074 12.611 11.1382C13.7622 10.369 15.1155 9.9585 16.5 9.9585C18.3565 9.9585 20.137 10.696 21.4497 12.0087C22.7625 13.3215 23.5 15.102 23.5 16.9585Z" fill="#FDE614"/>
<path d="M15.5 5.9585V2.9585C15.5 2.69328 15.6054 2.43893 15.7929 2.25139C15.9804 2.06385 16.2348 1.9585 16.5 1.9585C16.7652 1.9585 17.0196 2.06385 17.2071 2.25139C17.3946 2.43893 17.5 2.69328 17.5 2.9585V5.9585C17.5 6.22371 17.3946 6.47807 17.2071 6.6656C17.0196 6.85314 16.7652 6.9585 16.5 6.9585C16.2348 6.9585 15.9804 6.85314 15.7929 6.6656C15.6054 6.47807 15.5 6.22371 15.5 5.9585ZM24.5 16.9585C24.5 18.5407 24.0308 20.0875 23.1518 21.4031C22.2727 22.7187 21.0233 23.744 19.5615 24.3495C18.0997 24.955 16.4911 25.1135 14.9393 24.8048C13.3874 24.4961 11.962 23.7342 10.8431 22.6154C9.72433 21.4965 8.9624 20.0711 8.65372 18.5192C8.34504 16.9674 8.50346 15.3588 9.10896 13.897C9.71447 12.4352 10.7398 11.1858 12.0554 10.3067C13.371 9.42769 14.9177 8.9585 16.5 8.9585C18.621 8.96081 20.6545 9.80441 22.1543 11.3042C23.6541 12.804 24.4977 14.8375 24.5 16.9585ZM22.5 16.9585C22.5 15.7718 22.1481 14.6118 21.4888 13.6251C20.8295 12.6384 19.8925 11.8693 18.7961 11.4152C17.6997 10.9611 16.4933 10.8423 15.3295 11.0738C14.1656 11.3053 13.0965 11.8767 12.2574 12.7159C11.4182 13.555 10.8468 14.6241 10.6153 15.788C10.3838 16.9518 10.5026 18.1582 10.9567 19.2546C11.4108 20.351 12.1799 21.288 13.1666 21.9473C14.1533 22.6066 15.3133 22.9585 16.5 22.9585C18.0908 22.9568 19.616 22.3242 20.7408 21.1993C21.8657 20.0745 22.4983 18.5493 22.5 16.9585ZM7.7925 9.666C7.98014 9.85364 8.23464 9.95905 8.5 9.95905C8.76536 9.95905 9.01986 9.85364 9.2075 9.666C9.39514 9.47836 9.50056 9.22386 9.50056 8.9585C9.50056 8.69313 9.39514 8.43864 9.2075 8.251L7.2075 6.251C7.01986 6.06336 6.76536 5.95794 6.5 5.95794C6.23464 5.95794 5.98014 6.06336 5.7925 6.251C5.60486 6.43864 5.49944 6.69313 5.49944 6.9585C5.49944 7.22386 5.60486 7.47836 5.7925 7.666L7.7925 9.666ZM7.7925 24.251L5.7925 26.251C5.60486 26.4386 5.49944 26.6931 5.49944 26.9585C5.49944 27.2239 5.60486 27.4784 5.7925 27.666C5.98014 27.8536 6.23464 27.9591 6.5 27.9591C6.76536 27.9591 7.01986 27.8536 7.2075 27.666L9.2075 25.666C9.30041 25.5731 9.37411 25.4628 9.42439 25.3414C9.47468 25.22 9.50056 25.0899 9.50056 24.9585C9.50056 24.8271 9.47468 24.697 9.42439 24.5756C9.37411 24.4542 9.30041 24.3439 9.2075 24.251C9.11459 24.1581 9.00429 24.0844 8.8829 24.0341C8.7615 23.9838 8.63139 23.9579 8.5 23.9579C8.36861 23.9579 8.2385 23.9838 8.1171 24.0341C7.99571 24.0844 7.88541 24.1581 7.7925 24.251ZM24.5 9.9585C24.6314 9.9586 24.7615 9.93282 24.8829 9.88263C25.0042 9.83244 25.1146 9.75883 25.2075 9.666L27.2075 7.666C27.3951 7.47836 27.5006 7.22386 27.5006 6.9585C27.5006 6.69313 27.3951 6.43864 27.2075 6.251C27.0199 6.06336 26.7654 5.95794 26.5 5.95794C26.2346 5.95794 25.9801 6.06336 25.7925 6.251L23.7925 8.251C23.6525 8.39085 23.5571 8.5691 23.5185 8.76319C23.4798 8.95727 23.4996 9.15846 23.5754 9.34129C23.6511 9.52411 23.7794 9.68035 23.944 9.79022C24.1086 9.90009 24.3021 9.95865 24.5 9.9585ZM25.2075 24.251C25.0199 24.0634 24.7654 23.9579 24.5 23.9579C24.2346 23.9579 23.9801 24.0634 23.7925 24.251C23.6049 24.4386 23.4994 24.6931 23.4994 24.9585C23.4994 25.2239 23.6049 25.4784 23.7925 25.666L25.7925 27.666C25.8854 27.7589 25.9957 27.8326 26.1171 27.8829C26.2385 27.9332 26.3686 27.9591 26.5 27.9591C26.6314 27.9591 26.7615 27.9332 26.8829 27.8829C27.0043 27.8326 27.1146 27.7589 27.2075 27.666C27.3004 27.5731 27.3741 27.4628 27.4244 27.3414C27.4747 27.22 27.5006 27.0899 27.5006 26.9585C27.5006 26.8271 27.4747 26.697 27.4244 26.5756C27.3741 26.4542 27.3004 26.3439 27.2075 26.251L25.2075 24.251ZM6.5 16.9585C6.5 16.6933 6.39464 16.4389 6.20711 16.2514C6.01957 16.0639 5.76522 15.9585 5.5 15.9585H2.5C2.23478 15.9585 1.98043 16.0639 1.79289 16.2514C1.60536 16.4389 1.5 16.6933 1.5 16.9585C1.5 17.2237 1.60536 17.4781 1.79289 17.6656C1.98043 17.8531 2.23478 17.9585 2.5 17.9585H5.5C5.76522 17.9585 6.01957 17.8531 6.20711 17.6656C6.39464 17.4781 6.5 17.2237 6.5 16.9585ZM16.5 26.9585C16.2348 26.9585 15.9804 27.0639 15.7929 27.2514C15.6054 27.4389 15.5 27.6933 15.5 27.9585V30.9585C15.5 31.2237 15.6054 31.4781 15.7929 31.6656C15.9804 31.8531 16.2348 31.9585 16.5 31.9585C16.7652 31.9585 17.0196 31.8531 17.2071 31.6656C17.3946 31.4781 17.5 31.2237 17.5 30.9585V27.9585C17.5 27.6933 17.3946 27.4389 17.2071 27.2514C17.0196 27.0639 16.7652 26.9585 16.5 26.9585ZM30.5 15.9585H27.5C27.2348 15.9585 26.9804 16.0639 26.7929 16.2514C26.6054 16.4389 26.5 16.6933 26.5 16.9585C26.5 17.2237 26.6054 17.4781 26.7929 17.6656C26.9804 17.8531 27.2348 17.9585 27.5 17.9585H30.5C30.7652 17.9585 31.0196 17.8531 31.2071 17.6656C31.3946 17.4781 31.5 17.2237 31.5 16.9585C31.5 16.6933 31.3946 16.4389 31.2071 16.2514C31.0196 16.0639 30.7652 15.9585 30.5 15.9585Z" fill="#282828"/>
</svg>
