<svg width="33" height="33" viewBox="0 0 33 33" fill="none" xmlns="http://www.w3.org/2000/svg">
<path d="M27.5 16.9585C27.5 19.1341 26.8549 21.2608 25.6462 23.0698C24.4375 24.8787 22.7195 26.2886 20.7095 27.1212C18.6995 27.9537 16.4878 28.1716 14.354 27.7471C12.2202 27.3227 10.2602 26.2751 8.72183 24.7367C7.18345 23.1983 6.1358 21.2383 5.71137 19.1045C5.28693 16.9707 5.50477 14.759 6.33733 12.749C7.16989 10.739 8.57979 9.02103 10.3887 7.81233C12.1977 6.60363 14.3244 5.9585 16.5 5.9585C19.4174 5.9585 22.2153 7.11742 24.2782 9.18032C26.3411 11.2432 27.5 14.0411 27.5 16.9585Z" fill="#FDE614"/>
<path d="M17.5007 10.9583V16.392L22.0157 19.1008C22.2432 19.2374 22.407 19.4587 22.4713 19.7161C22.5355 19.9735 22.4948 20.2459 22.3582 20.4733C22.2217 20.7007 22.0003 20.8646 21.7429 20.9288C21.4855 20.993 21.2132 20.9524 20.9857 20.8158L15.9857 17.8158C15.8378 17.7269 15.7153 17.6012 15.6303 17.4509C15.5453 17.3006 15.5007 17.1309 15.5007 16.9583V10.9583C15.5007 10.6931 15.6061 10.4387 15.7936 10.2512C15.9812 10.0637 16.2355 9.95829 16.5007 9.95829C16.766 9.95829 17.0203 10.0637 17.2079 10.2512C17.3954 10.4387 17.5007 10.6931 17.5007 10.9583ZM28.5007 7.95829C28.2355 7.95829 27.9812 8.06365 27.7936 8.25119C27.6061 8.43872 27.5007 8.69308 27.5007 8.95829V11.2083C26.707 10.2883 25.897 9.40204 24.9857 8.47954C23.3181 6.81168 21.1959 5.67224 18.8843 5.20361C16.5727 4.73498 14.1743 4.95794 11.9887 5.84463C9.80316 6.73131 7.92734 8.24241 6.59567 10.1891C5.26399 12.1358 4.53552 14.4317 4.50127 16.7901C4.46701 19.1484 5.1285 21.4646 6.40307 23.4491C7.67765 25.4337 9.50879 26.9986 11.6677 27.9484C13.8266 28.8982 16.2175 29.1907 18.5417 28.7894C20.8659 28.3881 23.0203 27.3108 24.7357 25.692C24.8313 25.6018 24.9081 25.4935 24.9618 25.3736C25.0155 25.2536 25.0451 25.1242 25.0488 24.9928C25.0525 24.8614 25.0303 24.7306 24.9835 24.6078C24.9366 24.485 24.866 24.3726 24.7757 24.277C24.6855 24.1815 24.5772 24.1047 24.4573 24.051C24.3373 23.9973 24.2079 23.9677 24.0765 23.964C23.9451 23.9603 23.8143 23.9825 23.6915 24.0293C23.5687 24.0762 23.4563 24.1468 23.3607 24.237C21.9308 25.5846 20.1355 26.4811 18.1992 26.8145C16.2628 27.1479 14.2711 26.9035 12.4728 26.1117C10.6745 25.3199 9.14927 24.0159 8.08764 22.3626C7.02601 20.7092 6.47499 18.7797 6.50339 16.815C6.53179 14.8503 7.13836 12.9375 8.24734 11.3155C9.35632 9.6935 10.9186 8.43414 12.739 7.69468C14.5594 6.95523 16.5574 6.76846 18.4833 7.1577C20.4093 7.54694 22.1779 8.49493 23.5682 9.88329C24.5857 10.9133 25.477 11.9058 26.3757 12.9583H23.5007C23.2355 12.9583 22.9812 13.0637 22.7936 13.2512C22.6061 13.4387 22.5007 13.6931 22.5007 13.9583C22.5007 14.2235 22.6061 14.4779 22.7936 14.6654C22.9812 14.8529 23.2355 14.9583 23.5007 14.9583H28.5007C28.766 14.9583 29.0203 14.8529 29.2079 14.6654C29.3954 14.4779 29.5007 14.2235 29.5007 13.9583V8.95829C29.5007 8.69308 29.3954 8.43872 29.2079 8.25119C29.0203 8.06365 28.766 7.95829 28.5007 7.95829Z" fill="#282828"/>
</svg>
