<svg width="33" height="33" viewBox="0 0 33 33" fill="none" xmlns="http://www.w3.org/2000/svg">
<path d="M28.5 7.9585V26.9585H4.5V6.9585H27.5C27.7652 6.9585 28.0196 7.06385 28.2071 7.25139C28.3946 7.43893 28.5 7.69328 28.5 7.9585Z" fill="#FDE614"/>
<path d="M29.5 26.9585C29.5 27.2237 29.3946 27.4781 29.2071 27.6656C29.0196 27.8531 28.7652 27.9585 28.5 27.9585H4.5C4.23478 27.9585 3.98043 27.8531 3.79289 27.6656C3.60536 27.4781 3.5 27.2237 3.5 26.9585V6.9585C3.5 6.69328 3.60536 6.43893 3.79289 6.25139C3.98043 6.06385 4.23478 5.9585 4.5 5.9585C4.76522 5.9585 5.01957 6.06385 5.20711 6.25139C5.39464 6.43893 5.5 6.69328 5.5 6.9585V8.54475L12.5 15.5447L15.7925 12.251C15.8854 12.158 15.9957 12.0843 16.1171 12.0339C16.2385 11.9836 16.3686 11.9577 16.5 11.9577C16.6314 11.9577 16.7615 11.9836 16.8829 12.0339C17.0043 12.0843 17.1146 12.158 17.2075 12.251L24.5 19.5447V16.9585C24.5 16.6933 24.6054 16.4389 24.7929 16.2514C24.9804 16.0639 25.2348 15.9585 25.5 15.9585C25.7652 15.9585 26.0196 16.0639 26.2071 16.2514C26.3946 16.4389 26.5 16.6933 26.5 16.9585V21.9585C26.5019 21.9918 26.5019 22.0252 26.5 22.0585C26.5 22.0722 26.5 22.0847 26.4937 22.0985C26.4875 22.1122 26.4938 22.136 26.485 22.156C26.4823 22.1716 26.4785 22.1871 26.4737 22.2022C26.4737 22.2185 26.4662 22.2347 26.4613 22.251C26.4563 22.2672 26.4513 22.2797 26.4463 22.2947L26.4287 22.3435L26.41 22.3822C26.4025 22.3985 26.395 22.416 26.3862 22.4322C26.3775 22.4485 26.3725 22.4547 26.3662 22.4672L26.3363 22.516L26.31 22.551L26.2775 22.5947C26.2638 22.6122 26.2475 22.6285 26.2325 22.6447L26.2125 22.6672L26.1912 22.686C26.1747 22.7024 26.1571 22.7179 26.1388 22.7322C26.126 22.7433 26.1126 22.7538 26.0987 22.7635L26.0613 22.791L26.0138 22.8197C26.0017 22.8276 25.9892 22.8347 25.9762 22.841L25.93 22.8647L25.8875 22.8835L25.8425 22.8997C25.8271 22.9063 25.8112 22.9117 25.795 22.916L25.75 22.9285C25.7325 22.9285 25.7175 22.9372 25.7 22.9397L25.6475 22.9485L25.6038 22.9547C25.5709 22.9566 25.5379 22.9566 25.505 22.9547H20.5C20.2348 22.9547 19.9804 22.8494 19.7929 22.6619C19.6054 22.4743 19.5 22.22 19.5 21.9547C19.5 21.6895 19.6054 21.4352 19.7929 21.2476C19.9804 21.0601 20.2348 20.9547 20.5 20.9547H23.0863L16.5 14.3722L13.2075 17.666C13.1146 17.759 13.0043 17.8327 12.8829 17.8831C12.7615 17.9334 12.6314 17.9593 12.5 17.9593C12.3686 17.9593 12.2385 17.9334 12.1171 17.8831C11.9957 17.8327 11.8854 17.759 11.7925 17.666L5.5 11.3722V25.9585H28.5C28.7652 25.9585 29.0196 26.0639 29.2071 26.2514C29.3946 26.4389 29.5 26.6933 29.5 26.9585Z" fill="#282828"/>
</svg>
