<svg width="78" height="15" viewBox="0 0 78 15" fill="none" xmlns="http://www.w3.org/2000/svg">
<path d="M13.9799 5.60523C13.9317 5.44955 13.8033 5.3361 13.6488 5.31259L9.30878 4.65145L7.36779 0.528726C7.29872 0.381964 7.15613 0.289062 7.00002 0.289062C6.84389 0.289062 6.70132 0.381964 6.63222 0.528726L4.69115 4.65145L0.351171 5.31259C0.196707 5.3361 0.0683281 5.44955 0.020094 5.6052C-0.0281675 5.76088 0.0120823 5.93174 0.12389 6.04597L3.26425 9.25507L2.52302 13.7864C2.49661 13.9478 2.55988 14.1107 2.68618 14.207C2.75763 14.2614 2.84226 14.2891 2.9273 14.2891C2.99259 14.2891 3.05811 14.2728 3.1181 14.2397L6.99999 12.1002L10.8817 14.2396C11.0199 14.3158 11.1874 14.3031 11.3137 14.2069C11.44 14.1107 11.5033 13.9477 11.4769 13.7864L10.7354 9.25507L13.8761 6.04594C13.9879 5.93174 14.0282 5.76087 13.9799 5.60523Z" fill="#FFA800"/>
<path d="M29.9799 5.60523C29.9317 5.44955 29.8033 5.3361 29.6488 5.31259L25.3088 4.65145L23.3678 0.528726C23.2987 0.381964 23.1561 0.289062 23 0.289062C22.8439 0.289062 22.7013 0.381964 22.6322 0.528726L20.6912 4.65145L16.3512 5.31259C16.1967 5.3361 16.0683 5.44955 16.0201 5.6052C15.9718 5.76088 16.0121 5.93174 16.1239 6.04597L19.2643 9.25507L18.523 13.7864C18.4966 13.9478 18.5599 14.1107 18.6862 14.207C18.7576 14.2614 18.8423 14.2891 18.9273 14.2891C18.9926 14.2891 19.0581 14.2728 19.1181 14.2397L23 12.1002L26.8817 14.2396C27.0199 14.3158 27.1874 14.3031 27.3137 14.2069C27.44 14.1107 27.5033 13.9477 27.4769 13.7864L26.7354 9.25507L29.8761 6.04594C29.9879 5.93174 30.0282 5.76087 29.9799 5.60523Z" fill="#FFA800"/>
<path d="M45.9799 5.60523C45.9317 5.44955 45.8033 5.3361 45.6488 5.31259L41.3088 4.65145L39.3678 0.528726C39.2987 0.381964 39.1561 0.289062 39 0.289062C38.8439 0.289062 38.7013 0.381964 38.6322 0.528726L36.6912 4.65145L32.3512 5.31259C32.1967 5.3361 32.0683 5.44955 32.0201 5.6052C31.9718 5.76088 32.0121 5.93174 32.1239 6.04597L35.2643 9.25507L34.523 13.7864C34.4966 13.9478 34.5599 14.1107 34.6862 14.207C34.7576 14.2614 34.8423 14.2891 34.9273 14.2891C34.9926 14.2891 35.0581 14.2728 35.1181 14.2397L39 12.1002L42.8817 14.2396C43.0199 14.3158 43.1874 14.3031 43.3137 14.2069C43.44 14.1107 43.5033 13.9477 43.4769 13.7864L42.7354 9.25507L45.8761 6.04594C45.9879 5.93174 46.0282 5.76087 45.9799 5.60523Z" fill="#FFA800"/>
<path d="M61.9799 5.60523C61.9317 5.44955 61.8033 5.3361 61.6488 5.31259L57.3088 4.65145L55.3678 0.528726C55.2987 0.381964 55.1561 0.289062 55 0.289062C54.8439 0.289062 54.7013 0.381964 54.6322 0.528726L52.6912 4.65145L48.3512 5.31259C48.1967 5.3361 48.0683 5.44955 48.0201 5.6052C47.9718 5.76088 48.0121 5.93174 48.1239 6.04597L51.2643 9.25507L50.523 13.7864C50.4966 13.9478 50.5599 14.1107 50.6862 14.207C50.7576 14.2614 50.8423 14.2891 50.9273 14.2891C50.9926 14.2891 51.0581 14.2728 51.1181 14.2397L55 12.1002L58.8817 14.2396C59.0199 14.3158 59.1874 14.3031 59.3137 14.2069C59.44 14.1107 59.5033 13.9477 59.4769 13.7864L58.7354 9.25507L61.8761 6.04594C61.9879 5.93174 62.0282 5.76087 61.9799 5.60523Z" fill="#FFA800"/>
<path d="M77.9799 5.60523C77.9317 5.44955 77.8033 5.3361 77.6488 5.31259L73.3088 4.65145L71.3678 0.528726C71.2987 0.381964 71.1561 0.289062 71 0.289062C70.8439 0.289062 70.7013 0.381964 70.6322 0.528726L68.6912 4.65145L64.3512 5.31259C64.1967 5.3361 64.0683 5.44955 64.0201 5.6052C63.9718 5.76088 64.0121 5.93174 64.1239 6.04597L67.2643 9.25507L66.523 13.7864C66.4966 13.9478 66.5599 14.1107 66.6862 14.207C66.7576 14.2614 66.8423 14.2891 66.9273 14.2891C66.9926 14.2891 67.0581 14.2728 67.1181 14.2397L71 12.1002L74.8817 14.2396C75.0199 14.3158 75.1874 14.3031 75.3137 14.2069C75.44 14.1107 75.5033 13.9477 75.4769 13.7864L74.7354 9.25507L77.8761 6.04594C77.9879 5.93174 78.0282 5.76087 77.9799 5.60523Z" fill="#FFA800"/>
</svg>
