<svg width="118" height="20" viewBox="0 0 118 20" fill="none" xmlns="http://www.w3.org/2000/svg">
<path d="M20.7708 8.0885C20.7009 7.87889 20.5148 7.72613 20.2908 7.69449L13.9977 6.8043L11.1833 1.25335C11.0831 1.05575 10.8764 0.930664 10.65 0.930664C10.4236 0.930664 10.2169 1.05575 10.1167 1.25335L7.30217 6.8043L1.0092 7.69449C0.785224 7.72613 0.599076 7.87889 0.529136 8.08846C0.459157 8.29807 0.517519 8.52813 0.679641 8.68193L5.23316 13.0028L4.15838 19.1039C4.12008 19.3211 4.21183 19.5406 4.39496 19.6701C4.49856 19.7434 4.62127 19.7807 4.74458 19.7807C4.83926 19.7807 4.93426 19.7587 5.02125 19.7142L10.65 16.8335L16.2785 19.7141C16.4789 19.8167 16.7217 19.7996 16.9048 19.6701C17.088 19.5406 17.1797 19.321 17.1415 19.1038L16.0663 13.0028L20.6204 8.68189C20.7825 8.52813 20.8409 8.29807 20.7708 8.0885Z" fill="#FFA800"/>
<path d="M45.0716 8.0885C45.0017 7.87889 44.8156 7.72613 44.5916 7.69449L38.2985 6.8043L35.4841 1.25335C35.3839 1.05575 35.1772 0.930664 34.9508 0.930664C34.7244 0.930664 34.5177 1.05575 34.4175 1.25335L31.603 6.8043L25.31 7.69449C25.086 7.72613 24.8999 7.87889 24.8299 8.08846C24.7599 8.29807 24.8183 8.52813 24.9804 8.68193L29.5339 13.0028L28.4592 19.1039C28.4209 19.3211 28.5126 19.5406 28.6957 19.6701C28.7993 19.7434 28.9221 19.7807 29.0454 19.7807C29.14 19.7807 29.235 19.7587 29.322 19.7142L34.9508 16.8335L40.5793 19.7141C40.7797 19.8167 41.0225 19.7996 41.2056 19.6701C41.3887 19.5406 41.4805 19.321 41.4423 19.1038L40.3671 13.0028L44.9212 8.68189C45.0832 8.52813 45.1416 8.29807 45.0716 8.0885Z" fill="#FFA800"/>
<path d="M69.3705 8.0885C69.3005 7.87889 69.1144 7.72613 68.8904 7.69449L62.5973 6.8043L59.7829 1.25335C59.6828 1.05575 59.476 0.930664 59.2496 0.930664C59.0232 0.930664 58.8165 1.05575 58.7163 1.25335L55.9018 6.8043L49.6088 7.69449C49.3848 7.72613 49.1987 7.87889 49.1287 8.08846C49.0588 8.29807 49.1171 8.52813 49.2793 8.68193L53.8328 13.0028L52.758 19.1039C52.7197 19.3211 52.8114 19.5406 52.9946 19.6701C53.0982 19.7434 53.2209 19.7807 53.3442 19.7807C53.4389 19.7807 53.5339 19.7587 53.6209 19.7142L59.2496 16.8335L64.8781 19.7141C65.0785 19.8167 65.3213 19.7996 65.5044 19.6701C65.6876 19.5406 65.7794 19.321 65.7411 19.1038L64.6659 13.0028L69.22 8.68189C69.3821 8.52813 69.4405 8.29807 69.3705 8.0885Z" fill="#FFA800"/>
<path d="M93.6712 8.0885C93.6013 7.87889 93.4152 7.72613 93.1912 7.69449L86.8981 6.8043L84.0837 1.25335C83.9835 1.05575 83.7768 0.930664 83.5504 0.930664C83.324 0.930664 83.1173 1.05575 83.0171 1.25335L80.2026 6.8043L73.9096 7.69449C73.6856 7.72613 73.4995 7.87889 73.4295 8.08846C73.3595 8.29807 73.4179 8.52813 73.58 8.68193L78.1336 13.0028L77.0588 19.1039C77.0205 19.3211 77.1122 19.5406 77.2954 19.6701C77.399 19.7434 77.5217 19.7807 77.645 19.7807C77.7397 19.7807 77.8346 19.7587 77.9216 19.7142L83.5504 16.8335L89.1789 19.7141C89.3793 19.8167 89.6221 19.7996 89.8052 19.6701C89.9883 19.5406 90.0801 19.321 90.0419 19.1038L88.9667 13.0028L93.5208 8.68189C93.6829 8.52813 93.7413 8.29807 93.6712 8.0885Z" fill="#FFA800"/>
<path d="M117.97 8.0885C117.9 7.87889 117.714 7.72613 117.49 7.69449L111.197 6.8043L108.383 1.25335C108.282 1.05575 108.076 0.930664 107.849 0.930664C107.623 0.930664 107.416 1.05575 107.316 1.25335L104.501 6.8043L98.2084 7.69449C97.9844 7.72613 97.7983 7.87889 97.7284 8.08846C97.6584 8.29807 97.7167 8.52813 97.8789 8.68193L102.432 13.0028L101.358 19.1039C101.319 19.3211 101.411 19.5406 101.594 19.6701C101.698 19.7434 101.82 19.7807 101.944 19.7807C102.038 19.7807 102.133 19.7587 102.22 19.7142L107.849 16.8335L113.478 19.7141C113.678 19.8167 113.921 19.7996 114.104 19.6701C114.287 19.5406 114.379 19.321 114.341 19.1038L113.266 13.0028L117.82 8.68189C117.982 8.52813 118.04 8.29807 117.97 8.0885Z" fill="#FFA800"/>
</svg>
