<svg width="405" height="64" viewBox="0 0 405 64" fill="none" xmlns="http://www.w3.org/2000/svg">
<path d="M0.0179299 43.5088C-0.0349149 42.1179 0.722529 41.0087 2.00842 40.146C9.23054 35.3395 16.435 30.4978 23.6395 25.6736C31.9186 20.1453 40.1976 14.5993 48.459 9.05338C48.8817 8.77168 49.146 8.75407 49.5687 9.05338C58.4114 14.9867 67.2717 20.92 76.132 26.8533C82.7376 31.2724 89.3609 35.7092 95.9665 40.1107C96.8648 40.7094 97.5694 41.4664 97.8512 42.5228C98.2916 44.1954 97.9746 45.7095 96.6711 46.8715C95.3323 48.0688 93.4827 48.2976 91.9502 47.4349C90.7172 46.7307 89.5546 45.9032 88.3744 45.1285C75.8326 36.748 63.2908 28.3498 50.7489 19.9692C49.5159 19.1417 48.5294 19.1417 47.2788 19.9692C39.7396 25.0046 32.2004 30.04 24.6612 35.093C18.6898 39.0896 12.7183 43.0862 6.74683 47.0828C5.28479 48.0688 3.7523 48.2976 2.14934 47.4525C0.704914 46.6603 -0.0173003 45.4102 0.000314581 43.544L0.0179299 43.5088Z" fill="#FDE614"/>
<path d="M56.5967 4.14131C57.3189 3.06733 58.0059 2.02856 58.7281 1.0074C58.7634 0.954582 59.098 1.00741 59.2213 1.09544C61.4056 2.55675 63.5899 4.01807 65.7741 5.47938C72.8377 10.2331 79.8836 14.9867 86.9472 19.7228C91.1572 22.5574 95.3672 25.392 99.5771 28.2266C99.7004 28.3146 99.8238 28.4027 99.9999 28.5259C99.2601 29.6175 98.5379 30.6915 97.7628 31.8359C84.0584 22.6102 70.354 13.4022 56.5791 4.1237L56.5967 4.14131Z" fill="#FDE614"/>
<path d="M89.1488 33.526C87.7044 33.526 86.489 32.2936 86.5242 30.8675C86.5594 29.4062 87.7572 28.2441 89.2016 28.2441C90.6285 28.2441 91.8615 29.4766 91.8439 30.9027C91.8439 32.364 90.6285 33.5436 89.1488 33.5436V33.526Z" fill="#FDE614"/>
<path d="M57.5664 11.6768C57.5664 10.1979 58.7114 9.03592 60.1735 9.01831C61.6355 9.01831 62.8333 10.1627 62.8509 11.6064C62.8685 13.0677 61.6707 14.2826 60.1911 14.2826C58.7114 14.2826 57.5488 13.1382 57.5488 11.6592L57.5664 11.6768Z" fill="#FDE614"/>
<rect y="55.9727" width="405" height="8" rx="4" fill="#FDE614"/>
</svg>
