<svg width="114" height="19" viewBox="0 0 114 19" fill="none" xmlns="http://www.w3.org/2000/svg">
<path d="M10.8357 10.2451L13.5334 13.6712C12.8348 14.3549 12.0099 14.8826 11.066 15.2393C10.1222 15.596 9.1189 15.7744 8.04128 15.7744C6.96366 15.7744 5.94549 15.596 4.97935 15.2393C4.01321 14.8826 3.15854 14.3698 2.42279 13.6935C1.68704 13.0172 1.09992 12.1997 0.661436 11.2409C0.222956 10.2822 0 9.18975 0 7.98579C0 6.78182 0.222956 5.68934 0.661436 4.73063C1.09992 3.77192 1.69446 2.94698 2.43765 2.27811C3.18084 1.60181 4.0355 1.08901 5.00164 0.732283C5.96779 0.375553 6.98595 0.197187 8.04128 0.197187C9.22295 0.197187 10.2857 0.427579 11.2295 0.880923C12.1734 1.33427 12.9389 1.96597 13.526 2.77605L10.8282 5.7265C10.5012 5.34004 10.0999 5.00561 9.6317 4.71576C9.16349 4.42592 8.63583 4.28471 8.04128 4.28471C7.63253 4.28471 7.22377 4.36646 6.82245 4.52253C6.42113 4.6786 6.07184 4.91643 5.76713 5.236C5.46242 5.55557 5.2246 5.94202 5.0388 6.4028C4.85301 6.86358 4.76382 7.39867 4.76382 8.00065C4.76382 8.60263 4.85301 9.13772 5.0388 9.5985C5.2246 10.0593 5.46985 10.4457 5.76713 10.7653C6.07184 11.0849 6.42113 11.3227 6.82245 11.4788C7.22377 11.6348 7.62509 11.7166 8.04128 11.7166C8.67299 11.7166 9.21552 11.5902 9.66886 11.345C10.1222 11.0997 10.5087 10.743 10.8208 10.2748L10.8357 10.2451Z" fill="white"/>
<path d="M21.3304 0.182129C22.4006 0.182129 23.4262 0.360495 24.3923 0.717224C25.3585 1.07395 26.2131 1.58675 26.9489 2.26305C27.6846 2.93935 28.2718 3.75686 28.7102 4.71557C29.1487 5.67428 29.3717 6.76676 29.3717 7.97072C29.3717 9.17468 29.1487 10.2672 28.7102 11.2259C28.2718 12.1846 27.6846 13.0095 26.9489 13.6784C26.2131 14.3547 25.3585 14.8675 24.3923 15.2242C23.4262 15.581 22.4006 15.7593 21.3304 15.7593C20.2602 15.7593 19.2346 15.581 18.2685 15.2242C17.3023 14.8675 16.4477 14.3547 15.7119 13.6784C14.9761 13.0021 14.389 12.1846 13.9505 11.2259C13.5121 10.2672 13.2891 9.17468 13.2891 7.97072C13.304 6.75933 13.5269 5.67428 13.9728 4.71557C14.4113 3.75686 14.9984 2.93192 15.7342 2.26305C16.4699 1.58675 17.3172 1.07395 18.2833 0.717224C19.242 0.360495 20.2602 0.182129 21.3378 0.182129H21.3304ZM18.0529 7.97816C18.0529 8.58014 18.1421 9.11523 18.3279 9.57601C18.5137 10.0368 18.759 10.4232 19.0562 10.7428C19.3609 11.0624 19.7102 11.3002 20.1116 11.4563C20.5129 11.6123 20.9142 11.6941 21.3304 11.6941C21.7466 11.6941 22.1628 11.6123 22.5566 11.4563C22.9505 11.3002 23.2924 11.0624 23.5971 10.7428C23.9018 10.4232 24.1471 10.0368 24.3329 9.57601C24.5187 9.11523 24.6078 8.58014 24.6078 7.97816C24.6078 7.37617 24.5187 6.84108 24.3329 6.3803C24.1471 5.91953 23.9018 5.53307 23.5971 5.2135C23.2924 4.89393 22.9505 4.66354 22.5566 4.50004C22.1628 4.34397 21.754 4.26222 21.3304 4.26222C20.9068 4.26222 20.5129 4.34397 20.1116 4.50004C19.7102 4.65611 19.3609 4.89393 19.0562 5.2135C18.7515 5.53307 18.5137 5.91953 18.3279 6.3803C18.1421 6.84108 18.0529 7.37617 18.0529 7.97816Z" fill="white"/>
<path d="M31.2285 15.4025V0.553633H35.8065V5.85255H38.9577V0.553633H43.5357V15.4025H38.9577V9.56848H35.8065V15.4025H31.2285Z" fill="white"/>
<path d="M46.5088 0.553742H51.0868V11.6867H54.2454V0.553742H58.8234V11.6867H60.3098V17.3795L56.4155 18.1821V15.3952H46.5162V0.546308L46.5088 0.553742Z" fill="white"/>
<path d="M61.9742 15.4025V0.553633H71.9552L71.1526 4.26213H66.4928V6.03835H70.781L70.0155 9.56848H66.4854V11.694H71.9478L71.1451 15.4099H61.9668L61.9742 15.4025Z" fill="white"/>
<path d="M73.8146 15.4025V0.553636H84.7023L83.8996 4.26214H78.3332V6.1424H80.0648C80.8377 6.1424 81.5511 6.22415 82.2126 6.38022C82.874 6.53629 83.4463 6.79641 83.9368 7.1457C84.4273 7.495 84.8063 7.95577 85.0887 8.52802C85.3711 9.10028 85.5123 9.80631 85.5123 10.6387C85.5123 11.5454 85.3711 12.3034 85.0887 12.9203C84.8063 13.5297 84.4199 14.0202 83.9368 14.3918C83.4463 14.7634 82.874 15.0235 82.2126 15.1721C81.5511 15.3208 80.8377 15.4025 80.0648 15.4025H73.8146ZM78.3332 9.48674V11.8798H79.1581C79.7601 11.8798 80.1911 11.7683 80.4364 11.5528C80.6816 11.3298 80.808 11.0326 80.808 10.6461C80.808 10.3265 80.6816 10.059 80.4364 9.8286C80.1911 9.59821 79.7601 9.48674 79.1581 9.48674H78.3332Z" fill="white"/>
<path d="M99.5499 0.553633L94.8083 12.125C94.3401 13.2696 93.7753 14.1614 93.1064 14.808C92.4376 15.4545 91.5309 15.7741 90.3715 15.7741C89.7695 15.7741 89.2642 15.7369 88.8628 15.67C88.4615 15.6032 88.1122 15.514 87.8075 15.4025L88.7959 11.6717C88.9743 11.7832 89.1973 11.8724 89.4574 11.9467C89.7175 12.021 89.9479 12.0582 90.1411 12.0582C90.483 12.0582 90.7059 11.969 90.8025 11.7832C90.8992 11.5974 90.8917 11.3967 90.7803 11.1738L85.9941 0.553633H90.6762L93.047 6.53629L94.8826 0.553633H99.5499Z" fill="white"/>
<path d="M113.692 17.3795L109.798 18.1821V15.3952H102.351V18.1821L98.457 17.3795V11.6867H99.1185C99.3266 11.6867 99.5124 11.6049 99.6833 11.4489C99.8542 11.2928 100.003 11.0773 100.129 10.8171C100.256 10.557 100.352 10.2523 100.419 9.91046C100.486 9.56859 100.523 9.20444 100.523 8.81798V0.546308H112.213V11.6792H113.7V17.3721L113.692 17.3795ZM107.628 4.26224H104.841V9.15241C104.841 9.93276 104.774 10.505 104.648 10.8617C104.514 11.2185 104.358 11.4934 104.165 11.6867H107.628V4.26224Z" fill="white"/>
</svg>
