<svg width="47" height="48" viewBox="0 0 47 48" fill="none" xmlns="http://www.w3.org/2000/svg">
<path d="M23.3207 28.7589H14.9475C14.9475 28.6656 14.9475 28.5923 14.9475 28.5123C14.9475 27.3723 14.9475 26.2323 14.9475 25.0923C14.9475 24.539 14.5541 24.1323 14.0408 24.1256C13.5275 24.1256 13.1275 24.5123 13.1275 25.0323C13.1275 26.1856 13.1275 27.3389 13.1275 28.4923C13.1275 28.5723 13.1275 28.6589 13.1275 28.7723C12.9208 28.7723 12.7342 28.7589 12.5475 28.7723C12.1475 28.8056 11.7409 28.8056 11.3609 28.9122C10.2475 29.2256 9.44088 30.2789 9.41422 31.4322C9.40088 31.9655 9.39422 32.5122 9.48088 33.0389C9.63421 33.9589 10.2142 34.5922 11.0475 34.9855C11.2209 35.0655 11.2742 35.1588 11.2742 35.3455C11.2675 36.9055 11.2675 38.4721 11.2742 40.0321C11.2809 41.9854 12.6475 43.8054 14.5208 44.3654C14.6608 44.4054 14.8075 44.4387 14.9608 44.4787V47.372C14.8875 47.372 14.8208 47.3854 14.7475 47.3854C12.3808 47.3854 10.0142 47.3854 7.64757 47.3854C6.24759 47.3854 5.14093 46.532 4.82094 45.2054C4.76761 44.9787 4.75427 44.7321 4.75427 44.4921C4.75427 38.0788 4.75427 31.6722 4.75427 25.259C4.75427 25.1256 4.79427 25.0456 4.90094 24.9723C9.59421 21.8323 14.2875 18.6924 18.9808 15.5457C19.1141 15.4591 19.1941 15.4724 19.3208 15.5524C22.6741 17.8057 26.034 20.059 29.3873 22.3057C30.7139 23.1923 32.0339 24.079 33.3606 24.959C33.4806 25.039 33.5339 25.119 33.5339 25.2723C33.5339 31.6722 33.5206 38.0655 33.5339 44.4654C33.5339 45.812 32.6606 46.992 31.3806 47.292C31.1339 47.352 30.8806 47.3787 30.6273 47.3787C28.2606 47.3787 25.894 47.3787 23.5274 47.3854C23.354 47.3854 23.294 47.352 23.294 47.1654C23.3074 46.3387 23.3007 45.5054 23.294 44.6787C23.294 44.5321 23.334 44.4654 23.4807 44.4254C25.3273 43.9587 26.674 42.4721 26.954 40.5921C26.9873 40.3654 27.0007 40.1254 27.0007 39.8921C27.0007 38.3521 27.0007 36.8055 27.0007 35.2655C27.0007 35.1388 27.0407 35.0722 27.154 35.0188C28.214 34.5388 28.7873 33.7122 28.854 32.5589C28.8873 31.9655 28.914 31.3656 28.7406 30.7856C28.4273 29.7056 27.4207 28.7723 26.0207 28.7789C25.8073 28.7789 25.594 28.7656 25.3807 28.7789C25.194 28.7923 25.1407 28.7389 25.1407 28.5456C25.1474 27.3989 25.1407 26.2523 25.1407 25.1056C25.1407 24.699 24.9807 24.3923 24.6007 24.219C24.0074 23.9456 23.3207 24.379 23.314 25.0323C23.314 26.1923 23.314 27.3523 23.314 28.5123C23.314 28.5923 23.314 28.6656 23.314 28.7656L23.3207 28.7589Z" fill="white"/>
<path d="M19.1341 33.4255C16.8341 33.4255 14.5341 33.4255 12.2342 33.4255C11.6408 33.4255 11.2608 33.0655 11.2408 32.4722C11.2275 32.1522 11.2275 31.8389 11.2408 31.5189C11.2608 30.9922 11.6608 30.6122 12.1875 30.6122C16.8208 30.6122 21.454 30.6122 26.0873 30.6122C26.6006 30.6122 27.0006 30.9922 27.0206 31.5055C27.034 31.8389 27.034 32.1789 27.0206 32.5189C27.0073 33.0389 26.6006 33.4255 26.074 33.4255C23.7607 33.4255 21.4474 33.4255 19.1341 33.4255Z" fill="white"/>
<path d="M0.581005 22.5923C0.561005 22.0657 0.847669 21.6457 1.33433 21.319C4.06763 19.499 6.79426 17.6657 9.52089 15.8391C12.6542 13.7458 15.7875 11.6458 18.9141 9.54582C19.0741 9.43915 19.1741 9.43249 19.3341 9.54582C22.6807 11.7925 26.034 14.0391 29.3873 16.2857C31.8873 17.959 34.3939 19.639 36.8939 21.3057C37.2339 21.5323 37.5005 21.819 37.6072 22.219C37.7739 22.8523 37.6539 23.4256 37.1606 23.8656C36.6539 24.319 35.9539 24.4056 35.3739 24.079C34.9072 23.8123 34.4673 23.499 34.0206 23.2057C29.274 20.0324 24.5274 16.8524 19.7808 13.6791C19.3141 13.3658 18.9408 13.3658 18.4675 13.6791C15.6142 15.5857 12.7609 17.4924 9.90756 19.4057C7.64758 20.919 5.38761 22.4323 3.12764 23.9456C2.57431 24.319 1.99432 24.4056 1.38766 24.0856C0.841002 23.7856 0.567671 23.3123 0.574338 22.6057L0.581005 22.5923Z" fill="white"/>
<path d="M21.994 7.68584C22.2673 7.27918 22.5273 6.88585 22.8006 6.49919C22.814 6.47919 22.9406 6.49919 22.9873 6.53253C23.8139 7.08585 24.6406 7.63918 25.4673 8.1925C28.1406 9.99248 30.8072 11.7925 33.4805 13.5858C35.0738 14.6591 36.6671 15.7324 38.2604 16.8057C38.3071 16.8391 38.3538 16.8724 38.4204 16.9191C38.1404 17.3324 37.8671 17.7391 37.5738 18.1724C32.3872 14.6791 27.2006 11.1925 21.9873 7.67918L21.994 7.68584Z" fill="white"/>
<path d="M34.3139 18.8124C33.7673 18.8124 33.3073 18.3457 33.3206 17.8057C33.3339 17.2524 33.7873 16.8124 34.3339 16.8124C34.8739 16.8124 35.3406 17.2791 35.3339 17.8191C35.3339 18.3724 34.8739 18.819 34.3139 18.819V18.8124Z" fill="white"/>
<path d="M22.3607 10.5391C22.3607 9.97915 22.794 9.53916 23.3473 9.53249C23.9007 9.53249 24.354 9.96582 24.3606 10.5125C24.3673 11.0658 23.914 11.5258 23.354 11.5258C22.794 11.5258 22.354 11.0925 22.354 10.5325L22.3607 10.5391Z" fill="white"/>
<path d="M13.1008 35.2655H13.3608C17.2074 35.2655 21.0607 35.2655 24.9073 35.2655C25.0895 35.2655 25.1806 35.3566 25.1806 35.5388C25.1806 36.9655 25.1806 38.3921 25.1806 39.8188C25.1806 41.2321 24.314 42.3454 22.974 42.6587C22.7607 42.7054 22.5407 42.7254 22.3207 42.7254C20.2007 42.7254 18.0807 42.7254 15.9607 42.7254C14.3541 42.7254 13.1208 41.5521 13.0875 39.9521C13.0608 38.4321 13.0808 36.9055 13.0875 35.3855C13.0875 35.3588 13.0874 35.3322 13.1008 35.2722V35.2655Z" fill="white"/>
<path d="M21.4474 44.5787V47.3787C21.3807 47.3787 21.3141 47.392 21.2407 47.392C19.8341 47.392 18.4274 47.392 17.0208 47.392C16.8474 47.392 16.8008 47.3454 16.8008 47.172C16.8074 46.372 16.8008 45.5787 16.8008 44.7787C16.8008 44.7121 16.8008 44.6521 16.8008 44.5787H21.4474Z" fill="white"/>
<path d="M41.3538 9.75255C39.6605 9.75921 38.2405 8.37256 38.2005 6.72592C38.1671 5.06594 39.4205 3.48596 41.3538 3.48596C43.1604 3.48596 44.4537 4.92594 44.4737 6.53259C44.5004 8.33923 43.1204 9.74588 41.3471 9.75255H41.3538Z" fill="white"/>
<path d="M36.5938 6.23259C36.7471 6.23259 36.9071 6.23259 37.0605 6.23259C37.3271 6.23926 37.5071 6.39925 37.5071 6.61925C37.5071 6.83925 37.3271 7.00591 37.0671 7.01258C36.7472 7.01258 36.4338 7.01258 36.1138 7.01258C35.8472 7.01258 35.6738 6.85258 35.6738 6.62592C35.6738 6.39259 35.8405 6.24592 36.1072 6.23259C36.1072 6.23259 36.1205 6.23259 36.1272 6.23259C36.2805 6.23259 36.4405 6.23259 36.5938 6.23259Z" fill="white"/>
<path d="M46.0937 7.01258C45.927 7.01258 45.7537 7.01258 45.587 7.01258C45.347 6.99925 45.1804 6.83925 45.1737 6.63259C45.1737 6.41926 45.3404 6.23926 45.587 6.23926C45.9204 6.23259 46.2604 6.23259 46.5937 6.23926C46.8403 6.23926 47.0003 6.40592 47.0003 6.61926C47.0003 6.83925 46.8404 6.99925 46.587 7.01925C46.5737 7.01925 46.5604 7.01925 46.547 7.01925C46.3937 7.01925 46.2337 7.01925 46.0804 7.01925L46.0937 7.01258Z" fill="white"/>
<path d="M38.7405 9.67255C38.7139 9.71921 38.6739 9.82588 38.6072 9.89921C38.3739 10.1459 38.1339 10.3792 37.8939 10.6125C37.7139 10.7859 37.5005 10.7925 37.3405 10.6392C37.1872 10.4925 37.1805 10.2592 37.3405 10.0859C37.5805 9.83255 37.8272 9.58588 38.0805 9.34588C38.2005 9.23255 38.3472 9.18589 38.5072 9.25922C38.6539 9.33255 38.7338 9.44588 38.7405 9.67255Z" fill="white"/>
<path d="M43.9537 3.57262C43.9804 3.53262 44.0204 3.42596 44.0871 3.34596C44.3204 3.0993 44.5537 2.86597 44.8004 2.63264C44.9804 2.4593 45.1937 2.45931 45.3537 2.61264C45.5071 2.7593 45.5071 2.9993 45.3471 3.16596C45.1071 3.41929 44.8537 3.66596 44.6071 3.90595C44.4871 4.02595 44.3404 4.05928 44.1804 3.98595C44.0337 3.91929 43.9537 3.79929 43.9604 3.56596L43.9537 3.57262Z" fill="white"/>
<path d="M38.7738 3.68596C38.6938 3.77929 38.6338 3.92595 38.5271 3.96595C38.4138 4.01262 38.2204 4.00595 38.1404 3.93929C37.8405 3.68596 37.5671 3.39929 37.3005 3.11263C37.1671 2.97263 37.2071 2.73263 37.3471 2.60597C37.4938 2.47264 37.6938 2.4593 37.8404 2.5993C38.1204 2.8593 38.3871 3.13263 38.6471 3.40596C38.7004 3.46596 38.7204 3.56596 38.7738 3.69262V3.68596Z" fill="white"/>
<path d="M45.4937 10.3992C45.4137 10.4992 45.3537 10.6259 45.247 10.6992C45.1203 10.7992 44.9604 10.7725 44.8537 10.6659C44.567 10.3925 44.287 10.1192 44.0204 9.83254C43.887 9.69255 43.9204 9.47255 44.0604 9.33922C44.2004 9.19922 44.4004 9.16589 44.547 9.30589C44.8337 9.57255 45.107 9.85921 45.3803 10.1392C45.427 10.1925 45.4403 10.2725 45.4937 10.3925V10.3992Z" fill="white"/>
<path d="M41.7205 1.86598C41.7205 2.04598 41.7205 2.22597 41.7205 2.40597C41.7205 2.62597 41.5538 2.78597 41.3405 2.78597C41.1272 2.78597 40.9672 2.62597 40.9672 2.40597C40.9672 2.05264 40.9672 1.69265 40.9672 1.33932C40.9672 1.10599 41.1138 0.972656 41.3472 0.972656C41.5805 0.972656 41.7138 1.11265 41.7205 1.34598C41.7205 1.34598 41.7205 1.35932 41.7205 1.36598C41.7205 1.53265 41.7205 1.69931 41.7205 1.87264V1.86598Z" fill="white"/>
<path d="M41.7205 11.3725C41.7205 11.5525 41.7205 11.7325 41.7205 11.9192C41.7205 12.1525 41.5738 12.2792 41.3338 12.2792C41.1072 12.2792 40.9738 12.1459 40.9672 11.9192C40.9672 11.5659 40.9672 11.2059 40.9672 10.8525C40.9672 10.6259 41.1272 10.4725 41.3472 10.4725C41.5672 10.4725 41.7138 10.6259 41.7205 10.8525C41.7205 11.0259 41.7205 11.1992 41.7205 11.3792V11.3725Z" fill="white"/>
</svg>
