<svg width="20" height="21" viewBox="0 0 20 21" fill="none" xmlns="http://www.w3.org/2000/svg">
<g clip-path="url(#clip0_318_2714)">
<path d="M14.3668 0.644531H10.914V14.2677C10.914 15.8909 9.58602 17.2243 7.9334 17.2243C6.28077 17.2243 4.95278 15.8909 4.95278 14.2677C4.95278 12.6735 6.25127 11.3691 7.84488 11.3112V7.89092C4.33305 7.94886 1.5 10.7605 1.5 14.2677C1.5 17.804 4.39207 20.6445 7.96292 20.6445C11.5337 20.6445 14.4258 17.775 14.4258 14.2677V7.2822C15.7243 8.20975 17.3179 8.76048 19 8.78948V5.36917C16.4031 5.28221 14.3668 3.19525 14.3668 0.644531Z" fill="#F3F3F3"/>
</g>
<defs>
<clipPath id="clip0_318_2714">
<rect width="20" height="20" fill="white" transform="translate(0 0.644531)"/>
</clipPath>
</defs>
</svg>
